<?xml version="1.0" encoding="UTF-8"?>
<!--Generator: Apple Native CoreSVG 123-->
<!DOCTYPE svg
PUBLIC "-//W3C//DTD SVG 1.1//EN"
       "http://www.w3.org/Graphics/SVG/1.1/DTD/svg11.dtd">
<svg version="1.1" xmlns="http://www.w3.org/2000/svg" xmlns:xlink="http://www.w3.org/1999/xlink" width="3300" height="2200">
 <!--glyph: "uni100192.medium", point size: 100.000000, font version: "Version 15.0d7e11", template writer version: "5"-->
 <g id="Notes">
  <rect height="2200" id="artboard" style="fill:white;opacity:1" width="3300" x="0" y="0"/>
  <line id="" style="fill:none;stroke:black;opacity:1;stroke-width:0.5;" x1="263" x2="3036" y1="292" y2="292"/>
  <text style="stroke:none;fill:black;font-family:-apple-system,&quot;SF Pro Display&quot;,&quot;SF Pro Text&quot;,Helvetica,sans-serif;font-weight:bold;" transform="matrix(1 0 0 1 263 322)">Weight/Scale Variations</text>
  <text style="stroke:none;fill:black;font-family:-apple-system,&quot;SF Pro Display&quot;,&quot;SF Pro Text&quot;,Helvetica,sans-serif;text-anchor:middle;" transform="matrix(1 0 0 1 559.711 322)">Ultralight</text>
  <text style="stroke:none;fill:black;font-family:-apple-system,&quot;SF Pro Display&quot;,&quot;SF Pro Text&quot;,Helvetica,sans-serif;text-anchor:middle;" transform="matrix(1 0 0 1 856.422 322)">Thin</text>
  <text style="stroke:none;fill:black;font-family:-apple-system,&quot;SF Pro Display&quot;,&quot;SF Pro Text&quot;,Helvetica,sans-serif;text-anchor:middle;" transform="matrix(1 0 0 1 1153.13 322)">Light</text>
  <text style="stroke:none;fill:black;font-family:-apple-system,&quot;SF Pro Display&quot;,&quot;SF Pro Text&quot;,Helvetica,sans-serif;text-anchor:middle;" transform="matrix(1 0 0 1 1449.84 322)">Regular</text>
  <text style="stroke:none;fill:black;font-family:-apple-system,&quot;SF Pro Display&quot;,&quot;SF Pro Text&quot;,Helvetica,sans-serif;text-anchor:middle;" transform="matrix(1 0 0 1 1746.56 322)">Medium</text>
  <text style="stroke:none;fill:black;font-family:-apple-system,&quot;SF Pro Display&quot;,&quot;SF Pro Text&quot;,Helvetica,sans-serif;text-anchor:middle;" transform="matrix(1 0 0 1 2043.27 322)">Semibold</text>
  <text style="stroke:none;fill:black;font-family:-apple-system,&quot;SF Pro Display&quot;,&quot;SF Pro Text&quot;,Helvetica,sans-serif;text-anchor:middle;" transform="matrix(1 0 0 1 2339.98 322)">Bold</text>
  <text style="stroke:none;fill:black;font-family:-apple-system,&quot;SF Pro Display&quot;,&quot;SF Pro Text&quot;,Helvetica,sans-serif;text-anchor:middle;" transform="matrix(1 0 0 1 2636.69 322)">Heavy</text>
  <text style="stroke:none;fill:black;font-family:-apple-system,&quot;SF Pro Display&quot;,&quot;SF Pro Text&quot;,Helvetica,sans-serif;text-anchor:middle;" transform="matrix(1 0 0 1 2933.4 322)">Black</text>
  <line id="" style="fill:none;stroke:black;opacity:1;stroke-width:0.5;" x1="263" x2="3036" y1="1903" y2="1903"/>
  <g id="" transform="matrix(1 0 0 1 263 1933)">
   <path d="M 9.24805 0.830078 C 13.5547 0.830078 17.1387 -2.74414 17.1387 -7.05078 C 17.1387 -11.3574 13.5449 -14.9316 9.23828 -14.9316 C 4.94141 -14.9316 1.36719 -11.3574 1.36719 -7.05078 C 1.36719 -2.74414 4.95117 0.830078 9.24805 0.830078 Z M 9.24805 -0.654297 C 5.70312 -0.654297 2.87109 -3.49609 2.87109 -7.05078 C 2.87109 -10.6055 5.69336 -13.4473 9.23828 -13.4473 C 12.793 -13.4473 15.6348 -10.6055 15.6445 -7.05078 C 15.6543 -3.49609 12.8027 -0.654297 9.24805 -0.654297 Z M 9.22852 -3.42773 C 9.69727 -3.42773 9.9707 -3.74023 9.9707 -4.25781 L 9.9707 -6.31836 L 12.1973 -6.31836 C 12.6953 -6.31836 13.0371 -6.57227 13.0371 -7.04102 C 13.0371 -7.51953 12.7148 -7.7832 12.1973 -7.7832 L 9.9707 -7.7832 L 9.9707 -10.0098 C 9.9707 -10.5273 9.69727 -10.8496 9.22852 -10.8496 C 8.75977 -10.8496 8.50586 -10.5078 8.50586 -10.0098 L 8.50586 -7.7832 L 6.29883 -7.7832 C 5.78125 -7.7832 5.44922 -7.51953 5.44922 -7.04102 C 5.44922 -6.57227 5.80078 -6.31836 6.29883 -6.31836 L 8.50586 -6.31836 L 8.50586 -4.25781 C 8.50586 -3.75977 8.75977 -3.42773 9.22852 -3.42773 Z"/>
  </g>
  <g id="" transform="matrix(1 0 0 1 281.506 1933)">
   <path d="M 11.709 2.91016 C 17.1582 2.91016 21.6699 -1.60156 21.6699 -7.05078 C 21.6699 -12.4902 17.1484 -17.0117 11.6992 -17.0117 C 6.25977 -17.0117 1.74805 -12.4902 1.74805 -7.05078 C 1.74805 -1.60156 6.26953 2.91016 11.709 2.91016 Z M 11.709 1.25 C 7.09961 1.25 3.41797 -2.44141 3.41797 -7.05078 C 3.41797 -11.6504 7.08984 -15.3516 11.6992 -15.3516 C 16.3086 -15.3516 20 -11.6504 20.0098 -7.05078 C 20.0195 -2.44141 16.3184 1.25 11.709 1.25 Z M 11.6895 -2.41211 C 12.207 -2.41211 12.5195 -2.77344 12.5195 -3.33984 L 12.5195 -6.23047 L 15.5762 -6.23047 C 16.123 -6.23047 16.5039 -6.51367 16.5039 -7.03125 C 16.5039 -7.55859 16.1426 -7.86133 15.5762 -7.86133 L 12.5195 -7.86133 L 12.5195 -10.9277 C 12.5195 -11.5039 12.207 -11.8555 11.6895 -11.8555 C 11.1719 -11.8555 10.8789 -11.4844 10.8789 -10.9277 L 10.8789 -7.86133 L 7.83203 -7.86133 C 7.26562 -7.86133 6.89453 -7.55859 6.89453 -7.03125 C 6.89453 -6.51367 7.28516 -6.23047 7.83203 -6.23047 L 10.8789 -6.23047 L 10.8789 -3.33984 C 10.8789 -2.79297 11.1719 -2.41211 11.6895 -2.41211 Z"/>
  </g>
  <g id="" transform="matrix(1 0 0 1 304.924 1933)">
   <path d="M 14.9707 5.67383 C 21.9336 5.67383 27.6953 -0.078125 27.6953 -7.04102 C 27.6953 -14.0039 21.9238 -19.7559 14.9609 -19.7559 C 8.00781 -19.7559 2.25586 -14.0039 2.25586 -7.04102 C 2.25586 -0.078125 8.01758 5.67383 14.9707 5.67383 Z M 14.9707 3.85742 C 8.93555 3.85742 4.08203 -1.00586 4.08203 -7.04102 C 4.08203 -13.0762 8.92578 -17.9395 14.9609 -17.9395 C 21.0059 -17.9395 25.8594 -13.0762 25.8691 -7.04102 C 25.8789 -1.00586 21.0156 3.85742 14.9707 3.85742 Z M 14.9512 -1.06445 C 15.5176 -1.06445 15.8691 -1.45508 15.8691 -2.06055 L 15.8691 -6.13281 L 20.1074 -6.13281 C 20.6934 -6.13281 21.1133 -6.46484 21.1133 -7.02148 C 21.1133 -7.59766 20.7227 -7.93945 20.1074 -7.93945 L 15.8691 -7.93945 L 15.8691 -12.1875 C 15.8691 -12.8027 15.5176 -13.1934 14.9512 -13.1934 C 14.3848 -13.1934 14.0625 -12.7832 14.0625 -12.1875 L 14.0625 -7.93945 L 9.83398 -7.93945 C 9.21875 -7.93945 8.80859 -7.59766 8.80859 -7.02148 C 8.80859 -6.46484 9.23828 -6.13281 9.83398 -6.13281 L 14.0625 -6.13281 L 14.0625 -2.06055 C 14.0625 -1.47461 14.3848 -1.06445 14.9512 -1.06445 Z"/>
  </g>
  <text style="stroke:none;fill:black;font-family:-apple-system,&quot;SF Pro Display&quot;,&quot;SF Pro Text&quot;,Helvetica,sans-serif;font-weight:bold;" transform="matrix(1 0 0 1 263 1953)">Design Variations</text>
  <text style="stroke:none;fill:black;font-family:-apple-system,&quot;SF Pro Display&quot;,&quot;SF Pro Text&quot;,Helvetica,sans-serif;" transform="matrix(1 0 0 1 263 1971)">Symbols are supported in up to nine weights and three scales.</text>
  <text style="stroke:none;fill:black;font-family:-apple-system,&quot;SF Pro Display&quot;,&quot;SF Pro Text&quot;,Helvetica,sans-serif;" transform="matrix(1 0 0 1 263 1989)">For optimal layout with text and other symbols, vertically align</text>
  <text style="stroke:none;fill:black;font-family:-apple-system,&quot;SF Pro Display&quot;,&quot;SF Pro Text&quot;,Helvetica,sans-serif;" transform="matrix(1 0 0 1 263 2007)">symbols with the adjacent text.</text>
  <rect height="14" id="" style="fill:#00AEEF;stroke:none;opacity:0.4;" width="3" x="776" y="1919"/>
  <g id="" transform="matrix(1 0 0 1 779 1933)">
   <path d="M 10.5273 0 L 12.373 0 L 7.17773 -14.0918 L 5.43945 -14.0918 L 0.244141 0 L 2.08984 0 L 3.50586 -4.0332 L 9.11133 -4.0332 Z M 6.2793 -11.9531 L 6.33789 -11.9531 L 8.59375 -5.52734 L 4.02344 -5.52734 Z"/>
  </g>
  <rect height="14" id="" style="fill:#00AEEF;stroke:none;opacity:0.4;" width="3" x="791.617" y="1919"/>
  <text style="stroke:none;fill:black;font-family:-apple-system,&quot;SF Pro Display&quot;,&quot;SF Pro Text&quot;,Helvetica,sans-serif;font-weight:bold;" transform="matrix(1 0 0 1 776 1953)">Margins</text>
  <text style="stroke:none;fill:black;font-family:-apple-system,&quot;SF Pro Display&quot;,&quot;SF Pro Text&quot;,Helvetica,sans-serif;" transform="matrix(1 0 0 1 776 1971)">Leading and trailing margins on the left and right side of each symbol</text>
  <text style="stroke:none;fill:black;font-family:-apple-system,&quot;SF Pro Display&quot;,&quot;SF Pro Text&quot;,Helvetica,sans-serif;" transform="matrix(1 0 0 1 776 1989)">can be adjusted by modifying the width of the blue rectangles.</text>
  <text style="stroke:none;fill:black;font-family:-apple-system,&quot;SF Pro Display&quot;,&quot;SF Pro Text&quot;,Helvetica,sans-serif;" transform="matrix(1 0 0 1 776 2007)">Modifications are automatically applied proportionally to all</text>
  <text style="stroke:none;fill:black;font-family:-apple-system,&quot;SF Pro Display&quot;,&quot;SF Pro Text&quot;,Helvetica,sans-serif;" transform="matrix(1 0 0 1 776 2025)">scales and weights.</text>
  <g id="" transform="matrix(1 0 0 1 1289 1933)">
   <path d="M 2.83203 3.11523 L 4.375 4.6582 C 5.22461 5.48828 6.19141 5.41992 7.06055 4.46289 L 17.2754 -6.66016 C 17.7051 -6.36719 18.0957 -6.37695 18.5645 -6.47461 L 19.6094 -6.68945 L 20.3027 -5.99609 L 20.2539 -5.47852 C 20.1855 -4.95117 20.3516 -4.53125 20.8496 -4.0332 L 21.6602 -3.22266 C 22.168 -2.71484 22.8223 -2.68555 23.3008 -3.16406 L 26.5527 -6.41602 C 27.0312 -6.89453 27.0117 -7.54883 26.5039 -8.05664 L 25.6836 -8.87695 C 25.1855 -9.375 24.7754 -9.55078 24.2383 -9.47266 L 23.7109 -9.41406 L 23.0566 -10.0781 L 23.3398 -11.2207 C 23.4863 -11.7871 23.3398 -12.2559 22.7148 -12.8613 L 20.3027 -15.2539 C 16.7578 -18.7793 12.2266 -18.6719 9.11133 -15.5371 C 8.69141 -15.1074 8.64258 -14.5215 8.91602 -14.0918 C 9.15039 -13.7207 9.62891 -13.4961 10.2734 -13.6621 C 11.7871 -14.043 13.3008 -13.9258 14.7852 -12.9199 L 14.1602 -11.3379 C 13.9258 -10.752 13.9453 -10.2734 14.1797 -9.83398 L 3.01758 0.439453 C 2.08008 1.30859 1.97266 2.25586 2.83203 3.11523 Z M 10.6738 -15.1465 C 13.3398 -17.1387 16.6504 -16.8262 19.0527 -14.4141 L 21.6797 -11.8066 C 21.9141 -11.5723 21.9434 -11.3867 21.8848 -11.0938 L 21.5039 -9.53125 L 23.0762 -7.95898 L 24.043 -8.04688 C 24.3262 -8.07617 24.4141 -8.05664 24.6387 -7.83203 L 25.2637 -7.20703 L 22.5098 -4.46289 L 21.8848 -5.07812 C 21.6602 -5.30273 21.6406 -5.40039 21.6699 -5.68359 L 21.7578 -6.64062 L 20.1953 -8.20312 L 18.5742 -7.89062 C 18.291 -7.83203 18.1445 -7.83203 17.9102 -8.07617 L 15.7324 -10.2539 C 15.5078 -10.4883 15.4785 -10.625 15.6055 -10.9473 L 16.5527 -13.2227 C 14.9512 -14.7559 12.8418 -15.6055 10.8008 -14.9512 C 10.7129 -14.9219 10.6445 -14.9414 10.6152 -14.9805 C 10.5859 -15.0293 10.5859 -15.0781 10.6738 -15.1465 Z M 4.10156 2.41211 C 3.61328 1.91406 3.78906 1.61133 4.12109 1.30859 L 15.0781 -8.80859 L 16.3086 -7.57812 L 6.15234 3.34961 C 5.84961 3.68164 5.46875 3.7793 5.06836 3.37891 Z"/>
  </g>
  <text style="stroke:none;fill:black;font-family:-apple-system,&quot;SF Pro Display&quot;,&quot;SF Pro Text&quot;,Helvetica,sans-serif;font-weight:bold;" transform="matrix(1 0 0 1 1289 1953)">Exporting</text>
  <text style="stroke:none;fill:black;font-family:-apple-system,&quot;SF Pro Display&quot;,&quot;SF Pro Text&quot;,Helvetica,sans-serif;" transform="matrix(1 0 0 1 1289 1971)">Symbols should be outlined when exporting to ensure the</text>
  <text style="stroke:none;fill:black;font-family:-apple-system,&quot;SF Pro Display&quot;,&quot;SF Pro Text&quot;,Helvetica,sans-serif;" transform="matrix(1 0 0 1 1289 1989)">design is preserved when submitting to Xcode.</text>
  <text id="template-version" style="stroke:none;fill:black;font-family:-apple-system,&quot;SF Pro Display&quot;,&quot;SF Pro Text&quot;,Helvetica,sans-serif;text-anchor:end;" transform="matrix(1 0 0 1 3036 1933)">Template v.1.0</text>
  <text style="stroke:none;fill:black;font-family:-apple-system,&quot;SF Pro Display&quot;,&quot;SF Pro Text&quot;,Helvetica,sans-serif;text-anchor:end;" transform="matrix(1 0 0 1 3036 1951)">Generated from chevron.compact.left</text>
  <text style="stroke:none;fill:black;font-family:-apple-system,&quot;SF Pro Display&quot;,&quot;SF Pro Text&quot;,Helvetica,sans-serif;text-anchor:end;" transform="matrix(1 0 0 1 3036 1969)">Typeset at 100 points</text>
  <text style="stroke:none;fill:black;font-family:-apple-system,&quot;SF Pro Display&quot;,&quot;SF Pro Text&quot;,Helvetica,sans-serif;" transform="matrix(1 0 0 1 263 726)">Small</text>
  <text style="stroke:none;fill:black;font-family:-apple-system,&quot;SF Pro Display&quot;,&quot;SF Pro Text&quot;,Helvetica,sans-serif;" transform="matrix(1 0 0 1 263 1156)">Medium</text>
  <text style="stroke:none;fill:black;font-family:-apple-system,&quot;SF Pro Display&quot;,&quot;SF Pro Text&quot;,Helvetica,sans-serif;" transform="matrix(1 0 0 1 263 1586)">Large</text>
 </g>
 <g id="Guides">
  <g id="H-reference" style="fill:#27AAE1;stroke:none;" transform="matrix(1 0 0 1 339 696)">
   <path d="M 54.9316 0 L 57.666 0 L 30.5664 -70.459 L 28.0762 -70.459 L 0.976562 0 L 3.66211 0 L 12.9395 -24.4629 L 45.7031 -24.4629 Z M 29.1992 -67.0898 L 29.4434 -67.0898 L 44.8242 -26.709 L 13.8184 -26.709 Z"/>
  </g>
  <line id="Baseline-S" style="fill:none;stroke:#27AAE1;opacity:1;stroke-width:0.577;" x1="263" x2="3036" y1="696" y2="696"/>
  <line id="Capline-S" style="fill:none;stroke:#27AAE1;opacity:1;stroke-width:0.577;" x1="263" x2="3036" y1="625.541" y2="625.541"/>
  <g id="H-reference" style="fill:#27AAE1;stroke:none;" transform="matrix(1 0 0 1 339 1126)">
   <path d="M 54.9316 0 L 57.666 0 L 30.5664 -70.459 L 28.0762 -70.459 L 0.976562 0 L 3.66211 0 L 12.9395 -24.4629 L 45.7031 -24.4629 Z M 29.1992 -67.0898 L 29.4434 -67.0898 L 44.8242 -26.709 L 13.8184 -26.709 Z"/>
  </g>
  <line id="Baseline-M" style="fill:none;stroke:#27AAE1;opacity:1;stroke-width:0.577;" x1="263" x2="3036" y1="1126" y2="1126"/>
  <line id="Capline-M" style="fill:none;stroke:#27AAE1;opacity:1;stroke-width:0.577;" x1="263" x2="3036" y1="1055.54" y2="1055.54"/>
  <g id="H-reference" style="fill:#27AAE1;stroke:none;" transform="matrix(1 0 0 1 339 1556)">
   <path d="M 54.9316 0 L 57.666 0 L 30.5664 -70.459 L 28.0762 -70.459 L 0.976562 0 L 3.66211 0 L 12.9395 -24.4629 L 45.7031 -24.4629 Z M 29.1992 -67.0898 L 29.4434 -67.0898 L 44.8242 -26.709 L 13.8184 -26.709 Z"/>
  </g>
  <line id="Baseline-L" style="fill:none;stroke:#27AAE1;opacity:1;stroke-width:0.577;" x1="263" x2="3036" y1="1556" y2="1556"/>
  <line id="Capline-L" style="fill:none;stroke:#27AAE1;opacity:1;stroke-width:0.577;" x1="263" x2="3036" y1="1485.54" y2="1485.54"/>
  <rect height="119.336" id="left-margin" style="fill:#00AEEF;stroke:none;opacity:0.4;" width="12.4512" x="1425.26" y="1030.79"/>
  <rect height="119.336" id="right-margin" style="fill:#00AEEF;stroke:none;opacity:0.4;" width="12.4512" x="1461.98" y="1030.79"/>
 </g>
 <g id="Symbols">
  <g id="Black-L" transform="matrix(1 0 0 1 2894.7 1556)">
   <path d="M 38.2324 17.8711 C 40.1367 21.875 43.7012 24.8535 48.4375 24.8535 C 56.3477 24.8047 61.3281 19.0918 61.3281 12.6953 C 61.3281 9.08203 59.1797 4.44336 57.2754 0.439453 L 41.1621 -35.2539 L 57.2754 -70.9961 C 59.1797 -75 61.3281 -79.6387 61.3281 -83.252 C 61.3281 -89.6484 56.3477 -95.3613 48.4375 -95.4102 C 43.7012 -95.4102 40.1367 -92.4316 38.2324 -88.4277 L 19.7266 -47.7051 C 17.4805 -42.8223 16.0645 -39.8438 16.0645 -35.2539 C 16.0645 -30.7129 17.4805 -27.7832 19.7266 -22.8516 Z"/>
  </g>
  <g id="Heavy-L" transform="matrix(1 0 0 1 2599.85 1556)">
   <path d="M 37.6465 17.5293 C 39.2578 21.0938 42.4316 23.6328 46.4844 23.6328 C 53.2227 23.584 57.6172 18.7012 57.6172 13.0859 C 57.6172 9.96094 55.7617 5.95703 54.1992 2.53906 L 37.6953 -35.3027 L 54.1992 -73.1445 C 55.7617 -76.5625 57.6172 -80.5664 57.6172 -83.6914 C 57.6172 -89.3066 53.2227 -94.1895 46.4844 -94.2383 C 42.4316 -94.2383 39.2578 -91.6992 37.6465 -88.1348 L 19.3359 -46.6309 C 17.3828 -42.2852 16.0645 -39.3066 16.0645 -35.3027 C 16.0645 -31.2988 17.3828 -28.3203 19.3359 -23.9746 Z"/>
  </g>
  <g id="Bold-L" transform="matrix(1 0 0 1 2305.21 1556)">
   <path d="M 36.9629 17.1387 C 38.2812 20.166 40.9668 22.3145 44.2871 22.3145 C 49.8047 22.2656 53.4668 18.3105 53.4668 13.5254 C 53.4668 10.9375 51.9531 7.61719 50.7812 4.93164 L 33.8379 -35.3516 L 50.7812 -75.5859 C 51.9531 -78.2715 53.4668 -81.6406 53.4668 -84.2285 C 53.4668 -88.9648 49.8047 -92.9199 44.2871 -92.9688 C 40.9668 -92.9688 38.2812 -90.8691 36.9629 -87.793 L 18.9453 -45.4102 C 17.334 -41.748 16.0645 -38.7695 16.0645 -35.3516 C 16.0645 -31.8848 17.334 -28.9551 18.9453 -25.2441 Z"/>
  </g>
  <g id="Semibold-L" transform="matrix(1 0 0 1 2009.94 1556)">
   <path d="M 36.4746 16.8945 C 37.6465 19.5801 39.9902 21.3867 42.7734 21.3867 C 47.4121 21.3379 50.5859 18.0176 50.5859 13.8672 C 50.5859 11.6211 49.3164 8.74023 48.3887 6.54297 L 31.1523 -35.3516 L 48.3887 -77.2461 C 49.3164 -79.4434 50.5859 -82.373 50.5859 -84.5703 C 50.5859 -88.7207 47.4121 -92.041 42.7734 -92.0898 C 39.9902 -92.0898 37.6465 -90.2832 36.4746 -87.5977 L 18.6523 -44.5801 C 17.2852 -41.3574 16.0645 -38.3789 16.0645 -35.3516 C 16.0645 -32.3242 17.2852 -29.3945 18.6523 -26.123 Z"/>
  </g>
  <g id="Medium-L" transform="matrix(1 0 0 1 1714.3 1556)">
   <path d="M 36.084 16.6992 C 37.1094 19.0918 39.2578 20.6543 41.6504 20.6543 C 45.6055 20.6543 48.4375 17.7734 48.4375 14.0625 C 48.4375 12.1094 47.3633 9.61914 46.582 7.76367 L 29.1016 -35.3516 L 46.582 -78.5156 C 47.3633 -80.3711 48.4375 -82.9102 48.4375 -84.8145 C 48.4375 -88.5254 45.6055 -91.4062 41.6504 -91.4062 C 39.2578 -91.4062 37.1094 -89.8438 36.084 -87.4023 L 18.457 -43.9453 C 17.2363 -41.0645 16.0645 -38.0859 16.0645 -35.3516 C 16.0645 -32.666 17.2363 -29.6875 18.457 -26.8066 Z"/>
  </g>
  <g id="Regular-L" transform="matrix(1 0 0 1 1419.01 1556)">
   <path d="M 35.6445 16.4062 C 36.4746 18.5059 38.2812 19.7754 40.1855 19.7754 C 43.2617 19.7754 45.6055 17.4805 45.6055 14.4043 C 45.6055 12.793 44.7266 10.7422 44.2383 9.375 L 26.4648 -35.4004 L 44.2383 -80.1758 C 44.7266 -81.543 45.6055 -83.6426 45.6055 -85.1562 C 45.6055 -88.2324 43.2617 -90.5273 40.1855 -90.5273 C 38.2812 -90.5273 36.4746 -89.2578 35.6445 -87.207 L 18.1641 -43.1152 C 17.1875 -40.7227 16.0645 -37.6953 16.0645 -35.4004 C 16.0645 -33.0566 17.1875 -30.127 18.1641 -27.6855 Z"/>
  </g>
  <g id="Light-L" transform="matrix(1 0 0 1 1123.49 1556)">
   <path d="M 35.8887 15.9668 C 36.5234 17.5781 37.8906 18.4082 39.2578 18.4082 C 41.5039 18.4082 43.2129 16.748 43.2129 14.4531 C 43.2129 13.3301 42.627 11.8164 42.2363 10.791 L 23.7305 -35.3027 L 42.2363 -81.3965 C 42.627 -82.4707 43.2129 -83.9844 43.2129 -85.1074 C 43.2129 -87.4023 41.5039 -89.0625 39.2578 -89.0625 C 37.8906 -89.0625 36.5234 -88.2324 35.8887 -86.6211 L 17.5781 -41.0156 C 16.8457 -39.2578 16.0645 -37.0117 16.0645 -35.3027 C 16.0645 -33.6426 16.8457 -31.3965 17.5781 -29.5898 Z"/>
  </g>
  <g id="Thin-L" transform="matrix(1 0 0 1 828.37 1556)">
   <path d="M 36.2305 15.3809 C 36.6211 16.3574 37.4023 16.6504 38.0371 16.6504 C 39.209 16.6504 40.0391 15.8203 40.0391 14.5508 C 40.0391 14.0137 39.7949 13.2324 39.5996 12.6465 L 20.1172 -35.2051 L 39.5996 -83.1055 C 39.7949 -83.6914 40.0391 -84.4238 40.0391 -85.0098 C 40.0391 -86.2305 39.209 -87.1094 38.0371 -87.1094 C 37.4023 -87.1094 36.6211 -86.8164 36.2305 -85.8398 L 16.8457 -38.2324 C 16.4062 -37.3047 16.0645 -36.084 16.0645 -35.2051 C 16.0645 -34.375 16.4062 -33.1055 16.8457 -32.1777 Z"/>
  </g>
  <g id="Ultralight-L" transform="matrix(1 0 0 1 532.465 1556)">
   <path d="M 36.4258 15.0879 C 36.6699 15.7227 37.1582 15.7715 37.4023 15.7715 C 37.9883 15.7715 38.4277 15.332 38.4277 14.5996 C 38.4277 14.3555 38.3789 13.9648 38.2324 13.623 L 18.2129 -35.1562 L 38.2324 -83.9355 C 38.3789 -84.3262 38.4277 -84.668 38.4277 -84.9609 C 38.4277 -85.6445 37.9883 -86.084 37.4023 -86.084 C 37.1582 -86.084 36.6699 -86.084 36.4258 -85.4004 L 16.4551 -36.8164 C 16.2109 -36.3281 16.0645 -35.5957 16.0645 -35.1562 C 16.0645 -34.7168 16.2109 -33.9844 16.4551 -33.4961 Z"/>
  </g>
  <g id="Black-M" transform="matrix(1 0 0 1 2901.54 1126)">
   <path d="M 30.6152 6.15234 C 32.3242 9.61914 35.4004 12.2559 39.6973 12.2559 C 46.875 12.1582 51.2695 6.98242 51.2695 1.41602 C 51.2695 -1.80664 49.3164 -5.9082 47.4609 -9.7168 L 35.0098 -35.2051 L 47.4609 -60.6934 C 49.3164 -64.502 51.2695 -68.5547 51.2695 -71.7773 C 51.2695 -77.3926 46.875 -82.5684 39.6973 -82.6172 C 35.4004 -82.6172 32.3242 -79.9805 30.6152 -76.5137 L 15.4785 -45.2637 C 13.4277 -40.9668 12.4512 -39.0625 12.4512 -35.2051 C 12.4512 -31.2988 13.4277 -29.3945 15.4785 -25.1465 Z"/>
  </g>
  <g id="Heavy-M" transform="matrix(1 0 0 1 2606.54 1126)">
   <path d="M 29.8828 5.85938 C 31.3477 8.98438 34.082 11.2793 37.793 11.2793 C 43.9453 11.2305 47.8516 6.78711 47.8516 1.80664 C 47.8516 -0.976562 46.1426 -4.54102 44.6289 -7.76367 L 31.9824 -35.2539 L 44.6289 -62.7441 C 46.1426 -65.918 47.8516 -69.5312 47.8516 -72.3145 C 47.8516 -77.2461 43.9453 -81.6895 37.793 -81.7383 C 34.082 -81.7383 31.3477 -79.4434 29.8828 -76.3672 L 15.1855 -44.6289 C 13.4766 -40.8203 12.4512 -38.7207 12.4512 -35.2539 C 12.4512 -31.7383 13.4766 -29.6875 15.1855 -25.8789 Z"/>
  </g>
  <g id="Bold-M" transform="matrix(1 0 0 1 2311.76 1126)">
   <path d="M 29.0527 5.61523 C 30.2734 8.25195 32.6172 10.2051 35.6445 10.2051 C 40.7227 10.1562 43.9941 6.54297 43.9941 2.29492 C 43.9941 -0.0488281 42.627 -3.02734 41.4551 -5.56641 L 28.5645 -35.3027 L 41.4551 -64.9902 C 42.627 -67.5293 43.9941 -70.5566 43.9941 -72.9004 C 43.9941 -77.0996 40.7227 -80.7617 35.6445 -80.7617 C 32.6172 -80.7617 30.2734 -78.8574 29.0527 -76.1719 L 14.9414 -43.8965 C 13.4766 -40.625 12.4512 -38.3301 12.4512 -35.3027 C 12.4512 -32.2754 13.4766 -29.9805 14.9414 -26.709 Z"/>
  </g>
  <g id="Semibold-M" transform="matrix(1 0 0 1 2016.39 1126)">
   <path d="M 28.4668 5.41992 C 29.4922 7.76367 31.6406 9.42383 34.2285 9.42383 C 38.4766 9.42383 41.3086 6.34766 41.3086 2.63672 C 41.3086 0.585938 40.1367 -2.00195 39.2578 -4.05273 L 26.2207 -35.3516 L 39.2578 -66.6016 C 40.1367 -68.6523 41.3086 -71.2891 41.3086 -73.291 C 41.3086 -77.002 38.4766 -80.0781 34.2285 -80.127 C 31.6406 -80.127 29.4922 -78.4668 28.4668 -76.0742 L 14.7461 -43.4082 C 13.4766 -40.5273 12.4512 -38.0371 12.4512 -35.3516 C 12.4512 -32.6172 13.4766 -30.1758 14.7461 -27.2461 Z"/>
  </g>
  <g id="Medium-M" transform="matrix(1 0 0 1 1720.68 1126)">
   <path d="M 28.0273 5.22461 C 28.9551 7.42188 30.8594 8.88672 33.1055 8.88672 C 36.7676 8.88672 39.3066 6.20117 39.3066 2.88086 C 39.3066 1.07422 38.2812 -1.2207 37.5977 -2.92969 L 24.4141 -35.3516 L 37.5977 -67.7734 C 38.2812 -69.4824 39.3066 -71.8262 39.3066 -73.584 C 39.3066 -76.9043 36.7676 -79.5898 33.1055 -79.5898 C 30.8594 -79.5898 28.9551 -78.125 28.0273 -75.9766 L 14.5996 -43.0176 C 13.5254 -40.4297 12.4512 -37.8418 12.4512 -35.3516 C 12.4512 -32.9102 13.5254 -30.3223 14.5996 -27.6855 Z"/>
  </g>
  <g id="Regular-M" transform="matrix(1 0 0 1 1425.26 1126)">
   <path d="M 27.4902 5.0293 C 28.2227 6.93359 29.8828 8.1543 31.6406 8.1543 C 34.5215 8.1543 36.7188 6.05469 36.7188 3.17383 C 36.7188 1.70898 35.8887 -0.195312 35.4004 -1.46484 L 22.0703 -35.4004 L 35.4004 -69.3359 C 35.8887 -70.6055 36.7188 -72.5586 36.7188 -73.9746 C 36.7188 -76.8066 34.5215 -78.9062 31.6406 -78.9062 C 29.8828 -78.9062 28.2227 -77.7344 27.4902 -75.8301 L 14.4043 -42.5293 C 13.5254 -40.2832 12.4512 -37.5488 12.4512 -35.4004 C 12.4512 -33.252 13.5254 -30.5176 14.4043 -28.2715 Z"/>
  </g>
  <g id="Light-M" transform="matrix(1 0 0 1 1129.62 1126)">
   <path d="M 27.6855 4.63867 C 28.2715 6.10352 29.541 6.93359 30.8105 6.93359 C 32.959 6.93359 34.5703 5.37109 34.5703 3.27148 C 34.5703 2.14844 33.9844 0.78125 33.6426 -0.195312 L 19.6289 -35.3516 L 33.6426 -70.459 C 33.9844 -71.4355 34.5703 -72.8516 34.5703 -73.9258 C 34.5703 -76.0254 32.959 -77.5879 30.8105 -77.5879 C 29.541 -77.5879 28.2715 -76.7578 27.6855 -75.293 L 13.8672 -40.625 C 13.2324 -39.0137 12.4512 -36.9141 12.4512 -35.3516 C 12.4512 -33.7402 13.2324 -31.6895 13.8672 -30.0293 Z"/>
  </g>
  <g id="Thin-M" transform="matrix(1 0 0 1 834.328 1126)">
   <path d="M 28.0273 4.15039 C 28.3691 5.0293 29.1016 5.37109 29.7363 5.37109 C 30.8594 5.37109 31.7383 4.54102 31.7383 3.32031 C 31.7383 2.7832 31.4453 2.05078 31.25 1.46484 L 16.3574 -35.2539 L 31.25 -71.9727 C 31.4453 -72.5098 31.7383 -73.291 31.7383 -73.8281 C 31.7383 -75 30.8594 -75.8301 29.7363 -75.8301 C 29.1016 -75.8301 28.3691 -75.4883 28.0273 -74.6094 L 13.1836 -38.1836 C 12.8418 -37.2559 12.4512 -36.084 12.4512 -35.2539 C 12.4512 -34.375 12.8418 -33.252 13.1836 -32.3242 Z"/>
  </g>
  <g id="Ultralight-M" transform="matrix(1 0 0 1 538.349 1126)">
   <path d="M 28.1738 3.85742 C 28.418 4.44336 28.9062 4.54102 29.1504 4.54102 C 29.834 4.54102 30.2734 4.10156 30.2734 3.36914 C 30.2734 3.07617 30.1758 2.68555 30.0293 2.34375 L 14.6973 -35.2051 L 30.0293 -72.7051 C 30.1758 -73.0957 30.2734 -73.4863 30.2734 -73.7793 C 30.2734 -74.4629 29.834 -74.9512 29.1504 -74.9512 C 28.9062 -74.9512 28.418 -74.8535 28.1738 -74.2676 L 12.8418 -36.9141 C 12.5977 -36.377 12.4512 -35.6445 12.4512 -35.2051 C 12.4512 -34.7168 12.5977 -34.0332 12.8418 -33.4961 Z"/>
  </g>
  <g id="Black-S" transform="matrix(1 0 0 1 2908.55 696)">
   <path d="M 23.9258 -2.83203 C 25.2441 -0.146484 27.6367 1.9043 30.957 1.9043 C 36.5234 1.85547 39.9414 -2.14844 39.9414 -6.49414 C 39.9414 -8.98438 38.4277 -12.1582 37.0117 -15.0879 L 27.2461 -35.2051 L 37.0117 -55.3223 C 38.4277 -58.252 39.9414 -61.4258 39.9414 -63.916 C 39.9414 -68.2617 36.5234 -72.2656 30.957 -72.3145 C 27.6367 -72.3145 25.2441 -70.2637 23.9258 -67.5781 L 12.1094 -43.0664 C 10.5469 -39.7461 9.76562 -38.2324 9.76562 -35.2051 C 9.76562 -32.1777 10.5469 -30.6641 12.1094 -27.3438 Z"/>
  </g>
  <g id="Heavy-S" transform="matrix(1 0 0 1 2613.03 696)">
   <path d="M 23.3398 -2.97852 C 24.5117 -0.537109 26.6602 1.31836 29.5898 1.31836 C 34.4727 1.26953 37.5488 -2.24609 37.5488 -6.20117 C 37.5488 -8.39844 36.2305 -11.2305 35.0098 -13.7207 L 25.1953 -35.2539 L 35.0098 -56.7383 C 36.2305 -59.2773 37.5488 -62.1094 37.5488 -64.3066 C 37.5488 -68.2617 34.4727 -71.7773 29.5898 -71.7773 C 26.6602 -71.7773 24.5117 -69.9707 23.3398 -67.5293 L 11.9629 -42.7734 C 10.5957 -39.7461 9.76562 -38.0371 9.76562 -35.2539 C 9.76562 -32.4707 10.5957 -30.7617 11.9629 -27.7344 Z"/>
  </g>
  <g id="Bold-S" transform="matrix(1 0 0 1 2317.66 696)">
   <path d="M 22.6562 -3.17383 C 23.6816 -0.976562 25.5859 0.634766 28.0762 0.634766 C 32.1777 0.585938 34.8633 -2.39258 34.8633 -5.81055 C 34.8633 -7.76367 33.7402 -10.2051 32.8125 -12.2559 L 22.9004 -35.3027 L 32.8125 -58.3496 C 33.7402 -60.4004 34.8633 -62.8906 34.8633 -64.7461 C 34.8633 -68.2129 32.1777 -71.1914 28.0762 -71.1914 C 25.5859 -71.1914 23.6816 -69.6289 22.6562 -67.4316 L 11.8164 -42.4805 C 10.6445 -39.7949 9.76562 -37.793 9.76562 -35.3027 C 9.76562 -32.8125 10.6445 -30.8105 11.8164 -28.125 Z"/>
  </g>
  <g id="Semibold-S" transform="matrix(1 0 0 1 2021.88 696)">
   <path d="M 22.2168 -3.27148 C 23.0957 -1.26953 24.8535 0.146484 27.0508 0.146484 C 30.6152 0.146484 33.0078 -2.44141 33.0078 -5.56641 C 33.0078 -7.32422 32.0312 -9.47266 31.2988 -11.1816 L 21.2891 -35.3516 L 31.2988 -59.4727 C 32.0312 -61.1816 33.0078 -63.3789 33.0078 -65.0879 C 33.0078 -68.2129 30.6152 -70.8008 27.0508 -70.8008 C 24.8535 -70.8008 23.0957 -69.3848 22.2168 -67.3828 L 11.7188 -42.2363 C 10.6934 -39.7949 9.76562 -37.6465 9.76562 -35.3516 C 9.76562 -33.0078 10.6934 -30.9082 11.7188 -28.418 Z"/>
  </g>
  <g id="Medium-S" transform="matrix(1 0 0 1 1725.85 696)">
   <path d="M 21.875 -3.36914 C 22.6562 -1.51367 24.3164 -0.195312 26.2695 -0.195312 C 29.3945 -0.195312 31.6406 -2.49023 31.6406 -5.41992 C 31.6406 -6.98242 30.7617 -8.93555 30.127 -10.4004 L 20.0684 -35.3516 L 30.127 -60.3027 C 30.7617 -61.7676 31.6406 -63.7695 31.6406 -65.332 C 31.6406 -68.2129 29.3945 -70.5078 26.2695 -70.5078 C 24.3164 -70.5078 22.6562 -69.2383 21.875 -67.334 L 11.6211 -42.0898 C 10.6934 -39.8438 9.76562 -37.5 9.76562 -35.3516 C 9.76562 -33.2031 10.6934 -30.9082 11.6211 -28.6621 Z"/>
  </g>
  <g id="Regular-S" transform="matrix(1 0 0 1 1430.07 696)">
   <path d="M 21.4355 -3.4668 C 22.0703 -1.80664 23.584 -0.683594 25.1953 -0.683594 C 27.832 -0.683594 29.7852 -2.58789 29.7852 -5.17578 C 29.7852 -6.54297 29.0527 -8.25195 28.6133 -9.375 L 18.5059 -35.4004 L 28.6133 -61.4258 C 29.0527 -62.5488 29.7852 -64.3066 29.7852 -65.625 C 29.7852 -68.2129 27.832 -70.1172 25.1953 -70.1172 C 23.584 -70.1172 22.0703 -68.9941 21.4355 -67.2852 L 11.5234 -41.8457 C 10.7422 -39.8438 9.76562 -37.3535 9.76562 -35.4004 C 9.76562 -33.4473 10.7422 -31.0059 11.5234 -28.9551 Z"/>
  </g>
  <g id="Light-S" transform="matrix(1 0 0 1 1134.31 696)">
   <path d="M 21.6309 -3.80859 C 22.1191 -2.53906 23.291 -1.70898 24.4629 -1.70898 C 26.416 -1.70898 27.8809 -3.17383 27.8809 -5.12695 C 27.8809 -6.10352 27.3438 -7.42188 27.0508 -8.25195 L 16.3086 -35.3516 L 27.0508 -62.4023 C 27.3438 -63.2812 27.8809 -64.5996 27.8809 -65.5762 C 27.8809 -67.4805 26.416 -68.9453 24.4629 -68.9453 C 23.291 -68.9453 22.1191 -68.1641 21.6309 -66.8457 L 11.084 -40.1855 C 10.498 -38.6719 9.76562 -36.8164 9.76562 -35.3516 C 9.76562 -33.8867 10.498 -32.0312 11.084 -30.4688 Z"/>
  </g>
  <g id="Thin-S" transform="matrix(1 0 0 1 838.844 696)">
   <path d="M 21.875 -4.29688 C 22.2168 -3.4668 22.9004 -3.125 23.5352 -3.125 C 24.6094 -3.125 25.3906 -3.90625 25.3906 -5.0293 C 25.3906 -5.56641 25.1465 -6.29883 24.9512 -6.78711 L 13.4277 -35.2539 L 24.9512 -63.7207 C 25.1465 -64.209 25.3906 -64.9414 25.3906 -65.4785 C 25.3906 -66.6016 24.6094 -67.3828 23.5352 -67.3828 C 22.9004 -67.3828 22.2168 -67.041 21.875 -66.2109 L 10.498 -37.9883 C 10.1562 -37.1582 9.76562 -36.084 9.76562 -35.2539 C 9.76562 -34.4238 10.1562 -33.3496 10.498 -32.5195 Z"/>
  </g>
  <g id="Ultralight-S" transform="matrix(1 0 0 1 542.768 696)">
   <path d="M 22.0215 -4.54102 C 22.2656 -4.00391 22.7051 -3.85742 22.998 -3.85742 C 23.6328 -3.85742 24.1211 -4.29688 24.1211 -4.98047 C 24.1211 -5.27344 23.9746 -5.71289 23.877 -6.05469 L 11.9629 -35.2051 L 23.877 -64.4043 C 23.9746 -64.7461 24.1211 -65.1367 24.1211 -65.4297 C 24.1211 -66.1133 23.6328 -66.6016 22.998 -66.6016 C 22.7051 -66.6016 22.2656 -66.4551 22.0215 -65.8691 L 10.1562 -36.8652 C 9.96094 -36.377 9.76562 -35.6934 9.76562 -35.2051 C 9.76562 -34.7656 9.96094 -34.082 10.1562 -33.5449 Z"/>
  </g>
 </g>
</svg>
