<?xml version="1.0" encoding="UTF-8"?>
<!--Generator: Apple Native CoreSVG 123-->
<!DOCTYPE svg
PUBLIC "-//W3C//DTD SVG 1.1//EN"
       "http://www.w3.org/Graphics/SVG/1.1/DTD/svg11.dtd">
<svg version="1.1" xmlns="http://www.w3.org/2000/svg" xmlns:xlink="http://www.w3.org/1999/xlink" width="3300" height="2200">
 <!--glyph: "uni10018D.medium", point size: 100.000000, font version: "Version 15.0d7e11", template writer version: "5"-->
 <g id="Notes">
  <rect height="2200" id="artboard" style="fill:white;opacity:1" width="3300" x="0" y="0"/>
  <line id="" style="fill:none;stroke:black;opacity:1;stroke-width:0.5;" x1="263" x2="3036" y1="292" y2="292"/>
  <text style="stroke:none;fill:black;font-family:-apple-system,&quot;SF Pro Display&quot;,&quot;SF Pro Text&quot;,Helvetica,sans-serif;font-weight:bold;" transform="matrix(1 0 0 1 263 322)">Weight/Scale Variations</text>
  <text style="stroke:none;fill:black;font-family:-apple-system,&quot;SF Pro Display&quot;,&quot;SF Pro Text&quot;,Helvetica,sans-serif;text-anchor:middle;" transform="matrix(1 0 0 1 559.711 322)">Ultralight</text>
  <text style="stroke:none;fill:black;font-family:-apple-system,&quot;SF Pro Display&quot;,&quot;SF Pro Text&quot;,Helvetica,sans-serif;text-anchor:middle;" transform="matrix(1 0 0 1 856.422 322)">Thin</text>
  <text style="stroke:none;fill:black;font-family:-apple-system,&quot;SF Pro Display&quot;,&quot;SF Pro Text&quot;,Helvetica,sans-serif;text-anchor:middle;" transform="matrix(1 0 0 1 1153.13 322)">Light</text>
  <text style="stroke:none;fill:black;font-family:-apple-system,&quot;SF Pro Display&quot;,&quot;SF Pro Text&quot;,Helvetica,sans-serif;text-anchor:middle;" transform="matrix(1 0 0 1 1449.84 322)">Regular</text>
  <text style="stroke:none;fill:black;font-family:-apple-system,&quot;SF Pro Display&quot;,&quot;SF Pro Text&quot;,Helvetica,sans-serif;text-anchor:middle;" transform="matrix(1 0 0 1 1746.56 322)">Medium</text>
  <text style="stroke:none;fill:black;font-family:-apple-system,&quot;SF Pro Display&quot;,&quot;SF Pro Text&quot;,Helvetica,sans-serif;text-anchor:middle;" transform="matrix(1 0 0 1 2043.27 322)">Semibold</text>
  <text style="stroke:none;fill:black;font-family:-apple-system,&quot;SF Pro Display&quot;,&quot;SF Pro Text&quot;,Helvetica,sans-serif;text-anchor:middle;" transform="matrix(1 0 0 1 2339.98 322)">Bold</text>
  <text style="stroke:none;fill:black;font-family:-apple-system,&quot;SF Pro Display&quot;,&quot;SF Pro Text&quot;,Helvetica,sans-serif;text-anchor:middle;" transform="matrix(1 0 0 1 2636.69 322)">Heavy</text>
  <text style="stroke:none;fill:black;font-family:-apple-system,&quot;SF Pro Display&quot;,&quot;SF Pro Text&quot;,Helvetica,sans-serif;text-anchor:middle;" transform="matrix(1 0 0 1 2933.4 322)">Black</text>
  <line id="" style="fill:none;stroke:black;opacity:1;stroke-width:0.5;" x1="263" x2="3036" y1="1903" y2="1903"/>
  <g id="" transform="matrix(1 0 0 1 263 1933)">
   <path d="M 9.24805 0.830078 C 13.5547 0.830078 17.1387 -2.74414 17.1387 -7.05078 C 17.1387 -11.3574 13.5449 -14.9316 9.23828 -14.9316 C 4.94141 -14.9316 1.36719 -11.3574 1.36719 -7.05078 C 1.36719 -2.74414 4.95117 0.830078 9.24805 0.830078 Z M 9.24805 -0.654297 C 5.70312 -0.654297 2.87109 -3.49609 2.87109 -7.05078 C 2.87109 -10.6055 5.69336 -13.4473 9.23828 -13.4473 C 12.793 -13.4473 15.6348 -10.6055 15.6445 -7.05078 C 15.6543 -3.49609 12.8027 -0.654297 9.24805 -0.654297 Z M 9.22852 -3.42773 C 9.69727 -3.42773 9.9707 -3.74023 9.9707 -4.25781 L 9.9707 -6.31836 L 12.1973 -6.31836 C 12.6953 -6.31836 13.0371 -6.57227 13.0371 -7.04102 C 13.0371 -7.51953 12.7148 -7.7832 12.1973 -7.7832 L 9.9707 -7.7832 L 9.9707 -10.0098 C 9.9707 -10.5273 9.69727 -10.8496 9.22852 -10.8496 C 8.75977 -10.8496 8.50586 -10.5078 8.50586 -10.0098 L 8.50586 -7.7832 L 6.29883 -7.7832 C 5.78125 -7.7832 5.44922 -7.51953 5.44922 -7.04102 C 5.44922 -6.57227 5.80078 -6.31836 6.29883 -6.31836 L 8.50586 -6.31836 L 8.50586 -4.25781 C 8.50586 -3.75977 8.75977 -3.42773 9.22852 -3.42773 Z"/>
  </g>
  <g id="" transform="matrix(1 0 0 1 281.506 1933)">
   <path d="M 11.709 2.91016 C 17.1582 2.91016 21.6699 -1.60156 21.6699 -7.05078 C 21.6699 -12.4902 17.1484 -17.0117 11.6992 -17.0117 C 6.25977 -17.0117 1.74805 -12.4902 1.74805 -7.05078 C 1.74805 -1.60156 6.26953 2.91016 11.709 2.91016 Z M 11.709 1.25 C 7.09961 1.25 3.41797 -2.44141 3.41797 -7.05078 C 3.41797 -11.6504 7.08984 -15.3516 11.6992 -15.3516 C 16.3086 -15.3516 20 -11.6504 20.0098 -7.05078 C 20.0195 -2.44141 16.3184 1.25 11.709 1.25 Z M 11.6895 -2.41211 C 12.207 -2.41211 12.5195 -2.77344 12.5195 -3.33984 L 12.5195 -6.23047 L 15.5762 -6.23047 C 16.123 -6.23047 16.5039 -6.51367 16.5039 -7.03125 C 16.5039 -7.55859 16.1426 -7.86133 15.5762 -7.86133 L 12.5195 -7.86133 L 12.5195 -10.9277 C 12.5195 -11.5039 12.207 -11.8555 11.6895 -11.8555 C 11.1719 -11.8555 10.8789 -11.4844 10.8789 -10.9277 L 10.8789 -7.86133 L 7.83203 -7.86133 C 7.26562 -7.86133 6.89453 -7.55859 6.89453 -7.03125 C 6.89453 -6.51367 7.28516 -6.23047 7.83203 -6.23047 L 10.8789 -6.23047 L 10.8789 -3.33984 C 10.8789 -2.79297 11.1719 -2.41211 11.6895 -2.41211 Z"/>
  </g>
  <g id="" transform="matrix(1 0 0 1 304.924 1933)">
   <path d="M 14.9707 5.67383 C 21.9336 5.67383 27.6953 -0.078125 27.6953 -7.04102 C 27.6953 -14.0039 21.9238 -19.7559 14.9609 -19.7559 C 8.00781 -19.7559 2.25586 -14.0039 2.25586 -7.04102 C 2.25586 -0.078125 8.01758 5.67383 14.9707 5.67383 Z M 14.9707 3.85742 C 8.93555 3.85742 4.08203 -1.00586 4.08203 -7.04102 C 4.08203 -13.0762 8.92578 -17.9395 14.9609 -17.9395 C 21.0059 -17.9395 25.8594 -13.0762 25.8691 -7.04102 C 25.8789 -1.00586 21.0156 3.85742 14.9707 3.85742 Z M 14.9512 -1.06445 C 15.5176 -1.06445 15.8691 -1.45508 15.8691 -2.06055 L 15.8691 -6.13281 L 20.1074 -6.13281 C 20.6934 -6.13281 21.1133 -6.46484 21.1133 -7.02148 C 21.1133 -7.59766 20.7227 -7.93945 20.1074 -7.93945 L 15.8691 -7.93945 L 15.8691 -12.1875 C 15.8691 -12.8027 15.5176 -13.1934 14.9512 -13.1934 C 14.3848 -13.1934 14.0625 -12.7832 14.0625 -12.1875 L 14.0625 -7.93945 L 9.83398 -7.93945 C 9.21875 -7.93945 8.80859 -7.59766 8.80859 -7.02148 C 8.80859 -6.46484 9.23828 -6.13281 9.83398 -6.13281 L 14.0625 -6.13281 L 14.0625 -2.06055 C 14.0625 -1.47461 14.3848 -1.06445 14.9512 -1.06445 Z"/>
  </g>
  <text style="stroke:none;fill:black;font-family:-apple-system,&quot;SF Pro Display&quot;,&quot;SF Pro Text&quot;,Helvetica,sans-serif;font-weight:bold;" transform="matrix(1 0 0 1 263 1953)">Design Variations</text>
  <text style="stroke:none;fill:black;font-family:-apple-system,&quot;SF Pro Display&quot;,&quot;SF Pro Text&quot;,Helvetica,sans-serif;" transform="matrix(1 0 0 1 263 1971)">Symbols are supported in up to nine weights and three scales.</text>
  <text style="stroke:none;fill:black;font-family:-apple-system,&quot;SF Pro Display&quot;,&quot;SF Pro Text&quot;,Helvetica,sans-serif;" transform="matrix(1 0 0 1 263 1989)">For optimal layout with text and other symbols, vertically align</text>
  <text style="stroke:none;fill:black;font-family:-apple-system,&quot;SF Pro Display&quot;,&quot;SF Pro Text&quot;,Helvetica,sans-serif;" transform="matrix(1 0 0 1 263 2007)">symbols with the adjacent text.</text>
  <rect height="14" id="" style="fill:#00AEEF;stroke:none;opacity:0.4;" width="3" x="776" y="1919"/>
  <g id="" transform="matrix(1 0 0 1 779 1933)">
   <path d="M 10.5273 0 L 12.373 0 L 7.17773 -14.0918 L 5.43945 -14.0918 L 0.244141 0 L 2.08984 0 L 3.50586 -4.0332 L 9.11133 -4.0332 Z M 6.2793 -11.9531 L 6.33789 -11.9531 L 8.59375 -5.52734 L 4.02344 -5.52734 Z"/>
  </g>
  <rect height="14" id="" style="fill:#00AEEF;stroke:none;opacity:0.4;" width="3" x="791.617" y="1919"/>
  <text style="stroke:none;fill:black;font-family:-apple-system,&quot;SF Pro Display&quot;,&quot;SF Pro Text&quot;,Helvetica,sans-serif;font-weight:bold;" transform="matrix(1 0 0 1 776 1953)">Margins</text>
  <text style="stroke:none;fill:black;font-family:-apple-system,&quot;SF Pro Display&quot;,&quot;SF Pro Text&quot;,Helvetica,sans-serif;" transform="matrix(1 0 0 1 776 1971)">Leading and trailing margins on the left and right side of each symbol</text>
  <text style="stroke:none;fill:black;font-family:-apple-system,&quot;SF Pro Display&quot;,&quot;SF Pro Text&quot;,Helvetica,sans-serif;" transform="matrix(1 0 0 1 776 1989)">can be adjusted by modifying the width of the blue rectangles.</text>
  <text style="stroke:none;fill:black;font-family:-apple-system,&quot;SF Pro Display&quot;,&quot;SF Pro Text&quot;,Helvetica,sans-serif;" transform="matrix(1 0 0 1 776 2007)">Modifications are automatically applied proportionally to all</text>
  <text style="stroke:none;fill:black;font-family:-apple-system,&quot;SF Pro Display&quot;,&quot;SF Pro Text&quot;,Helvetica,sans-serif;" transform="matrix(1 0 0 1 776 2025)">scales and weights.</text>
  <g id="" transform="matrix(1 0 0 1 1289 1933)">
   <path d="M 2.83203 3.11523 L 4.375 4.6582 C 5.22461 5.48828 6.19141 5.41992 7.06055 4.46289 L 17.2754 -6.66016 C 17.7051 -6.36719 18.0957 -6.37695 18.5645 -6.47461 L 19.6094 -6.68945 L 20.3027 -5.99609 L 20.2539 -5.47852 C 20.1855 -4.95117 20.3516 -4.53125 20.8496 -4.0332 L 21.6602 -3.22266 C 22.168 -2.71484 22.8223 -2.68555 23.3008 -3.16406 L 26.5527 -6.41602 C 27.0312 -6.89453 27.0117 -7.54883 26.5039 -8.05664 L 25.6836 -8.87695 C 25.1855 -9.375 24.7754 -9.55078 24.2383 -9.47266 L 23.7109 -9.41406 L 23.0566 -10.0781 L 23.3398 -11.2207 C 23.4863 -11.7871 23.3398 -12.2559 22.7148 -12.8613 L 20.3027 -15.2539 C 16.7578 -18.7793 12.2266 -18.6719 9.11133 -15.5371 C 8.69141 -15.1074 8.64258 -14.5215 8.91602 -14.0918 C 9.15039 -13.7207 9.62891 -13.4961 10.2734 -13.6621 C 11.7871 -14.043 13.3008 -13.9258 14.7852 -12.9199 L 14.1602 -11.3379 C 13.9258 -10.752 13.9453 -10.2734 14.1797 -9.83398 L 3.01758 0.439453 C 2.08008 1.30859 1.97266 2.25586 2.83203 3.11523 Z M 10.6738 -15.1465 C 13.3398 -17.1387 16.6504 -16.8262 19.0527 -14.4141 L 21.6797 -11.8066 C 21.9141 -11.5723 21.9434 -11.3867 21.8848 -11.0938 L 21.5039 -9.53125 L 23.0762 -7.95898 L 24.043 -8.04688 C 24.3262 -8.07617 24.4141 -8.05664 24.6387 -7.83203 L 25.2637 -7.20703 L 22.5098 -4.46289 L 21.8848 -5.07812 C 21.6602 -5.30273 21.6406 -5.40039 21.6699 -5.68359 L 21.7578 -6.64062 L 20.1953 -8.20312 L 18.5742 -7.89062 C 18.291 -7.83203 18.1445 -7.83203 17.9102 -8.07617 L 15.7324 -10.2539 C 15.5078 -10.4883 15.4785 -10.625 15.6055 -10.9473 L 16.5527 -13.2227 C 14.9512 -14.7559 12.8418 -15.6055 10.8008 -14.9512 C 10.7129 -14.9219 10.6445 -14.9414 10.6152 -14.9805 C 10.5859 -15.0293 10.5859 -15.0781 10.6738 -15.1465 Z M 4.10156 2.41211 C 3.61328 1.91406 3.78906 1.61133 4.12109 1.30859 L 15.0781 -8.80859 L 16.3086 -7.57812 L 6.15234 3.34961 C 5.84961 3.68164 5.46875 3.7793 5.06836 3.37891 Z"/>
  </g>
  <text style="stroke:none;fill:black;font-family:-apple-system,&quot;SF Pro Display&quot;,&quot;SF Pro Text&quot;,Helvetica,sans-serif;font-weight:bold;" transform="matrix(1 0 0 1 1289 1953)">Exporting</text>
  <text style="stroke:none;fill:black;font-family:-apple-system,&quot;SF Pro Display&quot;,&quot;SF Pro Text&quot;,Helvetica,sans-serif;" transform="matrix(1 0 0 1 1289 1971)">Symbols should be outlined when exporting to ensure the</text>
  <text style="stroke:none;fill:black;font-family:-apple-system,&quot;SF Pro Display&quot;,&quot;SF Pro Text&quot;,Helvetica,sans-serif;" transform="matrix(1 0 0 1 1289 1989)">design is preserved when submitting to Xcode.</text>
  <text id="template-version" style="stroke:none;fill:black;font-family:-apple-system,&quot;SF Pro Display&quot;,&quot;SF Pro Text&quot;,Helvetica,sans-serif;text-anchor:end;" transform="matrix(1 0 0 1 3036 1933)">Template v.1.0</text>
  <text style="stroke:none;fill:black;font-family:-apple-system,&quot;SF Pro Display&quot;,&quot;SF Pro Text&quot;,Helvetica,sans-serif;text-anchor:end;" transform="matrix(1 0 0 1 3036 1951)">Generated from control</text>
  <text style="stroke:none;fill:black;font-family:-apple-system,&quot;SF Pro Display&quot;,&quot;SF Pro Text&quot;,Helvetica,sans-serif;text-anchor:end;" transform="matrix(1 0 0 1 3036 1969)">Typeset at 100 points</text>
  <text style="stroke:none;fill:black;font-family:-apple-system,&quot;SF Pro Display&quot;,&quot;SF Pro Text&quot;,Helvetica,sans-serif;" transform="matrix(1 0 0 1 263 726)">Small</text>
  <text style="stroke:none;fill:black;font-family:-apple-system,&quot;SF Pro Display&quot;,&quot;SF Pro Text&quot;,Helvetica,sans-serif;" transform="matrix(1 0 0 1 263 1156)">Medium</text>
  <text style="stroke:none;fill:black;font-family:-apple-system,&quot;SF Pro Display&quot;,&quot;SF Pro Text&quot;,Helvetica,sans-serif;" transform="matrix(1 0 0 1 263 1586)">Large</text>
 </g>
 <g id="Guides">
  <g id="H-reference" style="fill:#27AAE1;stroke:none;" transform="matrix(1 0 0 1 339 696)">
   <path d="M 54.9316 0 L 57.666 0 L 30.5664 -70.459 L 28.0762 -70.459 L 0.976562 0 L 3.66211 0 L 12.9395 -24.4629 L 45.7031 -24.4629 Z M 29.1992 -67.0898 L 29.4434 -67.0898 L 44.8242 -26.709 L 13.8184 -26.709 Z"/>
  </g>
  <line id="Baseline-S" style="fill:none;stroke:#27AAE1;opacity:1;stroke-width:0.577;" x1="263" x2="3036" y1="696" y2="696"/>
  <line id="Capline-S" style="fill:none;stroke:#27AAE1;opacity:1;stroke-width:0.577;" x1="263" x2="3036" y1="625.541" y2="625.541"/>
  <g id="H-reference" style="fill:#27AAE1;stroke:none;" transform="matrix(1 0 0 1 339 1126)">
   <path d="M 54.9316 0 L 57.666 0 L 30.5664 -70.459 L 28.0762 -70.459 L 0.976562 0 L 3.66211 0 L 12.9395 -24.4629 L 45.7031 -24.4629 Z M 29.1992 -67.0898 L 29.4434 -67.0898 L 44.8242 -26.709 L 13.8184 -26.709 Z"/>
  </g>
  <line id="Baseline-M" style="fill:none;stroke:#27AAE1;opacity:1;stroke-width:0.577;" x1="263" x2="3036" y1="1126" y2="1126"/>
  <line id="Capline-M" style="fill:none;stroke:#27AAE1;opacity:1;stroke-width:0.577;" x1="263" x2="3036" y1="1055.54" y2="1055.54"/>
  <g id="H-reference" style="fill:#27AAE1;stroke:none;" transform="matrix(1 0 0 1 339 1556)">
   <path d="M 54.9316 0 L 57.666 0 L 30.5664 -70.459 L 28.0762 -70.459 L 0.976562 0 L 3.66211 0 L 12.9395 -24.4629 L 45.7031 -24.4629 Z M 29.1992 -67.0898 L 29.4434 -67.0898 L 44.8242 -26.709 L 13.8184 -26.709 Z"/>
  </g>
  <line id="Baseline-L" style="fill:none;stroke:#27AAE1;opacity:1;stroke-width:0.577;" x1="263" x2="3036" y1="1556" y2="1556"/>
  <line id="Capline-L" style="fill:none;stroke:#27AAE1;opacity:1;stroke-width:0.577;" x1="263" x2="3036" y1="1485.54" y2="1485.54"/>
  <rect height="119.336" id="left-margin" style="fill:#00AEEF;stroke:none;opacity:0.4;" width="12.4512" x="1394.99" y="1030.79"/>
  <rect height="119.336" id="right-margin" style="fill:#00AEEF;stroke:none;opacity:0.4;" width="12.4512" x="1492.25" y="1030.79"/>
 </g>
 <g id="Symbols">
  <g id="Black-L" transform="matrix(1 0 0 1 2857.5 1556)">
   <path d="M 19.6289 -44.6289 C 17.2363 -42.0898 16.0645 -39.2578 16.0645 -35.791 C 16.0645 -28.7109 21.8262 -22.8516 28.8086 -22.8516 C 32.373 -22.8516 35.6445 -24.3652 38.3301 -27.0996 L 76.0254 -65.8203 L 113.525 -27.0996 C 116.211 -24.3164 119.482 -22.8516 122.998 -22.8516 C 129.932 -22.8516 135.742 -28.7109 135.742 -35.791 C 135.742 -39.3066 134.619 -42.1387 132.129 -44.6289 L 86.6699 -90.918 C 83.3008 -94.2383 80.0781 -95.752 75.9277 -95.8008 C 71.875 -95.8008 68.6035 -94.3359 65.1855 -90.918 Z"/>
  </g>
  <g id="Heavy-L" transform="matrix(1 0 0 1 2562.32 1556)">
   <path d="M 19.1406 -44.0918 C 17.0898 -41.9434 16.0645 -39.502 16.0645 -36.5234 C 16.0645 -30.4688 20.9961 -25.4883 26.9531 -25.4883 C 29.9805 -25.4883 32.7637 -26.8066 35.0586 -29.0527 L 74.4629 -69.7266 L 113.721 -29.0527 C 115.967 -26.7578 118.799 -25.4883 121.777 -25.4883 C 127.734 -25.4883 132.666 -30.4688 132.666 -36.5234 C 132.666 -39.5508 131.689 -41.9922 129.59 -44.0918 L 83.4473 -91.3086 C 80.6641 -94.0918 77.8809 -95.3613 74.3652 -95.4102 C 70.9473 -95.4102 68.1641 -94.1406 65.2832 -91.3086 Z"/>
  </g>
  <g id="Bold-L" transform="matrix(1 0 0 1 2267.32 1556)">
   <path d="M 18.6035 -43.5059 C 16.9434 -41.7969 16.0645 -39.7949 16.0645 -37.3535 C 16.0645 -32.4707 20.0195 -28.4668 24.8535 -28.4668 C 27.3438 -28.4668 29.5898 -29.4922 31.3477 -31.2988 L 72.7051 -74.0723 L 113.965 -31.2988 C 115.723 -29.4434 118.018 -28.4668 120.41 -28.4668 C 125.293 -28.4668 129.248 -32.4707 129.248 -37.3535 C 129.248 -39.7949 128.369 -41.7969 126.709 -43.5059 L 79.8828 -91.748 C 77.7344 -93.9453 75.4395 -94.9707 72.6562 -95.0195 C 69.9219 -95.0195 67.6758 -93.9941 65.4297 -91.748 Z"/>
  </g>
  <g id="Semibold-L" transform="matrix(1 0 0 1 1971.81 1556)">
   <path d="M 18.2129 -43.1152 C 16.8457 -41.6992 16.0645 -39.9902 16.0645 -37.9395 C 16.0645 -33.7891 19.3359 -30.5176 23.4375 -30.5176 C 25.4883 -30.5176 27.3438 -31.3477 28.8086 -32.8125 L 71.4844 -77.0508 L 114.111 -32.8125 C 115.576 -31.3477 117.48 -30.5176 119.482 -30.5176 C 123.584 -30.5176 126.855 -33.7891 126.855 -37.9395 C 126.855 -39.9902 126.123 -41.6992 124.707 -43.1152 L 77.4414 -92.041 C 75.6836 -93.7988 73.7305 -94.7266 71.4355 -94.7266 C 69.1895 -94.7266 67.334 -93.8477 65.5273 -92.041 Z"/>
  </g>
  <g id="Medium-L" transform="matrix(1 0 0 1 1676 1556)">
   <path d="M 17.9199 -42.8223 C 16.748 -41.6016 16.0645 -40.1367 16.0645 -38.3789 C 16.0645 -34.8633 18.8477 -32.0801 22.3633 -32.0801 C 24.0723 -32.0801 25.6836 -32.7637 26.9043 -33.9844 L 70.6055 -79.3457 L 114.209 -33.9844 C 115.43 -32.7637 117.09 -32.0801 118.75 -32.0801 C 122.314 -32.0801 125.049 -34.8633 125.049 -38.3789 C 125.049 -40.1367 124.414 -41.6016 123.242 -42.8223 L 75.5371 -92.2363 C 74.1699 -93.75 72.4609 -94.5312 70.5566 -94.5312 C 68.6523 -94.5312 67.0898 -93.75 65.5762 -92.2852 Z"/>
  </g>
  <g id="Regular-L" transform="matrix(1 0 0 1 1380.46 1556)">
   <path d="M 17.5293 -42.4316 C 16.6504 -41.5039 16.0645 -40.332 16.0645 -38.9648 C 16.0645 -36.1816 18.1641 -34.082 20.9473 -34.082 C 22.2656 -34.082 23.4863 -34.6191 24.3652 -35.498 L 69.3848 -82.2754 L 114.355 -35.498 C 115.283 -34.6191 116.553 -34.082 117.822 -34.082 C 120.605 -34.082 122.705 -36.1816 122.705 -38.9648 C 122.705 -40.332 122.168 -41.4551 121.24 -42.3828 L 73.0957 -92.5293 C 72.1191 -93.6035 70.8008 -94.2383 69.3848 -94.2383 C 67.9688 -94.2383 66.748 -93.6523 65.6738 -92.5781 Z"/>
  </g>
  <g id="Light-L" transform="matrix(1 0 0 1 1085.65 1556)">
   <path d="M 17.2363 -41.9922 C 16.5527 -41.2598 16.0645 -40.4297 16.0645 -39.4043 C 16.0645 -37.3047 17.6758 -35.7422 19.7266 -35.7422 C 20.7031 -35.7422 21.6309 -36.084 22.3145 -36.7676 L 67.4805 -84.9121 L 112.598 -36.7676 C 113.281 -36.084 114.258 -35.7422 115.234 -35.7422 C 117.285 -35.7422 118.896 -37.3047 118.896 -39.4043 C 118.896 -40.4297 118.457 -41.2109 117.773 -41.9434 L 70.459 -92.4316 C 69.6777 -93.3105 68.6035 -93.8477 67.4316 -93.8477 C 66.3086 -93.8477 65.332 -93.3594 64.4531 -92.4805 Z"/>
  </g>
  <g id="Thin-L" transform="matrix(1 0 0 1 791.481 1556)">
   <path d="M 16.7969 -41.4551 C 16.4062 -40.9668 16.0645 -40.5273 16.0645 -39.9414 C 16.0645 -38.8184 16.9922 -37.8906 18.1152 -37.8906 C 18.6035 -37.8906 19.1895 -38.0371 19.5312 -38.4277 L 64.9902 -88.3789 L 110.303 -38.4277 C 110.693 -38.0371 111.279 -37.8906 111.816 -37.8906 C 112.939 -37.8906 113.818 -38.8184 113.818 -39.9414 C 113.818 -40.5273 113.525 -40.918 113.135 -41.3574 L 66.9922 -92.2363 C 66.4062 -92.8711 65.7227 -93.3594 64.8926 -93.3594 C 64.1113 -93.3594 63.5254 -92.9688 62.8906 -92.334 Z"/>
  </g>
  <g id="Ultralight-L" transform="matrix(1 0 0 1 496.064 1556)">
   <path d="M 16.6016 -41.1621 C 16.3574 -40.8203 16.0645 -40.625 16.0645 -40.2344 C 16.0645 -39.5996 16.6016 -39.0137 17.2852 -39.0137 C 17.5781 -39.0137 17.9688 -39.0625 18.1152 -39.3066 L 63.6719 -90.1855 L 109.082 -39.3066 C 109.326 -39.0625 109.717 -39.0137 110.01 -39.0137 C 110.693 -39.0137 111.23 -39.5996 111.23 -40.2344 C 111.23 -40.625 111.035 -40.7227 110.791 -41.0645 L 65.2344 -92.1875 C 64.6973 -92.6758 64.2578 -93.1152 63.623 -93.1152 C 62.9883 -93.1152 62.5977 -92.7734 62.0605 -92.2363 Z"/>
  </g>
  <g id="Black-M" transform="matrix(1 0 0 1 2873.54 1126)">
   <path d="M 15.7227 -42.9688 C 13.5254 -40.625 12.4512 -38.0371 12.4512 -34.8633 C 12.4512 -28.3691 17.8223 -22.9492 24.2188 -22.9492 C 27.4902 -22.9492 30.5176 -24.3164 33.0566 -26.9531 L 60.0098 -55.127 L 86.7676 -26.9531 C 89.3066 -24.2676 92.334 -22.9492 95.5566 -22.9492 C 101.904 -22.9492 107.275 -28.3691 107.275 -34.8633 C 107.275 -38.0859 106.299 -40.6738 104.004 -42.9688 L 70.0684 -77.7832 C 66.7969 -81.0059 63.8184 -82.4219 59.9121 -82.4707 C 56.0547 -82.4707 53.0273 -81.0547 49.707 -77.7832 Z"/>
  </g>
  <g id="Heavy-M" transform="matrix(1 0 0 1 2578 1126)">
   <path d="M 15.2832 -42.5293 C 13.3789 -40.5273 12.4512 -38.2812 12.4512 -35.5957 C 12.4512 -30.0293 16.9922 -25.4395 22.4609 -25.4395 C 25.293 -25.4395 27.8809 -26.6113 29.9805 -28.7598 L 58.7891 -58.6914 L 87.4512 -28.7598 C 89.5508 -26.5625 92.1387 -25.4395 94.9219 -25.4395 C 100.391 -25.4395 104.932 -30.0293 104.932 -35.5957 C 104.932 -38.3301 104.053 -40.5762 102.1 -42.5293 L 67.2852 -78.2227 C 64.5508 -80.9082 62.0117 -82.1289 58.6914 -82.1777 C 55.4688 -82.1777 52.8809 -80.957 50.1465 -78.2227 Z"/>
  </g>
  <g id="Bold-M" transform="matrix(1 0 0 1 2282.6 1126)">
   <path d="M 14.7461 -41.9922 C 13.2324 -40.4297 12.4512 -38.5742 12.4512 -36.377 C 12.4512 -31.8848 16.1133 -28.1738 20.5566 -28.1738 C 22.8027 -28.1738 24.9023 -29.1016 26.5625 -30.8105 L 57.4219 -62.6465 L 88.1836 -30.8105 C 89.8926 -29.1016 91.9922 -28.1738 94.1895 -28.1738 C 98.6328 -28.1738 102.295 -31.8848 102.295 -36.377 C 102.295 -38.623 101.562 -40.4297 100 -41.9922 L 64.1113 -78.7598 C 62.0605 -80.8105 59.9609 -81.7871 57.373 -81.8359 C 54.834 -81.8359 52.7832 -80.8594 50.6348 -78.7598 Z"/>
  </g>
  <g id="Semibold-M" transform="matrix(1 0 0 1 1986.8 1126)">
   <path d="M 14.4043 -41.6504 C 13.1348 -40.332 12.4512 -38.7695 12.4512 -36.9141 C 12.4512 -33.1055 15.4785 -30.0781 19.2383 -30.0781 C 21.1426 -30.0781 22.8516 -30.8594 24.2188 -32.2266 L 56.4941 -65.4297 L 88.7207 -32.2266 C 90.0879 -30.8594 91.8457 -30.0781 93.7012 -30.0781 C 97.4609 -30.0781 100.488 -33.1055 100.488 -36.9141 C 100.488 -38.8184 99.8047 -40.332 98.5352 -41.6504 L 61.9629 -79.1016 C 60.3516 -80.7617 58.5449 -81.543 56.4453 -81.5918 C 54.3945 -81.5918 52.6855 -80.8105 50.9766 -79.1016 Z"/>
  </g>
  <g id="Medium-M" transform="matrix(1 0 0 1 1690.79 1126)">
   <path d="M 14.1113 -41.4062 C 13.0371 -40.2832 12.4512 -38.916 12.4512 -37.3535 C 12.4512 -34.082 14.9902 -31.543 18.2129 -31.543 C 19.8242 -31.543 21.2891 -32.1777 22.4121 -33.3008 L 55.8105 -67.5293 L 89.1113 -33.3008 C 90.2344 -32.1777 91.748 -31.543 93.3105 -31.543 C 96.5332 -31.543 99.0723 -34.082 99.0723 -37.3535 C 99.0723 -38.9648 98.4863 -40.2832 97.4121 -41.4062 L 60.3027 -79.3945 C 59.0332 -80.7129 57.4707 -81.3965 55.7617 -81.3965 C 54.0527 -81.3965 52.5879 -80.7617 51.2695 -79.3945 Z"/>
  </g>
  <g id="Regular-M" transform="matrix(1 0 0 1 1394.99 1126)">
   <path d="M 13.7695 -41.0645 C 12.9395 -40.1855 12.4512 -39.1113 12.4512 -37.8906 C 12.4512 -35.3516 14.3555 -33.3984 16.8945 -33.3984 C 18.1641 -33.3984 19.2871 -33.9355 20.0684 -34.7168 L 54.8828 -70.2148 L 89.6484 -34.7168 C 90.4785 -33.9355 91.6016 -33.3984 92.8223 -33.3984 C 95.3613 -33.3984 97.2656 -35.3516 97.2656 -37.8906 C 97.2656 -39.1113 96.7773 -40.1855 95.9473 -41.0645 L 58.1543 -79.7363 C 57.3242 -80.6641 56.1035 -81.1523 54.8828 -81.1523 C 53.6133 -81.1523 52.4902 -80.6641 51.5625 -79.7363 Z"/>
  </g>
  <g id="Light-M" transform="matrix(1 0 0 1 1099.98 1126)">
   <path d="M 13.4766 -40.6738 C 12.8418 -39.9902 12.4512 -39.209 12.4512 -38.2812 C 12.4512 -36.3281 13.916 -34.8633 15.8203 -34.8633 C 16.748 -34.8633 17.627 -35.2539 18.2129 -35.8398 L 53.1738 -72.5586 L 88.0371 -35.8398 C 88.6719 -35.2539 89.5996 -34.8633 90.4785 -34.8633 C 92.3828 -34.8633 93.8477 -36.3281 93.8477 -38.2812 C 93.8477 -39.209 93.457 -39.9902 92.8223 -40.625 L 55.8105 -79.5898 C 55.0781 -80.3711 54.1504 -80.8594 53.125 -80.8594 C 52.0996 -80.8594 51.2695 -80.4199 50.4883 -79.6387 Z"/>
  </g>
  <g id="Thin-M" transform="matrix(1 0 0 1 805.543 1126)">
   <path d="M 13.1348 -40.1855 C 12.7441 -39.7461 12.4512 -39.3066 12.4512 -38.7695 C 12.4512 -37.6953 13.2812 -36.8164 14.3555 -36.8164 C 14.8926 -36.8164 15.4297 -37.0117 15.7227 -37.3535 L 50.9277 -75.6348 L 85.9863 -37.3535 C 86.3281 -37.0117 86.8652 -36.8164 87.4023 -36.8164 C 88.4766 -36.8164 89.3066 -37.6953 89.3066 -38.7695 C 89.3066 -39.3066 89.0625 -39.6973 88.6719 -40.1367 L 52.6855 -79.4434 C 52.1484 -79.9805 51.5625 -80.4199 50.8789 -80.4199 C 50.1465 -80.4199 49.6094 -80.0293 49.0723 -79.4922 Z"/>
  </g>
  <g id="Ultralight-M" transform="matrix(1 0 0 1 509.98 1126)">
   <path d="M 12.9395 -39.8926 C 12.6953 -39.5996 12.4512 -39.3555 12.4512 -39.0137 C 12.4512 -38.3789 12.9883 -37.8418 13.623 -37.8418 C 13.916 -37.8418 14.3066 -37.8906 14.4531 -38.1348 L 49.7559 -77.2461 L 84.9121 -38.1348 C 85.1562 -37.8906 85.498 -37.8418 85.791 -37.8418 C 86.4746 -37.8418 87.0117 -38.3789 87.0117 -39.0137 C 87.0117 -39.3555 86.8164 -39.5508 86.5723 -39.8438 L 51.0742 -79.3945 C 50.6348 -79.7852 50.2441 -80.1758 49.707 -80.1758 C 49.1211 -80.1758 48.7793 -79.8828 48.3398 -79.4434 Z"/>
  </g>
  <g id="Black-S" transform="matrix(1 0 0 1 2886.55 696)">
   <path d="M 12.3047 -41.2598 C 10.5957 -39.4531 9.76562 -37.4512 9.76562 -35.0098 C 9.76562 -29.9805 13.916 -25.7812 18.8477 -25.7812 C 21.3867 -25.7812 23.7305 -26.8555 25.6836 -28.8574 L 46.9238 -51.0742 L 68.0664 -28.8574 C 70.0195 -26.8066 72.3633 -25.7812 74.8535 -25.7812 C 79.7852 -25.7812 83.9355 -29.9805 83.9355 -35.0098 C 83.9355 -37.5 83.1543 -39.502 81.3965 -41.2598 L 54.7363 -68.6035 C 52.1973 -71.0938 49.9023 -72.168 46.875 -72.2168 C 43.8965 -72.2168 41.5527 -71.1426 39.0137 -68.6035 Z"/>
  </g>
  <g id="Heavy-S" transform="matrix(1 0 0 1 2590.55 696)">
   <path d="M 11.9629 -40.9668 C 10.498 -39.4043 9.76562 -37.6465 9.76562 -35.498 C 9.76562 -31.1035 13.3301 -27.4902 17.6758 -27.4902 C 19.873 -27.4902 21.875 -28.418 23.5352 -30.127 L 46.1914 -53.5156 L 68.75 -30.127 C 70.4102 -28.418 72.4609 -27.4902 74.6094 -27.4902 C 78.9062 -27.4902 82.5195 -31.1035 82.5195 -35.498 C 82.5195 -37.6953 81.7871 -39.4531 80.2734 -40.9668 L 52.832 -68.9453 C 50.7324 -71.0449 48.7305 -71.9727 46.1426 -72.0215 C 43.6035 -72.0215 41.6016 -71.0938 39.4531 -68.9453 Z"/>
  </g>
  <g id="Bold-S" transform="matrix(1 0 0 1 2294.64 696)">
   <path d="M 11.6211 -40.625 C 10.4004 -39.3555 9.76562 -37.8418 9.76562 -36.084 C 9.76562 -32.4219 12.6953 -29.4434 16.3086 -29.4434 C 18.1641 -29.4434 19.8242 -30.2246 21.1914 -31.543 L 45.3613 -56.2988 L 69.5312 -31.543 C 70.8984 -30.1758 72.5586 -29.4434 74.3652 -29.4434 C 77.9785 -29.4434 80.9082 -32.4219 80.9082 -36.084 C 80.9082 -37.8906 80.3223 -39.3555 79.0527 -40.625 L 50.7324 -69.3848 C 49.0723 -71.0449 47.4121 -71.7773 45.3613 -71.7773 C 43.3105 -71.7773 41.6504 -71.0449 39.9902 -69.3848 Z"/>
  </g>
  <g id="Semibold-S" transform="matrix(1 0 0 1 1998.47 696)">
   <path d="M 11.377 -40.3809 C 10.3027 -39.3066 9.76562 -37.9883 9.76562 -36.4258 C 9.76562 -33.3008 12.2559 -30.7617 15.3809 -30.7617 C 16.9922 -30.7617 18.4082 -31.4453 19.5312 -32.5195 L 44.8242 -58.2031 L 70.0684 -32.5195 C 71.1914 -31.3965 72.6562 -30.7617 74.1699 -30.7617 C 77.2949 -30.7617 79.834 -33.3008 79.834 -36.4258 C 79.834 -37.9883 79.248 -39.3066 78.2227 -40.3809 L 49.2676 -69.6777 C 47.9492 -70.9961 46.4844 -71.6309 44.7754 -71.6309 C 43.1152 -71.6309 41.6992 -70.9961 40.332 -69.6777 Z"/>
  </g>
  <g id="Medium-S" transform="matrix(1 0 0 1 1702.2 696)">
   <path d="M 11.1816 -40.2344 C 10.2539 -39.2578 9.76562 -38.0859 9.76562 -36.7188 C 9.76562 -33.9355 11.9141 -31.7871 14.6973 -31.7871 C 16.0645 -31.7871 17.334 -32.373 18.2617 -33.3008 L 44.3848 -59.668 L 70.459 -33.3008 C 71.4355 -32.3242 72.7051 -31.7871 74.0234 -31.7871 C 76.8066 -31.7871 78.9551 -33.9355 78.9551 -36.7188 C 78.9551 -38.1348 78.4668 -39.2578 77.5391 -40.1855 L 48.1445 -69.873 C 47.1191 -70.9961 45.8008 -71.5332 44.3848 -71.5332 C 42.9688 -71.5332 41.6992 -70.9961 40.5762 -69.873 Z"/>
  </g>
  <g id="Regular-S" transform="matrix(1 0 0 1 1406.02 696)">
   <path d="M 10.9375 -39.9902 C 10.2051 -39.209 9.76562 -38.2324 9.76562 -37.1094 C 9.76562 -34.8145 11.5234 -33.1055 13.8184 -33.1055 C 14.9414 -33.1055 15.918 -33.5449 16.6504 -34.2773 L 43.8477 -61.5234 L 70.9961 -34.2773 C 71.7285 -33.5449 72.8027 -33.1055 73.877 -33.1055 C 76.1719 -33.1055 77.8809 -34.8145 77.8809 -37.1094 C 77.8809 -38.2324 77.4414 -39.209 76.709 -39.9902 L 46.7285 -70.166 C 45.9961 -70.9473 44.9219 -71.3867 43.8477 -71.3867 C 42.7246 -71.3867 41.748 -70.9473 40.9668 -70.166 Z"/>
  </g>
  <g id="Light-S" transform="matrix(1 0 0 1 1110.82 696)">
   <path d="M 10.6934 -39.6484 C 10.1074 -39.0625 9.76562 -38.3301 9.76562 -37.4512 C 9.76562 -35.7422 11.084 -34.375 12.8418 -34.375 C 13.6719 -34.375 14.4531 -34.7168 14.9902 -35.2539 L 42.334 -63.5742 L 69.5801 -35.2539 C 70.166 -34.7168 70.9961 -34.375 71.7773 -34.375 C 73.5352 -34.375 74.8535 -35.7422 74.8535 -37.4512 C 74.8535 -38.3301 74.5117 -39.0137 73.9258 -39.6484 L 44.6289 -70.0684 C 44.043 -70.7031 43.1641 -71.0938 42.2852 -71.0938 C 41.4062 -71.0938 40.6738 -70.7031 39.9902 -70.0684 Z"/>
  </g>
  <g id="Thin-S" transform="matrix(1 0 0 1 816.115 696)">
   <path d="M 10.3516 -39.209 C 10.0098 -38.8184 9.76562 -38.4277 9.76562 -37.8906 C 9.76562 -36.9141 10.5469 -36.1328 11.5723 -36.1328 C 12.0117 -36.1328 12.5 -36.2793 12.793 -36.6211 L 40.332 -66.3086 L 67.7734 -36.6211 C 68.1152 -36.2793 68.6035 -36.1328 69.043 -36.1328 C 70.0684 -36.1328 70.8496 -36.9141 70.8496 -37.8906 C 70.8496 -38.4277 70.6055 -38.7695 70.2637 -39.1602 L 41.8945 -69.9219 C 41.4551 -70.3613 40.918 -70.7031 40.2832 -70.7031 C 39.6973 -70.7031 39.209 -70.4102 38.7207 -69.9707 Z"/>
  </g>
  <g id="Ultralight-S" transform="matrix(1 0 0 1 520.429 696)">
   <path d="M 10.2051 -38.9648 C 9.96094 -38.7207 9.76562 -38.4766 9.76562 -38.1348 C 9.76562 -37.5 10.2539 -37.0117 10.8887 -37.0117 C 11.1816 -37.0117 11.5234 -37.0605 11.6699 -37.3047 L 39.3066 -67.7246 L 66.7969 -37.3047 C 67.041 -37.0605 67.3828 -37.0117 67.6758 -37.0117 C 68.2617 -37.0117 68.7988 -37.5 68.7988 -38.1348 C 68.7988 -38.4766 68.6035 -38.6719 68.4082 -38.916 L 40.4785 -69.8242 C 40.0879 -70.2148 39.7461 -70.5078 39.2578 -70.5078 C 38.7695 -70.5078 38.4766 -70.2637 38.0859 -69.873 Z"/>
  </g>
 </g>
</svg>
