<?xml version="1.0" encoding="UTF-8"?>
<!--Generator: Apple Native CoreSVG 123-->
<!DOCTYPE svg
PUBLIC "-//W3C//DTD SVG 1.1//EN"
       "http://www.w3.org/Graphics/SVG/1.1/DTD/svg11.dtd">
<svg version="1.1" xmlns="http://www.w3.org/2000/svg" xmlns:xlink="http://www.w3.org/1999/xlink" width="3300" height="2200">
 <!--glyph: "uni10006F.medium", point size: 100.000000, font version: "Version 15.0d7e11", template writer version: "5"-->
 <g id="Notes">
  <rect height="2200" id="artboard" style="fill:white;opacity:1" width="3300" x="0" y="0"/>
  <line id="" style="fill:none;stroke:black;opacity:1;stroke-width:0.5;" x1="263" x2="3036" y1="292" y2="292"/>
  <text style="stroke:none;fill:black;font-family:-apple-system,&quot;SF Pro Display&quot;,&quot;SF Pro Text&quot;,Helvetica,sans-serif;font-weight:bold;" transform="matrix(1 0 0 1 263 322)">Weight/Scale Variations</text>
  <text style="stroke:none;fill:black;font-family:-apple-system,&quot;SF Pro Display&quot;,&quot;SF Pro Text&quot;,Helvetica,sans-serif;text-anchor:middle;" transform="matrix(1 0 0 1 559.711 322)">Ultralight</text>
  <text style="stroke:none;fill:black;font-family:-apple-system,&quot;SF Pro Display&quot;,&quot;SF Pro Text&quot;,Helvetica,sans-serif;text-anchor:middle;" transform="matrix(1 0 0 1 856.422 322)">Thin</text>
  <text style="stroke:none;fill:black;font-family:-apple-system,&quot;SF Pro Display&quot;,&quot;SF Pro Text&quot;,Helvetica,sans-serif;text-anchor:middle;" transform="matrix(1 0 0 1 1153.13 322)">Light</text>
  <text style="stroke:none;fill:black;font-family:-apple-system,&quot;SF Pro Display&quot;,&quot;SF Pro Text&quot;,Helvetica,sans-serif;text-anchor:middle;" transform="matrix(1 0 0 1 1449.84 322)">Regular</text>
  <text style="stroke:none;fill:black;font-family:-apple-system,&quot;SF Pro Display&quot;,&quot;SF Pro Text&quot;,Helvetica,sans-serif;text-anchor:middle;" transform="matrix(1 0 0 1 1746.56 322)">Medium</text>
  <text style="stroke:none;fill:black;font-family:-apple-system,&quot;SF Pro Display&quot;,&quot;SF Pro Text&quot;,Helvetica,sans-serif;text-anchor:middle;" transform="matrix(1 0 0 1 2043.27 322)">Semibold</text>
  <text style="stroke:none;fill:black;font-family:-apple-system,&quot;SF Pro Display&quot;,&quot;SF Pro Text&quot;,Helvetica,sans-serif;text-anchor:middle;" transform="matrix(1 0 0 1 2339.98 322)">Bold</text>
  <text style="stroke:none;fill:black;font-family:-apple-system,&quot;SF Pro Display&quot;,&quot;SF Pro Text&quot;,Helvetica,sans-serif;text-anchor:middle;" transform="matrix(1 0 0 1 2636.69 322)">Heavy</text>
  <text style="stroke:none;fill:black;font-family:-apple-system,&quot;SF Pro Display&quot;,&quot;SF Pro Text&quot;,Helvetica,sans-serif;text-anchor:middle;" transform="matrix(1 0 0 1 2933.4 322)">Black</text>
  <line id="" style="fill:none;stroke:black;opacity:1;stroke-width:0.5;" x1="263" x2="3036" y1="1903" y2="1903"/>
  <g id="" transform="matrix(1 0 0 1 263 1933)">
   <path d="M 9.24805 0.830078 C 13.5547 0.830078 17.1387 -2.74414 17.1387 -7.05078 C 17.1387 -11.3574 13.5449 -14.9316 9.23828 -14.9316 C 4.94141 -14.9316 1.36719 -11.3574 1.36719 -7.05078 C 1.36719 -2.74414 4.95117 0.830078 9.24805 0.830078 Z M 9.24805 -0.654297 C 5.70312 -0.654297 2.87109 -3.49609 2.87109 -7.05078 C 2.87109 -10.6055 5.69336 -13.4473 9.23828 -13.4473 C 12.793 -13.4473 15.6348 -10.6055 15.6445 -7.05078 C 15.6543 -3.49609 12.8027 -0.654297 9.24805 -0.654297 Z M 9.22852 -3.42773 C 9.69727 -3.42773 9.9707 -3.74023 9.9707 -4.25781 L 9.9707 -6.31836 L 12.1973 -6.31836 C 12.6953 -6.31836 13.0371 -6.57227 13.0371 -7.04102 C 13.0371 -7.51953 12.7148 -7.7832 12.1973 -7.7832 L 9.9707 -7.7832 L 9.9707 -10.0098 C 9.9707 -10.5273 9.69727 -10.8496 9.22852 -10.8496 C 8.75977 -10.8496 8.50586 -10.5078 8.50586 -10.0098 L 8.50586 -7.7832 L 6.29883 -7.7832 C 5.78125 -7.7832 5.44922 -7.51953 5.44922 -7.04102 C 5.44922 -6.57227 5.80078 -6.31836 6.29883 -6.31836 L 8.50586 -6.31836 L 8.50586 -4.25781 C 8.50586 -3.75977 8.75977 -3.42773 9.22852 -3.42773 Z"/>
  </g>
  <g id="" transform="matrix(1 0 0 1 281.506 1933)">
   <path d="M 11.709 2.91016 C 17.1582 2.91016 21.6699 -1.60156 21.6699 -7.05078 C 21.6699 -12.4902 17.1484 -17.0117 11.6992 -17.0117 C 6.25977 -17.0117 1.74805 -12.4902 1.74805 -7.05078 C 1.74805 -1.60156 6.26953 2.91016 11.709 2.91016 Z M 11.709 1.25 C 7.09961 1.25 3.41797 -2.44141 3.41797 -7.05078 C 3.41797 -11.6504 7.08984 -15.3516 11.6992 -15.3516 C 16.3086 -15.3516 20 -11.6504 20.0098 -7.05078 C 20.0195 -2.44141 16.3184 1.25 11.709 1.25 Z M 11.6895 -2.41211 C 12.207 -2.41211 12.5195 -2.77344 12.5195 -3.33984 L 12.5195 -6.23047 L 15.5762 -6.23047 C 16.123 -6.23047 16.5039 -6.51367 16.5039 -7.03125 C 16.5039 -7.55859 16.1426 -7.86133 15.5762 -7.86133 L 12.5195 -7.86133 L 12.5195 -10.9277 C 12.5195 -11.5039 12.207 -11.8555 11.6895 -11.8555 C 11.1719 -11.8555 10.8789 -11.4844 10.8789 -10.9277 L 10.8789 -7.86133 L 7.83203 -7.86133 C 7.26562 -7.86133 6.89453 -7.55859 6.89453 -7.03125 C 6.89453 -6.51367 7.28516 -6.23047 7.83203 -6.23047 L 10.8789 -6.23047 L 10.8789 -3.33984 C 10.8789 -2.79297 11.1719 -2.41211 11.6895 -2.41211 Z"/>
  </g>
  <g id="" transform="matrix(1 0 0 1 304.924 1933)">
   <path d="M 14.9707 5.67383 C 21.9336 5.67383 27.6953 -0.078125 27.6953 -7.04102 C 27.6953 -14.0039 21.9238 -19.7559 14.9609 -19.7559 C 8.00781 -19.7559 2.25586 -14.0039 2.25586 -7.04102 C 2.25586 -0.078125 8.01758 5.67383 14.9707 5.67383 Z M 14.9707 3.85742 C 8.93555 3.85742 4.08203 -1.00586 4.08203 -7.04102 C 4.08203 -13.0762 8.92578 -17.9395 14.9609 -17.9395 C 21.0059 -17.9395 25.8594 -13.0762 25.8691 -7.04102 C 25.8789 -1.00586 21.0156 3.85742 14.9707 3.85742 Z M 14.9512 -1.06445 C 15.5176 -1.06445 15.8691 -1.45508 15.8691 -2.06055 L 15.8691 -6.13281 L 20.1074 -6.13281 C 20.6934 -6.13281 21.1133 -6.46484 21.1133 -7.02148 C 21.1133 -7.59766 20.7227 -7.93945 20.1074 -7.93945 L 15.8691 -7.93945 L 15.8691 -12.1875 C 15.8691 -12.8027 15.5176 -13.1934 14.9512 -13.1934 C 14.3848 -13.1934 14.0625 -12.7832 14.0625 -12.1875 L 14.0625 -7.93945 L 9.83398 -7.93945 C 9.21875 -7.93945 8.80859 -7.59766 8.80859 -7.02148 C 8.80859 -6.46484 9.23828 -6.13281 9.83398 -6.13281 L 14.0625 -6.13281 L 14.0625 -2.06055 C 14.0625 -1.47461 14.3848 -1.06445 14.9512 -1.06445 Z"/>
  </g>
  <text style="stroke:none;fill:black;font-family:-apple-system,&quot;SF Pro Display&quot;,&quot;SF Pro Text&quot;,Helvetica,sans-serif;font-weight:bold;" transform="matrix(1 0 0 1 263 1953)">Design Variations</text>
  <text style="stroke:none;fill:black;font-family:-apple-system,&quot;SF Pro Display&quot;,&quot;SF Pro Text&quot;,Helvetica,sans-serif;" transform="matrix(1 0 0 1 263 1971)">Symbols are supported in up to nine weights and three scales.</text>
  <text style="stroke:none;fill:black;font-family:-apple-system,&quot;SF Pro Display&quot;,&quot;SF Pro Text&quot;,Helvetica,sans-serif;" transform="matrix(1 0 0 1 263 1989)">For optimal layout with text and other symbols, vertically align</text>
  <text style="stroke:none;fill:black;font-family:-apple-system,&quot;SF Pro Display&quot;,&quot;SF Pro Text&quot;,Helvetica,sans-serif;" transform="matrix(1 0 0 1 263 2007)">symbols with the adjacent text.</text>
  <rect height="14" id="" style="fill:#00AEEF;stroke:none;opacity:0.4;" width="3" x="776" y="1919"/>
  <g id="" transform="matrix(1 0 0 1 779 1933)">
   <path d="M 10.5273 0 L 12.373 0 L 7.17773 -14.0918 L 5.43945 -14.0918 L 0.244141 0 L 2.08984 0 L 3.50586 -4.0332 L 9.11133 -4.0332 Z M 6.2793 -11.9531 L 6.33789 -11.9531 L 8.59375 -5.52734 L 4.02344 -5.52734 Z"/>
  </g>
  <rect height="14" id="" style="fill:#00AEEF;stroke:none;opacity:0.4;" width="3" x="791.617" y="1919"/>
  <text style="stroke:none;fill:black;font-family:-apple-system,&quot;SF Pro Display&quot;,&quot;SF Pro Text&quot;,Helvetica,sans-serif;font-weight:bold;" transform="matrix(1 0 0 1 776 1953)">Margins</text>
  <text style="stroke:none;fill:black;font-family:-apple-system,&quot;SF Pro Display&quot;,&quot;SF Pro Text&quot;,Helvetica,sans-serif;" transform="matrix(1 0 0 1 776 1971)">Leading and trailing margins on the left and right side of each symbol</text>
  <text style="stroke:none;fill:black;font-family:-apple-system,&quot;SF Pro Display&quot;,&quot;SF Pro Text&quot;,Helvetica,sans-serif;" transform="matrix(1 0 0 1 776 1989)">can be adjusted by modifying the width of the blue rectangles.</text>
  <text style="stroke:none;fill:black;font-family:-apple-system,&quot;SF Pro Display&quot;,&quot;SF Pro Text&quot;,Helvetica,sans-serif;" transform="matrix(1 0 0 1 776 2007)">Modifications are automatically applied proportionally to all</text>
  <text style="stroke:none;fill:black;font-family:-apple-system,&quot;SF Pro Display&quot;,&quot;SF Pro Text&quot;,Helvetica,sans-serif;" transform="matrix(1 0 0 1 776 2025)">scales and weights.</text>
  <g id="" transform="matrix(1 0 0 1 1289 1933)">
   <path d="M 2.83203 3.11523 L 4.375 4.6582 C 5.22461 5.48828 6.19141 5.41992 7.06055 4.46289 L 17.2754 -6.66016 C 17.7051 -6.36719 18.0957 -6.37695 18.5645 -6.47461 L 19.6094 -6.68945 L 20.3027 -5.99609 L 20.2539 -5.47852 C 20.1855 -4.95117 20.3516 -4.53125 20.8496 -4.0332 L 21.6602 -3.22266 C 22.168 -2.71484 22.8223 -2.68555 23.3008 -3.16406 L 26.5527 -6.41602 C 27.0312 -6.89453 27.0117 -7.54883 26.5039 -8.05664 L 25.6836 -8.87695 C 25.1855 -9.375 24.7754 -9.55078 24.2383 -9.47266 L 23.7109 -9.41406 L 23.0566 -10.0781 L 23.3398 -11.2207 C 23.4863 -11.7871 23.3398 -12.2559 22.7148 -12.8613 L 20.3027 -15.2539 C 16.7578 -18.7793 12.2266 -18.6719 9.11133 -15.5371 C 8.69141 -15.1074 8.64258 -14.5215 8.91602 -14.0918 C 9.15039 -13.7207 9.62891 -13.4961 10.2734 -13.6621 C 11.7871 -14.043 13.3008 -13.9258 14.7852 -12.9199 L 14.1602 -11.3379 C 13.9258 -10.752 13.9453 -10.2734 14.1797 -9.83398 L 3.01758 0.439453 C 2.08008 1.30859 1.97266 2.25586 2.83203 3.11523 Z M 10.6738 -15.1465 C 13.3398 -17.1387 16.6504 -16.8262 19.0527 -14.4141 L 21.6797 -11.8066 C 21.9141 -11.5723 21.9434 -11.3867 21.8848 -11.0938 L 21.5039 -9.53125 L 23.0762 -7.95898 L 24.043 -8.04688 C 24.3262 -8.07617 24.4141 -8.05664 24.6387 -7.83203 L 25.2637 -7.20703 L 22.5098 -4.46289 L 21.8848 -5.07812 C 21.6602 -5.30273 21.6406 -5.40039 21.6699 -5.68359 L 21.7578 -6.64062 L 20.1953 -8.20312 L 18.5742 -7.89062 C 18.291 -7.83203 18.1445 -7.83203 17.9102 -8.07617 L 15.7324 -10.2539 C 15.5078 -10.4883 15.4785 -10.625 15.6055 -10.9473 L 16.5527 -13.2227 C 14.9512 -14.7559 12.8418 -15.6055 10.8008 -14.9512 C 10.7129 -14.9219 10.6445 -14.9414 10.6152 -14.9805 C 10.5859 -15.0293 10.5859 -15.0781 10.6738 -15.1465 Z M 4.10156 2.41211 C 3.61328 1.91406 3.78906 1.61133 4.12109 1.30859 L 15.0781 -8.80859 L 16.3086 -7.57812 L 6.15234 3.34961 C 5.84961 3.68164 5.46875 3.7793 5.06836 3.37891 Z"/>
  </g>
  <text style="stroke:none;fill:black;font-family:-apple-system,&quot;SF Pro Display&quot;,&quot;SF Pro Text&quot;,Helvetica,sans-serif;font-weight:bold;" transform="matrix(1 0 0 1 1289 1953)">Exporting</text>
  <text style="stroke:none;fill:black;font-family:-apple-system,&quot;SF Pro Display&quot;,&quot;SF Pro Text&quot;,Helvetica,sans-serif;" transform="matrix(1 0 0 1 1289 1971)">Symbols should be outlined when exporting to ensure the</text>
  <text style="stroke:none;fill:black;font-family:-apple-system,&quot;SF Pro Display&quot;,&quot;SF Pro Text&quot;,Helvetica,sans-serif;" transform="matrix(1 0 0 1 1289 1989)">design is preserved when submitting to Xcode.</text>
  <text id="template-version" style="stroke:none;fill:black;font-family:-apple-system,&quot;SF Pro Display&quot;,&quot;SF Pro Text&quot;,Helvetica,sans-serif;text-anchor:end;" transform="matrix(1 0 0 1 3036 1933)">Template v.1.0</text>
  <text style="stroke:none;fill:black;font-family:-apple-system,&quot;SF Pro Display&quot;,&quot;SF Pro Text&quot;,Helvetica,sans-serif;text-anchor:end;" transform="matrix(1 0 0 1 3036 1951)">Generated from chevron.up.circle.fill</text>
  <text style="stroke:none;fill:black;font-family:-apple-system,&quot;SF Pro Display&quot;,&quot;SF Pro Text&quot;,Helvetica,sans-serif;text-anchor:end;" transform="matrix(1 0 0 1 3036 1969)">Typeset at 100 points</text>
  <text style="stroke:none;fill:black;font-family:-apple-system,&quot;SF Pro Display&quot;,&quot;SF Pro Text&quot;,Helvetica,sans-serif;" transform="matrix(1 0 0 1 263 726)">Small</text>
  <text style="stroke:none;fill:black;font-family:-apple-system,&quot;SF Pro Display&quot;,&quot;SF Pro Text&quot;,Helvetica,sans-serif;" transform="matrix(1 0 0 1 263 1156)">Medium</text>
  <text style="stroke:none;fill:black;font-family:-apple-system,&quot;SF Pro Display&quot;,&quot;SF Pro Text&quot;,Helvetica,sans-serif;" transform="matrix(1 0 0 1 263 1586)">Large</text>
 </g>
 <g id="Guides">
  <g id="H-reference" style="fill:#27AAE1;stroke:none;" transform="matrix(1 0 0 1 339 696)">
   <path d="M 54.9316 0 L 57.666 0 L 30.5664 -70.459 L 28.0762 -70.459 L 0.976562 0 L 3.66211 0 L 12.9395 -24.4629 L 45.7031 -24.4629 Z M 29.1992 -67.0898 L 29.4434 -67.0898 L 44.8242 -26.709 L 13.8184 -26.709 Z"/>
  </g>
  <line id="Baseline-S" style="fill:none;stroke:#27AAE1;opacity:1;stroke-width:0.577;" x1="263" x2="3036" y1="696" y2="696"/>
  <line id="Capline-S" style="fill:none;stroke:#27AAE1;opacity:1;stroke-width:0.577;" x1="263" x2="3036" y1="625.541" y2="625.541"/>
  <g id="H-reference" style="fill:#27AAE1;stroke:none;" transform="matrix(1 0 0 1 339 1126)">
   <path d="M 54.9316 0 L 57.666 0 L 30.5664 -70.459 L 28.0762 -70.459 L 0.976562 0 L 3.66211 0 L 12.9395 -24.4629 L 45.7031 -24.4629 Z M 29.1992 -67.0898 L 29.4434 -67.0898 L 44.8242 -26.709 L 13.8184 -26.709 Z"/>
  </g>
  <line id="Baseline-M" style="fill:none;stroke:#27AAE1;opacity:1;stroke-width:0.577;" x1="263" x2="3036" y1="1126" y2="1126"/>
  <line id="Capline-M" style="fill:none;stroke:#27AAE1;opacity:1;stroke-width:0.577;" x1="263" x2="3036" y1="1055.54" y2="1055.54"/>
  <g id="H-reference" style="fill:#27AAE1;stroke:none;" transform="matrix(1 0 0 1 339 1556)">
   <path d="M 54.9316 0 L 57.666 0 L 30.5664 -70.459 L 28.0762 -70.459 L 0.976562 0 L 3.66211 0 L 12.9395 -24.4629 L 45.7031 -24.4629 Z M 29.1992 -67.0898 L 29.4434 -67.0898 L 44.8242 -26.709 L 13.8184 -26.709 Z"/>
  </g>
  <line id="Baseline-L" style="fill:none;stroke:#27AAE1;opacity:1;stroke-width:0.577;" x1="263" x2="3036" y1="1556" y2="1556"/>
  <line id="Capline-L" style="fill:none;stroke:#27AAE1;opacity:1;stroke-width:0.577;" x1="263" x2="3036" y1="1485.54" y2="1485.54"/>
  <rect height="119.336" id="left-margin" style="fill:#00AEEF;stroke:none;opacity:0.4;" width="8.74023" x="1391.3" y="1030.79"/>
  <rect height="119.336" id="right-margin" style="fill:#00AEEF;stroke:none;opacity:0.4;" width="8.74023" x="1499.65" y="1030.79"/>
 </g>
 <g id="Symbols">
  <g id="Black-L" transform="matrix(1 0 0 1 2854.05 1556)">
   <path d="M 79.3457 32.8613 C 116.748 32.8613 147.412 2.19727 147.412 -35.2051 C 147.412 -72.6074 116.748 -103.271 79.2969 -103.271 C 41.8945 -103.271 11.2793 -72.6074 11.2793 -35.2051 C 11.2793 2.19727 41.9434 32.8613 79.3457 32.8613 Z M 88.1348 -54.9805 L 111.279 -30.1758 C 114.258 -26.9531 114.258 -21.9727 111.475 -19.3359 C 108.203 -16.2109 103.369 -16.1621 100.439 -19.3359 L 79.3457 -41.9434 L 58.3008 -19.3359 C 55.3223 -16.1621 50.4395 -16.2109 47.2168 -19.3359 C 44.4336 -21.9727 44.4336 -26.9531 47.4121 -30.1758 L 70.5566 -54.9805 C 75.3418 -60.2051 83.3496 -60.2051 88.1348 -54.9805 Z"/>
  </g>
  <g id="Heavy-L" transform="matrix(1 0 0 1 2558.39 1556)">
   <path d="M 78.2715 31.7871 C 115.088 31.7871 145.312 1.61133 145.312 -35.2051 C 145.312 -72.0215 115.039 -102.197 78.2715 -102.197 C 41.4551 -102.197 11.2793 -72.0215 11.2793 -35.2051 C 11.2793 1.61133 41.5039 31.7871 78.2715 31.7871 Z M 86.3281 -54.834 L 110.352 -29.1504 C 113.037 -26.3184 113.037 -21.875 110.498 -19.4824 C 107.617 -16.6504 103.271 -16.6016 100.635 -19.4824 L 78.2715 -43.2617 L 55.957 -19.4824 C 53.2715 -16.6016 48.9258 -16.6504 46.0449 -19.4824 C 43.5547 -21.875 43.5547 -26.3184 46.2402 -29.1504 L 70.2148 -54.834 C 74.7559 -59.7168 81.8359 -59.7168 86.3281 -54.834 Z"/>
  </g>
  <g id="Bold-L" transform="matrix(1 0 0 1 2262.88 1556)">
   <path d="M 77.0996 30.6152 C 113.232 30.6152 142.92 0.878906 142.92 -35.2051 C 142.92 -71.3379 113.184 -101.025 77.0508 -101.025 C 40.9668 -101.025 11.2793 -71.3379 11.2793 -35.2051 C 11.2793 0.878906 41.0156 30.6152 77.0996 30.6152 Z M 84.3262 -54.5898 L 109.326 -28.0762 C 111.67 -25.5859 111.67 -21.7773 109.473 -19.6289 C 106.982 -17.1387 103.174 -17.0898 100.928 -19.5801 L 77.0996 -44.7754 L 53.3203 -19.5801 C 51.0254 -17.0898 47.2168 -17.1387 44.7266 -19.6289 C 42.5293 -21.7773 42.5293 -25.5859 44.9219 -28.0762 L 69.873 -54.5898 C 74.0723 -59.1309 80.1758 -59.1309 84.3262 -54.5898 Z"/>
  </g>
  <g id="Semibold-L" transform="matrix(1 0 0 1 1966.97 1556)">
   <path d="M 76.2695 29.7852 C 111.914 29.7852 141.309 0.439453 141.309 -35.2051 C 141.309 -70.8496 111.865 -100.244 76.2695 -100.244 C 40.625 -100.244 11.2793 -70.8496 11.2793 -35.2051 C 11.2793 0.439453 40.6738 29.7852 76.2695 29.7852 Z M 82.9102 -54.4922 L 108.594 -27.2949 C 110.742 -25.0488 110.742 -21.6797 108.74 -19.7266 C 106.543 -17.4805 103.125 -17.4316 101.074 -19.6777 L 76.2695 -45.8008 L 51.5137 -19.6777 C 49.4629 -17.4316 46.0449 -17.4805 43.8477 -19.7266 C 41.8457 -21.6797 41.8457 -25.0488 43.9941 -27.2949 L 69.6777 -54.4922 C 73.584 -58.6914 79.0039 -58.6914 82.9102 -54.4922 Z"/>
  </g>
  <g id="Medium-L" transform="matrix(1 0 0 1 1670.87 1556)">
   <path d="M 75.6836 29.1992 C 110.938 29.1992 140.088 0.0488281 140.088 -35.2051 C 140.088 -70.459 110.889 -99.6094 75.6348 -99.6094 C 40.3809 -99.6094 11.2793 -70.459 11.2793 -35.2051 C 11.2793 0.0488281 40.3809 29.1992 75.6836 29.1992 Z M 81.8848 -54.3457 L 108.057 -26.709 C 110.01 -24.6582 110.059 -21.6309 108.203 -19.8242 C 106.201 -17.7734 103.076 -17.7246 101.221 -19.7754 L 75.6836 -46.582 L 50.1465 -19.7754 C 48.2422 -17.7246 45.1172 -17.7734 43.1641 -19.8242 C 41.3086 -21.6309 41.3086 -24.6582 43.3105 -26.709 L 69.4824 -54.3457 C 73.2422 -58.3984 78.125 -58.3984 81.8848 -54.3457 Z"/>
  </g>
  <g id="Regular-L" transform="matrix(1 0 0 1 1374.97 1556)">
   <path d="M 74.8535 28.3691 C 109.668 28.3691 138.477 -0.390625 138.477 -35.2051 C 138.477 -70.0195 109.619 -98.7793 74.8047 -98.7793 C 40.0391 -98.7793 11.2793 -70.0195 11.2793 -35.2051 C 11.2793 -0.390625 40.0879 28.3691 74.8535 28.3691 Z M 80.5176 -54.1992 L 107.324 -25.9766 C 109.082 -24.1699 109.131 -21.5332 107.471 -19.9219 C 105.762 -18.1152 103.027 -18.0664 101.416 -19.8242 L 74.8535 -47.6074 L 48.3887 -19.8242 C 46.7285 -18.0664 43.9941 -18.1152 42.2363 -19.9219 C 40.625 -21.5332 40.625 -24.1699 42.3828 -25.9766 L 69.2383 -54.1992 C 72.8027 -58.0078 77.002 -58.0078 80.5176 -54.1992 Z"/>
  </g>
  <g id="Light-L" transform="matrix(1 0 0 1 1079.18 1556)">
   <path d="M 73.9258 27.4902 C 108.301 27.4902 136.621 -0.830078 136.621 -35.1562 C 136.621 -69.5312 108.252 -97.8516 73.9258 -97.8516 C 39.5508 -97.8516 11.2793 -69.5312 11.2793 -35.1562 C 11.2793 -0.830078 39.5996 27.4902 73.9258 27.4902 Z M 78.2715 -54.1016 L 106.348 -24.9512 C 107.764 -23.5352 107.812 -21.4844 106.445 -20.166 C 105.127 -18.75 102.979 -18.7012 101.709 -20.1172 L 73.9258 -48.8281 L 46.2402 -20.1172 C 44.9219 -18.7012 42.7734 -18.75 41.4062 -20.166 C 40.0879 -21.4844 40.1367 -23.5352 41.5039 -24.9512 L 69.6289 -54.1016 C 72.3145 -57.0312 75.5859 -57.0312 78.2715 -54.1016 Z"/>
  </g>
  <g id="Thin-L" transform="matrix(1 0 0 1 783.693 1556)">
   <path d="M 72.7051 26.3184 C 106.494 26.3184 134.18 -1.36719 134.18 -35.1074 C 134.18 -68.8965 106.494 -96.582 72.7051 -96.582 C 38.9648 -96.582 11.2793 -68.8965 11.2793 -35.1074 C 11.2793 -1.36719 38.9648 26.3184 72.7051 26.3184 Z M 75.3418 -53.9551 L 105.078 -23.584 C 106.006 -22.7051 106.055 -21.3867 105.078 -20.459 C 104.297 -19.5801 102.881 -19.5801 102.051 -20.5078 L 72.7051 -50.4395 L 43.4082 -20.5078 C 42.5293 -19.5801 41.1621 -19.5801 40.332 -20.459 C 39.3555 -21.3867 39.4531 -22.7051 40.3809 -23.584 L 70.1172 -53.9551 C 71.7285 -55.7129 73.7793 -55.7129 75.3418 -53.9551 Z"/>
  </g>
  <g id="Ultralight-L" transform="matrix(1 0 0 1 487.616 1556)">
   <path d="M 72.1191 25.7324 C 105.566 25.7324 132.91 -1.61133 132.91 -35.1074 C 132.91 -68.5547 105.566 -95.8984 72.1191 -95.8984 C 38.623 -95.8984 11.2793 -68.5547 11.2793 -35.1074 C 11.2793 -1.61133 38.623 25.7324 72.1191 25.7324 Z M 73.8281 -53.9062 L 104.395 -22.8516 C 105.078 -22.2656 105.176 -21.3379 104.395 -20.6543 C 103.857 -20.0195 102.881 -20.0684 102.246 -20.752 L 72.1191 -51.2695 L 41.9434 -20.752 C 41.3086 -20.0684 40.332 -20.0195 39.7949 -20.6543 C 39.0137 -21.3379 39.1113 -22.2656 39.7949 -22.8516 L 70.3613 -53.9062 C 71.4355 -55.0781 72.8516 -55.0781 73.8281 -53.9062 Z"/>
  </g>
  <g id="Black-M" transform="matrix(1 0 0 1 2870.97 1126)">
   <path d="M 62.4023 18.457 C 91.9922 18.457 116.113 -5.61523 116.113 -35.2051 C 116.113 -64.7949 91.9922 -88.8672 62.4023 -88.8672 C 32.8125 -88.8672 8.74023 -64.7949 8.74023 -35.2051 C 8.74023 -5.61523 32.8125 18.457 62.4023 18.457 Z M 69.5312 -50.7324 L 86.9629 -32.0801 C 89.4531 -29.3945 89.4531 -25.0488 87.0605 -22.8516 C 84.3262 -20.2148 80.1758 -20.2148 77.6367 -22.9004 L 62.4023 -39.2578 L 47.168 -22.9004 C 44.6777 -20.2148 40.5273 -20.2148 37.7441 -22.8516 C 35.3516 -25.0488 35.3516 -29.3945 37.8906 -32.0801 L 55.2734 -50.7324 C 58.9355 -54.7852 65.8691 -54.7852 69.5312 -50.7324 Z"/>
  </g>
  <g id="Heavy-M" transform="matrix(1 0 0 1 2575.19 1126)">
   <path d="M 61.5234 17.5781 C 90.5273 17.5781 114.258 -6.15234 114.258 -35.2051 C 114.258 -64.2578 90.5273 -87.9883 61.4746 -87.9883 C 32.4707 -87.9883 8.74023 -64.2578 8.74023 -35.2051 C 8.74023 -6.15234 32.4707 17.5781 61.5234 17.5781 Z M 68.1641 -50.5859 L 86.1816 -31.25 C 88.4766 -28.8086 88.4766 -24.9512 86.3281 -22.9492 C 83.8379 -20.5566 80.0781 -20.5078 77.832 -22.9492 L 61.5234 -40.4297 L 45.166 -22.9492 C 42.9199 -20.5078 39.1602 -20.5566 36.6699 -22.9492 C 34.5215 -24.9512 34.5215 -28.8086 36.8164 -31.25 L 54.834 -50.5859 C 58.3984 -54.4434 64.5996 -54.4434 68.1641 -50.5859 Z"/>
  </g>
  <g id="Bold-M" transform="matrix(1 0 0 1 2279.5 1126)">
   <path d="M 60.498 16.5039 C 88.8672 16.5039 112.207 -6.78711 112.207 -35.2051 C 112.207 -63.623 88.8672 -86.9629 60.4492 -86.9629 C 32.0312 -86.9629 8.74023 -63.623 8.74023 -35.2051 C 8.74023 -6.78711 32.0801 16.5039 60.498 16.5039 Z M 66.6016 -50.3906 L 85.3516 -30.3711 C 87.4023 -28.1738 87.4023 -24.8535 85.498 -23.0469 C 83.3008 -20.8984 80.0293 -20.8984 78.0273 -23.0469 L 60.498 -41.6992 L 42.9199 -23.0469 C 40.918 -20.8984 37.6465 -20.8984 35.498 -23.0469 C 33.5938 -24.8535 33.5938 -28.1738 35.5957 -30.3711 L 54.3457 -50.3906 C 57.8125 -54.1016 63.1836 -54.1016 66.6016 -50.3906 Z"/>
  </g>
  <g id="Semibold-M" transform="matrix(1 0 0 1 1983.5 1126)">
   <path d="M 59.7656 15.8203 C 87.7441 15.8203 110.791 -7.22656 110.791 -35.2051 C 110.791 -63.1836 87.6953 -86.2793 59.7656 -86.2793 C 31.7871 -86.2793 8.74023 -63.1836 8.74023 -35.2051 C 8.74023 -7.22656 31.7871 15.8203 59.7656 15.8203 Z M 65.5273 -50.2441 L 84.7656 -29.7363 C 86.6211 -27.7832 86.6211 -24.8047 84.9121 -23.0957 C 82.959 -21.1426 79.9805 -21.1426 78.1738 -23.0469 L 59.7656 -42.5781 L 41.4062 -23.0469 C 39.5996 -21.1426 36.6211 -21.1426 34.668 -23.0957 C 32.9102 -24.8047 32.9102 -27.7832 34.7656 -29.7363 L 54.0527 -50.2441 C 57.373 -53.8574 62.1582 -53.8574 65.5273 -50.2441 Z"/>
  </g>
  <g id="Medium-M" transform="matrix(1 0 0 1 1687.3 1126)">
   <path d="M 59.2285 15.2832 C 86.9141 15.2832 109.766 -7.56836 109.766 -35.2051 C 109.766 -62.8906 86.8652 -85.7422 59.1797 -85.7422 C 31.543 -85.7422 8.74023 -62.8906 8.74023 -35.2051 C 8.74023 -7.56836 31.5918 15.2832 59.2285 15.2832 Z M 64.6973 -50.1465 L 84.3262 -29.248 C 86.0352 -27.4414 86.0352 -24.7559 84.4727 -23.1445 C 82.666 -21.3379 79.9316 -21.2891 78.2715 -23.0957 L 59.2285 -43.2617 L 40.2344 -23.0957 C 38.5742 -21.2891 35.791 -21.3379 34.0332 -23.1445 C 32.4219 -24.7559 32.4219 -27.4414 34.1797 -29.248 L 53.7598 -50.1465 C 57.0801 -53.6621 61.4258 -53.6621 64.6973 -50.1465 Z"/>
  </g>
  <g id="Regular-M" transform="matrix(1 0 0 1 1391.3 1126)">
   <path d="M 58.5449 14.5508 C 85.791 14.5508 108.35 -8.00781 108.35 -35.2539 C 108.35 -62.4512 85.7422 -85.0586 58.4961 -85.0586 C 31.2988 -85.0586 8.74023 -62.4512 8.74023 -35.2539 C 8.74023 -8.00781 31.3477 14.5508 58.5449 14.5508 Z M 63.623 -50 L 83.7402 -28.6621 C 85.3027 -27.002 85.3027 -24.6582 83.8867 -23.2422 C 82.3242 -21.582 79.8828 -21.5332 78.418 -23.1445 L 58.5449 -44.1406 L 38.7207 -23.1445 C 37.207 -21.5332 34.7656 -21.582 33.2031 -23.2422 C 31.7871 -24.6582 31.7871 -27.002 33.3496 -28.6621 L 53.4668 -50 C 56.6406 -53.418 60.4492 -53.418 63.623 -50 Z"/>
  </g>
  <g id="Light-M" transform="matrix(1 0 0 1 1095.42 1126)">
   <path d="M 57.7148 13.7695 C 84.5215 13.7695 106.689 -8.39844 106.689 -35.2051 C 106.689 -62.0117 84.5215 -84.1797 57.666 -84.1797 C 30.8594 -84.1797 8.74023 -62.0117 8.74023 -35.2051 C 8.74023 -8.39844 30.9082 13.7695 57.7148 13.7695 Z M 61.6699 -49.9023 L 82.8613 -27.7344 C 84.082 -26.4648 84.1309 -24.6094 82.959 -23.4375 C 81.7383 -22.168 79.834 -22.1191 78.6621 -23.3887 L 57.7148 -45.2148 L 36.7676 -23.3887 C 35.5957 -22.1191 33.6914 -22.168 32.4707 -23.4375 C 31.2988 -24.6094 31.3477 -26.4648 32.5684 -27.7344 L 53.7598 -49.9023 C 56.25 -52.5391 59.2285 -52.5391 61.6699 -49.9023 Z"/>
  </g>
  <g id="Thin-M" transform="matrix(1 0 0 1 799.806 1126)">
   <path d="M 56.6406 12.7441 C 82.9102 12.7441 104.492 -8.83789 104.492 -35.1562 C 104.492 -61.4746 82.9102 -83.0566 56.5918 -83.0566 C 30.3223 -83.0566 8.74023 -61.4746 8.74023 -35.1562 C 8.74023 -8.83789 30.3223 12.7441 56.6406 12.7441 Z M 59.0332 -49.8047 L 81.6895 -26.5137 C 82.5195 -25.6836 82.5684 -24.5117 81.7383 -23.7305 C 81.0059 -22.9492 79.7363 -22.9004 79.0039 -23.7305 L 56.6406 -46.6797 L 34.2285 -23.7305 C 33.4961 -22.9004 32.2266 -22.9492 31.4941 -23.7305 C 30.6641 -24.5117 30.7129 -25.6836 31.543 -26.5137 L 54.1992 -49.8047 C 55.7129 -51.3672 57.5684 -51.3672 59.0332 -49.8047 Z"/>
  </g>
  <g id="Ultralight-M" transform="matrix(1 0 0 1 503.656 1126)">
   <path d="M 56.0547 12.207 C 82.0801 12.207 103.369 -9.08203 103.369 -35.1562 C 103.369 -61.1816 82.0801 -82.4707 56.0547 -82.4707 C 30.0293 -82.4707 8.74023 -61.1816 8.74023 -35.1562 C 8.74023 -9.08203 30.0293 12.207 56.0547 12.207 Z M 57.666 -49.707 L 81.1035 -25.8789 C 81.7383 -25.3418 81.7871 -24.4629 81.1035 -23.877 C 80.6152 -23.3398 79.7363 -23.3398 79.1992 -23.9258 L 56.0547 -47.4121 L 32.959 -23.9258 C 32.373 -23.3398 31.4941 -23.3398 31.0059 -23.877 C 30.3223 -24.4629 30.4199 -25.3418 31.0059 -25.8789 L 54.4434 -49.707 C 55.4688 -50.7812 56.7383 -50.7812 57.666 -49.707 Z"/>
  </g>
  <g id="Black-S" transform="matrix(1 0 0 1 2884.57 696)">
   <path d="M 48.8281 6.78711 C 71.9727 6.78711 90.8203 -12.0605 90.8203 -35.2051 C 90.8203 -58.3496 71.9727 -77.1973 48.8281 -77.1973 C 25.6836 -77.1973 6.83594 -58.3496 6.83594 -35.2051 C 6.83594 -12.0605 25.6836 6.78711 48.8281 6.78711 Z M 54.3945 -47.3633 L 68.0664 -32.7148 C 70.0195 -30.6152 70.0195 -27.2461 68.1641 -25.5371 C 66.0156 -23.4863 62.793 -23.4863 60.8398 -25.5859 L 48.8281 -38.4766 L 36.8164 -25.5859 C 34.8633 -23.4863 31.6406 -23.4863 29.4922 -25.5371 C 27.6367 -27.2461 27.6367 -30.6152 29.5898 -32.7148 L 43.2617 -47.3633 C 46.1426 -50.5371 51.5137 -50.5371 54.3945 -47.3633 Z"/>
  </g>
  <g id="Heavy-S" transform="matrix(1 0 0 1 2588.47 696)">
   <path d="M 48.2422 6.15234 C 70.9961 6.15234 89.5996 -12.4512 89.5996 -35.2051 C 89.5996 -57.959 70.9961 -76.6113 48.1934 -76.6113 C 25.4395 -76.6113 6.83594 -57.959 6.83594 -35.2051 C 6.83594 -12.4512 25.4395 6.15234 48.2422 6.15234 Z M 53.5645 -47.2656 L 67.5781 -32.1777 C 69.3848 -30.2246 69.3848 -27.1973 67.6758 -25.5859 C 65.7227 -23.6816 62.7441 -23.6816 60.9375 -25.5859 L 48.2422 -39.209 L 35.498 -25.5859 C 33.6914 -23.6816 30.7129 -23.6816 28.7598 -25.5859 C 27.0508 -27.1973 27.0508 -30.2246 28.8574 -32.1777 L 42.8711 -47.2656 C 45.752 -50.3906 50.6836 -50.3906 53.5645 -47.2656 Z"/>
  </g>
  <g id="Bold-S" transform="matrix(1 0 0 1 2292.44 696)">
   <path d="M 47.5586 5.46875 C 69.873 5.46875 88.2324 -12.8906 88.2324 -35.2051 C 88.2324 -57.5684 69.873 -75.9277 47.5098 -75.9277 C 25.1953 -75.9277 6.83594 -57.5684 6.83594 -35.2051 C 6.83594 -12.8906 25.1953 5.46875 47.5586 5.46875 Z M 52.5879 -47.1191 L 67.041 -31.6406 C 68.7012 -29.834 68.7012 -27.0996 67.1875 -25.6348 C 65.3809 -23.877 62.6953 -23.8281 61.084 -25.5859 L 47.5586 -40.0879 L 34.0332 -25.5859 C 32.373 -23.8281 29.6875 -23.877 27.9297 -25.6348 C 26.3672 -27.0996 26.3672 -29.834 28.0273 -31.6406 L 42.4805 -47.1191 C 45.3613 -50.2441 49.7559 -50.2441 52.5879 -47.1191 Z"/>
  </g>
  <g id="Semibold-S" transform="matrix(1 0 0 1 1996.2 696)">
   <path d="M 47.0703 4.98047 C 69.0918 4.98047 87.3047 -13.1836 87.3047 -35.2539 C 87.3047 -57.2754 69.0918 -75.4883 47.0215 -75.4883 C 25 -75.4883 6.83594 -57.2754 6.83594 -35.2539 C 6.83594 -13.1836 25.0488 4.98047 47.0703 4.98047 Z M 51.9531 -47.0215 L 66.6504 -31.2012 C 68.2129 -29.541 68.2129 -27.0508 66.7969 -25.6836 C 65.1367 -24.0234 62.6465 -23.9746 61.1816 -25.6348 L 47.0703 -40.6738 L 33.0078 -25.6348 C 31.4941 -23.9746 29.0039 -24.0234 27.3438 -25.6836 C 25.9277 -27.0508 25.9277 -29.541 27.4902 -31.2012 L 42.1875 -47.0215 C 45.0684 -50.0977 49.0723 -50.0977 51.9531 -47.0215 Z"/>
  </g>
  <g id="Medium-S" transform="matrix(1 0 0 1 1699.83 696)">
   <path d="M 46.7285 4.63867 C 68.5547 4.63867 86.6211 -13.4277 86.6211 -35.2539 C 86.6211 -57.0312 68.5059 -75.1465 46.6797 -75.1465 C 24.8535 -75.1465 6.83594 -57.0312 6.83594 -35.2539 C 6.83594 -13.4277 24.9023 4.63867 46.7285 4.63867 Z M 51.4648 -46.9727 L 66.4062 -30.9082 C 67.8711 -29.3457 67.8711 -27.0508 66.5039 -25.6836 C 64.9902 -24.1211 62.6465 -24.0723 61.2305 -25.6348 L 46.7285 -41.1133 L 32.2266 -25.6348 C 30.8105 -24.0723 28.4668 -24.1211 26.9043 -25.6836 C 25.5859 -27.0508 25.5859 -29.3457 27.0508 -30.9082 L 41.9922 -46.9727 C 44.873 -50.0488 48.584 -50.0488 51.4648 -46.9727 Z"/>
  </g>
  <g id="Regular-S" transform="matrix(1 0 0 1 1403.58 696)">
   <path d="M 46.2402 4.15039 C 67.7734 4.15039 85.6934 -13.7207 85.6934 -35.2539 C 85.6934 -56.7871 67.7246 -74.6582 46.1914 -74.6582 C 24.707 -74.6582 6.83594 -56.7871 6.83594 -35.2539 C 6.83594 -13.7207 24.7559 4.15039 46.2402 4.15039 Z M 50.8301 -46.875 L 66.0156 -30.5176 C 67.3828 -29.0527 67.3828 -27.002 66.1621 -25.7324 C 64.7461 -24.2676 62.5977 -24.2188 61.3281 -25.6348 L 46.2402 -41.6504 L 31.25 -25.6348 C 29.9316 -24.2188 27.7832 -24.2676 26.3672 -25.7324 C 25.0977 -27.002 25.1465 -29.0527 26.5137 -30.5176 L 41.6992 -46.875 C 44.5801 -49.9023 47.9492 -49.9023 50.8301 -46.875 Z"/>
  </g>
  <g id="Light-S" transform="matrix(1 0 0 1 1107.6 696)">
   <path d="M 45.5078 3.4668 C 66.6992 3.4668 84.2285 -14.0625 84.2285 -35.2051 C 84.2285 -56.3965 66.6504 -73.9258 45.5078 -73.9258 C 24.3164 -73.9258 6.83594 -56.3965 6.83594 -35.2051 C 6.83594 -14.0625 24.3652 3.4668 45.5078 3.4668 Z M 49.0723 -46.7773 L 65.2344 -29.6875 C 66.3574 -28.5645 66.3574 -26.9531 65.332 -25.9277 C 64.2578 -24.7559 62.5488 -24.7559 61.5234 -25.8789 L 45.5078 -42.627 L 29.541 -25.8789 C 28.5156 -24.7559 26.8066 -24.7559 25.6836 -25.9277 C 24.707 -26.9531 24.707 -28.5645 25.7812 -29.6875 L 41.9922 -46.7773 C 44.2383 -49.1211 46.875 -49.1211 49.0723 -46.7773 Z"/>
  </g>
  <g id="Thin-S" transform="matrix(1 0 0 1 811.867 696)">
   <path d="M 44.5801 2.53906 C 65.2832 2.53906 82.2754 -14.4531 82.2754 -35.2051 C 82.2754 -55.9082 65.2344 -72.9004 44.5312 -72.9004 C 23.8281 -72.9004 6.83594 -55.9082 6.83594 -35.2051 C 6.83594 -14.4531 23.877 2.53906 44.5801 2.53906 Z M 46.7285 -46.6797 L 64.209 -28.6133 C 64.9414 -27.9297 64.9902 -26.8555 64.2578 -26.1719 C 63.623 -25.4395 62.5 -25.4395 61.8164 -26.1719 L 44.5801 -43.8965 L 27.2949 -26.1719 C 26.6113 -25.4395 25.5371 -25.4395 24.8535 -26.1719 C 24.1211 -26.8555 24.1699 -27.9297 24.9023 -28.6133 L 42.3828 -46.6797 C 43.75 -48.0957 45.4102 -48.0957 46.7285 -46.6797 Z"/>
  </g>
  <g id="Ultralight-S" transform="matrix(1 0 0 1 515.644 696)">
   <path d="M 44.043 2.05078 C 64.502 2.05078 81.2988 -14.6973 81.2988 -35.1562 C 81.2988 -55.6152 64.502 -72.3633 44.043 -72.3633 C 23.584 -72.3633 6.83594 -55.6152 6.83594 -35.1562 C 6.83594 -14.6973 23.584 2.05078 44.043 2.05078 Z M 45.5566 -46.582 L 63.6719 -28.0762 C 64.209 -27.5879 64.2578 -26.8066 63.7207 -26.2695 C 63.2812 -25.7812 62.4512 -25.7812 61.9629 -26.3184 L 44.043 -44.5801 L 26.123 -26.3184 C 25.6836 -25.7812 24.8535 -25.7812 24.4141 -26.2695 C 23.8281 -26.8066 23.877 -27.5879 24.4141 -28.0762 L 42.5781 -46.582 C 43.5059 -47.5586 44.6777 -47.5586 45.5566 -46.582 Z"/>
  </g>
 </g>
</svg>
