<?xml version="1.0" encoding="UTF-8"?>
<!--Generator: Apple Native CoreSVG 123-->
<!DOCTYPE svg
PUBLIC "-//W3C//DTD SVG 1.1//EN"
       "http://www.w3.org/Graphics/SVG/1.1/DTD/svg11.dtd">
<svg version="1.1" xmlns="http://www.w3.org/2000/svg" xmlns:xlink="http://www.w3.org/1999/xlink" width="3300" height="2200">
 <!--glyph: "uni10046A.medium", point size: 100.000000, font version: "Version 15.0d7e11", template writer version: "5"-->
 <g id="Notes">
  <rect height="2200" id="artboard" style="fill:white;opacity:1" width="3300" x="0" y="0"/>
  <line id="" style="fill:none;stroke:black;opacity:1;stroke-width:0.5;" x1="263" x2="3036" y1="292" y2="292"/>
  <text style="stroke:none;fill:black;font-family:-apple-system,&quot;SF Pro Display&quot;,&quot;SF Pro Text&quot;,Helvetica,sans-serif;font-weight:bold;" transform="matrix(1 0 0 1 263 322)">Weight/Scale Variations</text>
  <text style="stroke:none;fill:black;font-family:-apple-system,&quot;SF Pro Display&quot;,&quot;SF Pro Text&quot;,Helvetica,sans-serif;text-anchor:middle;" transform="matrix(1 0 0 1 559.711 322)">Ultralight</text>
  <text style="stroke:none;fill:black;font-family:-apple-system,&quot;SF Pro Display&quot;,&quot;SF Pro Text&quot;,Helvetica,sans-serif;text-anchor:middle;" transform="matrix(1 0 0 1 856.422 322)">Thin</text>
  <text style="stroke:none;fill:black;font-family:-apple-system,&quot;SF Pro Display&quot;,&quot;SF Pro Text&quot;,Helvetica,sans-serif;text-anchor:middle;" transform="matrix(1 0 0 1 1153.13 322)">Light</text>
  <text style="stroke:none;fill:black;font-family:-apple-system,&quot;SF Pro Display&quot;,&quot;SF Pro Text&quot;,Helvetica,sans-serif;text-anchor:middle;" transform="matrix(1 0 0 1 1449.84 322)">Regular</text>
  <text style="stroke:none;fill:black;font-family:-apple-system,&quot;SF Pro Display&quot;,&quot;SF Pro Text&quot;,Helvetica,sans-serif;text-anchor:middle;" transform="matrix(1 0 0 1 1746.56 322)">Medium</text>
  <text style="stroke:none;fill:black;font-family:-apple-system,&quot;SF Pro Display&quot;,&quot;SF Pro Text&quot;,Helvetica,sans-serif;text-anchor:middle;" transform="matrix(1 0 0 1 2043.27 322)">Semibold</text>
  <text style="stroke:none;fill:black;font-family:-apple-system,&quot;SF Pro Display&quot;,&quot;SF Pro Text&quot;,Helvetica,sans-serif;text-anchor:middle;" transform="matrix(1 0 0 1 2339.98 322)">Bold</text>
  <text style="stroke:none;fill:black;font-family:-apple-system,&quot;SF Pro Display&quot;,&quot;SF Pro Text&quot;,Helvetica,sans-serif;text-anchor:middle;" transform="matrix(1 0 0 1 2636.69 322)">Heavy</text>
  <text style="stroke:none;fill:black;font-family:-apple-system,&quot;SF Pro Display&quot;,&quot;SF Pro Text&quot;,Helvetica,sans-serif;text-anchor:middle;" transform="matrix(1 0 0 1 2933.4 322)">Black</text>
  <line id="" style="fill:none;stroke:black;opacity:1;stroke-width:0.5;" x1="263" x2="3036" y1="1903" y2="1903"/>
  <g id="" transform="matrix(1 0 0 1 263 1933)">
   <path d="M 9.24805 0.830078 C 13.5547 0.830078 17.1387 -2.74414 17.1387 -7.05078 C 17.1387 -11.3574 13.5449 -14.9316 9.23828 -14.9316 C 4.94141 -14.9316 1.36719 -11.3574 1.36719 -7.05078 C 1.36719 -2.74414 4.95117 0.830078 9.24805 0.830078 Z M 9.24805 -0.654297 C 5.70312 -0.654297 2.87109 -3.49609 2.87109 -7.05078 C 2.87109 -10.6055 5.69336 -13.4473 9.23828 -13.4473 C 12.793 -13.4473 15.6348 -10.6055 15.6445 -7.05078 C 15.6543 -3.49609 12.8027 -0.654297 9.24805 -0.654297 Z M 9.22852 -3.42773 C 9.69727 -3.42773 9.9707 -3.74023 9.9707 -4.25781 L 9.9707 -6.31836 L 12.1973 -6.31836 C 12.6953 -6.31836 13.0371 -6.57227 13.0371 -7.04102 C 13.0371 -7.51953 12.7148 -7.7832 12.1973 -7.7832 L 9.9707 -7.7832 L 9.9707 -10.0098 C 9.9707 -10.5273 9.69727 -10.8496 9.22852 -10.8496 C 8.75977 -10.8496 8.50586 -10.5078 8.50586 -10.0098 L 8.50586 -7.7832 L 6.29883 -7.7832 C 5.78125 -7.7832 5.44922 -7.51953 5.44922 -7.04102 C 5.44922 -6.57227 5.80078 -6.31836 6.29883 -6.31836 L 8.50586 -6.31836 L 8.50586 -4.25781 C 8.50586 -3.75977 8.75977 -3.42773 9.22852 -3.42773 Z"/>
  </g>
  <g id="" transform="matrix(1 0 0 1 281.506 1933)">
   <path d="M 11.709 2.91016 C 17.1582 2.91016 21.6699 -1.60156 21.6699 -7.05078 C 21.6699 -12.4902 17.1484 -17.0117 11.6992 -17.0117 C 6.25977 -17.0117 1.74805 -12.4902 1.74805 -7.05078 C 1.74805 -1.60156 6.26953 2.91016 11.709 2.91016 Z M 11.709 1.25 C 7.09961 1.25 3.41797 -2.44141 3.41797 -7.05078 C 3.41797 -11.6504 7.08984 -15.3516 11.6992 -15.3516 C 16.3086 -15.3516 20 -11.6504 20.0098 -7.05078 C 20.0195 -2.44141 16.3184 1.25 11.709 1.25 Z M 11.6895 -2.41211 C 12.207 -2.41211 12.5195 -2.77344 12.5195 -3.33984 L 12.5195 -6.23047 L 15.5762 -6.23047 C 16.123 -6.23047 16.5039 -6.51367 16.5039 -7.03125 C 16.5039 -7.55859 16.1426 -7.86133 15.5762 -7.86133 L 12.5195 -7.86133 L 12.5195 -10.9277 C 12.5195 -11.5039 12.207 -11.8555 11.6895 -11.8555 C 11.1719 -11.8555 10.8789 -11.4844 10.8789 -10.9277 L 10.8789 -7.86133 L 7.83203 -7.86133 C 7.26562 -7.86133 6.89453 -7.55859 6.89453 -7.03125 C 6.89453 -6.51367 7.28516 -6.23047 7.83203 -6.23047 L 10.8789 -6.23047 L 10.8789 -3.33984 C 10.8789 -2.79297 11.1719 -2.41211 11.6895 -2.41211 Z"/>
  </g>
  <g id="" transform="matrix(1 0 0 1 304.924 1933)">
   <path d="M 14.9707 5.67383 C 21.9336 5.67383 27.6953 -0.078125 27.6953 -7.04102 C 27.6953 -14.0039 21.9238 -19.7559 14.9609 -19.7559 C 8.00781 -19.7559 2.25586 -14.0039 2.25586 -7.04102 C 2.25586 -0.078125 8.01758 5.67383 14.9707 5.67383 Z M 14.9707 3.85742 C 8.93555 3.85742 4.08203 -1.00586 4.08203 -7.04102 C 4.08203 -13.0762 8.92578 -17.9395 14.9609 -17.9395 C 21.0059 -17.9395 25.8594 -13.0762 25.8691 -7.04102 C 25.8789 -1.00586 21.0156 3.85742 14.9707 3.85742 Z M 14.9512 -1.06445 C 15.5176 -1.06445 15.8691 -1.45508 15.8691 -2.06055 L 15.8691 -6.13281 L 20.1074 -6.13281 C 20.6934 -6.13281 21.1133 -6.46484 21.1133 -7.02148 C 21.1133 -7.59766 20.7227 -7.93945 20.1074 -7.93945 L 15.8691 -7.93945 L 15.8691 -12.1875 C 15.8691 -12.8027 15.5176 -13.1934 14.9512 -13.1934 C 14.3848 -13.1934 14.0625 -12.7832 14.0625 -12.1875 L 14.0625 -7.93945 L 9.83398 -7.93945 C 9.21875 -7.93945 8.80859 -7.59766 8.80859 -7.02148 C 8.80859 -6.46484 9.23828 -6.13281 9.83398 -6.13281 L 14.0625 -6.13281 L 14.0625 -2.06055 C 14.0625 -1.47461 14.3848 -1.06445 14.9512 -1.06445 Z"/>
  </g>
  <text style="stroke:none;fill:black;font-family:-apple-system,&quot;SF Pro Display&quot;,&quot;SF Pro Text&quot;,Helvetica,sans-serif;font-weight:bold;" transform="matrix(1 0 0 1 263 1953)">Design Variations</text>
  <text style="stroke:none;fill:black;font-family:-apple-system,&quot;SF Pro Display&quot;,&quot;SF Pro Text&quot;,Helvetica,sans-serif;" transform="matrix(1 0 0 1 263 1971)">Symbols are supported in up to nine weights and three scales.</text>
  <text style="stroke:none;fill:black;font-family:-apple-system,&quot;SF Pro Display&quot;,&quot;SF Pro Text&quot;,Helvetica,sans-serif;" transform="matrix(1 0 0 1 263 1989)">For optimal layout with text and other symbols, vertically align</text>
  <text style="stroke:none;fill:black;font-family:-apple-system,&quot;SF Pro Display&quot;,&quot;SF Pro Text&quot;,Helvetica,sans-serif;" transform="matrix(1 0 0 1 263 2007)">symbols with the adjacent text.</text>
  <rect height="14" id="" style="fill:#00AEEF;stroke:none;opacity:0.4;" width="3" x="776" y="1919"/>
  <g id="" transform="matrix(1 0 0 1 779 1933)">
   <path d="M 10.5273 0 L 12.373 0 L 7.17773 -14.0918 L 5.43945 -14.0918 L 0.244141 0 L 2.08984 0 L 3.50586 -4.0332 L 9.11133 -4.0332 Z M 6.2793 -11.9531 L 6.33789 -11.9531 L 8.59375 -5.52734 L 4.02344 -5.52734 Z"/>
  </g>
  <rect height="14" id="" style="fill:#00AEEF;stroke:none;opacity:0.4;" width="3" x="791.617" y="1919"/>
  <text style="stroke:none;fill:black;font-family:-apple-system,&quot;SF Pro Display&quot;,&quot;SF Pro Text&quot;,Helvetica,sans-serif;font-weight:bold;" transform="matrix(1 0 0 1 776 1953)">Margins</text>
  <text style="stroke:none;fill:black;font-family:-apple-system,&quot;SF Pro Display&quot;,&quot;SF Pro Text&quot;,Helvetica,sans-serif;" transform="matrix(1 0 0 1 776 1971)">Leading and trailing margins on the left and right side of each symbol</text>
  <text style="stroke:none;fill:black;font-family:-apple-system,&quot;SF Pro Display&quot;,&quot;SF Pro Text&quot;,Helvetica,sans-serif;" transform="matrix(1 0 0 1 776 1989)">can be adjusted by modifying the width of the blue rectangles.</text>
  <text style="stroke:none;fill:black;font-family:-apple-system,&quot;SF Pro Display&quot;,&quot;SF Pro Text&quot;,Helvetica,sans-serif;" transform="matrix(1 0 0 1 776 2007)">Modifications are automatically applied proportionally to all</text>
  <text style="stroke:none;fill:black;font-family:-apple-system,&quot;SF Pro Display&quot;,&quot;SF Pro Text&quot;,Helvetica,sans-serif;" transform="matrix(1 0 0 1 776 2025)">scales and weights.</text>
  <g id="" transform="matrix(1 0 0 1 1289 1933)">
   <path d="M 2.83203 3.11523 L 4.375 4.6582 C 5.22461 5.48828 6.19141 5.41992 7.06055 4.46289 L 17.2754 -6.66016 C 17.7051 -6.36719 18.0957 -6.37695 18.5645 -6.47461 L 19.6094 -6.68945 L 20.3027 -5.99609 L 20.2539 -5.47852 C 20.1855 -4.95117 20.3516 -4.53125 20.8496 -4.0332 L 21.6602 -3.22266 C 22.168 -2.71484 22.8223 -2.68555 23.3008 -3.16406 L 26.5527 -6.41602 C 27.0312 -6.89453 27.0117 -7.54883 26.5039 -8.05664 L 25.6836 -8.87695 C 25.1855 -9.375 24.7754 -9.55078 24.2383 -9.47266 L 23.7109 -9.41406 L 23.0566 -10.0781 L 23.3398 -11.2207 C 23.4863 -11.7871 23.3398 -12.2559 22.7148 -12.8613 L 20.3027 -15.2539 C 16.7578 -18.7793 12.2266 -18.6719 9.11133 -15.5371 C 8.69141 -15.1074 8.64258 -14.5215 8.91602 -14.0918 C 9.15039 -13.7207 9.62891 -13.4961 10.2734 -13.6621 C 11.7871 -14.043 13.3008 -13.9258 14.7852 -12.9199 L 14.1602 -11.3379 C 13.9258 -10.752 13.9453 -10.2734 14.1797 -9.83398 L 3.01758 0.439453 C 2.08008 1.30859 1.97266 2.25586 2.83203 3.11523 Z M 10.6738 -15.1465 C 13.3398 -17.1387 16.6504 -16.8262 19.0527 -14.4141 L 21.6797 -11.8066 C 21.9141 -11.5723 21.9434 -11.3867 21.8848 -11.0938 L 21.5039 -9.53125 L 23.0762 -7.95898 L 24.043 -8.04688 C 24.3262 -8.07617 24.4141 -8.05664 24.6387 -7.83203 L 25.2637 -7.20703 L 22.5098 -4.46289 L 21.8848 -5.07812 C 21.6602 -5.30273 21.6406 -5.40039 21.6699 -5.68359 L 21.7578 -6.64062 L 20.1953 -8.20312 L 18.5742 -7.89062 C 18.291 -7.83203 18.1445 -7.83203 17.9102 -8.07617 L 15.7324 -10.2539 C 15.5078 -10.4883 15.4785 -10.625 15.6055 -10.9473 L 16.5527 -13.2227 C 14.9512 -14.7559 12.8418 -15.6055 10.8008 -14.9512 C 10.7129 -14.9219 10.6445 -14.9414 10.6152 -14.9805 C 10.5859 -15.0293 10.5859 -15.0781 10.6738 -15.1465 Z M 4.10156 2.41211 C 3.61328 1.91406 3.78906 1.61133 4.12109 1.30859 L 15.0781 -8.80859 L 16.3086 -7.57812 L 6.15234 3.34961 C 5.84961 3.68164 5.46875 3.7793 5.06836 3.37891 Z"/>
  </g>
  <text style="stroke:none;fill:black;font-family:-apple-system,&quot;SF Pro Display&quot;,&quot;SF Pro Text&quot;,Helvetica,sans-serif;font-weight:bold;" transform="matrix(1 0 0 1 1289 1953)">Exporting</text>
  <text style="stroke:none;fill:black;font-family:-apple-system,&quot;SF Pro Display&quot;,&quot;SF Pro Text&quot;,Helvetica,sans-serif;" transform="matrix(1 0 0 1 1289 1971)">Symbols should be outlined when exporting to ensure the</text>
  <text style="stroke:none;fill:black;font-family:-apple-system,&quot;SF Pro Display&quot;,&quot;SF Pro Text&quot;,Helvetica,sans-serif;" transform="matrix(1 0 0 1 1289 1989)">design is preserved when submitting to Xcode.</text>
  <text id="template-version" style="stroke:none;fill:black;font-family:-apple-system,&quot;SF Pro Display&quot;,&quot;SF Pro Text&quot;,Helvetica,sans-serif;text-anchor:end;" transform="matrix(1 0 0 1 3036 1933)">Template v.1.0</text>
  <text style="stroke:none;fill:black;font-family:-apple-system,&quot;SF Pro Display&quot;,&quot;SF Pro Text&quot;,Helvetica,sans-serif;text-anchor:end;" transform="matrix(1 0 0 1 3036 1951)">Generated from music.note</text>
  <text style="stroke:none;fill:black;font-family:-apple-system,&quot;SF Pro Display&quot;,&quot;SF Pro Text&quot;,Helvetica,sans-serif;text-anchor:end;" transform="matrix(1 0 0 1 3036 1969)">Typeset at 100 points</text>
  <text style="stroke:none;fill:black;font-family:-apple-system,&quot;SF Pro Display&quot;,&quot;SF Pro Text&quot;,Helvetica,sans-serif;" transform="matrix(1 0 0 1 263 726)">Small</text>
  <text style="stroke:none;fill:black;font-family:-apple-system,&quot;SF Pro Display&quot;,&quot;SF Pro Text&quot;,Helvetica,sans-serif;" transform="matrix(1 0 0 1 263 1156)">Medium</text>
  <text style="stroke:none;fill:black;font-family:-apple-system,&quot;SF Pro Display&quot;,&quot;SF Pro Text&quot;,Helvetica,sans-serif;" transform="matrix(1 0 0 1 263 1586)">Large</text>
 </g>
 <g id="Guides">
  <g id="H-reference" style="fill:#27AAE1;stroke:none;" transform="matrix(1 0 0 1 339 696)">
   <path d="M 54.9316 0 L 57.666 0 L 30.5664 -70.459 L 28.0762 -70.459 L 0.976562 0 L 3.66211 0 L 12.9395 -24.4629 L 45.7031 -24.4629 Z M 29.1992 -67.0898 L 29.4434 -67.0898 L 44.8242 -26.709 L 13.8184 -26.709 Z"/>
  </g>
  <line id="Baseline-S" style="fill:none;stroke:#27AAE1;opacity:1;stroke-width:0.577;" x1="263" x2="3036" y1="696" y2="696"/>
  <line id="Capline-S" style="fill:none;stroke:#27AAE1;opacity:1;stroke-width:0.577;" x1="263" x2="3036" y1="625.541" y2="625.541"/>
  <g id="H-reference" style="fill:#27AAE1;stroke:none;" transform="matrix(1 0 0 1 339 1126)">
   <path d="M 54.9316 0 L 57.666 0 L 30.5664 -70.459 L 28.0762 -70.459 L 0.976562 0 L 3.66211 0 L 12.9395 -24.4629 L 45.7031 -24.4629 Z M 29.1992 -67.0898 L 29.4434 -67.0898 L 44.8242 -26.709 L 13.8184 -26.709 Z"/>
  </g>
  <line id="Baseline-M" style="fill:none;stroke:#27AAE1;opacity:1;stroke-width:0.577;" x1="263" x2="3036" y1="1126" y2="1126"/>
  <line id="Capline-M" style="fill:none;stroke:#27AAE1;opacity:1;stroke-width:0.577;" x1="263" x2="3036" y1="1055.54" y2="1055.54"/>
  <g id="H-reference" style="fill:#27AAE1;stroke:none;" transform="matrix(1 0 0 1 339 1556)">
   <path d="M 54.9316 0 L 57.666 0 L 30.5664 -70.459 L 28.0762 -70.459 L 0.976562 0 L 3.66211 0 L 12.9395 -24.4629 L 45.7031 -24.4629 Z M 29.1992 -67.0898 L 29.4434 -67.0898 L 44.8242 -26.709 L 13.8184 -26.709 Z"/>
  </g>
  <line id="Baseline-L" style="fill:none;stroke:#27AAE1;opacity:1;stroke-width:0.577;" x1="263" x2="3036" y1="1556" y2="1556"/>
  <line id="Capline-L" style="fill:none;stroke:#27AAE1;opacity:1;stroke-width:0.577;" x1="263" x2="3036" y1="1485.54" y2="1485.54"/>
  <rect height="119.336" id="left-margin" style="fill:#00AEEF;stroke:none;opacity:0.4;" width="12.4512" x="1406.88" y="1030.79"/>
  <rect height="119.336" id="right-margin" style="fill:#00AEEF;stroke:none;opacity:0.4;" width="12.4512" x="1480.36" y="1030.79"/>
 </g>
 <g id="Symbols">
  <g id="Black-L" transform="matrix(1 0 0 1 2876.25 1556)">
   <path d="M 98.2422 -69.1406 L 98.2422 -92.5781 C 98.2422 -96.9238 94.6289 -99.9023 90.3809 -98.9746 L 57.373 -91.7969 C 52.4902 -90.7227 49.8535 -88.0371 49.8535 -83.7402 L 49.9512 -14.6973 C 49.9512 -12.2559 48.877 -10.7422 46.7773 -10.3027 L 36.4258 -8.1543 C 22.6074 -5.32227 16.0645 1.95312 16.0645 12.5 C 16.0645 24.4141 25.1953 30.9082 36.0352 30.9082 C 46.4844 30.9082 61.2793 23.291 61.2793 4.54102 L 61.2793 -53.6133 C 61.2793 -56.2012 61.4746 -56.3965 63.7695 -56.9336 L 93.6523 -63.4277 C 96.4355 -64.0625 98.2422 -66.2598 98.2422 -69.1406 Z"/>
  </g>
  <g id="Heavy-L" transform="matrix(1 0 0 1 2579.98 1556)">
   <path d="M 97.3633 -68.9941 L 97.3633 -92.3828 C 97.3633 -96.5332 93.9453 -99.3652 89.8438 -98.5352 L 56.7871 -91.3086 C 52.0508 -90.2344 49.4629 -87.6953 49.4629 -83.5449 L 49.6582 -14.4043 C 49.6582 -11.8164 48.5352 -10.2051 46.2891 -9.76562 L 35.9863 -7.66602 C 22.4609 -4.83398 16.0645 2.24609 16.0645 12.5977 C 16.0645 23.9746 24.8047 30.5176 35.5469 30.5176 C 45.752 30.5176 60.3516 23.0957 60.3516 4.44336 L 60.3516 -53.4668 C 60.3516 -56.2012 60.5957 -56.4941 63.0859 -57.0312 L 92.9688 -63.5742 C 95.6543 -64.1602 97.3633 -66.2598 97.3633 -68.9941 Z"/>
  </g>
  <g id="Bold-L" transform="matrix(1 0 0 1 2283.75 1556)">
   <path d="M 96.3867 -68.7988 L 96.3867 -92.1875 C 96.3867 -96.1426 93.1641 -98.7793 89.2578 -97.998 L 56.1035 -90.7715 C 51.5137 -89.7461 49.0723 -87.3047 49.0723 -83.3496 L 49.3164 -14.0625 C 49.3164 -11.377 48.0957 -9.66797 45.752 -9.17969 L 35.5469 -7.08008 C 22.3145 -4.29688 16.0645 2.58789 16.0645 12.6465 C 16.0645 23.4863 24.3652 30.127 35.0586 30.127 C 44.9219 30.127 59.3262 22.8516 59.3262 4.29688 L 59.3262 -53.2715 C 59.3262 -56.2012 59.668 -56.5918 62.3047 -57.1777 L 92.2363 -63.7207 C 94.7754 -64.2578 96.3867 -66.2598 96.3867 -68.7988 Z"/>
  </g>
  <g id="Semibold-L" transform="matrix(1 0 0 1 1987.38 1556)">
   <path d="M 95.7031 -68.7012 L 95.7031 -92.041 C 95.7031 -95.8496 92.5781 -98.3887 88.8672 -97.6074 L 55.6641 -90.3809 C 51.1719 -89.4043 48.7793 -87.0117 48.7793 -83.1543 L 49.1211 -13.8672 C 49.1211 -11.084 47.8027 -9.27734 45.3613 -8.78906 L 35.2539 -6.68945 C 22.168 -3.95508 16.0645 2.7832 16.0645 12.6953 C 16.0645 23.0957 24.0723 29.834 34.7168 29.834 C 44.3848 29.834 58.5938 22.7051 58.5938 4.19922 L 58.5938 -53.1738 C 58.5938 -56.2012 59.0332 -56.6895 61.7188 -57.2754 L 91.6992 -63.8184 C 94.1406 -64.3555 95.7031 -66.2598 95.7031 -68.7012 Z"/>
  </g>
  <g id="Medium-L" transform="matrix(1 0 0 1 1690.94 1556)">
   <path d="M 95.166 -68.6035 L 95.166 -91.9434 C 95.166 -95.6543 92.1875 -98.0957 88.5742 -97.3145 L 55.2734 -90.0879 C 50.9277 -89.1113 48.584 -86.8164 48.584 -83.0566 L 48.9258 -13.6719 C 48.9258 -10.8398 47.6074 -8.98438 45.0684 -8.44727 L 35.0098 -6.34766 C 22.0703 -3.66211 16.0645 2.97852 16.0645 12.7441 C 16.0645 22.8516 23.877 29.5898 34.4238 29.5898 C 43.9453 29.5898 58.0566 22.6074 58.0566 4.15039 L 58.0566 -53.0762 C 58.0566 -56.2012 58.5449 -56.7383 61.3281 -57.3242 L 91.3086 -63.916 C 93.6523 -64.4043 95.166 -66.2598 95.166 -68.6035 Z"/>
  </g>
  <g id="Regular-L" transform="matrix(1 0 0 1 1394.55 1556)">
   <path d="M 94.5312 -68.5059 L 94.5312 -91.7969 C 94.5312 -95.3613 91.6504 -97.7051 88.1836 -96.9727 L 54.834 -89.6973 C 50.5859 -88.7695 48.291 -86.5723 48.291 -82.9102 L 48.7305 -13.4766 C 48.7305 -10.498 47.3145 -8.59375 44.7266 -8.05664 L 34.7168 -5.95703 C 21.9727 -3.27148 16.0645 3.17383 16.0645 12.793 C 16.0645 22.5098 23.584 29.3457 34.082 29.3457 C 43.3594 29.3457 57.373 22.4121 57.373 4.05273 L 57.373 -52.9785 C 57.373 -56.2012 57.9102 -56.7871 60.791 -57.4219 L 90.8203 -64.0137 C 93.0664 -64.502 94.5312 -66.2598 94.5312 -68.5059 Z"/>
  </g>
  <g id="Light-L" transform="matrix(1 0 0 1 1098.06 1556)">
   <path d="M 94.0918 -68.3105 L 94.0918 -91.0645 C 94.0918 -94.5801 91.2598 -96.9238 87.793 -96.1914 L 54.4922 -89.0137 C 50.3418 -88.0859 48.1445 -85.9375 48.1445 -82.373 L 48.584 -13.8184 C 48.584 -10.791 47.1191 -8.78906 44.4336 -8.30078 L 34.4727 -6.20117 C 21.875 -3.56445 16.0645 2.83203 16.0645 12.3047 C 16.0645 21.875 23.4375 28.5645 33.8379 28.5645 C 43.0176 28.5645 56.7871 21.7773 56.7871 3.61328 L 56.7871 -52.6367 C 56.7871 -55.9082 57.373 -56.543 60.3516 -57.1777 L 90.4297 -63.7695 C 92.6758 -64.2578 94.0918 -66.0156 94.0918 -68.3105 Z"/>
  </g>
  <g id="Thin-L" transform="matrix(1 0 0 1 801.613 1556)">
   <path d="M 93.5547 -68.0176 L 93.5547 -90.0391 C 93.5547 -93.6035 90.7715 -95.9473 87.3047 -95.2148 L 54.0527 -88.0371 C 50 -87.1582 47.9492 -85.1074 47.9492 -81.6895 L 48.3887 -14.3066 C 48.3887 -11.1816 46.875 -9.13086 44.043 -8.59375 L 34.1797 -6.49414 C 21.7773 -3.90625 16.0645 2.34375 16.0645 11.6211 C 16.0645 20.9961 23.291 27.5391 33.4473 27.5391 C 42.5781 27.5391 56.0547 20.9473 56.0547 3.02734 L 56.0547 -52.1484 C 56.0547 -55.4688 56.6895 -56.2012 59.8145 -56.8848 L 89.8926 -63.4766 C 92.1387 -63.9648 93.5547 -65.7227 93.5547 -68.0176 Z"/>
  </g>
  <g id="Ultralight-L" transform="matrix(1 0 0 1 505.024 1556)">
   <path d="M 93.3105 -67.8711 L 93.3105 -89.5508 C 93.3105 -93.0664 90.4785 -95.4102 87.0117 -94.6777 L 53.8574 -87.5488 C 49.8535 -86.6699 47.8516 -84.668 47.8516 -81.3477 L 48.2422 -14.5508 C 48.2422 -11.377 46.7285 -9.27734 43.8965 -8.74023 L 33.9844 -6.64062 C 21.7285 -4.05273 16.0645 2.09961 16.0645 11.2793 C 16.0645 20.5566 23.1934 27.0508 33.252 27.0508 C 42.334 27.0508 55.7129 20.5078 55.7129 2.68555 L 55.7129 -51.8555 C 55.7129 -55.2734 56.3477 -56.0059 59.5215 -56.7383 L 89.5996 -63.3301 C 91.8457 -63.8184 93.3105 -65.5762 93.3105 -67.8711 Z"/>
  </g>
  <g id="Black-M" transform="matrix(1 0 0 1 2888.62 1126)">
   <path d="M 77.0996 -61.5723 L 77.0996 -79.4922 C 77.0996 -83.1543 74.0723 -85.6445 70.5078 -84.9121 L 45.1172 -79.3457 C 41.1621 -78.4668 39.0137 -76.2695 39.0137 -72.8516 L 39.0137 -19.9219 C 39.0137 -18.1152 38.2812 -17.0898 36.7188 -16.748 L 28.6133 -15.0879 C 17.6758 -12.8418 12.4512 -7.03125 12.4512 1.41602 C 12.4512 11.2305 19.9707 16.1133 28.3691 16.1133 C 36.8164 16.1133 48.4375 10.0586 48.4375 -4.49219 L 48.4375 -49.4629 C 48.4375 -51.3184 48.4863 -51.3672 50.1465 -51.7578 L 73.291 -56.7871 C 75.5859 -57.3242 77.0996 -59.1797 77.0996 -61.5723 Z"/>
  </g>
  <g id="Heavy-M" transform="matrix(1 0 0 1 2592.35 1126)">
   <path d="M 76.2207 -61.4746 L 76.2207 -79.4922 C 76.2207 -82.9102 73.4375 -85.2539 70.0684 -84.5703 L 44.5312 -79.0039 C 40.7227 -78.1738 38.6719 -76.0742 38.6719 -72.7539 L 38.7695 -19.4824 C 38.7695 -17.5781 37.9395 -16.4551 36.2793 -16.1133 L 28.2715 -14.4531 C 17.5293 -12.2559 12.4512 -6.5918 12.4512 1.61133 C 12.4512 10.9375 19.5801 15.918 27.9785 15.918 C 36.1328 15.918 47.5586 10.0098 47.5586 -4.49219 L 47.5586 -49.4141 C 47.5586 -51.416 47.7051 -51.5625 49.5117 -51.9531 L 72.6562 -56.9824 C 74.8535 -57.4707 76.2207 -59.2285 76.2207 -61.4746 Z"/>
  </g>
  <g id="Bold-M" transform="matrix(1 0 0 1 2296.11 1126)">
   <path d="M 75.293 -61.377 L 75.293 -79.4922 C 75.293 -82.7148 72.6562 -84.8633 69.5312 -84.1797 L 43.8965 -78.6133 C 40.2344 -77.7832 38.2812 -75.8301 38.2812 -72.6562 L 38.4277 -19.043 C 38.4277 -16.9922 37.5488 -15.7715 35.791 -15.3809 L 27.832 -13.7695 C 17.3828 -11.5723 12.4512 -6.10352 12.4512 1.85547 C 12.4512 10.5469 19.1406 15.6738 27.4902 15.6738 C 35.3027 15.6738 46.582 9.91211 46.582 -4.49219 L 46.582 -49.3164 C 46.582 -51.5137 46.8262 -51.7578 48.7305 -52.1484 L 71.9238 -57.2266 C 73.9746 -57.666 75.293 -59.2773 75.293 -61.377 Z"/>
  </g>
  <g id="Semibold-M" transform="matrix(1 0 0 1 1999.74 1126)">
   <path d="M 74.6094 -61.2793 L 74.6094 -79.4922 C 74.6094 -82.5195 72.168 -84.5703 69.1895 -83.9355 L 43.457 -78.3203 C 39.8926 -77.5391 37.9883 -75.6836 37.9883 -72.6074 L 38.2324 -18.7012 C 38.2324 -16.6016 37.2559 -15.2832 35.4004 -14.8926 L 27.5391 -13.2812 C 17.2852 -11.1328 12.4512 -5.81055 12.4512 2.00195 C 12.4512 10.3027 18.8477 15.5273 27.1484 15.5273 C 34.7656 15.5273 45.9473 9.91211 45.9473 -4.54102 L 45.9473 -49.2676 C 45.9473 -51.5625 46.2402 -51.8555 48.2422 -52.2949 L 71.4355 -57.373 C 73.3887 -57.8125 74.6094 -59.3262 74.6094 -61.2793 Z"/>
  </g>
  <g id="Medium-M" transform="matrix(1 0 0 1 1703.27 1126)">
   <path d="M 74.1211 -61.2305 L 74.1211 -79.4922 C 74.1211 -82.4219 71.7773 -84.375 68.8965 -83.7402 L 43.1152 -78.125 C 39.6484 -77.3926 37.793 -75.5371 37.793 -72.5098 L 38.0371 -18.457 C 38.0371 -16.3086 37.0605 -14.8926 35.1562 -14.5508 L 27.3438 -12.8906 C 17.1875 -10.791 12.4512 -5.56641 12.4512 2.09961 C 12.4512 10.1562 18.6523 15.3809 26.9043 15.3809 C 34.375 15.3809 45.4102 9.86328 45.4102 -4.54102 L 45.4102 -49.2676 C 45.4102 -51.6113 45.752 -51.9531 47.8516 -52.3926 L 71.0938 -57.5195 C 72.9492 -57.9102 74.1211 -59.375 74.1211 -61.2305 Z"/>
  </g>
  <g id="Regular-M" transform="matrix(1 0 0 1 1406.88 1126)">
   <path d="M 73.4863 -61.1328 L 73.4863 -79.541 C 73.4863 -82.2754 71.2402 -84.082 68.5547 -83.4961 L 42.6758 -77.8809 C 39.3066 -77.1484 37.5 -75.3906 37.5 -72.4609 L 37.8418 -18.1641 C 37.8418 -15.918 36.8164 -14.4531 34.8145 -14.0625 L 27.0508 -12.4023 C 17.0898 -10.3516 12.4512 -5.22461 12.4512 2.24609 C 12.4512 9.86328 18.3594 15.2344 26.5625 15.2344 C 33.8379 15.2344 44.7754 9.81445 44.7754 -4.54102 L 44.7754 -49.2188 C 44.7754 -51.6602 45.166 -52.0996 47.3633 -52.5391 L 70.6055 -57.666 C 72.3633 -58.0566 73.4863 -59.4238 73.4863 -61.1328 Z"/>
  </g>
  <g id="Light-M" transform="matrix(1 0 0 1 1110.36 1126)">
   <path d="M 73.0957 -60.9375 L 73.0957 -78.8574 C 73.0957 -81.5918 70.8984 -83.3984 68.2129 -82.8125 L 42.3828 -77.1973 C 39.1113 -76.5137 37.4023 -74.8047 37.4023 -72.0215 L 37.6953 -18.457 C 37.6953 -16.1621 36.6211 -14.6484 34.5703 -14.2578 L 26.8066 -12.6465 C 16.9922 -10.5469 12.4512 -5.56641 12.4512 1.80664 C 12.4512 9.32617 18.2129 14.5508 26.3184 14.5508 C 33.4961 14.5508 44.2871 9.22852 44.2871 -4.93164 L 44.2871 -48.877 C 44.2871 -51.3672 44.7266 -51.8555 46.9727 -52.3438 L 70.2637 -57.4707 C 71.9727 -57.8125 73.0957 -59.2285 73.0957 -60.9375 Z"/>
  </g>
  <g id="Thin-M" transform="matrix(1 0 0 1 813.869 1126)">
   <path d="M 72.6562 -60.6934 L 72.6562 -77.9297 C 72.6562 -80.6641 70.459 -82.4707 67.7734 -81.9336 L 41.9922 -76.3672 C 38.8184 -75.6836 37.207 -74.0723 37.207 -71.3867 L 37.5488 -18.8965 C 37.5488 -16.5039 36.377 -14.9414 34.2285 -14.502 L 26.5625 -12.8906 C 16.8945 -10.8887 12.4512 -6.00586 12.4512 1.2207 C 12.4512 8.54492 18.0664 13.6719 26.0254 13.6719 C 33.1055 13.6719 43.6035 8.49609 43.6035 -5.46875 L 43.6035 -48.4375 C 43.6035 -51.0254 44.0918 -51.5625 46.4844 -52.0996 L 69.7754 -57.1777 C 71.5332 -57.5684 72.6562 -58.9355 72.6562 -60.6934 Z"/>
  </g>
  <g id="Ultralight-M" transform="matrix(1 0 0 1 517.304 1126)">
   <path d="M 72.3633 -60.5469 L 72.3633 -77.4902 C 72.3633 -80.2246 70.2148 -82.0312 67.5293 -81.4453 L 41.7969 -75.9277 C 38.6719 -75.2441 37.1094 -73.6816 37.1094 -71.0938 L 37.4512 -19.1406 C 37.4512 -16.6992 36.2305 -15.0879 34.082 -14.6484 L 26.416 -13.0371 C 16.8945 -11.0352 12.4512 -6.25 12.4512 0.927734 C 12.4512 8.1543 17.9688 13.1836 25.8301 13.1836 C 32.8613 13.1836 43.2617 8.10547 43.2617 -5.76172 L 43.2617 -48.1934 C 43.2617 -50.8301 43.7988 -51.3672 46.1914 -51.9531 L 69.5312 -57.0801 C 71.2891 -57.4219 72.3633 -58.7891 72.3633 -60.5469 Z"/>
  </g>
  <g id="Black-S" transform="matrix(1 0 0 1 2898.34 696)">
   <path d="M 60.3516 -55.8594 L 60.3516 -69.9219 C 60.3516 -72.7539 58.0078 -74.707 55.2246 -74.1211 L 35.3027 -69.7754 C 32.2266 -69.0918 30.5664 -67.3828 30.5664 -64.6973 L 30.5664 -23.1934 C 30.5664 -21.7773 29.9805 -20.9473 28.7598 -20.7031 L 22.4121 -19.3848 C 13.8672 -17.627 9.76562 -13.0859 9.76562 -6.49414 C 9.76562 1.17188 15.625 4.98047 22.2168 4.98047 C 28.8086 4.98047 37.8906 0.244141 37.8906 -11.1328 L 37.8906 -46.3867 C 37.8906 -47.8516 37.9395 -47.9004 39.2578 -48.1934 L 57.373 -52.1484 C 59.1797 -52.5391 60.3516 -54.0039 60.3516 -55.8594 Z"/>
  </g>
  <g id="Heavy-S" transform="matrix(1 0 0 1 2601.95 696)">
   <path d="M 59.7168 -55.8105 L 59.7168 -70.0195 C 59.7168 -72.6562 57.5195 -74.5117 54.9316 -73.9258 L 34.9121 -69.5801 C 31.9336 -68.8965 30.3223 -67.2852 30.3223 -64.6973 L 30.3711 -22.8516 C 30.3711 -21.3379 29.7363 -20.459 28.418 -20.2148 L 22.168 -18.8965 C 13.7695 -17.1387 9.76562 -12.7441 9.76562 -6.29883 C 9.76562 0.976562 15.332 4.88281 21.9238 4.88281 C 28.3203 4.88281 37.3047 0.292969 37.3047 -11.084 L 37.3047 -46.3867 C 37.3047 -47.9492 37.4023 -48.0469 38.8184 -48.3398 L 56.9336 -52.3438 C 58.6426 -52.6855 59.7168 -54.0527 59.7168 -55.8105 Z"/>
  </g>
  <g id="Bold-S" transform="matrix(1 0 0 1 2305.58 696)">
   <path d="M 59.0332 -55.7617 L 59.0332 -70.0684 C 59.0332 -72.5586 56.9824 -74.2676 54.541 -73.7305 L 34.4727 -69.3359 C 31.5918 -68.75 30.0293 -67.1875 30.0293 -64.6484 L 30.127 -22.4609 C 30.127 -20.8496 29.4434 -19.873 28.0762 -19.6289 L 21.875 -18.3105 C 13.623 -16.6016 9.76562 -12.3535 9.76562 -6.05469 C 9.76562 0.78125 15.0391 4.78516 21.582 4.78516 C 27.7344 4.78516 36.6211 0.292969 36.6211 -11.084 L 36.6211 -46.3379 C 36.6211 -48.0469 36.7676 -48.2422 38.2812 -48.5352 L 56.4453 -52.5391 C 58.0078 -52.8809 59.0332 -54.1504 59.0332 -55.7617 Z"/>
  </g>
  <g id="Semibold-S" transform="matrix(1 0 0 1 2009.09 696)">
   <path d="M 58.5938 -55.7129 L 58.5938 -70.166 C 58.5938 -72.5098 56.6406 -74.1211 54.3457 -73.6328 L 34.1309 -69.1895 C 31.3477 -68.6035 29.834 -67.0898 29.834 -64.6484 L 29.9805 -22.168 C 29.9805 -20.5566 29.248 -19.4824 27.832 -19.2383 L 21.6797 -17.9199 C 13.5742 -16.2598 9.76562 -12.0605 9.76562 -5.9082 C 9.76562 0.634766 14.7949 4.73633 21.3379 4.73633 C 27.3438 4.73633 36.1328 0.292969 36.1328 -11.0352 L 36.1328 -46.3379 C 36.1328 -48.1445 36.377 -48.3398 37.9395 -48.6816 L 56.1035 -52.6367 C 57.6172 -52.9785 58.5938 -54.1992 58.5938 -55.7129 Z"/>
  </g>
  <g id="Medium-S" transform="matrix(1 0 0 1 1712.57 696)">
   <path d="M 58.2031 -55.6641 L 58.2031 -70.2148 C 58.2031 -72.4609 56.3477 -73.9746 54.1504 -73.5352 L 33.8867 -69.0918 C 31.1523 -68.5059 29.6875 -67.041 29.6875 -64.6484 L 29.8828 -21.9727 C 29.8828 -20.3125 29.1016 -19.1895 27.6367 -18.9453 L 21.4844 -17.627 C 13.4766 -15.9668 9.76562 -11.8652 9.76562 -5.81055 C 9.76562 0.537109 14.6484 4.6875 21.1914 4.6875 C 27.0508 4.6875 35.791 0.341797 35.791 -11.0352 L 35.791 -46.3379 C 35.791 -48.1934 36.0352 -48.4375 37.6465 -48.7793 L 55.8594 -52.7832 C 57.2754 -53.0762 58.2031 -54.1992 58.2031 -55.6641 Z"/>
  </g>
  <g id="Regular-S" transform="matrix(1 0 0 1 1416.08 696)">
   <path d="M 57.7637 -55.6152 L 57.7637 -70.2637 C 57.7637 -72.4121 56.0059 -73.8281 53.9062 -73.3887 L 33.5938 -68.9453 C 30.9082 -68.3594 29.4922 -66.9434 29.4922 -64.6484 L 29.7363 -21.6797 C 29.7363 -19.9707 28.9062 -18.8477 27.3926 -18.5547 L 21.2891 -17.2852 C 13.4277 -15.625 9.76562 -11.5723 9.76562 -5.61523 C 9.76562 0.390625 14.4531 4.63867 20.9473 4.63867 C 26.6602 4.63867 35.3027 0.341797 35.3027 -10.9863 L 35.3027 -46.3379 C 35.3027 -48.2422 35.6445 -48.5352 37.3047 -48.877 L 55.5176 -52.8809 C 56.8848 -53.1738 57.7637 -54.248 57.7637 -55.6152 Z"/>
  </g>
  <g id="Light-S" transform="matrix(1 0 0 1 1119.54 696)">
   <path d="M 57.4219 -55.4688 L 57.4219 -69.6777 C 57.4219 -71.8262 55.7129 -73.2422 53.6133 -72.8027 L 33.3496 -68.3594 C 30.7129 -67.8223 29.3457 -66.4551 29.3457 -64.209 L 29.5898 -21.9727 C 29.5898 -20.2148 28.7598 -19.043 27.1973 -18.7012 L 21.0938 -17.4316 C 13.3789 -15.8203 9.76562 -11.8652 9.76562 -6.05469 C 9.76562 -0.0976562 14.3555 4.05273 20.752 4.05273 C 26.3672 4.05273 34.8633 -0.146484 34.8633 -11.3281 L 34.8633 -46.0449 C 34.8633 -47.998 35.2051 -48.3398 36.9629 -48.7305 L 55.1758 -52.7344 C 56.543 -53.0273 57.4219 -54.1016 57.4219 -55.4688 Z"/>
  </g>
  <g id="Thin-S" transform="matrix(1 0 0 1 823.024 696)">
   <path d="M 57.0312 -55.2246 L 57.0312 -68.8477 C 57.0312 -70.9961 55.2734 -72.4121 53.1738 -71.9727 L 33.0078 -67.627 C 30.4688 -67.0898 29.1992 -65.8203 29.1992 -63.6719 L 29.4434 -22.3633 C 29.4434 -20.5078 28.5645 -19.2871 26.9043 -18.9453 L 20.8496 -17.6758 C 13.2812 -16.0645 9.76562 -12.2559 9.76562 -6.54297 C 9.76562 -0.78125 14.209 3.22266 20.459 3.22266 C 26.0254 3.22266 34.3262 -0.830078 34.3262 -11.8164 L 34.3262 -45.6543 C 34.3262 -47.6562 34.668 -48.0957 36.5234 -48.4863 L 54.7852 -52.4902 C 56.1523 -52.7832 57.0312 -53.8574 57.0312 -55.2246 Z"/>
  </g>
  <g id="Ultralight-S" transform="matrix(1 0 0 1 526.435 696)">
   <path d="M 56.7871 -55.127 L 56.7871 -68.457 C 56.7871 -70.6055 55.0781 -72.0215 52.9785 -71.582 L 32.8125 -67.2363 C 30.3711 -66.6992 29.1016 -65.4785 29.1016 -63.3789 L 29.3457 -22.5586 C 29.3457 -20.6543 28.4668 -19.3848 26.7578 -19.043 L 20.752 -17.7734 C 13.2324 -16.2109 9.76562 -12.4512 9.76562 -6.83594 C 9.76562 -1.12305 14.1113 2.83203 20.3125 2.83203 C 25.8301 2.83203 33.9844 -1.17188 33.9844 -12.0605 L 33.9844 -45.459 C 33.9844 -47.5098 34.375 -47.9492 36.2793 -48.3887 L 54.541 -52.3926 C 55.9082 -52.6855 56.7871 -53.7598 56.7871 -55.127 Z"/>
  </g>
 </g>
</svg>
