<?xml version="1.0" encoding="UTF-8"?>
<!--Generator: Apple Native CoreSVG 123-->
<!DOCTYPE svg
PUBLIC "-//W3C//DTD SVG 1.1//EN"
       "http://www.w3.org/Graphics/SVG/1.1/DTD/svg11.dtd">
<svg version="1.1" xmlns="http://www.w3.org/2000/svg" xmlns:xlink="http://www.w3.org/1999/xlink" width="3300" height="2200">
 <!--glyph: "uni10005D.medium", point size: 100.000000, font version: "Version 15.0d7e11", template writer version: "5"-->
 <g id="Notes">
  <rect height="2200" id="artboard" style="fill:white;opacity:1" width="3300" x="0" y="0"/>
  <line id="" style="fill:none;stroke:black;opacity:1;stroke-width:0.5;" x1="263" x2="3036" y1="292" y2="292"/>
  <text style="stroke:none;fill:black;font-family:-apple-system,&quot;SF Pro Display&quot;,&quot;SF Pro Text&quot;,Helvetica,sans-serif;font-weight:bold;" transform="matrix(1 0 0 1 263 322)">Weight/Scale Variations</text>
  <text style="stroke:none;fill:black;font-family:-apple-system,&quot;SF Pro Display&quot;,&quot;SF Pro Text&quot;,Helvetica,sans-serif;text-anchor:middle;" transform="matrix(1 0 0 1 559.711 322)">Ultralight</text>
  <text style="stroke:none;fill:black;font-family:-apple-system,&quot;SF Pro Display&quot;,&quot;SF Pro Text&quot;,Helvetica,sans-serif;text-anchor:middle;" transform="matrix(1 0 0 1 856.422 322)">Thin</text>
  <text style="stroke:none;fill:black;font-family:-apple-system,&quot;SF Pro Display&quot;,&quot;SF Pro Text&quot;,Helvetica,sans-serif;text-anchor:middle;" transform="matrix(1 0 0 1 1153.13 322)">Light</text>
  <text style="stroke:none;fill:black;font-family:-apple-system,&quot;SF Pro Display&quot;,&quot;SF Pro Text&quot;,Helvetica,sans-serif;text-anchor:middle;" transform="matrix(1 0 0 1 1449.84 322)">Regular</text>
  <text style="stroke:none;fill:black;font-family:-apple-system,&quot;SF Pro Display&quot;,&quot;SF Pro Text&quot;,Helvetica,sans-serif;text-anchor:middle;" transform="matrix(1 0 0 1 1746.56 322)">Medium</text>
  <text style="stroke:none;fill:black;font-family:-apple-system,&quot;SF Pro Display&quot;,&quot;SF Pro Text&quot;,Helvetica,sans-serif;text-anchor:middle;" transform="matrix(1 0 0 1 2043.27 322)">Semibold</text>
  <text style="stroke:none;fill:black;font-family:-apple-system,&quot;SF Pro Display&quot;,&quot;SF Pro Text&quot;,Helvetica,sans-serif;text-anchor:middle;" transform="matrix(1 0 0 1 2339.98 322)">Bold</text>
  <text style="stroke:none;fill:black;font-family:-apple-system,&quot;SF Pro Display&quot;,&quot;SF Pro Text&quot;,Helvetica,sans-serif;text-anchor:middle;" transform="matrix(1 0 0 1 2636.69 322)">Heavy</text>
  <text style="stroke:none;fill:black;font-family:-apple-system,&quot;SF Pro Display&quot;,&quot;SF Pro Text&quot;,Helvetica,sans-serif;text-anchor:middle;" transform="matrix(1 0 0 1 2933.4 322)">Black</text>
  <line id="" style="fill:none;stroke:black;opacity:1;stroke-width:0.5;" x1="263" x2="3036" y1="1903" y2="1903"/>
  <g id="" transform="matrix(1 0 0 1 263 1933)">
   <path d="M 9.24805 0.830078 C 13.5547 0.830078 17.1387 -2.74414 17.1387 -7.05078 C 17.1387 -11.3574 13.5449 -14.9316 9.23828 -14.9316 C 4.94141 -14.9316 1.36719 -11.3574 1.36719 -7.05078 C 1.36719 -2.74414 4.95117 0.830078 9.24805 0.830078 Z M 9.24805 -0.654297 C 5.70312 -0.654297 2.87109 -3.49609 2.87109 -7.05078 C 2.87109 -10.6055 5.69336 -13.4473 9.23828 -13.4473 C 12.793 -13.4473 15.6348 -10.6055 15.6445 -7.05078 C 15.6543 -3.49609 12.8027 -0.654297 9.24805 -0.654297 Z M 9.22852 -3.42773 C 9.69727 -3.42773 9.9707 -3.74023 9.9707 -4.25781 L 9.9707 -6.31836 L 12.1973 -6.31836 C 12.6953 -6.31836 13.0371 -6.57227 13.0371 -7.04102 C 13.0371 -7.51953 12.7148 -7.7832 12.1973 -7.7832 L 9.9707 -7.7832 L 9.9707 -10.0098 C 9.9707 -10.5273 9.69727 -10.8496 9.22852 -10.8496 C 8.75977 -10.8496 8.50586 -10.5078 8.50586 -10.0098 L 8.50586 -7.7832 L 6.29883 -7.7832 C 5.78125 -7.7832 5.44922 -7.51953 5.44922 -7.04102 C 5.44922 -6.57227 5.80078 -6.31836 6.29883 -6.31836 L 8.50586 -6.31836 L 8.50586 -4.25781 C 8.50586 -3.75977 8.75977 -3.42773 9.22852 -3.42773 Z"/>
  </g>
  <g id="" transform="matrix(1 0 0 1 281.506 1933)">
   <path d="M 11.709 2.91016 C 17.1582 2.91016 21.6699 -1.60156 21.6699 -7.05078 C 21.6699 -12.4902 17.1484 -17.0117 11.6992 -17.0117 C 6.25977 -17.0117 1.74805 -12.4902 1.74805 -7.05078 C 1.74805 -1.60156 6.26953 2.91016 11.709 2.91016 Z M 11.709 1.25 C 7.09961 1.25 3.41797 -2.44141 3.41797 -7.05078 C 3.41797 -11.6504 7.08984 -15.3516 11.6992 -15.3516 C 16.3086 -15.3516 20 -11.6504 20.0098 -7.05078 C 20.0195 -2.44141 16.3184 1.25 11.709 1.25 Z M 11.6895 -2.41211 C 12.207 -2.41211 12.5195 -2.77344 12.5195 -3.33984 L 12.5195 -6.23047 L 15.5762 -6.23047 C 16.123 -6.23047 16.5039 -6.51367 16.5039 -7.03125 C 16.5039 -7.55859 16.1426 -7.86133 15.5762 -7.86133 L 12.5195 -7.86133 L 12.5195 -10.9277 C 12.5195 -11.5039 12.207 -11.8555 11.6895 -11.8555 C 11.1719 -11.8555 10.8789 -11.4844 10.8789 -10.9277 L 10.8789 -7.86133 L 7.83203 -7.86133 C 7.26562 -7.86133 6.89453 -7.55859 6.89453 -7.03125 C 6.89453 -6.51367 7.28516 -6.23047 7.83203 -6.23047 L 10.8789 -6.23047 L 10.8789 -3.33984 C 10.8789 -2.79297 11.1719 -2.41211 11.6895 -2.41211 Z"/>
  </g>
  <g id="" transform="matrix(1 0 0 1 304.924 1933)">
   <path d="M 14.9707 5.67383 C 21.9336 5.67383 27.6953 -0.078125 27.6953 -7.04102 C 27.6953 -14.0039 21.9238 -19.7559 14.9609 -19.7559 C 8.00781 -19.7559 2.25586 -14.0039 2.25586 -7.04102 C 2.25586 -0.078125 8.01758 5.67383 14.9707 5.67383 Z M 14.9707 3.85742 C 8.93555 3.85742 4.08203 -1.00586 4.08203 -7.04102 C 4.08203 -13.0762 8.92578 -17.9395 14.9609 -17.9395 C 21.0059 -17.9395 25.8594 -13.0762 25.8691 -7.04102 C 25.8789 -1.00586 21.0156 3.85742 14.9707 3.85742 Z M 14.9512 -1.06445 C 15.5176 -1.06445 15.8691 -1.45508 15.8691 -2.06055 L 15.8691 -6.13281 L 20.1074 -6.13281 C 20.6934 -6.13281 21.1133 -6.46484 21.1133 -7.02148 C 21.1133 -7.59766 20.7227 -7.93945 20.1074 -7.93945 L 15.8691 -7.93945 L 15.8691 -12.1875 C 15.8691 -12.8027 15.5176 -13.1934 14.9512 -13.1934 C 14.3848 -13.1934 14.0625 -12.7832 14.0625 -12.1875 L 14.0625 -7.93945 L 9.83398 -7.93945 C 9.21875 -7.93945 8.80859 -7.59766 8.80859 -7.02148 C 8.80859 -6.46484 9.23828 -6.13281 9.83398 -6.13281 L 14.0625 -6.13281 L 14.0625 -2.06055 C 14.0625 -1.47461 14.3848 -1.06445 14.9512 -1.06445 Z"/>
  </g>
  <text style="stroke:none;fill:black;font-family:-apple-system,&quot;SF Pro Display&quot;,&quot;SF Pro Text&quot;,Helvetica,sans-serif;font-weight:bold;" transform="matrix(1 0 0 1 263 1953)">Design Variations</text>
  <text style="stroke:none;fill:black;font-family:-apple-system,&quot;SF Pro Display&quot;,&quot;SF Pro Text&quot;,Helvetica,sans-serif;" transform="matrix(1 0 0 1 263 1971)">Symbols are supported in up to nine weights and three scales.</text>
  <text style="stroke:none;fill:black;font-family:-apple-system,&quot;SF Pro Display&quot;,&quot;SF Pro Text&quot;,Helvetica,sans-serif;" transform="matrix(1 0 0 1 263 1989)">For optimal layout with text and other symbols, vertically align</text>
  <text style="stroke:none;fill:black;font-family:-apple-system,&quot;SF Pro Display&quot;,&quot;SF Pro Text&quot;,Helvetica,sans-serif;" transform="matrix(1 0 0 1 263 2007)">symbols with the adjacent text.</text>
  <rect height="14" id="" style="fill:#00AEEF;stroke:none;opacity:0.4;" width="3" x="776" y="1919"/>
  <g id="" transform="matrix(1 0 0 1 779 1933)">
   <path d="M 10.5273 0 L 12.373 0 L 7.17773 -14.0918 L 5.43945 -14.0918 L 0.244141 0 L 2.08984 0 L 3.50586 -4.0332 L 9.11133 -4.0332 Z M 6.2793 -11.9531 L 6.33789 -11.9531 L 8.59375 -5.52734 L 4.02344 -5.52734 Z"/>
  </g>
  <rect height="14" id="" style="fill:#00AEEF;stroke:none;opacity:0.4;" width="3" x="791.617" y="1919"/>
  <text style="stroke:none;fill:black;font-family:-apple-system,&quot;SF Pro Display&quot;,&quot;SF Pro Text&quot;,Helvetica,sans-serif;font-weight:bold;" transform="matrix(1 0 0 1 776 1953)">Margins</text>
  <text style="stroke:none;fill:black;font-family:-apple-system,&quot;SF Pro Display&quot;,&quot;SF Pro Text&quot;,Helvetica,sans-serif;" transform="matrix(1 0 0 1 776 1971)">Leading and trailing margins on the left and right side of each symbol</text>
  <text style="stroke:none;fill:black;font-family:-apple-system,&quot;SF Pro Display&quot;,&quot;SF Pro Text&quot;,Helvetica,sans-serif;" transform="matrix(1 0 0 1 776 1989)">can be adjusted by modifying the width of the blue rectangles.</text>
  <text style="stroke:none;fill:black;font-family:-apple-system,&quot;SF Pro Display&quot;,&quot;SF Pro Text&quot;,Helvetica,sans-serif;" transform="matrix(1 0 0 1 776 2007)">Modifications are automatically applied proportionally to all</text>
  <text style="stroke:none;fill:black;font-family:-apple-system,&quot;SF Pro Display&quot;,&quot;SF Pro Text&quot;,Helvetica,sans-serif;" transform="matrix(1 0 0 1 776 2025)">scales and weights.</text>
  <g id="" transform="matrix(1 0 0 1 1289 1933)">
   <path d="M 2.83203 3.11523 L 4.375 4.6582 C 5.22461 5.48828 6.19141 5.41992 7.06055 4.46289 L 17.2754 -6.66016 C 17.7051 -6.36719 18.0957 -6.37695 18.5645 -6.47461 L 19.6094 -6.68945 L 20.3027 -5.99609 L 20.2539 -5.47852 C 20.1855 -4.95117 20.3516 -4.53125 20.8496 -4.0332 L 21.6602 -3.22266 C 22.168 -2.71484 22.8223 -2.68555 23.3008 -3.16406 L 26.5527 -6.41602 C 27.0312 -6.89453 27.0117 -7.54883 26.5039 -8.05664 L 25.6836 -8.87695 C 25.1855 -9.375 24.7754 -9.55078 24.2383 -9.47266 L 23.7109 -9.41406 L 23.0566 -10.0781 L 23.3398 -11.2207 C 23.4863 -11.7871 23.3398 -12.2559 22.7148 -12.8613 L 20.3027 -15.2539 C 16.7578 -18.7793 12.2266 -18.6719 9.11133 -15.5371 C 8.69141 -15.1074 8.64258 -14.5215 8.91602 -14.0918 C 9.15039 -13.7207 9.62891 -13.4961 10.2734 -13.6621 C 11.7871 -14.043 13.3008 -13.9258 14.7852 -12.9199 L 14.1602 -11.3379 C 13.9258 -10.752 13.9453 -10.2734 14.1797 -9.83398 L 3.01758 0.439453 C 2.08008 1.30859 1.97266 2.25586 2.83203 3.11523 Z M 10.6738 -15.1465 C 13.3398 -17.1387 16.6504 -16.8262 19.0527 -14.4141 L 21.6797 -11.8066 C 21.9141 -11.5723 21.9434 -11.3867 21.8848 -11.0938 L 21.5039 -9.53125 L 23.0762 -7.95898 L 24.043 -8.04688 C 24.3262 -8.07617 24.4141 -8.05664 24.6387 -7.83203 L 25.2637 -7.20703 L 22.5098 -4.46289 L 21.8848 -5.07812 C 21.6602 -5.30273 21.6406 -5.40039 21.6699 -5.68359 L 21.7578 -6.64062 L 20.1953 -8.20312 L 18.5742 -7.89062 C 18.291 -7.83203 18.1445 -7.83203 17.9102 -8.07617 L 15.7324 -10.2539 C 15.5078 -10.4883 15.4785 -10.625 15.6055 -10.9473 L 16.5527 -13.2227 C 14.9512 -14.7559 12.8418 -15.6055 10.8008 -14.9512 C 10.7129 -14.9219 10.6445 -14.9414 10.6152 -14.9805 C 10.5859 -15.0293 10.5859 -15.0781 10.6738 -15.1465 Z M 4.10156 2.41211 C 3.61328 1.91406 3.78906 1.61133 4.12109 1.30859 L 15.0781 -8.80859 L 16.3086 -7.57812 L 6.15234 3.34961 C 5.84961 3.68164 5.46875 3.7793 5.06836 3.37891 Z"/>
  </g>
  <text style="stroke:none;fill:black;font-family:-apple-system,&quot;SF Pro Display&quot;,&quot;SF Pro Text&quot;,Helvetica,sans-serif;font-weight:bold;" transform="matrix(1 0 0 1 1289 1953)">Exporting</text>
  <text style="stroke:none;fill:black;font-family:-apple-system,&quot;SF Pro Display&quot;,&quot;SF Pro Text&quot;,Helvetica,sans-serif;" transform="matrix(1 0 0 1 1289 1971)">Symbols should be outlined when exporting to ensure the</text>
  <text style="stroke:none;fill:black;font-family:-apple-system,&quot;SF Pro Display&quot;,&quot;SF Pro Text&quot;,Helvetica,sans-serif;" transform="matrix(1 0 0 1 1289 1989)">design is preserved when submitting to Xcode.</text>
  <text id="template-version" style="stroke:none;fill:black;font-family:-apple-system,&quot;SF Pro Display&quot;,&quot;SF Pro Text&quot;,Helvetica,sans-serif;text-anchor:end;" transform="matrix(1 0 0 1 3036 1933)">Template v.1.0</text>
  <text style="stroke:none;fill:black;font-family:-apple-system,&quot;SF Pro Display&quot;,&quot;SF Pro Text&quot;,Helvetica,sans-serif;text-anchor:end;" transform="matrix(1 0 0 1 3036 1951)">Generated from questionmark.circle.fill</text>
  <text style="stroke:none;fill:black;font-family:-apple-system,&quot;SF Pro Display&quot;,&quot;SF Pro Text&quot;,Helvetica,sans-serif;text-anchor:end;" transform="matrix(1 0 0 1 3036 1969)">Typeset at 100 points</text>
  <text style="stroke:none;fill:black;font-family:-apple-system,&quot;SF Pro Display&quot;,&quot;SF Pro Text&quot;,Helvetica,sans-serif;" transform="matrix(1 0 0 1 263 726)">Small</text>
  <text style="stroke:none;fill:black;font-family:-apple-system,&quot;SF Pro Display&quot;,&quot;SF Pro Text&quot;,Helvetica,sans-serif;" transform="matrix(1 0 0 1 263 1156)">Medium</text>
  <text style="stroke:none;fill:black;font-family:-apple-system,&quot;SF Pro Display&quot;,&quot;SF Pro Text&quot;,Helvetica,sans-serif;" transform="matrix(1 0 0 1 263 1586)">Large</text>
 </g>
 <g id="Guides">
  <g id="H-reference" style="fill:#27AAE1;stroke:none;" transform="matrix(1 0 0 1 339 696)">
   <path d="M 54.9316 0 L 57.666 0 L 30.5664 -70.459 L 28.0762 -70.459 L 0.976562 0 L 3.66211 0 L 12.9395 -24.4629 L 45.7031 -24.4629 Z M 29.1992 -67.0898 L 29.4434 -67.0898 L 44.8242 -26.709 L 13.8184 -26.709 Z"/>
  </g>
  <line id="Baseline-S" style="fill:none;stroke:#27AAE1;opacity:1;stroke-width:0.577;" x1="263" x2="3036" y1="696" y2="696"/>
  <line id="Capline-S" style="fill:none;stroke:#27AAE1;opacity:1;stroke-width:0.577;" x1="263" x2="3036" y1="625.541" y2="625.541"/>
  <g id="H-reference" style="fill:#27AAE1;stroke:none;" transform="matrix(1 0 0 1 339 1126)">
   <path d="M 54.9316 0 L 57.666 0 L 30.5664 -70.459 L 28.0762 -70.459 L 0.976562 0 L 3.66211 0 L 12.9395 -24.4629 L 45.7031 -24.4629 Z M 29.1992 -67.0898 L 29.4434 -67.0898 L 44.8242 -26.709 L 13.8184 -26.709 Z"/>
  </g>
  <line id="Baseline-M" style="fill:none;stroke:#27AAE1;opacity:1;stroke-width:0.577;" x1="263" x2="3036" y1="1126" y2="1126"/>
  <line id="Capline-M" style="fill:none;stroke:#27AAE1;opacity:1;stroke-width:0.577;" x1="263" x2="3036" y1="1055.54" y2="1055.54"/>
  <g id="H-reference" style="fill:#27AAE1;stroke:none;" transform="matrix(1 0 0 1 339 1556)">
   <path d="M 54.9316 0 L 57.666 0 L 30.5664 -70.459 L 28.0762 -70.459 L 0.976562 0 L 3.66211 0 L 12.9395 -24.4629 L 45.7031 -24.4629 Z M 29.1992 -67.0898 L 29.4434 -67.0898 L 44.8242 -26.709 L 13.8184 -26.709 Z"/>
  </g>
  <line id="Baseline-L" style="fill:none;stroke:#27AAE1;opacity:1;stroke-width:0.577;" x1="263" x2="3036" y1="1556" y2="1556"/>
  <line id="Capline-L" style="fill:none;stroke:#27AAE1;opacity:1;stroke-width:0.577;" x1="263" x2="3036" y1="1485.54" y2="1485.54"/>
  <rect height="119.336" id="left-margin" style="fill:#00AEEF;stroke:none;opacity:0.4;" width="8.74023" x="1391.3" y="1030.79"/>
  <rect height="119.336" id="right-margin" style="fill:#00AEEF;stroke:none;opacity:0.4;" width="8.74023" x="1499.65" y="1030.79"/>
 </g>
 <g id="Symbols">
  <g id="Black-L" transform="matrix(1 0 0 1 2854.05 1556)">
   <path d="M 79.3457 32.8613 C 116.748 32.8613 147.412 2.19727 147.412 -35.2051 C 147.412 -72.6074 116.748 -103.271 79.2969 -103.271 C 41.8945 -103.271 11.2793 -72.6074 11.2793 -35.2051 C 11.2793 2.19727 41.9434 32.8613 79.3457 32.8613 Z M 77.7832 -23.7793 C 71.3867 -23.7793 67.9199 -26.2695 67.9199 -31.1523 L 67.9199 -31.3965 C 67.9199 -35.8398 71.0449 -38.916 75.5859 -41.9434 C 80.5664 -45.3613 83.3496 -47.3633 83.3496 -50.1953 C 83.3496 -52.6855 81.543 -54.248 78.8574 -54.248 C 76.8066 -54.248 75.2441 -53.418 73.0957 -51.3672 C 71.2891 -49.6582 69.5312 -47.6074 65.1855 -47.6074 C 59.4727 -47.6074 56.3965 -50.9277 56.3965 -54.9805 C 56.3965 -56.4941 56.6895 -57.7148 57.2754 -59.082 C 60.0098 -65.6738 68.6523 -70.0195 79.9805 -70.0195 C 93.4082 -70.0195 103.906 -62.5488 103.906 -51.2695 C 103.906 -44.2871 100.781 -40.625 93.8965 -36.3281 C 90.625 -34.3262 87.7441 -32.2754 86.9141 -29.7363 C 86.8652 -29.5898 86.8164 -29.4434 86.7188 -29.2969 C 85.5469 -26.1719 82.5195 -23.7793 77.7832 -23.7793 Z M 78.1738 -2.53906 C 72.2168 -2.53906 68.457 -5.71289 68.457 -10.9863 C 68.457 -16.2109 72.168 -19.3848 78.1738 -19.3848 C 83.9844 -19.3848 87.793 -16.2109 87.793 -10.9863 C 87.793 -5.71289 84.082 -2.53906 78.1738 -2.53906 Z"/>
  </g>
  <g id="Heavy-L" transform="matrix(1 0 0 1 2558.39 1556)">
   <path d="M 78.2715 31.7871 C 115.088 31.7871 145.312 1.61133 145.312 -35.2051 C 145.312 -72.0215 115.039 -102.197 78.2715 -102.197 C 41.4551 -102.197 11.2793 -72.0215 11.2793 -35.2051 C 11.2793 1.61133 41.5039 31.7871 78.2715 31.7871 Z M 76.8555 -23.291 C 71.2891 -23.291 68.2617 -25.5371 68.2617 -29.9805 L 68.2617 -30.4688 C 68.2617 -35.3027 71.3867 -38.4766 76.0254 -41.6504 C 81.25 -45.2148 83.9844 -47.3145 83.9844 -50.5371 C 83.9844 -53.6621 81.6406 -55.7129 78.0273 -55.7129 C 75.2441 -55.7129 73.1445 -54.3945 71.1426 -51.8555 C 69.3359 -50 67.8711 -48.0469 63.7695 -48.0469 C 58.9844 -48.0469 56.1523 -50.9277 56.1523 -54.5898 C 56.1523 -56.0059 56.4453 -57.1777 56.9336 -58.4961 C 59.375 -64.9902 67.6758 -69.6289 78.9551 -69.6289 C 91.8457 -69.6289 102.002 -62.5 102.002 -51.4648 C 102.002 -44.3359 98.6328 -40.6738 91.8457 -36.3281 C 88.2812 -34.0332 85.498 -31.9336 84.9121 -29.1016 C 84.8633 -28.9062 84.8145 -28.6621 84.7656 -28.4668 C 83.8867 -25.5371 81.1523 -23.291 76.8555 -23.291 Z M 77.1973 -2.68555 C 71.8262 -2.68555 68.2617 -5.76172 68.2617 -10.6445 C 68.2617 -15.4785 71.8262 -18.5059 77.1973 -18.5059 C 82.4219 -18.5059 86.084 -15.4297 86.084 -10.6445 C 86.084 -5.71289 82.5195 -2.68555 77.1973 -2.68555 Z"/>
  </g>
  <g id="Bold-L" transform="matrix(1 0 0 1 2262.88 1556)">
   <path d="M 77.0996 30.6152 C 113.232 30.6152 142.92 0.878906 142.92 -35.2051 C 142.92 -71.3379 113.184 -101.025 77.0508 -101.025 C 40.9668 -101.025 11.2793 -71.3379 11.2793 -35.2051 C 11.2793 0.878906 41.0156 30.6152 77.0996 30.6152 Z M 75.8301 -22.7539 C 71.1914 -22.7539 68.6523 -24.7559 68.6523 -28.6621 L 68.6523 -29.3945 C 68.6523 -34.7168 71.7773 -38.0371 76.5137 -41.2598 C 82.0312 -45.0195 84.7168 -47.2168 84.7168 -50.9277 C 84.7168 -54.7852 81.7383 -57.373 77.0996 -57.373 C 73.4863 -57.373 70.8008 -55.5176 68.9453 -52.3438 C 67.1875 -50.3906 66.0156 -48.5352 62.207 -48.5352 C 58.3984 -48.5352 55.8594 -50.8789 55.8594 -54.1992 C 55.8594 -55.4688 56.1035 -56.5918 56.543 -57.7637 C 58.6914 -64.209 66.6504 -69.1406 77.832 -69.1406 C 90.0879 -69.1406 99.9023 -62.4512 99.9023 -51.6602 C 99.9023 -44.4336 96.2891 -40.7227 89.5508 -36.3281 C 85.5957 -33.6914 83.0566 -31.543 82.6172 -28.3203 C 82.6172 -28.0762 82.5684 -27.832 82.5684 -27.5391 C 81.9824 -24.8535 79.5898 -22.7539 75.8301 -22.7539 Z M 76.123 -2.83203 C 71.4355 -2.83203 68.0176 -5.81055 68.0176 -10.2051 C 68.0176 -14.5996 71.3867 -17.5293 76.123 -17.5293 C 80.7129 -17.5293 84.1797 -14.5996 84.1797 -10.2051 C 84.1797 -5.76172 80.7617 -2.83203 76.123 -2.83203 Z"/>
  </g>
  <g id="Semibold-L" transform="matrix(1 0 0 1 1966.97 1556)">
   <path d="M 76.2695 29.7852 C 111.914 29.7852 141.309 0.439453 141.309 -35.2051 C 141.309 -70.8496 111.865 -100.244 76.2695 -100.244 C 40.625 -100.244 11.2793 -70.8496 11.2793 -35.2051 C 11.2793 0.439453 40.6738 29.7852 76.2695 29.7852 Z M 75.0977 -22.3633 C 71.0938 -22.3633 68.8965 -24.2188 68.8965 -27.7832 L 68.8965 -28.7109 C 68.8965 -34.3262 72.0703 -37.6953 76.8555 -41.0156 C 82.5684 -44.9219 85.2051 -47.168 85.2051 -51.1719 C 85.2051 -55.5176 81.7871 -58.5449 76.4648 -58.5449 C 72.2656 -58.5449 69.1895 -56.25 67.4316 -52.7344 C 65.7227 -50.6348 64.7461 -48.877 61.1816 -48.877 C 58.0078 -48.877 55.6641 -50.8789 55.6641 -53.9062 C 55.6641 -55.0781 55.9082 -56.1523 56.2988 -57.2754 C 58.1543 -63.6719 65.918 -68.8477 77.0996 -68.8477 C 88.8672 -68.8477 98.4375 -62.4023 98.4375 -51.8066 C 98.4375 -44.4824 94.6289 -40.7715 87.9883 -36.3281 C 83.7402 -33.4473 81.3477 -31.25 81.0547 -27.832 C 81.0547 -27.5391 81.0547 -27.1973 81.0059 -26.9043 C 80.6641 -24.3652 78.5645 -22.3633 75.0977 -22.3633 Z M 75.3906 -2.92969 C 71.1914 -2.92969 67.8711 -5.81055 67.8711 -9.96094 C 67.8711 -14.0137 71.1426 -16.8945 75.3906 -16.8945 C 79.541 -16.8945 82.8613 -14.0625 82.8613 -9.96094 C 82.8613 -5.76172 79.541 -2.92969 75.3906 -2.92969 Z"/>
  </g>
  <g id="Medium-L" transform="matrix(1 0 0 1 1670.87 1556)">
   <path d="M 75.6836 29.1992 C 110.938 29.1992 140.088 0.0488281 140.088 -35.2051 C 140.088 -70.459 110.889 -99.6094 75.6348 -99.6094 C 40.3809 -99.6094 11.2793 -70.459 11.2793 -35.2051 C 11.2793 0.0488281 40.3809 29.1992 75.6836 29.1992 Z M 74.5605 -22.0703 C 71.0449 -22.0703 69.0918 -23.7793 69.0918 -27.0996 L 69.0918 -28.125 C 69.0918 -34.0332 72.2656 -37.4512 77.1484 -40.8203 C 82.959 -44.8242 85.5957 -47.168 85.5957 -51.3672 C 85.5957 -56.1035 81.8359 -59.375 75.9766 -59.375 C 71.3867 -59.375 67.9688 -56.8359 66.3086 -52.9785 C 64.5996 -50.8789 63.7695 -49.1211 60.3516 -49.1211 C 57.7148 -49.1211 55.5176 -50.8301 55.5176 -53.6621 C 55.5176 -54.7852 55.7617 -55.8594 56.0547 -56.9336 C 57.8125 -63.2812 65.3809 -68.6035 76.5137 -68.6035 C 87.9395 -68.6035 97.3145 -62.4023 97.3145 -51.9043 C 97.3145 -44.5312 93.3594 -40.8203 86.8164 -36.3281 C 82.373 -33.3008 80.0293 -31.0547 79.8828 -27.4414 C 79.8828 -27.0996 79.8828 -26.7578 79.8828 -26.416 C 79.6387 -23.9746 77.7344 -22.0703 74.5605 -22.0703 Z M 74.8047 -3.02734 C 70.9473 -3.02734 67.7246 -5.85938 67.7246 -9.7168 C 67.7246 -13.5742 70.8984 -16.4062 74.8047 -16.4062 C 78.6621 -16.4062 81.8848 -13.623 81.8848 -9.7168 C 81.8848 -5.81055 78.6621 -3.02734 74.8047 -3.02734 Z"/>
  </g>
  <g id="Regular-L" transform="matrix(1 0 0 1 1374.97 1556)">
   <path d="M 74.8535 28.3691 C 109.668 28.3691 138.477 -0.390625 138.477 -35.2051 C 138.477 -70.0195 109.619 -98.7793 74.8047 -98.7793 C 40.0391 -98.7793 11.2793 -70.0195 11.2793 -35.2051 C 11.2793 -0.390625 40.0879 28.3691 74.8535 28.3691 Z M 73.877 -21.7285 C 70.9473 -21.7285 69.3359 -23.2422 69.3359 -26.1719 L 69.3359 -27.4414 C 69.3359 -33.6426 72.5098 -37.1582 77.4902 -40.5273 C 83.4961 -44.6777 86.084 -47.1191 86.084 -51.6113 C 86.084 -56.8359 81.9336 -60.498 75.3906 -60.498 C 70.166 -60.498 66.3574 -57.5684 64.7949 -53.3203 C 63.1348 -51.123 62.5 -49.4629 59.2773 -49.4629 C 57.373 -49.4629 55.3711 -50.8301 55.3711 -53.3691 C 55.3711 -54.4434 55.5176 -55.4199 55.8105 -56.4453 C 57.3242 -62.7441 64.6484 -68.2617 75.7324 -68.2617 C 86.7188 -68.2617 95.8984 -62.3535 95.8984 -52.0508 C 95.8984 -44.5801 91.748 -40.8203 85.2539 -36.3281 C 80.5176 -33.0566 78.3691 -30.7617 78.3691 -26.9531 L 78.3691 -25.7812 C 78.3691 -23.4863 76.6602 -21.7285 73.877 -21.7285 Z M 74.0723 -3.125 C 70.7031 -3.125 67.5781 -5.85938 67.5781 -9.42383 C 67.5781 -12.9883 70.6543 -15.7227 74.0723 -15.7227 C 77.4902 -15.7227 80.5664 -13.0371 80.5664 -9.42383 C 80.5664 -5.81055 77.4414 -3.125 74.0723 -3.125 Z"/>
  </g>
  <g id="Light-L" transform="matrix(1 0 0 1 1079.18 1556)">
   <path d="M 73.9258 27.4902 C 108.301 27.4902 136.621 -0.830078 136.621 -35.1562 C 136.621 -69.5312 108.252 -97.8516 73.9258 -97.8516 C 39.5508 -97.8516 11.2793 -69.5312 11.2793 -35.1562 C 11.2793 -0.830078 39.5996 27.4902 73.9258 27.4902 Z M 73.1934 -21.875 C 70.9961 -21.875 69.6777 -23.1445 69.6777 -25.3906 L 69.6777 -27.1973 C 69.6777 -32.959 72.4609 -36.4258 77.6855 -40.0391 C 83.8867 -44.3359 86.377 -47.0215 86.377 -51.5625 C 86.377 -57.1289 81.7871 -61.084 74.5605 -61.084 C 68.2617 -61.084 63.8672 -57.1777 62.8418 -52.002 C 61.8164 -50.1953 61.1328 -48.9258 58.7402 -48.9258 C 57.1289 -48.9258 55.5664 -50.0488 55.5664 -52.0508 C 55.5664 -53.0273 55.7129 -53.9551 55.957 -54.834 C 57.1777 -61.4258 64.1602 -67.1875 74.8535 -67.1875 C 85.498 -67.1875 93.8477 -61.2305 93.8477 -51.9043 C 93.8477 -45.0195 90.2832 -41.2598 83.6426 -36.6211 C 78.7109 -33.1055 76.6602 -30.7617 76.6602 -26.7578 L 76.6602 -25.1465 C 76.6602 -23.291 75.3418 -21.875 73.1934 -21.875 Z M 73.3887 -3.85742 C 70.3125 -3.85742 67.6758 -6.34766 67.6758 -9.47266 C 67.6758 -12.5977 70.3125 -15.0879 73.3887 -15.0879 C 76.4648 -15.0879 79.1016 -12.5977 79.1016 -9.47266 C 79.1016 -6.34766 76.416 -3.85742 73.3887 -3.85742 Z"/>
  </g>
  <g id="Thin-L" transform="matrix(1 0 0 1 783.693 1556)">
   <path d="M 72.7051 26.3184 C 106.494 26.3184 134.18 -1.36719 134.18 -35.1074 C 134.18 -68.8965 106.494 -96.582 72.7051 -96.582 C 38.9648 -96.582 11.2793 -68.8965 11.2793 -35.1074 C 11.2793 -1.36719 38.9648 26.3184 72.7051 26.3184 Z M 72.3145 -22.1191 C 71.0938 -22.1191 70.166 -22.998 70.166 -24.3164 L 70.166 -26.8555 C 70.166 -32.1289 72.3633 -35.498 77.9785 -39.4043 C 84.4727 -43.8965 86.7188 -46.875 86.7188 -51.4648 C 86.7188 -57.4707 81.5918 -61.8652 73.4863 -61.8652 C 65.7715 -61.8652 60.498 -56.6406 60.3027 -50.293 C 60.0586 -49.0234 59.375 -48.2422 57.959 -48.2422 C 56.7871 -48.2422 55.9082 -48.9746 55.9082 -50.293 C 55.9082 -51.123 56.0059 -51.9531 56.1035 -52.7344 C 56.9824 -59.6191 63.4766 -65.7227 73.6816 -65.7227 C 83.8379 -65.7227 91.1133 -59.7656 91.1133 -51.709 C 91.1133 -45.5566 88.3301 -41.8457 81.543 -36.9629 C 76.3184 -33.1543 74.3652 -30.7617 74.3652 -26.5625 L 74.3652 -24.2676 C 74.3652 -23.0469 73.584 -22.1191 72.3145 -22.1191 Z M 72.4609 -4.83398 C 69.873 -4.83398 67.7734 -7.03125 67.7734 -9.52148 C 67.7734 -12.0117 69.873 -14.209 72.4609 -14.209 C 75.0977 -14.209 77.1484 -12.0117 77.1484 -9.52148 C 77.1484 -7.03125 75.0977 -4.83398 72.4609 -4.83398 Z"/>
  </g>
  <g id="Ultralight-L" transform="matrix(1 0 0 1 487.616 1556)">
   <path d="M 72.1191 25.7324 C 105.566 25.7324 132.91 -1.61133 132.91 -35.1074 C 132.91 -68.5547 105.566 -95.8984 72.1191 -95.8984 C 38.623 -95.8984 11.2793 -68.5547 11.2793 -35.1074 C 11.2793 -1.61133 38.623 25.7324 72.1191 25.7324 Z M 71.875 -22.2168 C 71.1426 -22.2168 70.4102 -22.9492 70.4102 -23.7305 L 70.4102 -26.6602 C 70.4102 -31.6895 72.3145 -35.0586 78.0762 -39.0625 C 84.7656 -43.7012 86.8652 -46.8262 86.8652 -51.416 C 86.8652 -57.6172 81.543 -62.2559 72.9492 -62.2559 C 64.4531 -62.2559 58.7891 -56.3477 58.9844 -49.4141 C 59.1797 -48.3887 58.4473 -47.9004 57.5684 -47.9004 C 56.6406 -47.9004 56.0547 -48.4375 56.0547 -49.4141 C 56.0547 -50.1465 56.1523 -50.9277 56.2012 -51.6113 C 56.9336 -58.6914 63.1348 -64.9902 73.0957 -64.9902 C 83.0078 -64.9902 89.7461 -59.0332 89.7461 -51.6113 C 89.7461 -45.8496 87.3535 -42.1875 80.4688 -37.1094 C 75.0977 -33.2031 73.1934 -30.7617 73.1934 -26.4648 L 73.1934 -23.7793 C 73.1934 -22.9004 72.7051 -22.2168 71.875 -22.2168 Z M 72.0215 -5.37109 C 69.6289 -5.37109 67.8223 -7.37305 67.8223 -9.57031 C 67.8223 -11.7188 69.6289 -13.7207 72.0215 -13.7207 C 74.4141 -13.7207 76.1719 -11.7188 76.1719 -9.57031 C 76.1719 -7.37305 74.4141 -5.37109 72.0215 -5.37109 Z"/>
  </g>
  <g id="Black-M" transform="matrix(1 0 0 1 2870.97 1126)">
   <path d="M 62.4023 18.457 C 91.9922 18.457 116.113 -5.61523 116.113 -35.2051 C 116.113 -64.7949 91.9922 -88.8672 62.4023 -88.8672 C 32.8125 -88.8672 8.74023 -64.7949 8.74023 -35.2051 C 8.74023 -5.61523 32.8125 18.457 62.4023 18.457 Z M 61.1816 -27.0996 C 55.5176 -27.0996 52.3926 -29.1504 52.3926 -33.252 L 52.3926 -33.3496 C 52.3926 -36.0352 54.5898 -38.2812 58.0566 -40.625 C 61.7188 -43.1152 63.8184 -44.6777 63.8184 -46.2891 C 63.8184 -47.5586 62.9883 -48.291 61.7676 -48.291 C 60.6445 -48.291 59.7656 -47.8027 58.252 -46.4355 C 57.1289 -45.459 55.4199 -43.9941 52.0508 -43.9941 C 46.6309 -43.9941 44.1895 -47.0215 44.1895 -50.3418 C 44.1895 -51.5625 44.4336 -52.5879 44.9219 -53.7109 C 47.3145 -59.0332 54.1992 -62.207 62.8418 -62.207 C 73.877 -62.207 81.9824 -55.8594 81.9824 -47.3145 C 81.9824 -42.3828 80.2246 -39.5508 74.6582 -36.2305 C 72.5098 -34.9121 70.0684 -33.4473 69.1406 -31.7871 C 69.0918 -31.6406 69.043 -31.543 68.9453 -31.3965 C 67.6758 -28.9551 65.1367 -27.0996 61.1816 -27.0996 Z M 61.5234 -10.1074 C 56.25 -10.1074 53.3691 -12.5977 53.3691 -16.9922 C 53.3691 -21.2891 56.25 -23.7305 61.5234 -23.7305 C 66.5527 -23.7305 69.5801 -21.2402 69.5801 -16.9922 C 69.5801 -12.5977 66.6992 -10.1074 61.5234 -10.1074 Z"/>
  </g>
  <g id="Heavy-M" transform="matrix(1 0 0 1 2575.19 1126)">
   <path d="M 61.5234 17.5781 C 90.5273 17.5781 114.258 -6.15234 114.258 -35.2051 C 114.258 -64.2578 90.5273 -87.9883 61.4746 -87.9883 C 32.4707 -87.9883 8.74023 -64.2578 8.74023 -35.2051 C 8.74023 -6.15234 32.4707 17.5781 61.5234 17.5781 Z M 60.3516 -26.5137 C 55.3711 -26.5137 52.6855 -28.418 52.6855 -32.1777 L 52.6855 -32.4219 C 52.6855 -35.6445 54.9805 -37.9883 58.4961 -40.3809 C 62.3535 -43.0176 64.502 -44.6289 64.502 -46.7285 C 64.502 -48.584 63.1348 -49.7559 61.084 -49.7559 C 59.4238 -49.7559 58.1543 -48.9746 56.5918 -47.2656 C 55.3711 -46.0938 53.9551 -44.5801 50.6836 -44.5801 C 46.1426 -44.5801 43.8477 -47.168 43.8477 -50.2441 C 43.8477 -51.416 44.0918 -52.3926 44.5312 -53.4668 C 46.6309 -58.6426 53.2715 -62.0117 61.9629 -62.0117 C 72.4609 -62.0117 80.4199 -56.1035 80.4199 -47.5586 C 80.4199 -42.334 78.2715 -39.502 72.8516 -36.1328 C 70.3613 -34.6191 68.0664 -33.0566 67.3828 -31.1035 C 67.334 -30.957 67.2852 -30.8105 67.2363 -30.6641 C 66.2598 -28.3203 63.9648 -26.5137 60.3516 -26.5137 Z M 60.6445 -10.0586 C 55.957 -10.0586 53.125 -12.5 53.125 -16.5527 C 53.125 -20.6055 55.957 -22.9492 60.6445 -22.9492 C 65.1855 -22.9492 68.0664 -20.5566 68.0664 -16.5527 C 68.0664 -12.5 65.2832 -10.0586 60.6445 -10.0586 Z"/>
  </g>
  <g id="Bold-M" transform="matrix(1 0 0 1 2279.5 1126)">
   <path d="M 60.498 16.5039 C 88.8672 16.5039 112.207 -6.78711 112.207 -35.2051 C 112.207 -63.623 88.8672 -86.9629 60.4492 -86.9629 C 32.0312 -86.9629 8.74023 -63.623 8.74023 -35.2051 C 8.74023 -6.78711 32.0801 16.5039 60.498 16.5039 Z M 59.375 -25.8789 C 55.2246 -25.8789 52.9785 -27.5879 52.9785 -30.957 L 52.9785 -31.3477 C 52.9785 -35.2051 55.4199 -37.6953 58.9844 -40.1367 C 63.0859 -42.9199 65.1855 -44.5801 65.1855 -47.168 C 65.1855 -49.707 63.2812 -51.3672 60.3027 -51.3672 C 58.0566 -51.3672 56.3477 -50.293 54.7852 -48.2422 C 53.418 -46.7773 52.2949 -45.2637 49.1699 -45.2637 C 45.6055 -45.2637 43.457 -47.3633 43.457 -50.1953 C 43.457 -51.2695 43.6523 -52.1484 44.043 -53.1738 C 45.8984 -58.1543 52.2949 -61.8164 61.0352 -61.8164 C 70.8984 -61.8164 78.7109 -56.3477 78.7109 -47.8516 C 78.7109 -42.2852 76.0742 -39.4531 70.8008 -36.084 C 67.9688 -34.2285 65.8691 -32.6172 65.4297 -30.3223 C 65.3809 -30.1758 65.3809 -30.0293 65.332 -29.834 C 64.6973 -27.6367 62.6465 -25.8789 59.375 -25.8789 Z M 59.668 -10.0098 C 55.6152 -10.0098 52.832 -12.4023 52.832 -16.1133 C 52.832 -19.7754 55.6152 -22.1191 59.668 -22.1191 C 63.623 -22.1191 66.4062 -19.7754 66.4062 -16.1133 C 66.4062 -12.3535 63.6719 -10.0098 59.668 -10.0098 Z"/>
  </g>
  <g id="Semibold-M" transform="matrix(1 0 0 1 1983.5 1126)">
   <path d="M 59.7656 15.8203 C 87.7441 15.8203 110.791 -7.22656 110.791 -35.2051 C 110.791 -63.1836 87.6953 -86.2793 59.7656 -86.2793 C 31.7871 -86.2793 8.74023 -63.1836 8.74023 -35.2051 C 8.74023 -7.22656 31.7871 15.8203 59.7656 15.8203 Z M 58.7402 -25.4395 C 55.127 -25.4395 53.1738 -27.002 53.1738 -30.127 L 53.1738 -30.6152 C 53.1738 -34.8633 55.7129 -37.5 59.3262 -39.9414 C 63.5742 -42.8711 65.7227 -44.5312 65.7227 -47.4609 C 65.7227 -50.4883 63.3789 -52.5391 59.8145 -52.5391 C 57.0801 -52.5391 55.0781 -51.2207 53.5156 -48.877 C 52.0508 -47.2168 51.1719 -45.7031 48.0957 -45.7031 C 45.2148 -45.7031 43.2129 -47.5098 43.2129 -50.1465 C 43.2129 -51.123 43.4082 -52.002 43.75 -52.9297 C 45.3613 -57.8613 51.6113 -61.6699 60.3516 -61.6699 C 69.8242 -61.6699 77.5391 -56.543 77.5391 -48.0469 C 77.5391 -42.2852 74.5605 -39.4043 69.4336 -36.0352 C 66.3086 -33.9844 64.3555 -32.2754 64.0625 -29.834 C 64.0625 -29.6387 64.0137 -29.4434 64.0137 -29.2969 C 63.623 -27.0996 61.7676 -25.4395 58.7402 -25.4395 Z M 58.9844 -10.0098 C 55.3711 -10.0098 52.6367 -12.3047 52.6367 -15.7715 C 52.6367 -19.2383 55.3711 -21.5332 58.9844 -21.5332 C 62.5488 -21.5332 65.2832 -19.2383 65.2832 -15.7715 C 65.2832 -12.3047 62.5488 -10.0098 58.9844 -10.0098 Z"/>
  </g>
  <g id="Medium-M" transform="matrix(1 0 0 1 1687.3 1126)">
   <path d="M 59.2285 15.2832 C 86.9141 15.2832 109.766 -7.56836 109.766 -35.2051 C 109.766 -62.8906 86.8652 -85.7422 59.1797 -85.7422 C 31.543 -85.7422 8.74023 -62.8906 8.74023 -35.2051 C 8.74023 -7.56836 31.5918 15.2832 59.2285 15.2832 Z M 58.252 -25.0977 C 55.0781 -25.0977 53.3203 -26.5625 53.3203 -29.4922 L 53.3203 -30.0781 C 53.3203 -34.668 55.957 -37.3047 59.6191 -39.7949 C 63.9648 -42.8223 66.0645 -44.5312 66.0645 -47.7051 C 66.0645 -51.0742 63.4766 -53.3691 59.375 -53.3691 C 56.3965 -53.3691 54.1016 -51.9043 52.5879 -49.3652 C 51.0254 -47.6074 50.3418 -46.0938 47.3145 -46.0938 C 44.9707 -46.0938 43.0176 -47.6074 43.0176 -50.0977 C 43.0176 -51.0254 43.2129 -51.9043 43.5059 -52.7832 C 44.9707 -57.6172 51.0742 -61.5723 59.8633 -61.5723 C 68.9941 -61.5723 76.6602 -56.6895 76.6602 -48.1934 C 76.6602 -42.2852 73.4375 -39.3555 68.3594 -35.9863 C 65.0879 -33.7891 63.1836 -32.0801 63.0371 -29.4434 C 63.0371 -29.248 63.0371 -29.0527 62.9883 -28.8574 C 62.793 -26.7578 61.084 -25.0977 58.252 -25.0977 Z M 58.4473 -9.96094 C 55.2246 -9.96094 52.4902 -12.2559 52.4902 -15.5273 C 52.4902 -18.7988 55.1758 -21.0938 58.4473 -21.0938 C 61.7188 -21.0938 64.4043 -18.8477 64.4043 -15.5273 C 64.4043 -12.207 61.7188 -9.96094 58.4473 -9.96094 Z"/>
  </g>
  <g id="Regular-M" transform="matrix(1 0 0 1 1391.3 1126)">
   <path d="M 58.5449 14.5508 C 85.791 14.5508 108.35 -8.00781 108.35 -35.2539 C 108.35 -62.4512 85.7422 -85.0586 58.4961 -85.0586 C 31.2988 -85.0586 8.74023 -62.4512 8.74023 -35.2539 C 8.74023 -8.00781 31.3477 14.5508 58.5449 14.5508 Z M 57.6172 -24.6582 C 54.9805 -24.6582 53.5156 -26.0254 53.5156 -28.6621 L 53.5156 -29.3457 C 53.5156 -34.375 56.25 -37.1094 59.9121 -39.6484 C 64.4531 -42.7246 66.6016 -44.4824 66.6016 -47.998 C 66.6016 -51.8555 63.5742 -54.4922 58.8867 -54.4922 C 55.4688 -54.4922 52.8809 -52.7832 51.3184 -50 C 49.6582 -48.0469 49.2188 -46.5332 46.2891 -46.5332 C 44.5801 -46.5332 42.7734 -47.7539 42.7734 -50.0488 C 42.7734 -50.9277 42.9199 -51.7578 43.1641 -52.5879 C 44.4824 -57.3242 50.3906 -61.4258 59.1797 -61.4258 C 67.9199 -61.4258 75.4883 -56.8848 75.4883 -48.3887 C 75.4883 -42.2363 71.9238 -39.3066 66.9922 -35.9375 C 63.4277 -33.5449 61.7188 -31.7871 61.7188 -28.9062 L 61.7188 -28.2715 C 61.7188 -26.2695 60.2051 -24.6582 57.6172 -24.6582 Z M 57.7637 -9.96094 C 54.9805 -9.96094 52.2949 -12.207 52.2949 -15.2344 C 52.2949 -18.2617 54.9316 -20.5078 57.7637 -20.5078 C 60.6445 -20.5078 63.2812 -18.3105 63.2812 -15.2344 C 63.2812 -12.1582 60.5957 -9.96094 57.7637 -9.96094 Z"/>
  </g>
  <g id="Light-M" transform="matrix(1 0 0 1 1095.42 1126)">
   <path d="M 57.7148 13.7695 C 84.5215 13.7695 106.689 -8.39844 106.689 -35.2051 C 106.689 -62.0117 84.5215 -84.1797 57.666 -84.1797 C 30.8594 -84.1797 8.74023 -62.0117 8.74023 -35.2051 C 8.74023 -8.39844 30.9082 13.7695 57.7148 13.7695 Z M 57.0312 -24.8047 C 55.0293 -24.8047 53.8574 -25.9277 53.8574 -27.9297 L 53.8574 -29.1016 C 53.8574 -33.7891 56.1523 -36.4746 60.1074 -39.209 C 64.8438 -42.4316 66.7969 -44.3848 66.7969 -47.9004 C 66.7969 -52.0508 63.4277 -55.0293 58.1543 -55.0293 C 53.7598 -55.0293 50.6348 -52.4414 49.5605 -48.8281 C 48.4863 -47.2656 47.998 -46.0938 45.752 -46.0938 C 44.3848 -46.0938 42.9688 -47.0703 42.9688 -48.877 C 42.9688 -49.6582 43.1152 -50.3906 43.3105 -51.1719 C 44.3848 -56.1035 49.9512 -60.4492 58.3984 -60.4492 C 66.7969 -60.4492 73.6328 -55.9082 73.6328 -48.2422 C 73.6328 -42.627 70.6055 -39.7461 65.5273 -36.1816 C 61.8164 -33.5938 60.1562 -31.7871 60.1562 -28.7598 L 60.1562 -27.6855 C 60.1562 -26.0742 58.9844 -24.8047 57.0312 -24.8047 Z M 57.1777 -10.5957 C 54.6387 -10.5957 52.3926 -12.6465 52.3926 -15.2344 C 52.3926 -17.8711 54.6387 -19.9219 57.1777 -19.9219 C 59.7168 -19.9219 61.9629 -17.9199 61.9629 -15.2344 C 61.9629 -12.5977 59.668 -10.5957 57.1777 -10.5957 Z"/>
  </g>
  <g id="Thin-M" transform="matrix(1 0 0 1 799.806 1126)">
   <path d="M 56.6406 12.7441 C 82.9102 12.7441 104.492 -8.83789 104.492 -35.1562 C 104.492 -61.4746 82.9102 -83.0566 56.5918 -83.0566 C 30.3223 -83.0566 8.74023 -61.4746 8.74023 -35.1562 C 8.74023 -8.83789 30.3223 12.7441 56.6406 12.7441 Z M 56.25 -25 C 55.0781 -25 54.2969 -25.7812 54.2969 -27.002 L 54.2969 -28.8086 C 54.2969 -33.0078 56.1035 -35.6445 60.3516 -38.5742 C 65.332 -42.041 67.1387 -44.2871 67.1387 -47.8516 C 67.1387 -52.3926 63.2812 -55.7129 57.1777 -55.7129 C 51.5137 -55.7129 47.6074 -51.9531 47.2656 -47.2656 C 46.9238 -46.1914 46.3867 -45.459 45.0684 -45.459 C 44.0918 -45.459 43.2617 -46.0938 43.2617 -47.2656 C 43.2617 -47.9492 43.3594 -48.6328 43.457 -49.2676 C 44.1895 -54.541 49.3652 -59.1797 57.373 -59.1797 C 65.332 -59.1797 71.1914 -54.5898 71.1914 -48.0469 C 71.1914 -43.1152 68.8965 -40.2344 63.6719 -36.4746 C 59.668 -33.6426 58.1055 -31.7871 58.1055 -28.5645 L 58.1055 -26.9043 C 58.1055 -25.8301 57.4219 -25 56.25 -25 Z M 56.3477 -11.4746 C 54.248 -11.4746 52.4902 -13.2324 52.4902 -15.2832 C 52.4902 -17.3828 54.248 -19.0918 56.3477 -19.0918 C 58.4961 -19.0918 60.2051 -17.3828 60.2051 -15.2832 C 60.2051 -13.2324 58.4961 -11.4746 56.3477 -11.4746 Z"/>
  </g>
  <g id="Ultralight-M" transform="matrix(1 0 0 1 503.656 1126)">
   <path d="M 56.0547 12.207 C 82.0801 12.207 103.369 -9.08203 103.369 -35.1562 C 103.369 -61.1816 82.0801 -82.4707 56.0547 -82.4707 C 30.0293 -82.4707 8.74023 -61.1816 8.74023 -35.1562 C 8.74023 -9.08203 30.0293 12.207 56.0547 12.207 Z M 55.8105 -25.0977 C 55.127 -25.0977 54.4922 -25.7324 54.4922 -26.5137 L 54.4922 -28.6621 C 54.4922 -32.6172 56.0547 -35.2051 60.498 -38.2812 C 65.625 -41.8457 67.2852 -44.2383 67.2852 -47.8027 C 67.2852 -52.5391 63.1836 -56.0547 56.6895 -56.0547 C 50.3418 -56.0547 46.0938 -51.709 46.0938 -46.4844 C 46.1426 -45.6055 45.5566 -45.166 44.7266 -45.166 C 43.9453 -45.166 43.4082 -45.6055 43.4082 -46.4844 C 43.4082 -47.0703 43.457 -47.7051 43.5059 -48.291 C 44.1406 -53.7109 49.0234 -58.4961 56.7871 -58.4961 C 64.5996 -58.4961 69.9707 -53.9062 69.9707 -47.9492 C 69.9707 -43.4082 68.0176 -40.5273 62.6953 -36.6211 C 58.5938 -33.6426 57.0801 -31.7871 57.0801 -28.4668 L 57.0801 -26.5137 C 57.0801 -25.7324 56.5918 -25.0977 55.8105 -25.0977 Z M 55.957 -11.9141 C 54.0527 -11.9141 52.5391 -13.5254 52.5391 -15.332 C 52.5391 -17.0898 54.0527 -18.7012 55.957 -18.7012 C 57.8613 -18.7012 59.3262 -17.0898 59.3262 -15.332 C 59.3262 -13.5254 57.8613 -11.9141 55.957 -11.9141 Z"/>
  </g>
  <g id="Black-S" transform="matrix(1 0 0 1 2884.57 696)">
   <path d="M 48.8281 6.78711 C 71.9727 6.78711 90.8203 -12.0605 90.8203 -35.2051 C 90.8203 -58.3496 71.9727 -77.1973 48.8281 -77.1973 C 25.6836 -77.1973 6.83594 -58.3496 6.83594 -35.2051 C 6.83594 -12.0605 25.6836 6.78711 48.8281 6.78711 Z M 47.8516 -28.8086 C 43.457 -28.8086 41.0645 -30.4199 41.0645 -33.5938 L 41.0645 -33.6914 C 41.0645 -35.8398 42.7734 -37.5977 45.5078 -39.4531 C 48.3887 -41.4062 50.0488 -42.627 50.0488 -43.9453 C 50.0488 -44.9707 49.3652 -45.5566 48.3398 -45.5566 C 47.4121 -45.5566 46.7285 -45.166 45.5078 -44.0918 C 44.6289 -43.3105 43.3105 -42.1387 40.6738 -42.1387 C 36.4746 -42.1387 34.5703 -44.4824 34.5703 -47.0703 C 34.5703 -48.0469 34.7656 -48.8281 35.1562 -49.707 C 37.0117 -53.8574 42.3828 -56.3477 49.1699 -56.3477 C 57.7637 -56.3477 64.1113 -51.416 64.1113 -44.7266 C 64.1113 -40.8203 62.6953 -38.623 58.3496 -35.9863 C 56.6406 -34.9609 54.7363 -33.7891 54.0527 -32.4707 C 54.0039 -32.373 53.9551 -32.2754 53.9062 -32.1777 C 52.9297 -30.2734 50.9277 -28.8086 47.8516 -28.8086 Z M 48.1445 -15.5273 C 44.043 -15.5273 41.7969 -17.4805 41.7969 -20.8984 C 41.7969 -24.2676 44.043 -26.1719 48.1445 -26.1719 C 52.0508 -26.1719 54.3945 -24.2188 54.3945 -20.8984 C 54.3945 -17.4805 52.1484 -15.5273 48.1445 -15.5273 Z"/>
  </g>
  <g id="Heavy-S" transform="matrix(1 0 0 1 2588.47 696)">
   <path d="M 48.2422 6.15234 C 70.9961 6.15234 89.5996 -12.4512 89.5996 -35.2051 C 89.5996 -57.959 70.9961 -76.6113 48.1934 -76.6113 C 25.4395 -76.6113 6.83594 -57.959 6.83594 -35.2051 C 6.83594 -12.4512 25.4395 6.15234 48.2422 6.15234 Z M 47.2656 -28.3691 C 43.3594 -28.3691 41.2109 -29.8828 41.2109 -32.8613 L 41.2109 -33.0078 C 41.2109 -35.5957 43.0664 -37.4512 45.8496 -39.3066 C 48.8281 -41.3574 50.5371 -42.5781 50.5371 -44.2383 C 50.5371 -45.7031 49.4629 -46.6309 47.9004 -46.6309 C 46.6797 -46.6309 45.752 -46.0938 44.4336 -44.873 C 43.4082 -43.8477 42.334 -42.6758 39.6973 -42.6758 C 36.1328 -42.6758 34.2773 -44.6777 34.2773 -47.168 C 34.2773 -48.0469 34.4727 -48.8281 34.8145 -49.6582 C 36.5234 -53.6621 41.748 -56.3477 48.584 -56.3477 C 56.8359 -56.3477 63.1348 -51.709 63.1348 -44.9219 C 63.1348 -40.7715 61.3281 -38.5254 57.1289 -35.9375 C 55.1758 -34.7168 53.418 -33.4961 52.8809 -31.9824 C 52.832 -31.8848 52.7832 -31.7871 52.7832 -31.6895 C 52.002 -29.7852 50.1465 -28.3691 47.2656 -28.3691 Z M 47.5586 -15.4297 C 43.8477 -15.4297 41.6016 -17.3828 41.6016 -20.5566 C 41.6016 -23.7793 43.8477 -25.6348 47.5586 -25.6348 C 51.0742 -25.6348 53.418 -23.7305 53.418 -20.5566 C 53.418 -17.334 51.123 -15.4297 47.5586 -15.4297 Z"/>
  </g>
  <g id="Bold-S" transform="matrix(1 0 0 1 2292.44 696)">
   <path d="M 47.5586 5.46875 C 69.873 5.46875 88.2324 -12.8906 88.2324 -35.2051 C 88.2324 -57.5684 69.873 -75.9277 47.5098 -75.9277 C 25.1953 -75.9277 6.83594 -57.5684 6.83594 -35.2051 C 6.83594 -12.8906 25.1953 5.46875 47.5586 5.46875 Z M 46.6309 -27.832 C 43.2617 -27.832 41.4062 -29.248 41.4062 -32.0312 L 41.4062 -32.2266 C 41.4062 -35.3516 43.4082 -37.3047 46.1914 -39.1602 C 49.3652 -41.3574 51.0254 -42.5781 51.0254 -44.5801 C 51.0254 -46.5332 49.6094 -47.8027 47.4121 -47.8027 C 45.8496 -47.8027 44.6289 -47.168 43.2617 -45.752 C 42.041 -44.4824 41.2109 -43.2129 38.5742 -43.2129 C 35.7422 -43.2129 33.9844 -44.9219 33.9844 -47.2656 C 33.9844 -48.0957 34.1309 -48.8281 34.4727 -49.6094 C 35.9375 -53.5156 41.0156 -56.2988 47.9492 -56.2988 C 55.7617 -56.2988 62.0605 -52.0508 62.0605 -45.166 C 62.0605 -40.6738 59.8145 -38.4277 55.7617 -35.8398 C 53.5645 -34.4238 51.9043 -33.1543 51.5625 -31.3965 C 51.5625 -31.3477 51.5137 -31.2012 51.5137 -31.1523 C 51.0254 -29.2969 49.3164 -27.832 46.6309 -27.832 Z M 46.875 -15.332 C 43.6523 -15.332 41.3574 -17.2363 41.3574 -20.2148 C 41.3574 -23.1934 43.6035 -25.0977 46.875 -25.0977 C 50 -25.0977 52.2949 -23.1934 52.2949 -20.2148 C 52.2949 -17.1875 50.0488 -15.332 46.875 -15.332 Z"/>
  </g>
  <g id="Semibold-S" transform="matrix(1 0 0 1 1996.2 696)">
   <path d="M 47.0703 4.98047 C 69.0918 4.98047 87.3047 -13.1836 87.3047 -35.2539 C 87.3047 -57.2754 69.0918 -75.4883 47.0215 -75.4883 C 25 -75.4883 6.83594 -57.2754 6.83594 -35.2539 C 6.83594 -13.1836 25.0488 4.98047 47.0703 4.98047 Z M 46.1914 -27.4902 C 43.1641 -27.4902 41.5527 -28.8086 41.5527 -31.4453 L 41.5527 -31.6895 C 41.5527 -35.1562 43.6523 -37.207 46.4355 -39.0625 C 49.707 -41.3086 51.416 -42.5293 51.416 -44.8242 C 51.416 -47.1191 49.707 -48.6328 47.0703 -48.6328 C 45.2637 -48.6328 43.8477 -47.9004 42.4805 -46.3379 C 41.1133 -44.9219 40.4297 -43.6035 37.8418 -43.6035 C 35.498 -43.6035 33.7402 -45.1172 33.7402 -47.3145 C 33.7402 -48.0957 33.9355 -48.8281 34.1797 -49.6094 C 35.5469 -53.3691 40.5273 -56.2988 47.5098 -56.2988 C 55.0293 -56.2988 61.3281 -52.2949 61.3281 -45.3125 C 61.3281 -40.625 58.7891 -38.3789 54.7852 -35.791 C 52.4414 -34.2285 50.8789 -32.9102 50.6836 -31.0059 C 50.6348 -30.957 50.6348 -30.8105 50.6348 -30.7617 C 50.293 -28.9062 48.7305 -27.4902 46.1914 -27.4902 Z M 46.3867 -15.2344 C 43.457 -15.2344 41.2109 -17.1387 41.2109 -19.9707 C 41.2109 -22.8027 43.457 -24.6582 46.3867 -24.6582 C 49.2676 -24.6582 51.5137 -22.8027 51.5137 -19.9707 C 51.5137 -17.0898 49.2676 -15.2344 46.3867 -15.2344 Z"/>
  </g>
  <g id="Medium-S" transform="matrix(1 0 0 1 1699.83 696)">
   <path d="M 46.7285 4.63867 C 68.5547 4.63867 86.6211 -13.4277 86.6211 -35.2539 C 86.6211 -57.0312 68.5059 -75.1465 46.6797 -75.1465 C 24.8535 -75.1465 6.83594 -57.0312 6.83594 -35.2539 C 6.83594 -13.4277 24.9023 4.63867 46.7285 4.63867 Z M 45.8496 -27.2461 C 43.1152 -27.2461 41.6504 -28.4668 41.6504 -31.0059 L 41.6504 -31.25 C 41.6504 -35.0098 43.8477 -37.1094 46.6309 -39.0137 C 49.9512 -41.3086 51.6602 -42.5293 51.6602 -45.0195 C 51.6602 -47.5586 49.7559 -49.2676 46.8262 -49.2676 C 44.8242 -49.2676 43.2617 -48.4375 41.8457 -46.7773 C 40.3809 -45.2637 39.8926 -43.9453 37.2559 -43.9453 C 35.3027 -43.9453 33.5938 -45.2148 33.5938 -47.3633 C 33.5938 -48.1445 33.7402 -48.8281 34.0332 -49.5605 C 35.2539 -53.2715 40.1855 -56.25 47.168 -56.25 C 54.4434 -56.25 60.7422 -52.4414 60.7422 -45.4102 C 60.7422 -40.5762 58.0078 -38.3301 54.1016 -35.7422 C 51.6113 -34.082 50.0977 -32.7637 49.9512 -30.7129 C 49.9512 -30.6641 49.9512 -30.5176 49.9512 -30.4688 C 49.7559 -28.6621 48.291 -27.2461 45.8496 -27.2461 Z M 46.0449 -15.1855 C 43.3594 -15.1855 41.0645 -17.041 41.0645 -19.7754 C 41.0645 -22.5098 43.3105 -24.3652 46.0449 -24.3652 C 48.6816 -24.3652 50.9277 -22.5098 50.9277 -19.7754 C 50.9277 -17.041 48.6816 -15.1855 46.0449 -15.1855 Z"/>
  </g>
  <g id="Regular-S" transform="matrix(1 0 0 1 1403.58 696)">
   <path d="M 46.2402 4.15039 C 67.7734 4.15039 85.6934 -13.7207 85.6934 -35.2539 C 85.6934 -56.7871 67.7246 -74.6582 46.1914 -74.6582 C 24.707 -74.6582 6.83594 -56.7871 6.83594 -35.2539 C 6.83594 -13.7207 24.7559 4.15039 46.2402 4.15039 Z M 45.4102 -26.8555 C 43.0176 -26.8555 41.748 -28.0762 41.748 -30.4688 L 41.748 -30.7129 C 41.748 -34.8145 44.0918 -37.0117 46.875 -38.916 C 50.293 -41.2598 52.0508 -42.5293 52.0508 -45.2637 C 52.0508 -48.1445 49.8535 -50.0977 46.4844 -50.0977 C 44.2871 -50.0977 42.5293 -49.1699 41.0156 -47.3633 C 39.4531 -45.6543 39.1113 -44.3359 36.4746 -44.3359 C 35.0098 -44.3359 33.3984 -45.4102 33.3984 -47.4121 C 33.3984 -48.1445 33.5449 -48.8281 33.7402 -49.5117 C 34.9121 -53.125 39.6973 -56.25 46.7285 -56.25 C 53.7109 -56.25 60.0098 -52.6855 60.0098 -45.6055 C 60.0098 -40.5273 56.9824 -38.2324 53.125 -35.6934 C 50.4883 -33.8867 49.0723 -32.5195 49.0723 -30.3711 L 49.0723 -30.0781 C 49.0723 -28.2715 47.7051 -26.8555 45.4102 -26.8555 Z M 45.5566 -15.0879 C 43.2129 -15.0879 40.918 -16.9434 40.918 -19.5312 C 40.918 -22.1191 43.1641 -23.9746 45.5566 -23.9746 C 47.9492 -23.9746 50.1953 -22.168 50.1953 -19.5312 C 50.1953 -16.8945 47.9004 -15.0879 45.5566 -15.0879 Z"/>
  </g>
  <g id="Light-S" transform="matrix(1 0 0 1 1107.6 696)">
   <path d="M 45.5078 3.4668 C 66.6992 3.4668 84.2285 -14.0625 84.2285 -35.2051 C 84.2285 -56.3965 66.6504 -73.9258 45.5078 -73.9258 C 24.3164 -73.9258 6.83594 -56.3965 6.83594 -35.2051 C 6.83594 -14.0625 24.3652 3.4668 45.5078 3.4668 Z M 44.873 -27.002 C 43.0664 -27.002 42.041 -27.9785 42.041 -29.7852 L 42.041 -30.5176 C 42.041 -34.3262 44.043 -36.4746 47.0215 -38.4766 C 50.6348 -41.0156 52.2461 -42.4316 52.2461 -45.2148 C 52.2461 -48.3398 49.7559 -50.5371 45.8008 -50.5371 C 42.7734 -50.5371 40.5273 -48.8281 39.502 -46.3379 C 38.4277 -44.9707 38.0371 -43.8965 36.0352 -43.8965 C 34.8145 -43.8965 33.5938 -44.7754 33.5938 -46.3867 C 33.5938 -47.0215 33.6914 -47.6074 33.8379 -48.2422 C 34.8145 -52.0508 39.2578 -55.3711 46.0449 -55.3711 C 52.7344 -55.3711 58.3984 -51.8066 58.3984 -45.459 C 58.3984 -40.8691 55.8105 -38.5742 51.9043 -35.8887 C 49.0234 -33.9355 47.7051 -32.5195 47.7051 -30.2246 L 47.7051 -29.541 C 47.7051 -28.125 46.6797 -27.002 44.873 -27.002 Z M 45.0195 -15.6738 C 42.9199 -15.6738 41.0156 -17.3828 41.0156 -19.5801 C 41.0156 -21.7773 42.9199 -23.4375 45.0195 -23.4375 C 47.1191 -23.4375 49.0234 -21.8262 49.0234 -19.5801 C 49.0234 -17.334 47.1191 -15.6738 45.0195 -15.6738 Z"/>
  </g>
  <g id="Thin-S" transform="matrix(1 0 0 1 811.867 696)">
   <path d="M 44.5801 2.53906 C 65.2832 2.53906 82.2754 -14.4531 82.2754 -35.2051 C 82.2754 -55.9082 65.2344 -72.9004 44.5312 -72.9004 C 23.8281 -72.9004 6.83594 -55.9082 6.83594 -35.2051 C 6.83594 -14.4531 23.877 2.53906 44.5801 2.53906 Z M 44.1895 -27.1973 C 43.1152 -27.1973 42.4316 -27.8809 42.4316 -28.9551 L 42.4316 -30.2734 C 42.4316 -33.6426 43.9453 -35.7422 47.2168 -37.9883 C 51.0742 -40.6738 52.4902 -42.334 52.4902 -45.1172 C 52.4902 -48.584 49.6094 -51.123 44.9707 -51.123 C 40.7715 -51.123 37.8418 -48.4375 37.4512 -44.9707 C 37.0605 -43.9941 36.6211 -43.3594 35.4492 -43.3594 C 34.5703 -43.3594 33.8379 -43.9453 33.8379 -44.9707 C 33.8379 -45.5078 33.8867 -46.0449 33.9844 -46.582 C 34.668 -50.6348 38.7695 -54.248 45.1172 -54.248 C 51.4648 -54.248 56.25 -50.6348 56.25 -45.3125 C 56.25 -41.3086 54.2969 -39.0625 50.2441 -36.1328 C 47.168 -33.9355 45.8984 -32.5195 45.8984 -30.0293 L 45.8984 -28.8574 C 45.8984 -27.9297 45.2637 -27.1973 44.1895 -27.1973 Z M 44.2871 -16.4551 C 42.5781 -16.4551 41.1133 -17.8711 41.1133 -19.5801 C 41.1133 -21.3379 42.5781 -22.7539 44.2871 -22.7539 C 46.0449 -22.7539 47.5098 -21.3379 47.5098 -19.5801 C 47.5098 -17.8711 46.0449 -16.4551 44.2871 -16.4551 Z"/>
  </g>
  <g id="Ultralight-S" transform="matrix(1 0 0 1 515.644 696)">
   <path d="M 44.043 2.05078 C 64.502 2.05078 81.2988 -14.6973 81.2988 -35.1562 C 81.2988 -55.6152 64.502 -72.3633 44.043 -72.3633 C 23.584 -72.3633 6.83594 -55.6152 6.83594 -35.1562 C 6.83594 -14.6973 23.584 2.05078 44.043 2.05078 Z M 43.8477 -27.2949 C 43.1641 -27.2949 42.627 -27.7832 42.627 -28.5156 L 42.627 -30.127 C 42.627 -33.3008 43.8965 -35.3516 47.3145 -37.6953 C 51.3184 -40.4785 52.6367 -42.2852 52.6367 -45.0684 C 52.6367 -48.7305 49.5117 -51.4648 44.5312 -51.4648 C 39.7461 -51.4648 36.4746 -48.1934 36.4258 -44.2383 C 36.3281 -43.5059 35.8887 -43.0664 35.1074 -43.0664 C 34.4727 -43.0664 33.9355 -43.5059 33.9355 -44.2383 C 33.9355 -44.7754 33.9844 -45.2637 34.082 -45.7031 C 34.5703 -49.9023 38.4766 -53.6621 44.6289 -53.6621 C 50.7812 -53.6621 55.127 -50.0488 55.127 -45.2148 C 55.127 -41.5527 53.5156 -39.3066 49.3652 -36.2793 C 46.1914 -33.9844 44.9707 -32.5195 44.9707 -29.9316 L 44.9707 -28.5156 C 44.9707 -27.832 44.5312 -27.2949 43.8477 -27.2949 Z M 43.9453 -16.8457 C 42.3828 -16.8457 41.1621 -18.1641 41.1621 -19.6289 C 41.1621 -21.0938 42.3828 -22.4121 43.9453 -22.4121 C 45.5078 -22.4121 46.7285 -21.0938 46.7285 -19.6289 C 46.7285 -18.1641 45.5078 -16.8457 43.9453 -16.8457 Z"/>
  </g>
 </g>
</svg>
