<?xml version="1.0" encoding="UTF-8"?>
<!--Generator: Apple Native CoreSVG 123-->
<!DOCTYPE svg
PUBLIC "-//W3C//DTD SVG 1.1//EN"
       "http://www.w3.org/Graphics/SVG/1.1/DTD/svg11.dtd">
<svg version="1.1" xmlns="http://www.w3.org/2000/svg" xmlns:xlink="http://www.w3.org/1999/xlink" width="3300" height="2200">
 <!--glyph: "uni1002E1.medium", point size: 100.000000, font version: "Version 15.0d7e11", template writer version: "5"-->
 <g id="Notes">
  <rect height="2200" id="artboard" style="fill:white;opacity:1" width="3300" x="0" y="0"/>
  <line id="" style="fill:none;stroke:black;opacity:1;stroke-width:0.5;" x1="263" x2="3036" y1="292" y2="292"/>
  <text style="stroke:none;fill:black;font-family:-apple-system,&quot;SF Pro Display&quot;,&quot;SF Pro Text&quot;,Helvetica,sans-serif;font-weight:bold;" transform="matrix(1 0 0 1 263 322)">Weight/Scale Variations</text>
  <text style="stroke:none;fill:black;font-family:-apple-system,&quot;SF Pro Display&quot;,&quot;SF Pro Text&quot;,Helvetica,sans-serif;text-anchor:middle;" transform="matrix(1 0 0 1 559.711 322)">Ultralight</text>
  <text style="stroke:none;fill:black;font-family:-apple-system,&quot;SF Pro Display&quot;,&quot;SF Pro Text&quot;,Helvetica,sans-serif;text-anchor:middle;" transform="matrix(1 0 0 1 856.422 322)">Thin</text>
  <text style="stroke:none;fill:black;font-family:-apple-system,&quot;SF Pro Display&quot;,&quot;SF Pro Text&quot;,Helvetica,sans-serif;text-anchor:middle;" transform="matrix(1 0 0 1 1153.13 322)">Light</text>
  <text style="stroke:none;fill:black;font-family:-apple-system,&quot;SF Pro Display&quot;,&quot;SF Pro Text&quot;,Helvetica,sans-serif;text-anchor:middle;" transform="matrix(1 0 0 1 1449.84 322)">Regular</text>
  <text style="stroke:none;fill:black;font-family:-apple-system,&quot;SF Pro Display&quot;,&quot;SF Pro Text&quot;,Helvetica,sans-serif;text-anchor:middle;" transform="matrix(1 0 0 1 1746.56 322)">Medium</text>
  <text style="stroke:none;fill:black;font-family:-apple-system,&quot;SF Pro Display&quot;,&quot;SF Pro Text&quot;,Helvetica,sans-serif;text-anchor:middle;" transform="matrix(1 0 0 1 2043.27 322)">Semibold</text>
  <text style="stroke:none;fill:black;font-family:-apple-system,&quot;SF Pro Display&quot;,&quot;SF Pro Text&quot;,Helvetica,sans-serif;text-anchor:middle;" transform="matrix(1 0 0 1 2339.98 322)">Bold</text>
  <text style="stroke:none;fill:black;font-family:-apple-system,&quot;SF Pro Display&quot;,&quot;SF Pro Text&quot;,Helvetica,sans-serif;text-anchor:middle;" transform="matrix(1 0 0 1 2636.69 322)">Heavy</text>
  <text style="stroke:none;fill:black;font-family:-apple-system,&quot;SF Pro Display&quot;,&quot;SF Pro Text&quot;,Helvetica,sans-serif;text-anchor:middle;" transform="matrix(1 0 0 1 2933.4 322)">Black</text>
  <line id="" style="fill:none;stroke:black;opacity:1;stroke-width:0.5;" x1="263" x2="3036" y1="1903" y2="1903"/>
  <g id="" transform="matrix(1 0 0 1 263 1933)">
   <path d="M 9.24805 0.830078 C 13.5547 0.830078 17.1387 -2.74414 17.1387 -7.05078 C 17.1387 -11.3574 13.5449 -14.9316 9.23828 -14.9316 C 4.94141 -14.9316 1.36719 -11.3574 1.36719 -7.05078 C 1.36719 -2.74414 4.95117 0.830078 9.24805 0.830078 Z M 9.24805 -0.654297 C 5.70312 -0.654297 2.87109 -3.49609 2.87109 -7.05078 C 2.87109 -10.6055 5.69336 -13.4473 9.23828 -13.4473 C 12.793 -13.4473 15.6348 -10.6055 15.6445 -7.05078 C 15.6543 -3.49609 12.8027 -0.654297 9.24805 -0.654297 Z M 9.22852 -3.42773 C 9.69727 -3.42773 9.9707 -3.74023 9.9707 -4.25781 L 9.9707 -6.31836 L 12.1973 -6.31836 C 12.6953 -6.31836 13.0371 -6.57227 13.0371 -7.04102 C 13.0371 -7.51953 12.7148 -7.7832 12.1973 -7.7832 L 9.9707 -7.7832 L 9.9707 -10.0098 C 9.9707 -10.5273 9.69727 -10.8496 9.22852 -10.8496 C 8.75977 -10.8496 8.50586 -10.5078 8.50586 -10.0098 L 8.50586 -7.7832 L 6.29883 -7.7832 C 5.78125 -7.7832 5.44922 -7.51953 5.44922 -7.04102 C 5.44922 -6.57227 5.80078 -6.31836 6.29883 -6.31836 L 8.50586 -6.31836 L 8.50586 -4.25781 C 8.50586 -3.75977 8.75977 -3.42773 9.22852 -3.42773 Z"/>
  </g>
  <g id="" transform="matrix(1 0 0 1 281.506 1933)">
   <path d="M 11.709 2.91016 C 17.1582 2.91016 21.6699 -1.60156 21.6699 -7.05078 C 21.6699 -12.4902 17.1484 -17.0117 11.6992 -17.0117 C 6.25977 -17.0117 1.74805 -12.4902 1.74805 -7.05078 C 1.74805 -1.60156 6.26953 2.91016 11.709 2.91016 Z M 11.709 1.25 C 7.09961 1.25 3.41797 -2.44141 3.41797 -7.05078 C 3.41797 -11.6504 7.08984 -15.3516 11.6992 -15.3516 C 16.3086 -15.3516 20 -11.6504 20.0098 -7.05078 C 20.0195 -2.44141 16.3184 1.25 11.709 1.25 Z M 11.6895 -2.41211 C 12.207 -2.41211 12.5195 -2.77344 12.5195 -3.33984 L 12.5195 -6.23047 L 15.5762 -6.23047 C 16.123 -6.23047 16.5039 -6.51367 16.5039 -7.03125 C 16.5039 -7.55859 16.1426 -7.86133 15.5762 -7.86133 L 12.5195 -7.86133 L 12.5195 -10.9277 C 12.5195 -11.5039 12.207 -11.8555 11.6895 -11.8555 C 11.1719 -11.8555 10.8789 -11.4844 10.8789 -10.9277 L 10.8789 -7.86133 L 7.83203 -7.86133 C 7.26562 -7.86133 6.89453 -7.55859 6.89453 -7.03125 C 6.89453 -6.51367 7.28516 -6.23047 7.83203 -6.23047 L 10.8789 -6.23047 L 10.8789 -3.33984 C 10.8789 -2.79297 11.1719 -2.41211 11.6895 -2.41211 Z"/>
  </g>
  <g id="" transform="matrix(1 0 0 1 304.924 1933)">
   <path d="M 14.9707 5.67383 C 21.9336 5.67383 27.6953 -0.078125 27.6953 -7.04102 C 27.6953 -14.0039 21.9238 -19.7559 14.9609 -19.7559 C 8.00781 -19.7559 2.25586 -14.0039 2.25586 -7.04102 C 2.25586 -0.078125 8.01758 5.67383 14.9707 5.67383 Z M 14.9707 3.85742 C 8.93555 3.85742 4.08203 -1.00586 4.08203 -7.04102 C 4.08203 -13.0762 8.92578 -17.9395 14.9609 -17.9395 C 21.0059 -17.9395 25.8594 -13.0762 25.8691 -7.04102 C 25.8789 -1.00586 21.0156 3.85742 14.9707 3.85742 Z M 14.9512 -1.06445 C 15.5176 -1.06445 15.8691 -1.45508 15.8691 -2.06055 L 15.8691 -6.13281 L 20.1074 -6.13281 C 20.6934 -6.13281 21.1133 -6.46484 21.1133 -7.02148 C 21.1133 -7.59766 20.7227 -7.93945 20.1074 -7.93945 L 15.8691 -7.93945 L 15.8691 -12.1875 C 15.8691 -12.8027 15.5176 -13.1934 14.9512 -13.1934 C 14.3848 -13.1934 14.0625 -12.7832 14.0625 -12.1875 L 14.0625 -7.93945 L 9.83398 -7.93945 C 9.21875 -7.93945 8.80859 -7.59766 8.80859 -7.02148 C 8.80859 -6.46484 9.23828 -6.13281 9.83398 -6.13281 L 14.0625 -6.13281 L 14.0625 -2.06055 C 14.0625 -1.47461 14.3848 -1.06445 14.9512 -1.06445 Z"/>
  </g>
  <text style="stroke:none;fill:black;font-family:-apple-system,&quot;SF Pro Display&quot;,&quot;SF Pro Text&quot;,Helvetica,sans-serif;font-weight:bold;" transform="matrix(1 0 0 1 263 1953)">Design Variations</text>
  <text style="stroke:none;fill:black;font-family:-apple-system,&quot;SF Pro Display&quot;,&quot;SF Pro Text&quot;,Helvetica,sans-serif;" transform="matrix(1 0 0 1 263 1971)">Symbols are supported in up to nine weights and three scales.</text>
  <text style="stroke:none;fill:black;font-family:-apple-system,&quot;SF Pro Display&quot;,&quot;SF Pro Text&quot;,Helvetica,sans-serif;" transform="matrix(1 0 0 1 263 1989)">For optimal layout with text and other symbols, vertically align</text>
  <text style="stroke:none;fill:black;font-family:-apple-system,&quot;SF Pro Display&quot;,&quot;SF Pro Text&quot;,Helvetica,sans-serif;" transform="matrix(1 0 0 1 263 2007)">symbols with the adjacent text.</text>
  <rect height="14" id="" style="fill:#00AEEF;stroke:none;opacity:0.4;" width="3" x="776" y="1919"/>
  <g id="" transform="matrix(1 0 0 1 779 1933)">
   <path d="M 10.5273 0 L 12.373 0 L 7.17773 -14.0918 L 5.43945 -14.0918 L 0.244141 0 L 2.08984 0 L 3.50586 -4.0332 L 9.11133 -4.0332 Z M 6.2793 -11.9531 L 6.33789 -11.9531 L 8.59375 -5.52734 L 4.02344 -5.52734 Z"/>
  </g>
  <rect height="14" id="" style="fill:#00AEEF;stroke:none;opacity:0.4;" width="3" x="791.617" y="1919"/>
  <text style="stroke:none;fill:black;font-family:-apple-system,&quot;SF Pro Display&quot;,&quot;SF Pro Text&quot;,Helvetica,sans-serif;font-weight:bold;" transform="matrix(1 0 0 1 776 1953)">Margins</text>
  <text style="stroke:none;fill:black;font-family:-apple-system,&quot;SF Pro Display&quot;,&quot;SF Pro Text&quot;,Helvetica,sans-serif;" transform="matrix(1 0 0 1 776 1971)">Leading and trailing margins on the left and right side of each symbol</text>
  <text style="stroke:none;fill:black;font-family:-apple-system,&quot;SF Pro Display&quot;,&quot;SF Pro Text&quot;,Helvetica,sans-serif;" transform="matrix(1 0 0 1 776 1989)">can be adjusted by modifying the width of the blue rectangles.</text>
  <text style="stroke:none;fill:black;font-family:-apple-system,&quot;SF Pro Display&quot;,&quot;SF Pro Text&quot;,Helvetica,sans-serif;" transform="matrix(1 0 0 1 776 2007)">Modifications are automatically applied proportionally to all</text>
  <text style="stroke:none;fill:black;font-family:-apple-system,&quot;SF Pro Display&quot;,&quot;SF Pro Text&quot;,Helvetica,sans-serif;" transform="matrix(1 0 0 1 776 2025)">scales and weights.</text>
  <g id="" transform="matrix(1 0 0 1 1289 1933)">
   <path d="M 2.83203 3.11523 L 4.375 4.6582 C 5.22461 5.48828 6.19141 5.41992 7.06055 4.46289 L 17.2754 -6.66016 C 17.7051 -6.36719 18.0957 -6.37695 18.5645 -6.47461 L 19.6094 -6.68945 L 20.3027 -5.99609 L 20.2539 -5.47852 C 20.1855 -4.95117 20.3516 -4.53125 20.8496 -4.0332 L 21.6602 -3.22266 C 22.168 -2.71484 22.8223 -2.68555 23.3008 -3.16406 L 26.5527 -6.41602 C 27.0312 -6.89453 27.0117 -7.54883 26.5039 -8.05664 L 25.6836 -8.87695 C 25.1855 -9.375 24.7754 -9.55078 24.2383 -9.47266 L 23.7109 -9.41406 L 23.0566 -10.0781 L 23.3398 -11.2207 C 23.4863 -11.7871 23.3398 -12.2559 22.7148 -12.8613 L 20.3027 -15.2539 C 16.7578 -18.7793 12.2266 -18.6719 9.11133 -15.5371 C 8.69141 -15.1074 8.64258 -14.5215 8.91602 -14.0918 C 9.15039 -13.7207 9.62891 -13.4961 10.2734 -13.6621 C 11.7871 -14.043 13.3008 -13.9258 14.7852 -12.9199 L 14.1602 -11.3379 C 13.9258 -10.752 13.9453 -10.2734 14.1797 -9.83398 L 3.01758 0.439453 C 2.08008 1.30859 1.97266 2.25586 2.83203 3.11523 Z M 10.6738 -15.1465 C 13.3398 -17.1387 16.6504 -16.8262 19.0527 -14.4141 L 21.6797 -11.8066 C 21.9141 -11.5723 21.9434 -11.3867 21.8848 -11.0938 L 21.5039 -9.53125 L 23.0762 -7.95898 L 24.043 -8.04688 C 24.3262 -8.07617 24.4141 -8.05664 24.6387 -7.83203 L 25.2637 -7.20703 L 22.5098 -4.46289 L 21.8848 -5.07812 C 21.6602 -5.30273 21.6406 -5.40039 21.6699 -5.68359 L 21.7578 -6.64062 L 20.1953 -8.20312 L 18.5742 -7.89062 C 18.291 -7.83203 18.1445 -7.83203 17.9102 -8.07617 L 15.7324 -10.2539 C 15.5078 -10.4883 15.4785 -10.625 15.6055 -10.9473 L 16.5527 -13.2227 C 14.9512 -14.7559 12.8418 -15.6055 10.8008 -14.9512 C 10.7129 -14.9219 10.6445 -14.9414 10.6152 -14.9805 C 10.5859 -15.0293 10.5859 -15.0781 10.6738 -15.1465 Z M 4.10156 2.41211 C 3.61328 1.91406 3.78906 1.61133 4.12109 1.30859 L 15.0781 -8.80859 L 16.3086 -7.57812 L 6.15234 3.34961 C 5.84961 3.68164 5.46875 3.7793 5.06836 3.37891 Z"/>
  </g>
  <text style="stroke:none;fill:black;font-family:-apple-system,&quot;SF Pro Display&quot;,&quot;SF Pro Text&quot;,Helvetica,sans-serif;font-weight:bold;" transform="matrix(1 0 0 1 1289 1953)">Exporting</text>
  <text style="stroke:none;fill:black;font-family:-apple-system,&quot;SF Pro Display&quot;,&quot;SF Pro Text&quot;,Helvetica,sans-serif;" transform="matrix(1 0 0 1 1289 1971)">Symbols should be outlined when exporting to ensure the</text>
  <text style="stroke:none;fill:black;font-family:-apple-system,&quot;SF Pro Display&quot;,&quot;SF Pro Text&quot;,Helvetica,sans-serif;" transform="matrix(1 0 0 1 1289 1989)">design is preserved when submitting to Xcode.</text>
  <text id="template-version" style="stroke:none;fill:black;font-family:-apple-system,&quot;SF Pro Display&quot;,&quot;SF Pro Text&quot;,Helvetica,sans-serif;text-anchor:end;" transform="matrix(1 0 0 1 3036 1933)">Template v.1.0</text>
  <text style="stroke:none;fill:black;font-family:-apple-system,&quot;SF Pro Display&quot;,&quot;SF Pro Text&quot;,Helvetica,sans-serif;text-anchor:end;" transform="matrix(1 0 0 1 3036 1951)">Generated from tag</text>
  <text style="stroke:none;fill:black;font-family:-apple-system,&quot;SF Pro Display&quot;,&quot;SF Pro Text&quot;,Helvetica,sans-serif;text-anchor:end;" transform="matrix(1 0 0 1 3036 1969)">Typeset at 100 points</text>
  <text style="stroke:none;fill:black;font-family:-apple-system,&quot;SF Pro Display&quot;,&quot;SF Pro Text&quot;,Helvetica,sans-serif;" transform="matrix(1 0 0 1 263 726)">Small</text>
  <text style="stroke:none;fill:black;font-family:-apple-system,&quot;SF Pro Display&quot;,&quot;SF Pro Text&quot;,Helvetica,sans-serif;" transform="matrix(1 0 0 1 263 1156)">Medium</text>
  <text style="stroke:none;fill:black;font-family:-apple-system,&quot;SF Pro Display&quot;,&quot;SF Pro Text&quot;,Helvetica,sans-serif;" transform="matrix(1 0 0 1 263 1586)">Large</text>
 </g>
 <g id="Guides">
  <g id="H-reference" style="fill:#27AAE1;stroke:none;" transform="matrix(1 0 0 1 339 696)">
   <path d="M 54.9316 0 L 57.666 0 L 30.5664 -70.459 L 28.0762 -70.459 L 0.976562 0 L 3.66211 0 L 12.9395 -24.4629 L 45.7031 -24.4629 Z M 29.1992 -67.0898 L 29.4434 -67.0898 L 44.8242 -26.709 L 13.8184 -26.709 Z"/>
  </g>
  <line id="Baseline-S" style="fill:none;stroke:#27AAE1;opacity:1;stroke-width:0.577;" x1="263" x2="3036" y1="696" y2="696"/>
  <line id="Capline-S" style="fill:none;stroke:#27AAE1;opacity:1;stroke-width:0.577;" x1="263" x2="3036" y1="625.541" y2="625.541"/>
  <g id="H-reference" style="fill:#27AAE1;stroke:none;" transform="matrix(1 0 0 1 339 1126)">
   <path d="M 54.9316 0 L 57.666 0 L 30.5664 -70.459 L 28.0762 -70.459 L 0.976562 0 L 3.66211 0 L 12.9395 -24.4629 L 45.7031 -24.4629 Z M 29.1992 -67.0898 L 29.4434 -67.0898 L 44.8242 -26.709 L 13.8184 -26.709 Z"/>
  </g>
  <line id="Baseline-M" style="fill:none;stroke:#27AAE1;opacity:1;stroke-width:0.577;" x1="263" x2="3036" y1="1126" y2="1126"/>
  <line id="Capline-M" style="fill:none;stroke:#27AAE1;opacity:1;stroke-width:0.577;" x1="263" x2="3036" y1="1055.54" y2="1055.54"/>
  <g id="H-reference" style="fill:#27AAE1;stroke:none;" transform="matrix(1 0 0 1 339 1556)">
   <path d="M 54.9316 0 L 57.666 0 L 30.5664 -70.459 L 28.0762 -70.459 L 0.976562 0 L 3.66211 0 L 12.9395 -24.4629 L 45.7031 -24.4629 Z M 29.1992 -67.0898 L 29.4434 -67.0898 L 44.8242 -26.709 L 13.8184 -26.709 Z"/>
  </g>
  <line id="Baseline-L" style="fill:none;stroke:#27AAE1;opacity:1;stroke-width:0.577;" x1="263" x2="3036" y1="1556" y2="1556"/>
  <line id="Capline-L" style="fill:none;stroke:#27AAE1;opacity:1;stroke-width:0.577;" x1="263" x2="3036" y1="1485.54" y2="1485.54"/>
  <rect height="119.336" id="left-margin" style="fill:#00AEEF;stroke:none;opacity:0.4;" width="11.2305" x="1384.07" y="1030.79"/>
  <rect height="119.336" id="right-margin" style="fill:#00AEEF;stroke:none;opacity:0.4;" width="11.2182" x="1504.4" y="1030.79"/>
 </g>
 <g id="Symbols">
  <g id="Black-L" transform="matrix(1 0 0 1 2842.9 1556)">
   <path d="M 83.7891 39.1602 C 94.5312 49.8535 106.641 49.9023 117.432 39.1113 L 158.496 -1.9043 C 169.287 -12.6953 169.238 -24.8535 158.545 -35.5469 L 95.8496 -98.1934 C 90.2344 -103.857 86.7188 -105.176 77.9785 -105.176 L 54.1992 -105.176 C 46.3379 -105.176 42.8711 -103.223 36.7188 -97.0703 L 22.5098 -82.8613 C 16.4062 -76.7578 14.4531 -73.2422 14.4531 -65.3809 L 14.4531 -41.6016 C 14.4531 -32.9102 15.5273 -29.1504 21.1426 -23.4863 Z M 96.0938 22.8516 L 35.2539 -37.9883 C 34.1309 -39.1113 33.8379 -39.8926 33.8379 -41.9434 L 33.8379 -63.7695 C 33.8379 -65.332 34.4238 -66.5527 35.3027 -67.4805 L 52.1484 -84.3262 C 53.0273 -85.2051 54.248 -85.791 55.8594 -85.791 L 77.6367 -85.791 C 79.3457 -85.791 80.1758 -85.3027 81.3965 -84.082 L 142.236 -23.2422 C 145.215 -20.2637 145.459 -17.3828 142.188 -14.209 L 105.127 22.8027 C 101.953 25.9766 99.1211 25.8789 96.0938 22.8516 Z M 63.5254 -45.5078 C 69.4824 -45.5078 74.1211 -50.1465 74.1211 -56.1035 C 74.1211 -62.0117 69.4824 -66.6504 63.5254 -66.6504 C 57.5684 -66.6504 52.9297 -62.0117 52.9297 -56.1035 C 52.9297 -50.1465 57.5684 -45.5078 63.5254 -45.5078 Z"/>
  </g>
  <g id="Heavy-L" transform="matrix(1 0 0 1 2547.63 1556)">
   <path d="M 83.1543 37.3535 C 93.3594 47.5586 104.785 47.6074 115.088 37.3047 L 155.908 -3.4668 C 166.26 -13.7695 166.162 -25.2441 155.957 -35.4492 L 93.457 -97.8516 C 88.0859 -103.223 84.8633 -104.297 76.6113 -104.297 L 52.7832 -104.297 C 45.3125 -104.297 42.1875 -102.539 36.377 -96.6797 L 22.0703 -82.4219 C 16.2598 -76.5625 14.4531 -73.4863 14.4531 -65.9668 L 14.4531 -42.1387 C 14.4531 -33.9355 15.332 -30.5176 20.7031 -25.1465 Z M 93.8965 23.3398 L 32.9102 -37.6465 C 31.7383 -38.8184 31.2988 -39.7949 31.2988 -41.8945 L 31.2988 -64.7949 C 31.2988 -66.5527 31.9336 -67.8223 32.959 -68.8477 L 49.9023 -85.791 C 50.9277 -86.8652 52.2461 -87.5 53.9551 -87.5 L 76.9043 -87.5 C 78.7109 -87.5 79.6875 -86.9141 80.957 -85.6445 L 141.943 -24.707 C 145.361 -21.2891 145.605 -17.8223 141.943 -14.209 L 104.346 23.3398 C 100.732 26.9043 97.3633 26.8066 93.8965 23.3398 Z M 61.6211 -47.168 C 67.2852 -47.168 71.582 -51.5625 71.582 -57.1777 C 71.582 -62.7441 67.2852 -67.1387 61.6211 -67.1387 C 55.957 -67.1387 51.6602 -62.7441 51.6602 -57.1777 C 51.6602 -51.5625 55.957 -47.168 61.6211 -47.168 Z"/>
  </g>
  <g id="Bold-L" transform="matrix(1 0 0 1 2252.55 1556)">
   <path d="M 82.373 35.3027 C 92.0898 45.0195 102.637 45.0684 112.5 35.2539 L 153.027 -5.22461 C 162.842 -15.0391 162.744 -25.6348 153.076 -35.3516 L 90.8203 -97.5098 C 85.7422 -102.539 82.7637 -103.369 75.0977 -103.369 L 51.2207 -103.369 C 44.1406 -103.369 41.4551 -101.709 35.9863 -96.2891 L 21.582 -81.8359 C 16.1133 -76.416 14.502 -73.6816 14.502 -66.6016 L 14.502 -42.7246 C 14.502 -35.0586 15.1855 -31.9824 20.2148 -26.9531 Z M 91.4551 23.9258 L 30.3223 -37.207 C 29.0527 -38.4766 28.4668 -39.6484 28.4668 -41.7969 L 28.4668 -66.0156 C 28.4668 -67.8711 29.1504 -69.2383 30.3711 -70.4102 L 47.4121 -87.5 C 48.6328 -88.6719 50 -89.3555 51.8555 -89.3555 L 76.0254 -89.3555 C 78.0273 -89.3555 79.1504 -88.7207 80.5176 -87.3535 L 141.699 -26.2695 C 145.557 -22.3633 145.752 -18.3594 141.65 -14.2578 L 103.467 23.877 C 99.3652 27.9297 95.4102 27.8809 91.4551 23.9258 Z M 59.4727 -49.0723 C 64.7949 -49.0723 68.7988 -53.125 68.7988 -58.3496 C 68.7988 -63.5742 64.7949 -67.627 59.4727 -67.627 C 54.1992 -67.627 50.1953 -63.5742 50.1953 -58.3496 C 50.1953 -53.125 54.1992 -49.0723 59.4727 -49.0723 Z"/>
  </g>
  <g id="Semibold-L" transform="matrix(1 0 0 1 1956.96 1556)">
   <path d="M 81.8848 33.8867 C 91.2109 43.2617 101.221 43.3105 110.693 33.8867 L 151.025 -6.44531 C 160.498 -15.8691 160.4 -25.9277 151.074 -35.2539 L 88.9648 -97.2168 C 84.082 -102.051 81.3477 -102.734 74.0723 -102.734 L 50.1465 -102.734 C 43.3594 -102.734 40.918 -101.172 35.6934 -95.9961 L 21.2402 -81.4941 C 16.0156 -76.2695 14.502 -73.877 14.502 -67.041 L 14.502 -43.1641 C 14.502 -35.8398 15.0391 -33.0078 19.9219 -28.1738 Z M 89.7461 24.3164 L 28.5645 -36.9629 C 27.1973 -38.2812 26.5625 -39.5508 26.5625 -41.7969 L 26.5625 -66.7969 C 26.5625 -68.7988 27.2461 -70.2148 28.5645 -71.4844 L 45.7031 -88.623 C 47.0215 -89.9414 48.4375 -90.6738 50.3906 -90.6738 L 75.4395 -90.6738 C 77.5391 -90.6738 78.8086 -89.9414 80.1758 -88.5742 L 141.504 -27.3926 C 145.703 -23.1445 145.85 -18.7012 141.455 -14.3066 L 102.832 24.2676 C 98.4375 28.6621 94.043 28.6133 89.7461 24.3164 Z M 58.0078 -50.3418 C 63.0371 -50.3418 66.8457 -54.248 66.8457 -59.1797 C 66.8457 -64.1113 63.0371 -68.0176 58.0078 -68.0176 C 53.0273 -68.0176 49.2188 -64.1113 49.2188 -59.1797 C 49.2188 -54.248 53.0273 -50.3418 58.0078 -50.3418 Z"/>
  </g>
  <g id="Medium-L" transform="matrix(1 0 0 1 1661.11 1556)">
   <path d="M 81.4941 32.8613 C 90.5273 41.9434 100.098 41.9922 109.326 32.8125 L 149.512 -7.32422 C 158.74 -16.5039 158.643 -26.123 149.561 -35.1562 L 87.5488 -97.0215 C 82.8613 -101.709 80.2734 -102.197 73.2422 -102.197 L 49.3164 -102.197 C 42.7246 -102.197 40.5273 -100.781 35.498 -95.752 L 20.9473 -81.2012 C 15.918 -76.1719 14.502 -73.9746 14.502 -67.3828 L 14.502 -43.457 C 14.502 -36.4258 14.9414 -33.7891 19.6289 -29.1016 Z M 88.4766 24.6094 L 27.1973 -36.7188 C 25.7812 -38.1348 25.0488 -39.502 25.0488 -41.748 L 25.0488 -67.4316 C 25.0488 -69.4824 25.8301 -70.9473 27.1973 -72.3145 L 44.3848 -89.502 C 45.8008 -90.918 47.2656 -91.6504 49.2676 -91.6504 L 74.9512 -91.6504 C 77.1484 -91.6504 78.5156 -90.8691 79.9316 -89.4531 L 141.357 -28.2227 C 145.85 -23.7305 145.947 -18.9941 141.309 -14.3555 L 102.393 24.5605 C 97.7051 29.1992 93.0176 29.1504 88.4766 24.6094 Z M 56.9336 -51.3184 C 61.7676 -51.3184 65.3809 -55.0293 65.3809 -59.8145 C 65.3809 -64.5508 61.7676 -68.2617 56.9336 -68.2617 C 52.0996 -68.2617 48.4375 -64.5508 48.4375 -59.8145 C 48.4375 -55.0293 52.0996 -51.3184 56.9336 -51.3184 Z"/>
  </g>
  <g id="Regular-L" transform="matrix(1 0 0 1 1365.52 1556)">
   <path d="M 81.0059 31.4453 C 89.6973 40.1855 98.6328 40.2832 107.568 31.3965 L 147.559 -8.54492 C 156.396 -17.334 156.299 -26.416 147.607 -35.1074 L 85.7422 -96.7773 C 81.25 -101.221 78.8574 -101.562 72.2168 -101.562 L 48.2422 -101.562 C 41.9434 -101.562 40.0391 -100.244 35.2539 -95.459 L 20.6055 -80.8105 C 15.8203 -76.0742 14.502 -74.1699 14.502 -67.8223 L 14.502 -43.8477 C 14.502 -37.207 14.8438 -34.8145 19.3359 -30.3711 Z M 86.8164 25 L 25.4395 -36.4746 C 23.9746 -37.8906 23.1445 -39.4043 23.1445 -41.6992 L 23.1445 -68.2129 C 23.1445 -70.3613 23.9258 -71.875 25.4395 -73.3887 L 42.6758 -90.6738 C 44.1895 -92.1387 45.7031 -92.9199 47.8516 -92.9199 L 74.3652 -92.9199 C 76.6602 -92.9199 78.1738 -92.0898 79.6387 -90.6738 L 141.162 -29.2969 C 145.947 -24.5117 146.045 -19.3359 141.113 -14.3555 L 101.758 24.9512 C 96.7773 29.9316 91.6992 29.8828 86.8164 25 Z M 55.4688 -52.5879 C 60.0586 -52.5879 63.4766 -56.1035 63.4766 -60.5957 C 63.4766 -65.0879 60.0586 -68.6035 55.4688 -68.6035 C 50.8789 -68.6035 47.4609 -65.0879 47.4609 -60.5957 C 47.4609 -56.1035 50.8789 -52.5879 55.4688 -52.5879 Z"/>
  </g>
  <g id="Light-L" transform="matrix(1 0 0 1 1069.56 1556)">
   <path d="M 81.0059 31.3965 C 89.209 39.6484 97.8516 39.7461 106.25 31.3965 L 146.436 -8.74023 C 154.736 -17.0898 154.736 -25.7324 146.436 -33.9844 L 84.1309 -95.9473 C 80.0293 -100.049 78.0762 -100.439 71.3867 -100.439 L 47.4121 -100.439 C 41.6016 -100.439 39.8926 -99.4629 35.0586 -94.6777 L 20.2637 -79.834 C 15.4785 -75.0488 14.502 -73.3398 14.502 -67.5293 L 14.502 -43.5547 C 14.502 -36.8652 14.8926 -34.9121 18.9941 -30.7617 Z M 85.4492 26.4648 L 23.6816 -35.4492 C 21.9727 -37.1094 21.0938 -38.916 21.0938 -41.4062 L 21.0938 -67.9199 C 21.0938 -70.3125 21.9238 -72.0703 23.6816 -73.7793 L 41.1133 -91.2598 C 42.8711 -92.9688 44.6289 -93.8477 47.0215 -93.8477 L 73.5352 -93.8477 C 76.0254 -93.8477 77.7832 -92.9688 79.4922 -91.2598 L 141.504 -29.541 C 146.826 -24.2676 146.875 -18.6523 141.455 -13.2324 L 101.807 26.416 C 96.3379 31.8848 90.8203 31.8359 85.4492 26.4648 Z M 54.3945 -53.3203 C 58.4961 -53.3203 61.6211 -56.4941 61.6211 -60.498 C 61.6211 -64.5508 58.4961 -67.6758 54.3945 -67.6758 C 50.293 -67.6758 47.2168 -64.5508 47.2168 -60.498 C 47.2168 -56.4941 50.293 -53.3203 54.3945 -53.3203 Z"/>
  </g>
  <g id="Thin-L" transform="matrix(1 0 0 1 773.854 1556)">
   <path d="M 81.0547 31.3477 C 88.623 38.9648 96.7773 39.0625 104.492 31.3477 L 144.922 -9.0332 C 152.539 -16.6992 152.637 -24.8047 144.922 -32.5195 L 82.0801 -94.8242 C 78.418 -98.4863 77.002 -98.9746 70.2637 -98.9746 L 46.2891 -98.9746 C 41.1133 -98.9746 39.6973 -98.4375 34.8633 -93.6035 L 19.8242 -78.5645 C 14.9902 -73.7305 14.4531 -72.3145 14.4531 -67.1387 L 14.4531 -43.1641 C 14.4531 -36.4258 14.9414 -35.0098 18.6035 -31.3477 Z M 83.6914 28.418 L 21.3379 -34.082 C 19.3359 -36.084 18.4082 -38.2812 18.4082 -41.0156 L 18.4082 -67.5293 C 18.4082 -70.2148 19.3359 -72.3633 21.3379 -74.3652 L 39.0625 -92.0898 C 41.0645 -94.0918 43.2129 -95.0195 45.8984 -95.0195 L 72.4121 -95.0195 C 75.1465 -95.0195 77.2949 -94.0918 79.3457 -92.0898 L 141.943 -29.8828 C 147.9 -23.9258 147.998 -17.7246 141.943 -11.7188 L 101.855 28.3691 C 95.752 34.4727 89.6973 34.4238 83.6914 28.418 Z M 53.0273 -54.2969 C 56.4941 -54.2969 59.1309 -56.9336 59.1309 -60.4004 C 59.1309 -63.8672 56.4941 -66.4551 53.0273 -66.4551 C 49.5605 -66.4551 46.9238 -63.8672 46.9238 -60.4004 C 46.9238 -56.9336 49.5605 -54.2969 53.0273 -54.2969 Z"/>
  </g>
  <g id="Ultralight-L" transform="matrix(1 0 0 1 477.655 1556)">
   <path d="M 81.0547 31.2988 C 88.2812 38.623 96.2402 38.7207 103.613 31.2988 L 144.141 -9.22852 C 151.416 -16.5039 151.562 -24.3652 144.141 -31.7871 L 81.0059 -94.2871 C 77.5879 -97.7051 76.4648 -98.1934 69.6777 -98.1934 L 45.7031 -98.1934 C 40.8691 -98.1934 39.5996 -97.9004 34.7656 -93.0664 L 19.5801 -77.8809 C 14.7461 -73.0469 14.4531 -71.7773 14.4531 -66.9434 L 14.4531 -42.9688 C 14.4531 -36.2305 14.9414 -35.0586 18.3594 -31.6406 Z M 82.7637 29.3945 L 20.166 -33.3984 C 17.9688 -35.5957 16.9922 -37.9395 16.9922 -40.8203 L 16.9922 -67.334 C 16.9922 -70.166 18.0176 -72.5098 20.166 -74.6582 L 37.9883 -92.4805 C 40.1367 -94.6289 42.4805 -95.6543 45.3125 -95.6543 L 71.8262 -95.6543 C 74.707 -95.6543 77.0508 -94.6777 79.248 -92.4805 L 142.188 -30.0293 C 148.486 -23.7793 148.535 -17.2852 142.188 -10.9375 L 101.904 29.3945 C 95.459 35.8398 89.1602 35.7422 82.7637 29.3945 Z M 52.2949 -54.834 C 55.4688 -54.834 57.8125 -57.1777 57.8125 -60.3516 C 57.8125 -63.4766 55.4688 -65.8691 52.2949 -65.8691 C 49.1699 -65.8691 46.7773 -63.4766 46.7773 -60.3516 C 46.7773 -57.1777 49.1699 -54.834 52.2949 -54.834 Z"/>
  </g>
  <g id="Black-M" transform="matrix(1 0 0 1 2861.65 1126)">
   <path d="M 65.918 24.8535 C 74.6094 33.5449 84.8145 33.5449 93.5059 24.8535 L 125.781 -7.42188 C 134.473 -16.1133 134.473 -26.3184 125.781 -35.0586 L 76.7578 -84.082 C 72.168 -88.623 69.2871 -89.9414 61.9141 -89.9414 L 43.5059 -89.9414 C 37.207 -89.9414 34.1309 -88.4766 28.9062 -83.252 L 17.9199 -72.3145 C 12.7441 -67.0898 11.2305 -64.0137 11.2305 -57.666 L 11.2305 -39.3066 C 11.2305 -31.8848 12.3047 -28.7598 16.8945 -24.1699 Z M 76.709 9.86328 L 29.541 -37.3047 C 28.6621 -38.1836 28.5645 -38.7207 28.5645 -40.3809 L 28.5645 -55.7617 C 28.5645 -56.9336 29.0039 -57.959 29.5898 -58.5449 L 42.627 -71.582 C 43.2617 -72.2168 44.2383 -72.6562 45.4102 -72.6562 L 60.8398 -72.6562 C 62.0605 -72.6562 62.6465 -72.3145 63.623 -71.3379 L 110.791 -24.1211 C 112.793 -22.168 113.037 -20.4102 110.791 -18.2617 L 82.6172 9.86328 C 80.4688 11.9629 78.7598 11.9141 76.709 9.86328 Z M 51.2695 -41.3574 C 56.1035 -41.3574 59.8633 -45.0684 59.8633 -49.9023 C 59.8633 -54.7363 56.1035 -58.4961 51.2695 -58.4961 C 46.4844 -58.4961 42.7246 -54.7363 42.7246 -49.9023 C 42.7246 -45.0684 46.4844 -41.3574 51.2695 -41.3574 Z"/>
  </g>
  <g id="Heavy-M" transform="matrix(1 0 0 1 2566.35 1126)">
   <path d="M 65.1367 22.8516 C 73.4375 31.1523 82.959 31.1523 91.3086 22.8516 L 123.242 -9.08203 C 131.543 -17.3828 131.543 -26.9043 123.242 -35.2051 L 74.5117 -83.8867 C 70.166 -88.2812 67.4805 -89.3555 60.5957 -89.3555 L 42.1875 -89.3555 C 36.1328 -89.3555 33.3984 -87.8906 28.5645 -83.0566 L 17.5293 -72.0215 C 12.6465 -67.1875 11.2305 -64.4531 11.2305 -58.3984 L 11.2305 -39.9414 C 11.2305 -33.1055 12.1094 -30.2246 16.4551 -25.8301 Z M 74.6582 10.0586 L 27.4414 -37.1582 C 26.5625 -38.0859 26.3184 -38.7695 26.3184 -40.3809 L 26.3184 -56.9824 C 26.3184 -58.252 26.8066 -59.2773 27.4902 -59.9609 L 40.5762 -73.0469 C 41.3086 -73.7793 42.2852 -74.2188 43.5547 -74.2188 L 60.2051 -74.2188 C 61.5234 -74.2188 62.207 -73.877 63.1836 -72.8516 L 110.4 -25.6348 C 112.744 -23.3398 112.939 -21.0938 110.4 -18.6035 L 81.7383 10.0586 C 79.248 12.5 77.0508 12.4023 74.6582 10.0586 Z M 49.4629 -42.9688 C 54.0527 -42.9688 57.5684 -46.5332 57.5684 -51.123 C 57.5684 -55.6641 54.0527 -59.2285 49.4629 -59.2285 C 44.873 -59.2285 41.3574 -55.6641 41.3574 -51.123 C 41.3574 -46.5332 44.873 -42.9688 49.4629 -42.9688 Z"/>
  </g>
  <g id="Bold-M" transform="matrix(1 0 0 1 2271.2 1126)">
   <path d="M 64.3066 20.6543 C 72.168 28.5156 80.8594 28.5645 88.8184 20.6543 L 120.361 -10.9375 C 128.32 -18.8477 128.223 -27.5391 120.41 -35.4004 L 72.0215 -83.7402 C 67.9199 -87.8418 65.4297 -88.623 59.1797 -88.623 L 40.6738 -88.623 C 34.9121 -88.623 32.6172 -87.2559 28.125 -82.8125 L 17.041 -71.7285 C 12.5977 -67.2363 11.2305 -64.9414 11.2305 -59.1797 L 11.2305 -40.6738 C 11.2305 -34.4238 11.8652 -31.8359 16.0156 -27.6855 Z M 72.3633 10.2539 L 25.0977 -37.0605 C 24.1699 -37.9883 23.8281 -38.7695 23.8281 -40.3809 L 23.8281 -58.3496 C 23.8281 -59.7168 24.3164 -60.7422 25.1465 -61.5723 L 38.2812 -74.707 C 39.1113 -75.5371 40.1367 -76.0254 41.5039 -76.0254 L 59.4727 -76.0254 C 60.9375 -76.0254 61.7188 -75.5859 62.6953 -74.5605 L 110.01 -27.3438 C 112.695 -24.6094 112.842 -21.875 109.961 -18.9941 L 80.7129 10.2051 C 77.832 13.0859 75.1465 12.9883 72.3633 10.2539 Z M 47.4121 -44.8242 C 51.7578 -44.8242 55.0293 -48.1445 55.0293 -52.4414 C 55.0293 -56.6895 51.7578 -60.0586 47.4121 -60.0586 C 43.1152 -60.0586 39.7949 -56.6895 39.7949 -52.4414 C 39.7949 -48.1445 43.1152 -44.8242 47.4121 -44.8242 Z"/>
  </g>
  <g id="Semibold-M" transform="matrix(1 0 0 1 1975.59 1126)">
   <path d="M 63.7207 19.1406 C 71.2891 26.709 79.4434 26.7578 87.0605 19.0918 L 118.408 -12.207 C 126.074 -19.8242 125.977 -27.9785 118.457 -35.5469 L 70.3125 -83.5938 C 66.3574 -87.5488 64.0137 -88.1348 58.1543 -88.1348 L 39.6484 -88.1348 C 34.1309 -88.1348 32.0312 -86.8164 27.8809 -82.666 L 16.748 -71.4844 C 12.5488 -67.334 11.2305 -65.2344 11.2305 -59.7168 L 11.2305 -41.2109 C 11.2305 -35.3516 11.7188 -32.9102 15.6738 -28.9551 Z M 70.8008 10.4004 L 23.4863 -36.9141 C 22.5586 -37.8906 22.1191 -38.7695 22.1191 -40.3809 L 22.1191 -59.3262 C 22.1191 -60.7422 22.6074 -61.7676 23.5352 -62.6465 L 36.7188 -75.8301 C 37.6465 -76.7578 38.623 -77.2461 40.0391 -77.2461 L 58.9844 -77.2461 C 60.498 -77.2461 61.377 -76.7578 62.3535 -75.7812 L 109.668 -28.4668 C 112.695 -25.4883 112.793 -22.3633 109.668 -19.2383 L 80.0293 10.3516 C 76.9043 13.4766 73.8281 13.3789 70.8008 10.4004 Z M 46.0449 -46.0449 C 50.1465 -46.0449 53.3203 -49.2676 53.3203 -53.3691 C 53.3203 -57.4219 50.1465 -60.6445 46.0449 -60.6445 C 41.8945 -60.6445 38.7207 -57.4219 38.7207 -53.3691 C 38.7207 -49.2676 41.8945 -46.0449 46.0449 -46.0449 Z"/>
  </g>
  <g id="Medium-M" transform="matrix(1 0 0 1 1679.71 1126)">
   <path d="M 63.3301 17.9688 C 70.6055 25.293 78.3203 25.3418 85.791 17.9688 L 116.943 -13.1836 C 124.365 -20.5566 124.268 -28.3203 116.943 -35.6445 L 68.9941 -83.4961 C 65.1855 -87.3535 62.9395 -87.7441 57.4219 -87.7441 L 38.8672 -87.7441 C 33.4961 -87.7441 31.6406 -86.4746 27.6855 -82.5195 L 16.5039 -71.3379 C 12.5 -67.3828 11.2305 -65.5273 11.2305 -60.1074 L 11.2305 -41.6016 C 11.2305 -36.0352 11.6211 -33.7891 15.4297 -29.9316 Z M 69.5801 10.498 L 22.2656 -36.8652 C 21.2891 -37.8418 20.8008 -38.7695 20.8008 -40.3809 L 20.8008 -60.0098 C 20.8008 -61.5234 21.3379 -62.5 22.2656 -63.4766 L 35.5469 -76.709 C 36.4746 -77.6855 37.5 -78.2227 38.9648 -78.2227 L 58.5938 -78.2227 C 60.1562 -78.2227 61.084 -77.6367 62.1094 -76.6602 L 109.473 -29.3457 C 112.646 -26.1719 112.744 -22.7539 109.424 -19.4336 L 79.4922 10.4492 C 76.1719 13.7695 72.8027 13.7207 69.5801 10.498 Z M 44.9707 -47.0215 C 48.9746 -47.0215 52.002 -50.0977 52.002 -54.0527 C 52.002 -57.959 48.9746 -61.084 44.9707 -61.084 C 40.9668 -61.084 37.9395 -57.959 37.9395 -54.0527 C 37.9395 -50.0977 40.9668 -47.0215 44.9707 -47.0215 Z"/>
  </g>
  <g id="Regular-M" transform="matrix(1 0 0 1 1384.07 1126)">
   <path d="M 62.7441 16.5039 C 69.7266 23.4863 76.9043 23.584 84.082 16.4551 L 114.99 -14.4043 C 122.168 -21.5332 122.021 -28.7598 115.039 -35.7422 L 67.2852 -83.3984 C 63.623 -87.0605 61.5723 -87.3047 56.4453 -87.3047 L 37.8418 -87.3047 C 32.666 -87.3047 31.1035 -86.0352 27.3926 -82.373 L 16.1621 -71.1426 C 12.4512 -67.4316 11.2305 -65.8203 11.2305 -60.6445 L 11.2305 -42.0898 C 11.2305 -36.9629 11.4746 -34.8633 15.1367 -31.2012 Z M 68.0176 10.5957 L 20.7031 -36.7676 C 19.6777 -37.7441 19.0918 -38.7695 19.0918 -40.3809 L 19.0918 -60.9863 C 19.0918 -62.5 19.6289 -63.5254 20.7031 -64.5508 L 33.9844 -77.832 C 35.0098 -78.8574 36.0352 -79.4434 37.5488 -79.4434 L 58.1055 -79.4434 C 59.7656 -79.4434 60.791 -78.8086 61.7676 -77.832 L 109.18 -30.5176 C 112.646 -27.0508 112.695 -23.291 109.131 -19.7266 L 78.8086 10.5469 C 75.2441 14.1602 71.5332 14.1113 68.0176 10.5957 Z M 43.5547 -48.2422 C 47.4121 -48.2422 50.2441 -51.2207 50.2441 -54.9316 C 50.2441 -58.6914 47.4121 -61.6211 43.5547 -61.6211 C 39.7461 -61.6211 36.8652 -58.6914 36.8652 -54.9316 C 36.8652 -51.2207 39.7461 -48.2422 43.5547 -48.2422 Z"/>
  </g>
  <g id="Light-M" transform="matrix(1 0 0 1 1088.02 1126)">
   <path d="M 62.793 16.4551 C 69.3359 23.0469 76.1719 23.0957 82.9102 16.4062 L 113.965 -14.5996 C 120.654 -21.2891 120.605 -28.1738 114.014 -34.7656 L 65.918 -82.666 C 62.5488 -85.9863 60.8398 -86.2793 55.6641 -86.2793 L 37.1094 -86.2793 C 32.373 -86.2793 30.957 -85.3516 27.2461 -81.6406 L 15.8691 -70.2637 C 12.1582 -66.5527 11.2305 -65.1367 11.2305 -60.4004 L 11.2305 -41.8457 C 11.2305 -36.6699 11.5234 -34.9609 14.8438 -31.5918 Z M 66.8457 11.9141 L 19.1406 -35.8398 C 17.9199 -37.0605 17.2852 -38.3301 17.2852 -40.1367 L 17.2852 -60.6934 C 17.2852 -62.4512 17.8711 -63.7207 19.1406 -64.9414 L 32.5684 -78.3691 C 33.7891 -79.6387 35.0586 -80.2246 36.8164 -80.2246 L 57.373 -80.2246 C 59.1797 -80.2246 60.4492 -79.5898 61.6699 -78.3691 L 109.473 -30.7129 C 113.379 -26.8066 113.477 -22.6562 109.473 -18.7012 L 78.8574 11.9141 C 74.8535 15.918 70.752 15.8691 66.8457 11.9141 Z M 42.627 -48.9258 C 46.0449 -48.9258 48.584 -51.5625 48.584 -54.8828 C 48.584 -58.2031 46.0449 -60.791 42.627 -60.791 C 39.2578 -60.791 36.7188 -58.2031 36.7188 -54.8828 C 36.7188 -51.5625 39.2578 -48.9258 42.627 -48.9258 Z"/>
  </g>
  <g id="Thin-M" transform="matrix(1 0 0 1 792.213 1126)">
   <path d="M 62.793 16.3574 C 68.7988 22.4121 75.2441 22.5098 81.3965 16.3574 L 112.646 -14.8926 C 118.701 -20.9473 118.75 -27.3438 112.646 -33.4473 L 64.0625 -81.6406 C 61.1328 -84.6191 59.9121 -84.9609 54.6875 -84.9609 L 36.1328 -84.9609 C 31.9824 -84.9609 30.8105 -84.4238 27.0996 -80.7129 L 15.4785 -69.0918 C 11.7188 -65.3809 11.2305 -64.209 11.2305 -60.0586 L 11.2305 -41.4551 C 11.2305 -36.2793 11.5723 -35.0098 14.502 -32.0801 Z M 65.2832 13.6719 L 17.041 -34.668 C 15.5762 -36.1328 14.8438 -37.7441 14.8438 -39.7949 L 14.8438 -60.3516 C 14.8438 -62.3535 15.5762 -63.9648 17.041 -65.4297 L 30.7129 -79.1016 C 32.2266 -80.6152 33.8379 -81.2988 35.791 -81.2988 L 56.3965 -81.2988 C 58.4473 -81.2988 60.0586 -80.6152 61.5234 -79.1016 L 109.912 -31.0059 C 114.404 -26.5625 114.453 -21.875 109.912 -17.334 L 78.9551 13.6719 C 74.3652 18.2617 69.7754 18.1641 65.2832 13.6719 Z M 41.4062 -49.8047 C 44.2383 -49.8047 46.3867 -51.9531 46.3867 -54.7363 C 46.3867 -57.5684 44.2383 -59.7168 41.4062 -59.7168 C 38.5742 -59.7168 36.4746 -57.5684 36.4746 -54.7363 C 36.4746 -51.9531 38.5742 -49.8047 41.4062 -49.8047 Z"/>
  </g>
  <g id="Ultralight-M" transform="matrix(1 0 0 1 495.942 1126)">
   <path d="M 62.8418 16.3574 C 68.5547 22.1191 74.7559 22.168 80.6152 16.3574 L 111.963 -15.0391 C 117.725 -20.8008 117.773 -26.9531 111.963 -32.7637 L 63.1348 -81.1523 C 60.4004 -83.8867 59.4238 -84.2773 54.1992 -84.2773 L 35.6445 -84.2773 C 31.7871 -84.2773 30.7129 -83.9355 27.002 -80.2246 L 15.2832 -68.5059 C 11.5234 -64.7461 11.2305 -63.7207 11.2305 -59.8633 L 11.2305 -41.3086 C 11.2305 -36.0352 11.6211 -35.0586 14.3555 -32.373 Z M 64.4531 14.5508 L 16.0156 -34.0332 C 14.3555 -35.6445 13.623 -37.4023 13.623 -39.5996 L 13.623 -60.1562 C 13.623 -62.3047 14.3555 -64.0625 16.0156 -65.6738 L 29.7852 -79.4922 C 31.3965 -81.1035 33.2031 -81.8848 35.3027 -81.8848 L 55.8594 -81.8848 C 58.0566 -81.8848 59.8145 -81.1035 61.4746 -79.4922 L 110.156 -31.1523 C 114.941 -26.416 114.99 -21.4355 110.156 -16.6504 L 79.0039 14.5508 C 74.0723 19.4336 69.2871 19.3848 64.4531 14.5508 Z M 40.7715 -50.2441 C 43.3105 -50.2441 45.2148 -52.1484 45.2148 -54.6875 C 45.2148 -57.2266 43.3105 -59.1309 40.7715 -59.1309 C 38.2324 -59.1309 36.3281 -57.2266 36.3281 -54.6875 C 36.3281 -52.1484 38.2324 -50.2441 40.7715 -50.2441 Z"/>
  </g>
  <g id="Black-S" transform="matrix(1 0 0 1 2877.3 696)">
   <path d="M 51.5625 11.6699 C 58.3496 18.457 66.3086 18.457 73.0957 11.6699 L 98.3398 -13.5742 C 105.127 -20.3613 105.127 -28.3203 98.3398 -35.1074 L 59.9609 -73.4863 C 56.3965 -77.0508 54.1504 -78.0762 48.3887 -78.0762 L 33.9844 -78.0762 C 29.0527 -78.0762 26.6602 -76.9043 22.6074 -72.8516 L 14.0137 -64.2578 C 9.96094 -60.2051 8.78906 -57.8125 8.78906 -52.8809 L 8.78906 -38.4766 C 8.78906 -32.7148 9.61914 -30.2734 13.1836 -26.709 Z M 59.9609 0.0976562 L 22.998 -36.8652 C 22.3145 -37.5488 22.2168 -37.9883 22.2168 -39.2578 L 22.2168 -51.416 C 22.2168 -52.3438 22.5586 -53.125 23.0469 -53.6133 L 33.252 -63.8184 C 33.7402 -64.3066 34.5215 -64.6484 35.4492 -64.6484 L 47.6074 -64.6484 C 48.584 -64.6484 49.0234 -64.4043 49.8047 -63.623 L 86.7676 -26.6602 C 88.3301 -25.0977 88.5254 -23.6816 86.7676 -21.9727 L 64.6484 0.0976562 C 62.9395 1.75781 61.5723 1.70898 59.9609 0.0976562 Z M 40.0391 -40.1367 C 43.7988 -40.1367 46.7285 -43.0664 46.7285 -46.8262 C 46.7285 -50.5859 43.7988 -53.5156 40.0391 -53.5156 C 36.2793 -53.5156 33.3496 -50.5859 33.3496 -46.8262 C 33.3496 -43.0664 36.2793 -40.1367 40.0391 -40.1367 Z"/>
  </g>
  <g id="Heavy-S" transform="matrix(1 0 0 1 2581.59 696)">
   <path d="M 50.9766 10.1562 C 57.5195 16.6992 64.9414 16.6992 71.5332 10.1562 L 96.4844 -14.7949 C 103.076 -21.3867 103.027 -28.8086 96.5332 -35.3516 L 58.3984 -73.4375 C 54.9805 -76.9043 52.832 -77.6855 47.5098 -77.6855 L 33.0566 -77.6855 C 28.2715 -77.6855 26.123 -76.5625 22.3633 -72.7539 L 13.7207 -64.1602 C 9.96094 -60.3516 8.78906 -58.2031 8.78906 -53.4668 L 8.78906 -39.0137 C 8.78906 -33.6426 9.47266 -31.3477 12.8906 -27.9297 Z M 58.5449 0.0976562 L 21.582 -36.8652 C 20.8984 -37.5488 20.7031 -38.0371 20.7031 -39.3066 L 20.7031 -52.3926 C 20.7031 -53.3691 21.0449 -54.1016 21.6309 -54.6387 L 31.8359 -64.8926 C 32.373 -65.4297 33.1543 -65.7715 34.1309 -65.7715 L 47.2168 -65.7715 C 48.2422 -65.7715 48.7305 -65.4785 49.4629 -64.7461 L 86.4258 -27.7832 C 88.2324 -25.9766 88.3789 -24.2676 86.4258 -22.3633 L 63.9648 0.0976562 C 62.0605 1.95312 60.3516 1.9043 58.5449 0.0976562 Z M 38.7695 -41.3086 C 42.3828 -41.3086 45.166 -44.1406 45.166 -47.7539 C 45.166 -51.3672 42.3828 -54.1992 38.7695 -54.1992 C 35.1074 -54.1992 32.3242 -51.3672 32.3242 -47.7539 C 32.3242 -44.1406 35.1074 -41.3086 38.7695 -41.3086 Z"/>
  </g>
  <g id="Bold-S" transform="matrix(1 0 0 1 2286 696)">
   <path d="M 50.3418 8.49609 C 56.5918 14.7461 63.4277 14.7461 69.7754 8.44727 L 94.4336 -16.2109 C 100.781 -22.5098 100.684 -29.3945 94.4824 -35.5957 L 56.6895 -73.3887 C 53.3691 -76.709 51.3672 -77.2949 46.4844 -77.2949 L 31.9824 -77.2949 C 27.3926 -77.2949 25.5371 -76.123 22.0703 -72.6562 L 13.4277 -64.0137 C 9.96094 -60.5469 8.78906 -58.6914 8.78906 -54.1016 L 8.78906 -39.5996 C 8.78906 -34.7168 9.27734 -32.6172 12.5977 -29.2969 Z M 56.9336 0.0976562 L 19.9707 -36.8652 C 19.2871 -37.5488 19.043 -38.0859 19.043 -39.3555 L 19.043 -53.4668 C 19.043 -54.4922 19.3848 -55.2246 20.0195 -55.8105 L 30.2734 -66.0645 C 30.8594 -66.6992 31.5918 -67.041 32.6172 -67.041 L 46.7285 -67.041 C 47.8516 -67.041 48.3887 -66.6992 49.1211 -65.9668 L 86.084 -29.0527 C 88.0859 -27.002 88.2324 -24.9512 86.0352 -22.7539 L 63.1836 0.0488281 C 61.0352 2.19727 58.9844 2.14844 56.9336 0.0976562 Z M 37.3047 -42.627 C 40.7715 -42.627 43.457 -45.3613 43.457 -48.7793 C 43.457 -52.1973 40.7715 -54.9316 37.3047 -54.9316 C 33.8379 -54.9316 31.1523 -52.1973 31.1523 -48.7793 C 31.1523 -45.3613 33.8379 -42.627 37.3047 -42.627 Z"/>
  </g>
  <g id="Semibold-S" transform="matrix(1 0 0 1 1990.07 696)">
   <path d="M 49.9023 7.32422 C 55.957 13.3789 62.4023 13.4277 68.5547 7.32422 L 93.0176 -17.1387 C 99.1699 -23.2422 99.0723 -29.7852 93.0664 -35.791 L 55.4688 -73.3887 C 52.2949 -76.5625 50.3418 -77.002 45.8008 -77.002 L 31.2988 -77.002 C 26.8066 -77.002 25.0977 -75.8789 21.875 -72.6074 L 13.1836 -63.916 C 9.91211 -60.6934 8.78906 -58.9844 8.78906 -54.541 L 8.78906 -39.9902 C 8.78906 -35.4492 9.17969 -33.4473 12.3535 -30.2246 Z M 55.8105 0.0488281 L 18.8477 -36.8652 C 18.2129 -37.5488 17.8711 -38.1348 17.8711 -39.3555 L 17.8711 -54.1992 C 17.8711 -55.2734 18.2617 -55.957 18.8965 -56.6406 L 29.1992 -66.8945 C 29.834 -67.5293 30.5176 -67.9199 31.5918 -67.9199 L 46.4355 -67.9199 C 47.5586 -67.9199 48.1445 -67.5293 48.877 -66.8457 L 85.791 -29.9316 C 87.9883 -27.6855 88.0859 -25.3906 85.791 -23.0469 L 62.6465 0.0488281 C 60.3516 2.34375 58.0078 2.29492 55.8105 0.0488281 Z M 36.3281 -43.5547 C 39.6973 -43.5547 42.2363 -46.1426 42.2363 -49.4629 C 42.2363 -52.7832 39.6973 -55.4199 36.3281 -55.4199 C 32.9102 -55.4199 30.3711 -52.7832 30.3711 -49.4629 C 30.3711 -46.1426 32.9102 -43.5547 36.3281 -43.5547 Z"/>
  </g>
  <g id="Medium-S" transform="matrix(1 0 0 1 1693.94 696)">
   <path d="M 49.5605 6.44531 C 55.4688 12.3535 61.6211 12.4023 67.627 6.39648 L 91.9434 -17.8711 C 97.9492 -23.877 97.8516 -30.0781 91.9922 -35.9375 L 54.5898 -73.3398 C 51.4648 -76.4648 49.5605 -76.8066 45.2637 -76.8066 L 30.7129 -76.8066 C 26.3184 -76.8066 24.8047 -75.6348 21.7285 -72.5586 L 13.0371 -63.8672 C 9.91211 -60.791 8.78906 -59.2285 8.78906 -54.834 L 8.78906 -40.332 C 8.78906 -35.9863 9.08203 -34.082 12.207 -30.957 Z M 54.9805 0.0488281 L 18.0176 -36.8652 C 17.3828 -37.5488 16.9922 -38.1836 16.9922 -39.4043 L 16.9922 -54.7852 C 16.9922 -55.8594 17.3828 -56.543 18.0664 -57.2266 L 28.3691 -67.5293 C 29.0039 -68.2129 29.7363 -68.6035 30.8105 -68.6035 L 46.1914 -68.6035 C 47.3633 -68.6035 47.998 -68.1641 48.6816 -67.4805 L 85.5957 -30.5664 C 87.9395 -28.2227 88.0371 -25.7324 85.5469 -23.291 L 62.2559 0.0488281 C 59.8145 2.44141 57.3242 2.39258 54.9805 0.0488281 Z M 35.5469 -44.2383 C 38.8672 -44.2383 41.3574 -46.7773 41.3574 -50 C 41.3574 -53.2715 38.8672 -55.8105 35.5469 -55.8105 C 32.2754 -55.8105 29.7852 -53.2715 29.7852 -50 C 29.7852 -46.7773 32.2754 -44.2383 35.5469 -44.2383 Z"/>
  </g>
  <g id="Regular-S" transform="matrix(1 0 0 1 1397.99 696)">
   <path d="M 49.1211 5.32227 C 54.834 11.0352 60.5957 11.084 66.4062 5.27344 L 90.5762 -18.8477 C 96.3867 -24.6094 96.2891 -30.4688 90.625 -36.1328 L 53.418 -73.3398 C 50.3906 -76.3672 48.584 -76.5137 44.5801 -76.5137 L 30.0293 -76.5137 C 25.7324 -76.5137 24.4141 -75.3906 21.5332 -72.5098 L 12.793 -63.7695 C 9.91211 -60.8887 8.78906 -59.5703 8.78906 -55.2734 L 8.78906 -40.7227 C 8.78906 -36.7188 8.93555 -34.9121 11.9629 -31.8848 Z M 53.8574 0.0488281 L 16.9434 -36.8652 C 16.2598 -37.5488 15.8203 -38.2324 15.8203 -39.4043 L 15.8203 -55.5176 C 15.8203 -56.6406 16.2109 -57.3242 16.9434 -58.0078 L 27.2949 -68.3594 C 27.9785 -69.043 28.6621 -69.4824 29.7852 -69.4824 L 45.8984 -69.4824 C 47.0703 -69.4824 47.7539 -68.9941 48.4375 -68.3594 L 85.3516 -31.4453 C 87.8418 -28.9062 87.8906 -26.1719 85.3027 -23.584 L 61.7188 0 C 59.1309 2.63672 56.3965 2.58789 53.8574 0.0488281 Z M 34.5703 -45.1172 C 37.793 -45.1172 40.1855 -47.6074 40.1855 -50.7324 C 40.1855 -53.8086 37.793 -56.2988 34.5703 -56.2988 C 31.3477 -56.2988 28.9551 -53.8086 28.9551 -50.7324 C 28.9551 -47.6074 31.3477 -45.1172 34.5703 -45.1172 Z"/>
  </g>
  <g id="Light-S" transform="matrix(1 0 0 1 1101.89 696)">
   <path d="M 49.1699 5.27344 C 54.4922 10.5957 59.9609 10.6445 65.3809 5.22461 L 89.6484 -18.9941 C 95.1172 -24.4141 95.0195 -29.9316 89.6973 -35.2539 L 52.1484 -72.6562 C 49.4141 -75.3906 47.9492 -75.5859 43.8965 -75.5859 L 29.3457 -75.5859 C 25.4883 -75.5859 24.3164 -74.7559 21.3867 -71.875 L 12.5488 -62.9883 C 9.61914 -60.1074 8.78906 -58.9355 8.78906 -55.0293 L 8.78906 -40.4785 C 8.78906 -36.4746 8.98438 -34.9609 11.7188 -32.2266 Z M 52.832 1.2207 L 15.5762 -36.084 C 14.6973 -36.9141 14.209 -37.793 14.209 -39.1602 L 14.209 -55.2734 C 14.209 -56.5918 14.6973 -57.4707 15.5762 -58.3496 L 26.0254 -68.8477 C 26.9531 -69.7266 27.832 -70.166 29.1016 -70.166 L 45.2148 -70.166 C 46.582 -70.166 47.4609 -69.6777 48.3398 -68.8477 L 85.6445 -31.6406 C 88.5254 -28.7109 88.5742 -25.6348 85.5957 -22.6562 L 61.7676 1.17188 C 58.7891 4.15039 55.7129 4.10156 52.832 1.2207 Z M 33.7402 -45.7031 C 36.5723 -45.7031 38.6719 -47.9004 38.6719 -50.6348 C 38.6719 -53.418 36.5723 -55.5664 33.7402 -55.5664 C 30.9082 -55.5664 28.8086 -53.418 28.8086 -50.6348 C 28.8086 -47.9004 30.9082 -45.7031 33.7402 -45.7031 Z"/>
  </g>
  <g id="Thin-S" transform="matrix(1 0 0 1 805.958 696)">
   <path d="M 49.1699 5.22461 C 54.0039 10.0586 59.1309 10.1074 64.0625 5.22461 L 88.4766 -19.2383 C 93.3594 -24.1211 93.3594 -29.1992 88.5254 -34.082 L 50.5371 -71.7773 C 48.1445 -74.1699 47.1191 -74.4141 43.0176 -74.4141 L 28.4668 -74.4141 C 25.1465 -74.4141 24.1699 -73.9746 21.2402 -71.0449 L 12.207 -61.9629 C 9.27734 -59.082 8.78906 -58.1055 8.78906 -54.7363 L 8.78906 -40.1855 C 8.78906 -36.1328 9.0332 -35.0586 11.4258 -32.666 Z M 51.416 2.73438 L 13.7695 -35.0098 C 12.6465 -36.1328 12.1094 -37.3047 12.1094 -38.8672 L 12.1094 -54.9805 C 12.1094 -56.4941 12.6465 -57.666 13.7695 -58.7891 L 24.4141 -69.4824 C 25.5371 -70.6055 26.709 -71.1426 28.2227 -71.1426 L 44.3359 -71.1426 C 45.9473 -71.1426 47.1191 -70.5566 48.2422 -69.4824 L 86.0352 -31.8848 C 89.4043 -28.4668 89.4531 -24.9023 86.0352 -21.4844 L 61.8164 2.73438 C 58.3496 6.20117 54.834 6.15234 51.416 2.73438 Z M 32.666 -46.4844 C 35.0098 -46.4844 36.7188 -48.2422 36.7188 -50.5371 C 36.7188 -52.832 35.0098 -54.6387 32.666 -54.6387 C 30.3711 -54.6387 28.6133 -52.832 28.6133 -50.5371 C 28.6133 -48.2422 30.3711 -46.4844 32.666 -46.4844 Z"/>
  </g>
  <g id="Ultralight-S" transform="matrix(1 0 0 1 509.638 696)">
   <path d="M 49.2188 5.17578 C 53.7598 9.76562 58.6914 9.81445 63.3301 5.17578 L 87.8906 -19.3359 C 92.4805 -23.9746 92.5293 -28.8574 87.8906 -33.4961 L 49.707 -71.3379 C 47.5098 -73.5352 46.6797 -73.8281 42.5781 -73.8281 L 28.0273 -73.8281 C 24.9512 -73.8281 24.0723 -73.5352 21.1426 -70.6055 L 12.0117 -61.4258 C 9.08203 -58.5449 8.78906 -57.666 8.78906 -54.5898 L 8.78906 -40.0391 C 8.78906 -35.9375 9.08203 -35.1074 11.2793 -32.9102 Z M 50.6836 3.51562 L 12.793 -34.4727 C 11.5723 -35.6934 10.9863 -37.0117 10.9863 -38.7207 L 10.9863 -54.834 C 10.9863 -56.4453 11.5723 -57.7637 12.793 -59.0332 L 23.584 -69.7754 C 24.8047 -71.0449 26.1719 -71.6309 27.7832 -71.6309 L 43.8965 -71.6309 C 45.6055 -71.6309 46.9238 -71.0449 48.1445 -69.7754 L 86.2305 -31.9824 C 89.8926 -28.3691 89.9414 -24.5605 86.2305 -20.8496 L 61.8652 3.51562 C 58.1055 7.27539 54.3945 7.22656 50.6836 3.51562 Z M 32.1289 -46.875 C 34.1797 -46.875 35.7422 -48.4375 35.7422 -50.4883 C 35.7422 -52.5391 34.1797 -54.1016 32.1289 -54.1016 C 30.0293 -54.1016 28.5156 -52.5391 28.5156 -50.4883 C 28.5156 -48.4375 30.0293 -46.875 32.1289 -46.875 Z"/>
  </g>
 </g>
</svg>
