<?xml version="1.0" encoding="UTF-8"?>
<!--Generator: Apple Native CoreSVG 123-->
<!DOCTYPE svg
PUBLIC "-//W3C//DTD SVG 1.1//EN"
       "http://www.w3.org/Graphics/SVG/1.1/DTD/svg11.dtd">
<svg version="1.1" xmlns="http://www.w3.org/2000/svg" xmlns:xlink="http://www.w3.org/1999/xlink" width="3300" height="2200">
 <!--glyph: "uni1002A0.medium", point size: 100.000000, font version: "Version 15.0d7e11", template writer version: "5"-->
 <g id="Notes">
  <rect height="2200" id="artboard" style="fill:white;opacity:1" width="3300" x="0" y="0"/>
  <line id="" style="fill:none;stroke:black;opacity:1;stroke-width:0.5;" x1="263" x2="3036" y1="292" y2="292"/>
  <text style="stroke:none;fill:black;font-family:-apple-system,&quot;SF Pro Display&quot;,&quot;SF Pro Text&quot;,Helvetica,sans-serif;font-weight:bold;" transform="matrix(1 0 0 1 263 322)">Weight/Scale Variations</text>
  <text style="stroke:none;fill:black;font-family:-apple-system,&quot;SF Pro Display&quot;,&quot;SF Pro Text&quot;,Helvetica,sans-serif;text-anchor:middle;" transform="matrix(1 0 0 1 559.711 322)">Ultralight</text>
  <text style="stroke:none;fill:black;font-family:-apple-system,&quot;SF Pro Display&quot;,&quot;SF Pro Text&quot;,Helvetica,sans-serif;text-anchor:middle;" transform="matrix(1 0 0 1 856.422 322)">Thin</text>
  <text style="stroke:none;fill:black;font-family:-apple-system,&quot;SF Pro Display&quot;,&quot;SF Pro Text&quot;,Helvetica,sans-serif;text-anchor:middle;" transform="matrix(1 0 0 1 1153.13 322)">Light</text>
  <text style="stroke:none;fill:black;font-family:-apple-system,&quot;SF Pro Display&quot;,&quot;SF Pro Text&quot;,Helvetica,sans-serif;text-anchor:middle;" transform="matrix(1 0 0 1 1449.84 322)">Regular</text>
  <text style="stroke:none;fill:black;font-family:-apple-system,&quot;SF Pro Display&quot;,&quot;SF Pro Text&quot;,Helvetica,sans-serif;text-anchor:middle;" transform="matrix(1 0 0 1 1746.56 322)">Medium</text>
  <text style="stroke:none;fill:black;font-family:-apple-system,&quot;SF Pro Display&quot;,&quot;SF Pro Text&quot;,Helvetica,sans-serif;text-anchor:middle;" transform="matrix(1 0 0 1 2043.27 322)">Semibold</text>
  <text style="stroke:none;fill:black;font-family:-apple-system,&quot;SF Pro Display&quot;,&quot;SF Pro Text&quot;,Helvetica,sans-serif;text-anchor:middle;" transform="matrix(1 0 0 1 2339.98 322)">Bold</text>
  <text style="stroke:none;fill:black;font-family:-apple-system,&quot;SF Pro Display&quot;,&quot;SF Pro Text&quot;,Helvetica,sans-serif;text-anchor:middle;" transform="matrix(1 0 0 1 2636.69 322)">Heavy</text>
  <text style="stroke:none;fill:black;font-family:-apple-system,&quot;SF Pro Display&quot;,&quot;SF Pro Text&quot;,Helvetica,sans-serif;text-anchor:middle;" transform="matrix(1 0 0 1 2933.4 322)">Black</text>
  <line id="" style="fill:none;stroke:black;opacity:1;stroke-width:0.5;" x1="263" x2="3036" y1="1903" y2="1903"/>
  <g id="" transform="matrix(1 0 0 1 263 1933)">
   <path d="M 9.24805 0.830078 C 13.5547 0.830078 17.1387 -2.74414 17.1387 -7.05078 C 17.1387 -11.3574 13.5449 -14.9316 9.23828 -14.9316 C 4.94141 -14.9316 1.36719 -11.3574 1.36719 -7.05078 C 1.36719 -2.74414 4.95117 0.830078 9.24805 0.830078 Z M 9.24805 -0.654297 C 5.70312 -0.654297 2.87109 -3.49609 2.87109 -7.05078 C 2.87109 -10.6055 5.69336 -13.4473 9.23828 -13.4473 C 12.793 -13.4473 15.6348 -10.6055 15.6445 -7.05078 C 15.6543 -3.49609 12.8027 -0.654297 9.24805 -0.654297 Z M 9.22852 -3.42773 C 9.69727 -3.42773 9.9707 -3.74023 9.9707 -4.25781 L 9.9707 -6.31836 L 12.1973 -6.31836 C 12.6953 -6.31836 13.0371 -6.57227 13.0371 -7.04102 C 13.0371 -7.51953 12.7148 -7.7832 12.1973 -7.7832 L 9.9707 -7.7832 L 9.9707 -10.0098 C 9.9707 -10.5273 9.69727 -10.8496 9.22852 -10.8496 C 8.75977 -10.8496 8.50586 -10.5078 8.50586 -10.0098 L 8.50586 -7.7832 L 6.29883 -7.7832 C 5.78125 -7.7832 5.44922 -7.51953 5.44922 -7.04102 C 5.44922 -6.57227 5.80078 -6.31836 6.29883 -6.31836 L 8.50586 -6.31836 L 8.50586 -4.25781 C 8.50586 -3.75977 8.75977 -3.42773 9.22852 -3.42773 Z"/>
  </g>
  <g id="" transform="matrix(1 0 0 1 281.506 1933)">
   <path d="M 11.709 2.91016 C 17.1582 2.91016 21.6699 -1.60156 21.6699 -7.05078 C 21.6699 -12.4902 17.1484 -17.0117 11.6992 -17.0117 C 6.25977 -17.0117 1.74805 -12.4902 1.74805 -7.05078 C 1.74805 -1.60156 6.26953 2.91016 11.709 2.91016 Z M 11.709 1.25 C 7.09961 1.25 3.41797 -2.44141 3.41797 -7.05078 C 3.41797 -11.6504 7.08984 -15.3516 11.6992 -15.3516 C 16.3086 -15.3516 20 -11.6504 20.0098 -7.05078 C 20.0195 -2.44141 16.3184 1.25 11.709 1.25 Z M 11.6895 -2.41211 C 12.207 -2.41211 12.5195 -2.77344 12.5195 -3.33984 L 12.5195 -6.23047 L 15.5762 -6.23047 C 16.123 -6.23047 16.5039 -6.51367 16.5039 -7.03125 C 16.5039 -7.55859 16.1426 -7.86133 15.5762 -7.86133 L 12.5195 -7.86133 L 12.5195 -10.9277 C 12.5195 -11.5039 12.207 -11.8555 11.6895 -11.8555 C 11.1719 -11.8555 10.8789 -11.4844 10.8789 -10.9277 L 10.8789 -7.86133 L 7.83203 -7.86133 C 7.26562 -7.86133 6.89453 -7.55859 6.89453 -7.03125 C 6.89453 -6.51367 7.28516 -6.23047 7.83203 -6.23047 L 10.8789 -6.23047 L 10.8789 -3.33984 C 10.8789 -2.79297 11.1719 -2.41211 11.6895 -2.41211 Z"/>
  </g>
  <g id="" transform="matrix(1 0 0 1 304.924 1933)">
   <path d="M 14.9707 5.67383 C 21.9336 5.67383 27.6953 -0.078125 27.6953 -7.04102 C 27.6953 -14.0039 21.9238 -19.7559 14.9609 -19.7559 C 8.00781 -19.7559 2.25586 -14.0039 2.25586 -7.04102 C 2.25586 -0.078125 8.01758 5.67383 14.9707 5.67383 Z M 14.9707 3.85742 C 8.93555 3.85742 4.08203 -1.00586 4.08203 -7.04102 C 4.08203 -13.0762 8.92578 -17.9395 14.9609 -17.9395 C 21.0059 -17.9395 25.8594 -13.0762 25.8691 -7.04102 C 25.8789 -1.00586 21.0156 3.85742 14.9707 3.85742 Z M 14.9512 -1.06445 C 15.5176 -1.06445 15.8691 -1.45508 15.8691 -2.06055 L 15.8691 -6.13281 L 20.1074 -6.13281 C 20.6934 -6.13281 21.1133 -6.46484 21.1133 -7.02148 C 21.1133 -7.59766 20.7227 -7.93945 20.1074 -7.93945 L 15.8691 -7.93945 L 15.8691 -12.1875 C 15.8691 -12.8027 15.5176 -13.1934 14.9512 -13.1934 C 14.3848 -13.1934 14.0625 -12.7832 14.0625 -12.1875 L 14.0625 -7.93945 L 9.83398 -7.93945 C 9.21875 -7.93945 8.80859 -7.59766 8.80859 -7.02148 C 8.80859 -6.46484 9.23828 -6.13281 9.83398 -6.13281 L 14.0625 -6.13281 L 14.0625 -2.06055 C 14.0625 -1.47461 14.3848 -1.06445 14.9512 -1.06445 Z"/>
  </g>
  <text style="stroke:none;fill:black;font-family:-apple-system,&quot;SF Pro Display&quot;,&quot;SF Pro Text&quot;,Helvetica,sans-serif;font-weight:bold;" transform="matrix(1 0 0 1 263 1953)">Design Variations</text>
  <text style="stroke:none;fill:black;font-family:-apple-system,&quot;SF Pro Display&quot;,&quot;SF Pro Text&quot;,Helvetica,sans-serif;" transform="matrix(1 0 0 1 263 1971)">Symbols are supported in up to nine weights and three scales.</text>
  <text style="stroke:none;fill:black;font-family:-apple-system,&quot;SF Pro Display&quot;,&quot;SF Pro Text&quot;,Helvetica,sans-serif;" transform="matrix(1 0 0 1 263 1989)">For optimal layout with text and other symbols, vertically align</text>
  <text style="stroke:none;fill:black;font-family:-apple-system,&quot;SF Pro Display&quot;,&quot;SF Pro Text&quot;,Helvetica,sans-serif;" transform="matrix(1 0 0 1 263 2007)">symbols with the adjacent text.</text>
  <rect height="14" id="" style="fill:#00AEEF;stroke:none;opacity:0.4;" width="3" x="776" y="1919"/>
  <g id="" transform="matrix(1 0 0 1 779 1933)">
   <path d="M 10.5273 0 L 12.373 0 L 7.17773 -14.0918 L 5.43945 -14.0918 L 0.244141 0 L 2.08984 0 L 3.50586 -4.0332 L 9.11133 -4.0332 Z M 6.2793 -11.9531 L 6.33789 -11.9531 L 8.59375 -5.52734 L 4.02344 -5.52734 Z"/>
  </g>
  <rect height="14" id="" style="fill:#00AEEF;stroke:none;opacity:0.4;" width="3" x="791.617" y="1919"/>
  <text style="stroke:none;fill:black;font-family:-apple-system,&quot;SF Pro Display&quot;,&quot;SF Pro Text&quot;,Helvetica,sans-serif;font-weight:bold;" transform="matrix(1 0 0 1 776 1953)">Margins</text>
  <text style="stroke:none;fill:black;font-family:-apple-system,&quot;SF Pro Display&quot;,&quot;SF Pro Text&quot;,Helvetica,sans-serif;" transform="matrix(1 0 0 1 776 1971)">Leading and trailing margins on the left and right side of each symbol</text>
  <text style="stroke:none;fill:black;font-family:-apple-system,&quot;SF Pro Display&quot;,&quot;SF Pro Text&quot;,Helvetica,sans-serif;" transform="matrix(1 0 0 1 776 1989)">can be adjusted by modifying the width of the blue rectangles.</text>
  <text style="stroke:none;fill:black;font-family:-apple-system,&quot;SF Pro Display&quot;,&quot;SF Pro Text&quot;,Helvetica,sans-serif;" transform="matrix(1 0 0 1 776 2007)">Modifications are automatically applied proportionally to all</text>
  <text style="stroke:none;fill:black;font-family:-apple-system,&quot;SF Pro Display&quot;,&quot;SF Pro Text&quot;,Helvetica,sans-serif;" transform="matrix(1 0 0 1 776 2025)">scales and weights.</text>
  <g id="" transform="matrix(1 0 0 1 1289 1933)">
   <path d="M 2.83203 3.11523 L 4.375 4.6582 C 5.22461 5.48828 6.19141 5.41992 7.06055 4.46289 L 17.2754 -6.66016 C 17.7051 -6.36719 18.0957 -6.37695 18.5645 -6.47461 L 19.6094 -6.68945 L 20.3027 -5.99609 L 20.2539 -5.47852 C 20.1855 -4.95117 20.3516 -4.53125 20.8496 -4.0332 L 21.6602 -3.22266 C 22.168 -2.71484 22.8223 -2.68555 23.3008 -3.16406 L 26.5527 -6.41602 C 27.0312 -6.89453 27.0117 -7.54883 26.5039 -8.05664 L 25.6836 -8.87695 C 25.1855 -9.375 24.7754 -9.55078 24.2383 -9.47266 L 23.7109 -9.41406 L 23.0566 -10.0781 L 23.3398 -11.2207 C 23.4863 -11.7871 23.3398 -12.2559 22.7148 -12.8613 L 20.3027 -15.2539 C 16.7578 -18.7793 12.2266 -18.6719 9.11133 -15.5371 C 8.69141 -15.1074 8.64258 -14.5215 8.91602 -14.0918 C 9.15039 -13.7207 9.62891 -13.4961 10.2734 -13.6621 C 11.7871 -14.043 13.3008 -13.9258 14.7852 -12.9199 L 14.1602 -11.3379 C 13.9258 -10.752 13.9453 -10.2734 14.1797 -9.83398 L 3.01758 0.439453 C 2.08008 1.30859 1.97266 2.25586 2.83203 3.11523 Z M 10.6738 -15.1465 C 13.3398 -17.1387 16.6504 -16.8262 19.0527 -14.4141 L 21.6797 -11.8066 C 21.9141 -11.5723 21.9434 -11.3867 21.8848 -11.0938 L 21.5039 -9.53125 L 23.0762 -7.95898 L 24.043 -8.04688 C 24.3262 -8.07617 24.4141 -8.05664 24.6387 -7.83203 L 25.2637 -7.20703 L 22.5098 -4.46289 L 21.8848 -5.07812 C 21.6602 -5.30273 21.6406 -5.40039 21.6699 -5.68359 L 21.7578 -6.64062 L 20.1953 -8.20312 L 18.5742 -7.89062 C 18.291 -7.83203 18.1445 -7.83203 17.9102 -8.07617 L 15.7324 -10.2539 C 15.5078 -10.4883 15.4785 -10.625 15.6055 -10.9473 L 16.5527 -13.2227 C 14.9512 -14.7559 12.8418 -15.6055 10.8008 -14.9512 C 10.7129 -14.9219 10.6445 -14.9414 10.6152 -14.9805 C 10.5859 -15.0293 10.5859 -15.0781 10.6738 -15.1465 Z M 4.10156 2.41211 C 3.61328 1.91406 3.78906 1.61133 4.12109 1.30859 L 15.0781 -8.80859 L 16.3086 -7.57812 L 6.15234 3.34961 C 5.84961 3.68164 5.46875 3.7793 5.06836 3.37891 Z"/>
  </g>
  <text style="stroke:none;fill:black;font-family:-apple-system,&quot;SF Pro Display&quot;,&quot;SF Pro Text&quot;,Helvetica,sans-serif;font-weight:bold;" transform="matrix(1 0 0 1 1289 1953)">Exporting</text>
  <text style="stroke:none;fill:black;font-family:-apple-system,&quot;SF Pro Display&quot;,&quot;SF Pro Text&quot;,Helvetica,sans-serif;" transform="matrix(1 0 0 1 1289 1971)">Symbols should be outlined when exporting to ensure the</text>
  <text style="stroke:none;fill:black;font-family:-apple-system,&quot;SF Pro Display&quot;,&quot;SF Pro Text&quot;,Helvetica,sans-serif;" transform="matrix(1 0 0 1 1289 1989)">design is preserved when submitting to Xcode.</text>
  <text id="template-version" style="stroke:none;fill:black;font-family:-apple-system,&quot;SF Pro Display&quot;,&quot;SF Pro Text&quot;,Helvetica,sans-serif;text-anchor:end;" transform="matrix(1 0 0 1 3036 1933)">Template v.1.0</text>
  <text style="stroke:none;fill:black;font-family:-apple-system,&quot;SF Pro Display&quot;,&quot;SF Pro Text&quot;,Helvetica,sans-serif;text-anchor:end;" transform="matrix(1 0 0 1 3036 1951)">Generated from speaker</text>
  <text style="stroke:none;fill:black;font-family:-apple-system,&quot;SF Pro Display&quot;,&quot;SF Pro Text&quot;,Helvetica,sans-serif;text-anchor:end;" transform="matrix(1 0 0 1 3036 1969)">Typeset at 100 points</text>
  <text style="stroke:none;fill:black;font-family:-apple-system,&quot;SF Pro Display&quot;,&quot;SF Pro Text&quot;,Helvetica,sans-serif;" transform="matrix(1 0 0 1 263 726)">Small</text>
  <text style="stroke:none;fill:black;font-family:-apple-system,&quot;SF Pro Display&quot;,&quot;SF Pro Text&quot;,Helvetica,sans-serif;" transform="matrix(1 0 0 1 263 1156)">Medium</text>
  <text style="stroke:none;fill:black;font-family:-apple-system,&quot;SF Pro Display&quot;,&quot;SF Pro Text&quot;,Helvetica,sans-serif;" transform="matrix(1 0 0 1 263 1586)">Large</text>
 </g>
 <g id="Guides">
  <g id="H-reference" style="fill:#27AAE1;stroke:none;" transform="matrix(1 0 0 1 339 696)">
   <path d="M 54.9316 0 L 57.666 0 L 30.5664 -70.459 L 28.0762 -70.459 L 0.976562 0 L 3.66211 0 L 12.9395 -24.4629 L 45.7031 -24.4629 Z M 29.1992 -67.0898 L 29.4434 -67.0898 L 44.8242 -26.709 L 13.8184 -26.709 Z"/>
  </g>
  <line id="Baseline-S" style="fill:none;stroke:#27AAE1;opacity:1;stroke-width:0.577;" x1="263" x2="3036" y1="696" y2="696"/>
  <line id="Capline-S" style="fill:none;stroke:#27AAE1;opacity:1;stroke-width:0.577;" x1="263" x2="3036" y1="625.541" y2="625.541"/>
  <g id="H-reference" style="fill:#27AAE1;stroke:none;" transform="matrix(1 0 0 1 339 1126)">
   <path d="M 54.9316 0 L 57.666 0 L 30.5664 -70.459 L 28.0762 -70.459 L 0.976562 0 L 3.66211 0 L 12.9395 -24.4629 L 45.7031 -24.4629 Z M 29.1992 -67.0898 L 29.4434 -67.0898 L 44.8242 -26.709 L 13.8184 -26.709 Z"/>
  </g>
  <line id="Baseline-M" style="fill:none;stroke:#27AAE1;opacity:1;stroke-width:0.577;" x1="263" x2="3036" y1="1126" y2="1126"/>
  <line id="Capline-M" style="fill:none;stroke:#27AAE1;opacity:1;stroke-width:0.577;" x1="263" x2="3036" y1="1055.54" y2="1055.54"/>
  <g id="H-reference" style="fill:#27AAE1;stroke:none;" transform="matrix(1 0 0 1 339 1556)">
   <path d="M 54.9316 0 L 57.666 0 L 30.5664 -70.459 L 28.0762 -70.459 L 0.976562 0 L 3.66211 0 L 12.9395 -24.4629 L 45.7031 -24.4629 Z M 29.1992 -67.0898 L 29.4434 -67.0898 L 44.8242 -26.709 L 13.8184 -26.709 Z"/>
  </g>
  <line id="Baseline-L" style="fill:none;stroke:#27AAE1;opacity:1;stroke-width:0.577;" x1="263" x2="3036" y1="1556" y2="1556"/>
  <line id="Capline-L" style="fill:none;stroke:#27AAE1;opacity:1;stroke-width:0.577;" x1="263" x2="3036" y1="1485.54" y2="1485.54"/>
  <rect height="119.336" id="left-margin" style="fill:#00AEEF;stroke:none;opacity:0.4;" width="18.5059" x="1395.45" y="1030.79"/>
  <rect height="119.336" id="right-margin" style="fill:#00AEEF;stroke:none;opacity:0.4;" width="28.8574" x="1475.38" y="1030.79"/>
 </g>
 <g id="Symbols">
  <g id="Black-L" transform="matrix(1 0 0 1 2856.06 1556)">
   <path d="M 45.0195 -2.97852 L 62.8906 -2.97852 C 63.2324 -2.97852 63.5254 -2.92969 63.8672 -2.58789 L 89.9414 20.7031 C 94.3359 24.6094 97.7051 26.416 102.197 26.416 C 109.131 26.416 114.453 21.1426 114.453 14.209 L 114.453 -84.4727 C 114.453 -91.3574 109.131 -96.7773 102.148 -96.7773 C 97.9004 -96.7773 94.5801 -95.0684 89.9414 -90.918 L 63.8672 -67.8223 C 63.4766 -67.5293 63.2324 -67.4316 62.8906 -67.4316 L 45.0195 -67.4316 C 32.8613 -67.4316 26.2695 -60.5469 26.2695 -47.8516 L 26.2695 -22.5586 C 26.2695 -9.81445 32.8613 -2.97852 45.0195 -2.97852 Z M 48.3398 -21.582 C 47.1191 -21.582 46.2891 -22.4121 46.2891 -23.6816 L 46.2891 -46.7285 C 46.2891 -47.9492 47.1191 -48.7793 48.3398 -48.7793 L 67.2363 -48.7793 C 69.2871 -48.7793 70.6543 -49.2188 72.168 -50.6348 L 92.5781 -69.2871 C 92.8223 -69.5312 93.1152 -69.6289 93.457 -69.6289 C 93.9941 -69.6289 94.4336 -69.2383 94.4336 -68.6035 L 94.4336 -1.75781 C 94.4336 -1.07422 93.9941 -0.634766 93.457 -0.634766 C 93.1152 -0.634766 92.8223 -0.78125 92.5781 -1.02539 L 72.168 -19.7266 C 70.6543 -21.1426 69.2871 -21.582 67.2363 -21.582 Z"/>
  </g>
  <g id="Heavy-L" transform="matrix(1 0 0 1 2561.47 1556)">
   <path d="M 42.7246 -4.49219 L 60.8398 -4.49219 C 61.3281 -4.49219 61.6699 -4.39453 62.0605 -4.05273 L 89.0625 20.0684 C 93.0664 23.6328 96.1914 25.293 100.293 25.293 C 106.494 25.293 111.182 20.6055 111.182 14.4531 L 111.182 -84.668 C 111.182 -90.8203 106.494 -95.7031 100.244 -95.7031 C 96.2891 -95.7031 93.3105 -94.0918 89.0625 -90.2832 L 62.0605 -66.3086 C 61.6699 -65.9668 61.3281 -65.8203 60.8398 -65.8203 L 42.7246 -65.8203 C 31.4941 -65.8203 25.4883 -59.6191 25.4883 -47.8516 L 25.4883 -22.4609 C 25.4883 -10.6934 31.4941 -4.49219 42.7246 -4.49219 Z M 45.3125 -20.6543 C 43.75 -20.6543 42.8223 -21.582 42.8223 -23.1445 L 42.8223 -47.168 C 42.8223 -48.7793 43.75 -49.6582 45.3125 -49.6582 L 64.6973 -49.6582 C 66.6992 -49.6582 68.0176 -50.0977 69.5801 -51.5137 L 91.8945 -71.9238 C 92.1875 -72.168 92.5293 -72.3145 92.8711 -72.3145 C 93.4082 -72.3145 93.8477 -71.9238 93.8477 -71.2891 L 93.8477 0.927734 C 93.8477 1.5625 93.457 2.00195 92.8711 2.00195 C 92.5293 2.00195 92.1875 1.85547 91.9434 1.5625 L 69.5801 -18.8477 C 68.0176 -20.2148 66.6992 -20.6543 64.6973 -20.6543 Z"/>
  </g>
  <g id="Bold-L" transform="matrix(1 0 0 1 2267.18 1556)">
   <path d="M 40.1367 -6.20117 L 58.5938 -6.20117 C 59.1797 -6.20117 59.6191 -6.05469 60.0098 -5.71289 L 88.1348 19.3848 C 91.6504 22.5586 94.4336 24.1211 98.0957 24.1211 C 103.516 24.1211 107.52 20.0195 107.52 14.6484 L 107.52 -84.8633 C 107.52 -90.2344 103.516 -94.5312 98.0469 -94.5312 C 94.4824 -94.5312 91.8945 -92.9688 88.1348 -89.5996 L 60.0098 -64.5996 C 59.5703 -64.209 59.1797 -64.0625 58.5938 -64.0625 L 40.1367 -64.0625 C 29.9805 -64.0625 24.6582 -58.5938 24.6582 -47.9004 L 24.6582 -22.3145 C 24.6582 -11.6699 29.9805 -6.20117 40.1367 -6.20117 Z M 41.9434 -19.5801 C 39.9902 -19.5801 38.9648 -20.6055 38.9648 -22.5586 L 38.9648 -47.6562 C 38.9648 -49.6582 39.9902 -50.6348 41.9434 -50.6348 L 61.8652 -50.6348 C 63.7695 -50.6348 65.0879 -51.0254 66.6016 -52.4414 L 91.1621 -74.8535 C 91.5039 -75.1465 91.8457 -75.293 92.2363 -75.293 C 92.7734 -75.293 93.2129 -74.9512 93.2129 -74.3164 L 93.2129 3.90625 C 93.2129 4.54102 92.8223 4.98047 92.2363 4.98047 C 91.8945 4.98047 91.5527 4.78516 91.2109 4.44336 L 66.6016 -17.8223 C 65.0879 -19.2383 63.7695 -19.5801 61.8652 -19.5801 Z"/>
  </g>
  <g id="Semibold-L" transform="matrix(1 0 0 1 1972.1 1556)">
   <path d="M 38.3301 -7.37305 L 57.0801 -7.37305 C 57.666 -7.37305 58.2031 -7.22656 58.6426 -6.83594 L 87.4512 18.9453 C 90.6738 21.8262 93.2617 23.2422 96.6309 23.2422 C 101.465 23.2422 105.029 19.6289 105.029 14.7949 L 105.029 -85.0098 C 105.029 -89.7949 101.465 -93.7012 96.5332 -93.7012 C 93.2617 -93.7012 90.918 -92.1875 87.4512 -89.1113 L 58.6426 -63.4277 C 58.1543 -62.9883 57.666 -62.8418 57.0801 -62.8418 L 38.3301 -62.8418 C 28.9062 -62.8418 24.0723 -57.8613 24.0723 -47.9492 L 24.0723 -22.2656 C 24.0723 -12.3535 28.9062 -7.37305 38.3301 -7.37305 Z M 39.6484 -18.8477 C 37.4023 -18.8477 36.3281 -19.9707 36.3281 -22.168 L 36.3281 -48.0469 C 36.3281 -50.2441 37.4023 -51.3184 39.6484 -51.3184 L 59.9121 -51.3184 C 61.7676 -51.3184 63.0371 -51.6602 64.5996 -53.125 L 90.6738 -76.8555 C 91.0156 -77.1484 91.3574 -77.3926 91.7969 -77.3926 C 92.3828 -77.3926 92.7734 -77.002 92.7734 -76.416 L 92.7734 5.95703 C 92.7734 6.5918 92.3828 6.98242 91.7969 6.98242 C 91.4551 6.98242 91.1133 6.83594 90.7227 6.44531 L 64.5996 -17.1387 C 63.0859 -18.5059 61.7676 -18.8477 59.9121 -18.8477 Z"/>
  </g>
  <g id="Medium-L" transform="matrix(1 0 0 1 1676.63 1556)">
   <path d="M 37.0117 -8.30078 L 55.9082 -8.30078 C 56.543 -8.30078 57.1289 -8.10547 57.5684 -7.66602 L 86.9629 18.6035 C 89.9414 21.2891 92.3828 22.6074 95.5078 22.6074 C 99.9512 22.6074 103.125 19.3359 103.125 14.9414 L 103.125 -85.1074 C 103.125 -89.502 99.9512 -93.0664 95.4102 -93.0664 C 92.334 -93.0664 90.1855 -91.6504 86.9629 -88.7695 L 57.5684 -62.5 C 57.0801 -62.1094 56.543 -61.9141 55.9082 -61.9141 L 37.0117 -61.9141 C 28.0762 -61.9141 23.6328 -57.3242 23.6328 -47.9492 L 23.6328 -22.2168 C 23.6328 -12.8418 28.0762 -8.30078 37.0117 -8.30078 Z M 37.8906 -18.3105 C 35.4492 -18.3105 34.3262 -19.4336 34.3262 -21.875 L 34.3262 -48.291 C 34.3262 -50.7324 35.4492 -51.8555 37.8906 -51.8555 L 58.3984 -51.8555 C 60.2539 -51.8555 61.5234 -52.1484 63.0371 -53.6133 L 90.2832 -78.3691 C 90.625 -78.7109 91.0156 -78.9551 91.4551 -78.9551 C 92.041 -78.9551 92.4316 -78.5645 92.4316 -77.9785 L 92.4316 7.51953 C 92.4316 8.1543 92.041 8.54492 91.5039 8.54492 C 91.1133 8.54492 90.7227 8.34961 90.332 7.95898 L 63.0371 -16.6016 C 61.5234 -17.9688 60.2539 -18.3105 58.3984 -18.3105 Z"/>
  </g>
  <g id="Regular-L" transform="matrix(1 0 0 1 1381.56 1556)">
   <path d="M 35.2539 -9.42383 L 54.3457 -9.42383 C 55.0781 -9.42383 55.7129 -9.22852 56.2012 -8.78906 L 86.2793 18.1152 C 88.9648 20.5566 91.2109 21.7773 93.9941 21.7773 C 97.9004 21.7773 100.635 18.9453 100.635 15.0879 L 100.635 -85.2051 C 100.635 -89.0625 97.9004 -92.2363 93.8965 -92.2363 C 91.1133 -92.2363 89.209 -90.8691 86.2793 -88.2812 L 56.2012 -61.3281 C 55.7129 -60.8887 55.0781 -60.6934 54.3457 -60.6934 L 35.2539 -60.6934 C 27.0508 -60.6934 23.0469 -56.6406 23.0469 -47.998 L 23.0469 -22.1191 C 23.0469 -13.5254 27.0508 -9.42383 35.2539 -9.42383 Z M 35.5957 -17.627 C 32.8613 -17.627 31.6895 -18.7988 31.6895 -21.4844 L 31.6895 -48.6328 C 31.6895 -51.3184 32.8613 -52.5391 35.5957 -52.5391 L 56.4453 -52.5391 C 58.252 -52.5391 59.4727 -52.832 61.0352 -54.248 L 89.7949 -80.3711 C 90.1855 -80.7129 90.5762 -81.0059 91.0156 -81.0059 C 91.6016 -81.0059 91.9922 -80.6152 91.9922 -80.0293 L 91.9922 9.57031 C 91.9922 10.1562 91.6504 10.5957 91.0645 10.5957 C 90.6738 10.5957 90.2832 10.4004 89.8438 9.96094 L 61.0352 -15.918 C 59.5215 -17.2852 58.252 -17.627 56.4453 -17.627 Z"/>
  </g>
  <g id="Light-L" transform="matrix(1 0 0 1 1087.44 1556)">
   <path d="M 32.5684 -10.5957 L 52.2461 -10.5957 C 53.125 -10.5957 53.8086 -10.3516 54.3945 -9.81445 L 85.1562 17.627 C 87.3047 19.5801 89.2578 20.7031 91.6504 20.7031 C 95.0684 20.7031 97.2656 18.2129 97.2656 14.8926 L 97.2656 -85.2051 C 97.2656 -88.5254 95.0684 -91.2109 91.6016 -91.2109 C 89.209 -91.2109 87.4512 -89.9902 85.1562 -87.9395 L 54.3945 -60.1562 C 53.8086 -59.668 53.125 -59.375 52.2461 -59.375 L 32.5684 -59.375 C 25.3906 -59.375 21.9238 -55.9082 21.9238 -48.4375 L 21.9238 -21.5332 C 21.9238 -14.1113 25.3906 -10.5957 32.5684 -10.5957 Z M 32.7637 -16.8945 C 29.7363 -16.8945 28.5156 -18.1152 28.5156 -21.1426 L 28.5156 -48.8281 C 28.5156 -51.8555 29.7363 -53.0762 32.7637 -53.0762 L 53.5156 -53.0762 C 55.4688 -53.0762 56.6895 -53.3691 58.3008 -54.834 L 88.1348 -82.0801 C 88.5742 -82.4707 89.0137 -82.8125 89.5996 -82.8125 C 90.2344 -82.8125 90.625 -82.4219 90.625 -81.7871 L 90.625 11.1816 C 90.625 11.8652 90.2832 12.3535 89.6484 12.3535 C 89.209 12.3535 88.8184 12.1582 88.1836 11.6211 L 58.3008 -15.2344 C 56.7383 -16.6016 55.4688 -16.8945 53.5156 -16.8945 Z"/>
  </g>
  <g id="Thin-L" transform="matrix(1 0 0 1 794.166 1556)">
   <path d="M 29.0039 -12.1094 L 49.4629 -12.1094 C 50.5371 -12.1094 51.3184 -11.8164 52.002 -11.1816 L 83.6914 16.9922 C 85.1074 18.3105 86.6699 19.2871 88.5742 19.2871 C 91.3086 19.2871 92.7734 17.2363 92.7734 14.6484 L 92.7734 -85.1562 C 92.7734 -87.7441 91.3086 -89.8438 88.5254 -89.8438 C 86.6211 -89.8438 85.1562 -88.8184 83.6914 -87.5 L 52.002 -58.5938 C 51.3184 -58.0078 50.5371 -57.666 49.4629 -57.666 L 29.0039 -57.666 C 23.1934 -57.666 20.4102 -54.9316 20.4102 -49.0234 L 20.4102 -20.752 C 20.4102 -14.8926 23.1934 -12.1094 29.0039 -12.1094 Z M 29.0527 -15.9668 C 25.6348 -15.9668 24.3652 -17.2363 24.3652 -20.6543 L 24.3652 -49.1211 C 24.3652 -52.5391 25.6348 -53.8086 29.0527 -53.8086 L 49.6582 -53.8086 C 51.709 -53.8086 53.0273 -54.0527 54.5898 -55.5664 L 85.9863 -84.2773 C 86.5234 -84.7656 87.0117 -85.2051 87.6953 -85.2051 C 88.3789 -85.2051 88.8672 -84.7656 88.8672 -84.0332 L 88.8672 13.3789 C 88.8672 14.1602 88.4766 14.6973 87.7441 14.6973 C 87.3047 14.6973 86.8164 14.4531 86.0352 13.7695 L 54.5898 -14.3066 C 53.0762 -15.6738 51.709 -15.9668 49.6582 -15.9668 Z"/>
  </g>
  <g id="Ultralight-L" transform="matrix(1 0 0 1 499.189 1556)">
   <path d="M 27.1973 -12.8906 L 48.0469 -12.8906 C 49.2188 -12.8906 50.0488 -12.5488 50.7812 -11.8652 L 82.959 16.6992 C 83.9844 17.6758 85.3516 18.6035 86.9629 18.6035 C 89.4043 18.6035 90.4785 16.748 90.4785 14.5508 L 90.4785 -85.1074 C 90.4785 -87.3535 89.4043 -89.1113 86.9629 -89.1113 C 85.3516 -89.1113 83.9355 -88.2324 82.959 -87.2559 L 50.7812 -57.8125 C 50.0488 -57.1289 49.2188 -56.7871 48.0469 -56.7871 L 27.1973 -56.7871 C 22.0703 -56.7871 19.6777 -54.3945 19.6777 -49.3164 L 19.6777 -20.3613 C 19.6777 -15.2832 22.0703 -12.8906 27.1973 -12.8906 Z M 27.1484 -15.4785 C 23.4863 -15.4785 22.2168 -16.7969 22.2168 -20.459 L 22.2168 -49.2676 C 22.2168 -52.8809 23.4863 -54.1992 27.1484 -54.1992 L 47.7051 -54.1992 C 49.8047 -54.1992 51.123 -54.4434 52.7344 -55.957 L 84.8633 -85.4492 C 85.4492 -85.9375 85.9375 -86.4258 86.7188 -86.4258 C 87.4512 -86.4258 87.9395 -85.9375 87.9395 -85.2051 L 87.9395 14.502 C 87.9395 15.332 87.5488 15.918 86.7676 15.918 C 86.2793 15.918 85.791 15.625 84.9609 14.8926 L 52.7344 -13.8184 C 51.2207 -15.1855 49.8047 -15.4785 47.7051 -15.4785 Z"/>
  </g>
  <g id="Black-M" transform="matrix(1 0 0 1 2871.95 1126)">
   <path d="M 36.6211 -8.78906 L 50.293 -8.78906 C 50.5371 -8.78906 50.7324 -8.78906 50.9766 -8.54492 L 70.2637 8.64258 C 73.9258 11.9141 76.7578 13.4277 80.5664 13.4277 C 86.6211 13.4277 91.2598 8.78906 91.2598 2.73438 L 91.2598 -73.1445 C 91.2598 -79.1504 86.6211 -83.8379 80.5664 -83.8379 C 77.002 -83.8379 74.0234 -82.4707 70.2637 -79.0527 L 50.9766 -61.9141 C 50.6836 -61.6699 50.5371 -61.6211 50.293 -61.6211 L 36.6211 -61.6211 C 26.4648 -61.6211 20.8008 -55.7129 20.8008 -45.166 L 20.8008 -25.1953 C 20.8008 -14.6973 26.4648 -8.78906 36.6211 -8.78906 Z M 40.0391 -25.5371 C 39.3555 -25.5371 38.8184 -26.123 38.8184 -26.7578 L 38.8184 -43.6523 C 38.8184 -44.2871 39.3555 -44.8242 40.0391 -44.8242 L 54.0039 -44.8242 C 55.7129 -44.8242 56.8359 -45.2148 58.0078 -46.3379 L 71.7285 -58.9844 C 71.9238 -59.1797 72.168 -59.2285 72.4121 -59.2285 C 72.8516 -59.2285 73.2422 -58.9355 73.2422 -58.3496 L 73.2422 -11.9629 C 73.2422 -11.4258 72.8516 -11.0352 72.4121 -11.0352 C 72.168 -11.0352 71.9238 -11.1816 71.7285 -11.377 L 58.0078 -24.0723 C 56.8359 -25.1953 55.7129 -25.5371 54.0039 -25.5371 Z"/>
  </g>
  <g id="Heavy-M" transform="matrix(1 0 0 1 2576.9 1126)">
   <path d="M 34.7656 -10.1562 L 48.6328 -10.1562 C 48.9746 -10.1562 49.2188 -10.1074 49.4629 -9.86328 L 69.6289 8.10547 C 72.9492 11.1328 75.5859 12.5 79.0527 12.5 C 84.4727 12.5 88.5742 8.39844 88.5742 2.97852 L 88.5742 -73.3398 C 88.5742 -78.7109 84.4727 -82.9102 79.0527 -82.9102 C 75.7324 -82.9102 73.1445 -81.5918 69.6289 -78.4668 L 49.4629 -60.5469 C 49.1699 -60.3027 48.9746 -60.2051 48.6328 -60.2051 L 34.7656 -60.2051 C 25.3906 -60.2051 20.2637 -54.8828 20.2637 -45.1172 L 20.2637 -25.2441 C 20.2637 -15.4785 25.3906 -10.1562 34.7656 -10.1562 Z M 37.4512 -24.707 C 36.5234 -24.707 35.8887 -25.3418 35.8887 -26.3184 L 35.8887 -44.0918 C 35.8887 -45.0195 36.5234 -45.6543 37.4512 -45.6543 L 51.9531 -45.6543 C 53.5645 -45.6543 54.6875 -45.9961 55.8594 -47.1191 L 71.4355 -61.4258 C 71.6309 -61.6211 71.9238 -61.6699 72.168 -61.6699 C 72.6074 -61.6699 72.9492 -61.377 72.9492 -60.8398 L 72.9492 -9.52148 C 72.9492 -8.98438 72.6074 -8.59375 72.168 -8.59375 C 71.9238 -8.59375 71.6797 -8.74023 71.4355 -8.93555 L 55.8594 -23.2422 C 54.6875 -24.3652 53.5645 -24.707 51.9531 -24.707 Z"/>
  </g>
  <g id="Bold-M" transform="matrix(1 0 0 1 2282.07 1126)">
   <path d="M 32.7148 -11.6699 L 46.8262 -11.6699 C 47.168 -11.6699 47.5098 -11.6211 47.7539 -11.3281 L 68.8965 7.51953 C 71.9238 10.2051 74.2676 11.5234 77.3926 11.5234 C 82.0801 11.5234 85.5957 7.95898 85.5957 3.32031 L 85.5957 -73.584 C 85.5957 -78.2227 82.0801 -81.9336 77.3438 -81.9336 C 74.3652 -81.9336 72.0703 -80.6641 68.8965 -77.7832 L 47.7539 -59.0332 C 47.4609 -58.7402 47.168 -58.6426 46.8262 -58.6426 L 32.7148 -58.6426 C 24.1699 -58.6426 19.6289 -53.9551 19.6289 -45.0195 L 19.6289 -25.293 C 19.6289 -16.3574 24.1699 -11.6699 32.7148 -11.6699 Z M 34.6191 -23.7793 C 33.3008 -23.7793 32.5684 -24.4629 32.5684 -25.7812 L 32.5684 -44.5801 C 32.5684 -45.8496 33.3008 -46.582 34.6191 -46.582 L 49.707 -46.582 C 51.2207 -46.582 52.2461 -46.875 53.4668 -47.998 L 71.1426 -64.1113 C 71.3379 -64.3555 71.6309 -64.4531 71.875 -64.4531 C 72.3145 -64.4531 72.6562 -64.1602 72.6562 -63.6719 L 72.6562 -6.73828 C 72.6562 -6.25 72.3145 -5.9082 71.9238 -5.9082 C 71.6309 -5.9082 71.3867 -6.00586 71.1426 -6.25 L 53.4668 -22.3633 C 52.2461 -23.4375 51.2207 -23.7793 49.707 -23.7793 Z"/>
  </g>
  <g id="Semibold-M" transform="matrix(1 0 0 1 1986.63 1126)">
   <path d="M 31.2988 -12.7441 L 45.5566 -12.7441 C 45.9473 -12.7441 46.2891 -12.6465 46.582 -12.3535 L 68.3594 7.12891 C 71.1914 9.61914 73.3887 10.791 76.2207 10.791 C 80.4199 10.791 83.5449 7.66602 83.5449 3.51562 L 83.5449 -73.7305 C 83.5449 -77.8809 80.4199 -81.2012 76.1719 -81.2012 C 73.3887 -81.2012 71.3867 -79.9805 68.3594 -77.3438 L 46.582 -58.0078 C 46.2891 -57.7148 45.9473 -57.5684 45.5566 -57.5684 L 31.2988 -57.5684 C 23.3398 -57.5684 19.2383 -53.3203 19.2383 -44.9707 L 19.2383 -25.3418 C 19.2383 -16.9922 23.3398 -12.7441 31.2988 -12.7441 Z M 32.6172 -23.0957 C 31.1035 -23.0957 30.3223 -23.877 30.3223 -25.3906 L 30.3223 -44.9219 C 30.3223 -46.4355 31.1035 -47.2168 32.6172 -47.2168 L 48.1445 -47.2168 C 49.6094 -47.2168 50.5859 -47.5098 51.8066 -48.584 L 70.8984 -66.0156 C 71.1426 -66.2109 71.3867 -66.3574 71.6797 -66.3574 C 72.1191 -66.3574 72.4121 -66.0645 72.4121 -65.625 L 72.4121 -4.78516 C 72.4121 -4.3457 72.1191 -4.00391 71.7285 -4.00391 C 71.4355 -4.00391 71.1914 -4.15039 70.9473 -4.39453 L 51.8066 -21.7285 C 50.5859 -22.8027 49.6094 -23.0957 48.1445 -23.0957 Z"/>
  </g>
  <g id="Medium-M" transform="matrix(1 0 0 1 1690.89 1126)">
   <path d="M 30.2246 -13.5742 L 44.5801 -13.5742 C 45.0195 -13.5742 45.4102 -13.4277 45.7031 -13.1348 L 68.0176 6.78711 C 70.6055 9.13086 72.7051 10.2539 75.3418 10.2539 C 79.1504 10.2539 81.9824 7.42188 81.9824 3.66211 L 81.9824 -73.8281 C 81.9824 -77.6367 79.1504 -80.6641 75.2441 -80.6641 C 72.6562 -80.6641 70.8496 -79.4922 68.0176 -77.002 L 45.7031 -57.1777 C 45.4102 -56.8848 45.0195 -56.7383 44.5801 -56.7383 L 30.2246 -56.7383 C 22.7051 -56.7383 18.8965 -52.8809 18.8965 -44.9219 L 18.8965 -25.3906 C 18.8965 -17.4316 22.7051 -13.5742 30.2246 -13.5742 Z M 31.1035 -22.6074 C 29.4434 -22.6074 28.6133 -23.4375 28.6133 -25.1465 L 28.6133 -45.166 C 28.6133 -46.875 29.4434 -47.7051 31.1035 -47.7051 L 46.9727 -47.7051 C 48.3398 -47.7051 49.3164 -47.9492 50.5371 -49.0723 L 70.752 -67.4316 C 70.9961 -67.627 71.2402 -67.8223 71.5332 -67.8223 C 71.9727 -67.8223 72.2656 -67.5293 72.2656 -67.0898 L 72.2656 -3.36914 C 72.2656 -2.88086 71.9727 -2.58789 71.582 -2.58789 C 71.2891 -2.58789 71.0449 -2.73438 70.752 -2.97852 L 50.5371 -21.2891 C 49.3652 -22.3633 48.3398 -22.6074 46.9727 -22.6074 Z"/>
  </g>
  <g id="Regular-M" transform="matrix(1 0 0 1 1395.45 1126)">
   <path d="M 28.8086 -14.5996 L 43.3105 -14.5996 C 43.7988 -14.5996 44.2383 -14.4531 44.5801 -14.1602 L 67.4805 6.39648 C 69.873 8.54492 71.7773 9.57031 74.1699 9.57031 C 77.4902 9.57031 79.9316 7.12891 79.9316 3.85742 L 79.9316 -74.0234 C 79.9316 -77.2949 77.4902 -79.9805 74.0723 -79.9805 C 71.6797 -79.9805 70.1172 -78.8574 67.4805 -76.5137 L 44.5801 -56.1523 C 44.2383 -55.8594 43.7988 -55.7129 43.3105 -55.7129 L 28.8086 -55.7129 C 21.9238 -55.7129 18.5059 -52.2461 18.5059 -44.873 L 18.5059 -25.4395 C 18.5059 -18.0664 21.9238 -14.5996 28.8086 -14.5996 Z M 29.1504 -21.9727 C 27.2461 -21.9727 26.3672 -22.8516 26.3672 -24.8047 L 26.3672 -45.5078 C 26.3672 -47.4121 27.2461 -48.3398 29.1504 -48.3398 L 45.4102 -48.3398 C 46.7285 -48.3398 47.7051 -48.5352 48.877 -49.6582 L 70.5078 -69.2871 C 70.752 -69.4824 71.0449 -69.6777 71.3867 -69.6777 C 71.7773 -69.6777 72.0703 -69.3848 72.0703 -68.9941 L 72.0703 -1.46484 C 72.0703 -1.02539 71.7773 -0.732422 71.3867 -0.732422 C 71.0938 -0.732422 70.8496 -0.878906 70.5566 -1.17188 L 48.877 -20.6543 C 47.7051 -21.7285 46.7285 -21.9727 45.4102 -21.9727 Z"/>
  </g>
  <g id="Light-M" transform="matrix(1 0 0 1 1101.06 1126)">
   <path d="M 26.416 -15.625 L 41.4551 -15.625 C 42.041 -15.625 42.5293 -15.4297 42.9688 -15.0879 L 66.5039 5.95703 C 68.4082 7.66602 70.0195 8.59375 72.0703 8.59375 C 74.9512 8.59375 76.9043 6.49414 76.9043 3.71094 L 76.9043 -73.9746 C 76.9043 -76.7578 74.9512 -79.0527 72.0215 -79.0527 C 69.9707 -79.0527 68.5547 -78.0762 66.5039 -76.2207 L 42.9688 -55.0781 C 42.5293 -54.7363 42.041 -54.541 41.4551 -54.541 L 26.416 -54.541 C 20.4102 -54.541 17.4805 -51.5625 17.4805 -45.2637 L 17.4805 -24.9023 C 17.4805 -18.6035 20.4102 -15.625 26.416 -15.625 Z M 26.6602 -21.3379 C 24.4629 -21.3379 23.5352 -22.2656 23.5352 -24.4629 L 23.5352 -45.7031 C 23.5352 -47.9004 24.4629 -48.8281 26.6602 -48.8281 L 42.8223 -48.8281 C 44.2383 -48.8281 45.166 -49.0234 46.3867 -50.1465 L 69.043 -70.8008 C 69.3848 -71.0449 69.6777 -71.2891 70.0684 -71.2891 C 70.5566 -71.2891 70.8496 -70.9961 70.8496 -70.5078 L 70.8496 0 C 70.8496 0.488281 70.5566 0.830078 70.1172 0.830078 C 69.7754 0.830078 69.4824 0.683594 69.0918 0.341797 L 46.3867 -20.0195 C 45.2148 -21.0938 44.2383 -21.3379 42.8223 -21.3379 Z"/>
  </g>
  <g id="Thin-M" transform="matrix(1 0 0 1 807.423 1126)">
   <path d="M 23.2422 -16.9922 L 38.9648 -16.9922 C 39.7461 -16.9922 40.332 -16.748 40.8203 -16.3086 L 65.1855 5.37109 C 66.4551 6.54297 67.7246 7.32422 69.2871 7.32422 C 71.582 7.32422 72.8516 5.66406 72.8516 3.4668 L 72.8516 -73.9258 C 72.8516 -76.0742 71.582 -77.832 69.2871 -77.832 C 67.6758 -77.832 66.5039 -77.002 65.1855 -75.8301 L 40.8203 -53.6621 C 40.332 -53.2227 39.7461 -52.9785 38.9648 -52.9785 L 23.2422 -52.9785 C 18.457 -52.9785 16.1621 -50.6836 16.1621 -45.8008 L 16.1621 -24.1699 C 16.1621 -19.2871 18.457 -16.9922 23.2422 -16.9922 Z M 23.3398 -20.5078 C 20.752 -20.5078 19.7754 -21.4844 19.7754 -24.0723 L 19.7754 -45.9473 C 19.7754 -48.4863 20.752 -49.4629 23.3398 -49.4629 L 39.3555 -49.4629 C 40.918 -49.4629 41.8945 -49.6582 43.1152 -50.8301 L 67.0898 -72.7539 C 67.4805 -73.0957 67.8711 -73.4375 68.3594 -73.4375 C 68.8965 -73.4375 69.2383 -73.0957 69.2383 -72.5586 L 69.2383 1.95312 C 69.2383 2.53906 68.9453 2.92969 68.4082 2.92969 C 68.0664 2.92969 67.7246 2.7832 67.1387 2.29492 L 43.1152 -19.1895 C 41.9434 -20.2637 40.918 -20.5078 39.3555 -20.5078 Z"/>
  </g>
  <g id="Ultralight-M" transform="matrix(1 0 0 1 512.275 1126)">
   <path d="M 21.6309 -17.6758 L 37.6465 -17.6758 C 38.5254 -17.6758 39.1602 -17.4316 39.7461 -16.9434 L 64.502 5.07812 C 65.4297 5.95703 66.5039 6.68945 67.8711 6.68945 C 69.873 6.68945 70.8008 5.22461 70.8008 3.36914 L 70.8008 -73.877 C 70.8008 -75.7324 69.873 -77.1973 67.8711 -77.1973 C 66.5527 -77.1973 65.4297 -76.4648 64.502 -75.6348 L 39.7461 -52.9785 C 39.1602 -52.4414 38.5254 -52.1973 37.6465 -52.1973 L 21.6309 -52.1973 C 17.4316 -52.1973 15.4785 -50.2441 15.4785 -46.0449 L 15.4785 -23.8281 C 15.4785 -19.6289 17.4316 -17.6758 21.6309 -17.6758 Z M 21.6309 -20.0684 C 18.8477 -20.0684 17.8711 -21.0938 17.8711 -23.8281 L 17.8711 -46.0449 C 17.8711 -48.8281 18.8477 -49.8047 21.6309 -49.8047 L 37.5488 -49.8047 C 39.209 -49.8047 40.1855 -50 41.4551 -51.1719 L 66.1133 -73.7793 C 66.5527 -74.1699 66.9434 -74.5605 67.4805 -74.5605 C 68.0664 -74.5605 68.4082 -74.1699 68.4082 -73.6328 L 68.4082 2.97852 C 68.4082 3.61328 68.1152 4.05273 67.5293 4.05273 C 67.1875 4.05273 66.7969 3.85742 66.1621 3.27148 L 41.4551 -18.75 C 40.2344 -19.8242 39.209 -20.0684 37.5488 -20.0684 Z"/>
  </g>
  <g id="Black-S" transform="matrix(1 0 0 1 2885.35 696)">
   <path d="M 28.5645 -14.5996 L 39.3066 -14.5996 C 39.502 -14.5996 39.6484 -14.5996 39.8438 -14.4043 L 55.0293 -0.878906 C 57.8613 1.66016 60.0586 2.83203 63.0371 2.83203 C 67.7246 2.83203 71.3379 -0.78125 71.3379 -5.46875 L 71.3379 -64.9414 C 71.3379 -69.6289 67.7246 -73.2422 63.0371 -73.2422 C 60.2539 -73.2422 57.959 -72.168 55.0293 -69.5312 L 39.8438 -56.0547 C 39.5996 -55.8594 39.502 -55.8105 39.3066 -55.8105 L 28.5645 -55.8105 C 20.6543 -55.8105 16.2598 -51.2207 16.2598 -43.0176 L 16.2598 -27.3926 C 16.2598 -19.1895 20.6543 -14.5996 28.5645 -14.5996 Z M 31.2012 -27.5879 C 30.6641 -27.5879 30.2246 -28.0273 30.2246 -28.5645 L 30.2246 -41.8457 C 30.2246 -42.3828 30.6641 -42.8223 31.2012 -42.8223 L 42.1875 -42.8223 C 43.5059 -42.8223 44.3848 -43.1152 45.3125 -43.9941 L 56.2012 -54.0039 C 56.3477 -54.1504 56.543 -54.1992 56.7383 -54.1992 C 57.0801 -54.1992 57.373 -53.9551 57.373 -53.5156 L 57.373 -16.8457 C 57.373 -16.4062 57.0801 -16.1133 56.7383 -16.1133 C 56.543 -16.1133 56.3477 -16.2109 56.2012 -16.3574 L 45.3125 -26.416 C 44.3848 -27.2949 43.5059 -27.5879 42.1875 -27.5879 Z"/>
  </g>
  <g id="Heavy-S" transform="matrix(1 0 0 1 2589.67 696)">
   <path d="M 27.4414 -15.5273 L 38.2812 -15.5273 C 38.4766 -15.5273 38.6719 -15.5273 38.8672 -15.332 L 54.6387 -1.2207 C 57.2754 1.12305 59.375 2.24609 62.1094 2.24609 C 66.3574 2.24609 69.6289 -0.976562 69.6289 -5.22461 L 69.6289 -65.0879 C 69.6289 -69.3359 66.3574 -72.6562 62.1094 -72.6562 C 59.4727 -72.6562 57.4219 -71.6309 54.6387 -69.0918 L 38.8672 -55.127 C 38.623 -54.9316 38.4766 -54.8828 38.2812 -54.8828 L 27.4414 -54.8828 C 20.0195 -54.8828 15.9668 -50.6836 15.9668 -42.9199 L 15.9668 -27.4902 C 15.9668 -19.7266 20.0195 -15.5273 27.4414 -15.5273 Z M 29.541 -27.002 C 28.8086 -27.002 28.2715 -27.4902 28.2715 -28.2227 L 28.2715 -42.1875 C 28.2715 -42.8711 28.8086 -43.4082 29.541 -43.4082 L 40.918 -43.4082 C 42.1875 -43.4082 43.0176 -43.6523 43.9453 -44.5312 L 56.1523 -55.7129 C 56.2988 -55.8594 56.4941 -55.9082 56.6895 -55.9082 C 57.0312 -55.9082 57.2754 -55.6641 57.2754 -55.2734 L 57.2754 -15.0879 C 57.2754 -14.6973 57.0312 -14.4531 56.6895 -14.4531 C 56.4941 -14.4531 56.2988 -14.5508 56.1523 -14.6973 L 43.9453 -25.8789 C 43.0176 -26.7578 42.1875 -27.002 40.918 -27.002 Z"/>
  </g>
  <g id="Bold-S" transform="matrix(1 0 0 1 2294.08 696)">
   <path d="M 26.1719 -16.6016 L 37.1094 -16.6016 C 37.3535 -16.6016 37.5488 -16.5527 37.7441 -16.3086 L 54.1992 -1.66016 C 56.6895 0.585938 58.5938 1.5625 61.084 1.5625 C 64.8438 1.5625 67.7246 -1.26953 67.7246 -4.98047 L 67.7246 -65.2832 C 67.7246 -69.043 64.8438 -72.0215 61.0352 -72.0215 C 58.6426 -72.0215 56.8359 -70.9961 54.1992 -68.6523 L 37.7441 -54.1016 C 37.5488 -53.9062 37.3535 -53.8086 37.1094 -53.8086 L 26.1719 -53.8086 C 19.2871 -53.8086 15.625 -50.0488 15.625 -42.8223 L 15.625 -27.5879 C 15.625 -20.3613 19.2871 -16.6016 26.1719 -16.6016 Z M 27.6367 -26.3672 C 26.709 -26.3672 26.123 -26.9531 26.123 -27.8809 L 26.123 -42.5293 C 26.123 -43.457 26.709 -44.043 27.6367 -44.043 L 39.502 -44.043 C 40.6738 -44.043 41.5039 -44.2871 42.4316 -45.1172 L 56.1035 -57.5684 C 56.25 -57.7148 56.4453 -57.8125 56.6406 -57.8125 C 56.9824 -57.8125 57.2266 -57.6172 57.2266 -57.2266 L 57.2266 -13.1836 C 57.2266 -12.793 56.9824 -12.5488 56.6406 -12.5488 C 56.4453 -12.5488 56.25 -12.6465 56.1035 -12.793 L 42.4316 -25.293 C 41.5039 -26.123 40.6738 -26.3672 39.502 -26.3672 Z"/>
  </g>
  <g id="Semibold-S" transform="matrix(1 0 0 1 1998.17 696)">
   <path d="M 25.293 -17.2852 L 36.2793 -17.2852 C 36.5723 -17.2852 36.8164 -17.2363 37.0117 -17.041 L 53.9062 -1.9043 C 56.25 0.146484 58.0566 1.12305 60.4004 1.12305 C 63.7695 1.12305 66.4062 -1.41602 66.4062 -4.83398 L 66.4062 -65.3809 C 66.4062 -68.7988 63.7695 -71.5332 60.3027 -71.5332 C 58.0566 -71.5332 56.4453 -70.5566 53.9062 -68.3105 L 37.0117 -53.3691 C 36.7676 -53.1738 36.5723 -53.0762 36.2793 -53.0762 L 25.293 -53.0762 C 18.75 -53.0762 15.3809 -49.6094 15.3809 -42.7246 L 15.3809 -27.6855 C 15.3809 -20.8008 18.75 -17.2852 25.293 -17.2852 Z M 26.3184 -25.9277 C 25.2441 -25.9277 24.6094 -26.5137 24.6094 -27.6367 L 24.6094 -42.7734 C 24.6094 -43.8477 25.2441 -44.4824 26.3184 -44.4824 L 38.5254 -44.4824 C 39.6484 -44.4824 40.4297 -44.6777 41.3574 -45.5566 L 56.0547 -58.8867 C 56.2012 -59.0332 56.3965 -59.1309 56.5918 -59.1309 C 56.9336 -59.1309 57.1289 -58.9355 57.1289 -58.5938 L 57.1289 -11.8164 C 57.1289 -11.4746 56.9336 -11.2305 56.5918 -11.2305 C 56.3965 -11.2305 56.2012 -11.3281 56.0547 -11.5234 L 41.3574 -24.8535 C 40.4297 -25.6836 39.6484 -25.9277 38.5254 -25.9277 Z"/>
  </g>
  <g id="Medium-S" transform="matrix(1 0 0 1 1702.05 696)">
   <path d="M 24.6094 -17.8711 L 35.6445 -17.8711 C 35.9375 -17.8711 36.2305 -17.7734 36.4258 -17.5781 L 53.6621 -2.14844 C 55.9082 -0.146484 57.6172 0.78125 59.8633 0.78125 C 62.9883 0.78125 65.3809 -1.5625 65.3809 -4.6875 L 65.3809 -65.4785 C 65.3809 -68.6523 62.9883 -71.1914 59.7656 -71.1914 C 57.5684 -71.1914 56.1035 -70.2148 53.6621 -68.0664 L 36.4258 -52.832 C 36.2305 -52.6367 35.9375 -52.5391 35.6445 -52.5391 L 24.6094 -52.5391 C 18.3594 -52.5391 15.2344 -49.3164 15.2344 -42.6758 L 15.2344 -27.7344 C 15.2344 -21.0938 18.3594 -17.8711 24.6094 -17.8711 Z M 25.3418 -25.5859 C 24.1211 -25.5859 23.4863 -26.2207 23.4863 -27.4414 L 23.4863 -42.9688 C 23.4863 -44.1406 24.1211 -44.8242 25.3418 -44.8242 L 37.793 -44.8242 C 38.8672 -44.8242 39.5996 -45.0195 40.5762 -45.8496 L 56.0059 -59.8633 C 56.1523 -60.0098 56.3477 -60.1074 56.5918 -60.1074 C 56.8848 -60.1074 57.0801 -59.9121 57.0801 -59.6191 L 57.0801 -10.791 C 57.0801 -10.498 56.8848 -10.2539 56.5918 -10.2539 C 56.3965 -10.2539 56.2012 -10.3516 56.0059 -10.5469 L 40.5762 -24.5117 C 39.6484 -25.3906 38.8672 -25.5859 37.793 -25.5859 Z"/>
  </g>
  <g id="Regular-S" transform="matrix(1 0 0 1 1406.12 696)">
   <path d="M 23.7305 -18.5547 L 34.8633 -18.5547 C 35.1562 -18.5547 35.498 -18.457 35.6934 -18.2617 L 53.3691 -2.39258 C 55.4688 -0.537109 57.0801 0.341797 59.1309 0.341797 C 61.9629 0.341797 64.0625 -1.70898 64.0625 -4.54102 L 64.0625 -65.625 C 64.0625 -68.4082 61.9629 -70.752 59.0332 -70.752 C 57.0312 -70.752 55.7129 -69.7754 53.3691 -67.7246 L 35.6934 -52.1484 C 35.498 -51.9043 35.1562 -51.8066 34.8633 -51.8066 L 23.7305 -51.8066 C 17.8711 -51.8066 14.9902 -48.877 14.9902 -42.5781 L 14.9902 -27.7832 C 14.9902 -21.5332 17.8711 -18.5547 23.7305 -18.5547 Z M 24.0723 -25.1465 C 22.7051 -25.1465 22.0215 -25.8301 22.0215 -27.1973 L 22.0215 -43.2129 C 22.0215 -44.5312 22.7051 -45.2637 24.0723 -45.2637 L 36.8652 -45.2637 C 37.8418 -45.2637 38.5742 -45.459 39.502 -46.2891 L 55.957 -61.1816 C 56.1523 -61.3281 56.3477 -61.4258 56.543 -61.4258 C 56.8359 -61.4258 57.0312 -61.2305 57.0312 -60.9375 L 57.0312 -9.47266 C 57.0312 -9.17969 56.8359 -8.98438 56.543 -8.98438 C 56.3477 -8.98438 56.1523 -9.08203 55.957 -9.22852 L 39.502 -24.1211 C 38.5742 -24.9512 37.8418 -25.1465 36.8652 -25.1465 Z"/>
  </g>
  <g id="Light-S" transform="matrix(1 0 0 1 1111.46 696)">
   <path d="M 21.6309 -19.4824 L 33.2031 -19.4824 C 33.6426 -19.4824 33.9844 -19.3359 34.2773 -19.0918 L 52.4902 -2.7832 C 54.1504 -1.26953 55.5664 -0.488281 57.2754 -0.488281 C 59.7168 -0.488281 61.377 -2.29492 61.377 -4.6875 L 61.377 -65.5762 C 61.377 -67.9688 59.7168 -69.9219 57.2266 -69.9219 C 55.4688 -69.9219 54.2969 -69.0918 52.4902 -67.4805 L 34.2773 -51.1719 C 33.9844 -50.9277 33.6426 -50.7812 33.2031 -50.7812 L 21.6309 -50.7812 C 16.5527 -50.7812 14.0625 -48.291 14.0625 -42.9199 L 14.0625 -27.3438 C 14.0625 -21.9727 16.5527 -19.4824 21.6309 -19.4824 Z M 21.8262 -24.6094 C 20.2148 -24.6094 19.5312 -25.293 19.5312 -26.9043 L 19.5312 -43.3594 C 19.5312 -44.9707 20.2148 -45.7031 21.8262 -45.7031 L 34.5215 -45.7031 C 35.5957 -45.7031 36.377 -45.8496 37.3047 -46.7285 L 54.6875 -62.5 C 54.8828 -62.6953 55.127 -62.8906 55.3711 -62.8906 C 55.7617 -62.8906 55.957 -62.6465 55.957 -62.3047 L 55.957 -8.20312 C 55.957 -7.8125 55.7617 -7.56836 55.4199 -7.56836 C 55.1758 -7.56836 54.9316 -7.66602 54.6875 -7.95898 L 37.3047 -23.584 C 36.377 -24.4141 35.5957 -24.6094 34.5215 -24.6094 Z"/>
  </g>
  <g id="Thin-S" transform="matrix(1 0 0 1 817.457 696)">
   <path d="M 18.7988 -20.6543 L 31.0059 -20.6543 C 31.5918 -20.6543 32.0312 -20.5078 32.373 -20.166 L 51.3184 -3.27148 C 52.4414 -2.29492 53.5156 -1.61133 54.834 -1.61133 C 56.7383 -1.61133 57.8613 -3.02734 57.8613 -4.83398 L 57.8613 -65.5762 C 57.8613 -67.3828 56.7383 -68.8477 54.7852 -68.8477 C 53.4668 -68.8477 52.4902 -68.1641 51.3184 -67.1387 L 32.373 -49.9512 C 32.0312 -49.6094 31.5918 -49.4629 31.0059 -49.4629 L 18.7988 -49.4629 C 14.8438 -49.4629 12.8906 -47.5098 12.8906 -43.4082 L 12.8906 -26.709 C 12.8906 -22.6074 14.8438 -20.6543 18.7988 -20.6543 Z M 18.8965 -23.877 C 16.9434 -23.877 16.2109 -24.6094 16.2109 -26.5625 L 16.2109 -43.5547 C 16.2109 -45.5078 16.9434 -46.2402 18.8965 -46.2402 L 31.4941 -46.2402 C 32.666 -46.2402 33.4473 -46.4355 34.4238 -47.3145 L 52.9297 -64.2578 C 53.2227 -64.502 53.5156 -64.7461 53.9062 -64.7461 C 54.2969 -64.7461 54.541 -64.502 54.541 -64.1113 L 54.541 -6.44531 C 54.541 -6.00586 54.3457 -5.71289 53.9062 -5.71289 C 53.6621 -5.71289 53.3691 -5.85938 52.9785 -6.20117 L 34.4238 -22.8516 C 33.4961 -23.6816 32.666 -23.877 31.4941 -23.877 Z"/>
  </g>
  <g id="Ultralight-S" transform="matrix(1 0 0 1 522.138 696)">
   <path d="M 17.3828 -21.2891 L 29.834 -21.2891 C 30.5176 -21.2891 31.0059 -21.0938 31.4453 -20.7031 L 50.7324 -3.56445 C 51.5137 -2.83203 52.4414 -2.19727 53.5645 -2.19727 C 55.1758 -2.19727 56.0547 -3.41797 56.0547 -4.98047 L 56.0547 -65.5273 C 56.0547 -67.041 55.1758 -68.3105 53.5645 -68.3105 C 52.4414 -68.3105 51.5137 -67.6758 50.7324 -66.9434 L 31.4453 -49.3164 C 31.0059 -48.9258 30.5176 -48.7305 29.834 -48.7305 L 17.3828 -48.7305 C 13.916 -48.7305 12.3047 -47.1191 12.3047 -43.6523 L 12.3047 -26.3672 C 12.3047 -22.9492 13.916 -21.2891 17.3828 -21.2891 Z M 17.3828 -23.4863 C 15.2832 -23.4863 14.502 -24.2676 14.502 -26.3672 L 14.502 -43.6523 C 14.502 -45.8008 15.2832 -46.582 17.3828 -46.582 L 29.8828 -46.582 C 31.1523 -46.582 31.9336 -46.7285 32.9102 -47.6562 L 52.0508 -65.1855 C 52.3926 -65.4785 52.6855 -65.7227 53.125 -65.7227 C 53.5645 -65.7227 53.8086 -65.4785 53.8086 -65.0391 L 53.8086 -5.56641 C 53.8086 -5.07812 53.5645 -4.73633 53.1738 -4.73633 C 52.8809 -4.73633 52.5879 -4.88281 52.0996 -5.32227 L 32.9102 -22.4609 C 31.9824 -23.291 31.1523 -23.4863 29.8828 -23.4863 Z"/>
  </g>
 </g>
</svg>
