<?xml version="1.0" encoding="UTF-8"?>
<!--Generator: Apple Native CoreSVG 123-->
<!DOCTYPE svg
PUBLIC "-//W3C//DTD SVG 1.1//EN"
       "http://www.w3.org/Graphics/SVG/1.1/DTD/svg11.dtd">
<svg version="1.1" xmlns="http://www.w3.org/2000/svg" xmlns:xlink="http://www.w3.org/1999/xlink" width="3300" height="2200">
 <!--glyph: "uni1002A3.medium", point size: 100.000000, font version: "Version 15.0d7e11", template writer version: "5"-->
 <g id="Notes">
  <rect height="2200" id="artboard" style="fill:white;opacity:1" width="3300" x="0" y="0"/>
  <line id="" style="fill:none;stroke:black;opacity:1;stroke-width:0.5;" x1="263" x2="3036" y1="292" y2="292"/>
  <text style="stroke:none;fill:black;font-family:-apple-system,&quot;SF Pro Display&quot;,&quot;SF Pro Text&quot;,Helvetica,sans-serif;font-weight:bold;" transform="matrix(1 0 0 1 263 322)">Weight/Scale Variations</text>
  <text style="stroke:none;fill:black;font-family:-apple-system,&quot;SF Pro Display&quot;,&quot;SF Pro Text&quot;,Helvetica,sans-serif;text-anchor:middle;" transform="matrix(1 0 0 1 559.711 322)">Ultralight</text>
  <text style="stroke:none;fill:black;font-family:-apple-system,&quot;SF Pro Display&quot;,&quot;SF Pro Text&quot;,Helvetica,sans-serif;text-anchor:middle;" transform="matrix(1 0 0 1 856.422 322)">Thin</text>
  <text style="stroke:none;fill:black;font-family:-apple-system,&quot;SF Pro Display&quot;,&quot;SF Pro Text&quot;,Helvetica,sans-serif;text-anchor:middle;" transform="matrix(1 0 0 1 1153.13 322)">Light</text>
  <text style="stroke:none;fill:black;font-family:-apple-system,&quot;SF Pro Display&quot;,&quot;SF Pro Text&quot;,Helvetica,sans-serif;text-anchor:middle;" transform="matrix(1 0 0 1 1449.84 322)">Regular</text>
  <text style="stroke:none;fill:black;font-family:-apple-system,&quot;SF Pro Display&quot;,&quot;SF Pro Text&quot;,Helvetica,sans-serif;text-anchor:middle;" transform="matrix(1 0 0 1 1746.56 322)">Medium</text>
  <text style="stroke:none;fill:black;font-family:-apple-system,&quot;SF Pro Display&quot;,&quot;SF Pro Text&quot;,Helvetica,sans-serif;text-anchor:middle;" transform="matrix(1 0 0 1 2043.27 322)">Semibold</text>
  <text style="stroke:none;fill:black;font-family:-apple-system,&quot;SF Pro Display&quot;,&quot;SF Pro Text&quot;,Helvetica,sans-serif;text-anchor:middle;" transform="matrix(1 0 0 1 2339.98 322)">Bold</text>
  <text style="stroke:none;fill:black;font-family:-apple-system,&quot;SF Pro Display&quot;,&quot;SF Pro Text&quot;,Helvetica,sans-serif;text-anchor:middle;" transform="matrix(1 0 0 1 2636.69 322)">Heavy</text>
  <text style="stroke:none;fill:black;font-family:-apple-system,&quot;SF Pro Display&quot;,&quot;SF Pro Text&quot;,Helvetica,sans-serif;text-anchor:middle;" transform="matrix(1 0 0 1 2933.4 322)">Black</text>
  <line id="" style="fill:none;stroke:black;opacity:1;stroke-width:0.5;" x1="263" x2="3036" y1="1903" y2="1903"/>
  <g id="" transform="matrix(1 0 0 1 263 1933)">
   <path d="M 9.24805 0.830078 C 13.5547 0.830078 17.1387 -2.74414 17.1387 -7.05078 C 17.1387 -11.3574 13.5449 -14.9316 9.23828 -14.9316 C 4.94141 -14.9316 1.36719 -11.3574 1.36719 -7.05078 C 1.36719 -2.74414 4.95117 0.830078 9.24805 0.830078 Z M 9.24805 -0.654297 C 5.70312 -0.654297 2.87109 -3.49609 2.87109 -7.05078 C 2.87109 -10.6055 5.69336 -13.4473 9.23828 -13.4473 C 12.793 -13.4473 15.6348 -10.6055 15.6445 -7.05078 C 15.6543 -3.49609 12.8027 -0.654297 9.24805 -0.654297 Z M 9.22852 -3.42773 C 9.69727 -3.42773 9.9707 -3.74023 9.9707 -4.25781 L 9.9707 -6.31836 L 12.1973 -6.31836 C 12.6953 -6.31836 13.0371 -6.57227 13.0371 -7.04102 C 13.0371 -7.51953 12.7148 -7.7832 12.1973 -7.7832 L 9.9707 -7.7832 L 9.9707 -10.0098 C 9.9707 -10.5273 9.69727 -10.8496 9.22852 -10.8496 C 8.75977 -10.8496 8.50586 -10.5078 8.50586 -10.0098 L 8.50586 -7.7832 L 6.29883 -7.7832 C 5.78125 -7.7832 5.44922 -7.51953 5.44922 -7.04102 C 5.44922 -6.57227 5.80078 -6.31836 6.29883 -6.31836 L 8.50586 -6.31836 L 8.50586 -4.25781 C 8.50586 -3.75977 8.75977 -3.42773 9.22852 -3.42773 Z"/>
  </g>
  <g id="" transform="matrix(1 0 0 1 281.506 1933)">
   <path d="M 11.709 2.91016 C 17.1582 2.91016 21.6699 -1.60156 21.6699 -7.05078 C 21.6699 -12.4902 17.1484 -17.0117 11.6992 -17.0117 C 6.25977 -17.0117 1.74805 -12.4902 1.74805 -7.05078 C 1.74805 -1.60156 6.26953 2.91016 11.709 2.91016 Z M 11.709 1.25 C 7.09961 1.25 3.41797 -2.44141 3.41797 -7.05078 C 3.41797 -11.6504 7.08984 -15.3516 11.6992 -15.3516 C 16.3086 -15.3516 20 -11.6504 20.0098 -7.05078 C 20.0195 -2.44141 16.3184 1.25 11.709 1.25 Z M 11.6895 -2.41211 C 12.207 -2.41211 12.5195 -2.77344 12.5195 -3.33984 L 12.5195 -6.23047 L 15.5762 -6.23047 C 16.123 -6.23047 16.5039 -6.51367 16.5039 -7.03125 C 16.5039 -7.55859 16.1426 -7.86133 15.5762 -7.86133 L 12.5195 -7.86133 L 12.5195 -10.9277 C 12.5195 -11.5039 12.207 -11.8555 11.6895 -11.8555 C 11.1719 -11.8555 10.8789 -11.4844 10.8789 -10.9277 L 10.8789 -7.86133 L 7.83203 -7.86133 C 7.26562 -7.86133 6.89453 -7.55859 6.89453 -7.03125 C 6.89453 -6.51367 7.28516 -6.23047 7.83203 -6.23047 L 10.8789 -6.23047 L 10.8789 -3.33984 C 10.8789 -2.79297 11.1719 -2.41211 11.6895 -2.41211 Z"/>
  </g>
  <g id="" transform="matrix(1 0 0 1 304.924 1933)">
   <path d="M 14.9707 5.67383 C 21.9336 5.67383 27.6953 -0.078125 27.6953 -7.04102 C 27.6953 -14.0039 21.9238 -19.7559 14.9609 -19.7559 C 8.00781 -19.7559 2.25586 -14.0039 2.25586 -7.04102 C 2.25586 -0.078125 8.01758 5.67383 14.9707 5.67383 Z M 14.9707 3.85742 C 8.93555 3.85742 4.08203 -1.00586 4.08203 -7.04102 C 4.08203 -13.0762 8.92578 -17.9395 14.9609 -17.9395 C 21.0059 -17.9395 25.8594 -13.0762 25.8691 -7.04102 C 25.8789 -1.00586 21.0156 3.85742 14.9707 3.85742 Z M 14.9512 -1.06445 C 15.5176 -1.06445 15.8691 -1.45508 15.8691 -2.06055 L 15.8691 -6.13281 L 20.1074 -6.13281 C 20.6934 -6.13281 21.1133 -6.46484 21.1133 -7.02148 C 21.1133 -7.59766 20.7227 -7.93945 20.1074 -7.93945 L 15.8691 -7.93945 L 15.8691 -12.1875 C 15.8691 -12.8027 15.5176 -13.1934 14.9512 -13.1934 C 14.3848 -13.1934 14.0625 -12.7832 14.0625 -12.1875 L 14.0625 -7.93945 L 9.83398 -7.93945 C 9.21875 -7.93945 8.80859 -7.59766 8.80859 -7.02148 C 8.80859 -6.46484 9.23828 -6.13281 9.83398 -6.13281 L 14.0625 -6.13281 L 14.0625 -2.06055 C 14.0625 -1.47461 14.3848 -1.06445 14.9512 -1.06445 Z"/>
  </g>
  <text style="stroke:none;fill:black;font-family:-apple-system,&quot;SF Pro Display&quot;,&quot;SF Pro Text&quot;,Helvetica,sans-serif;font-weight:bold;" transform="matrix(1 0 0 1 263 1953)">Design Variations</text>
  <text style="stroke:none;fill:black;font-family:-apple-system,&quot;SF Pro Display&quot;,&quot;SF Pro Text&quot;,Helvetica,sans-serif;" transform="matrix(1 0 0 1 263 1971)">Symbols are supported in up to nine weights and three scales.</text>
  <text style="stroke:none;fill:black;font-family:-apple-system,&quot;SF Pro Display&quot;,&quot;SF Pro Text&quot;,Helvetica,sans-serif;" transform="matrix(1 0 0 1 263 1989)">For optimal layout with text and other symbols, vertically align</text>
  <text style="stroke:none;fill:black;font-family:-apple-system,&quot;SF Pro Display&quot;,&quot;SF Pro Text&quot;,Helvetica,sans-serif;" transform="matrix(1 0 0 1 263 2007)">symbols with the adjacent text.</text>
  <rect height="14" id="" style="fill:#00AEEF;stroke:none;opacity:0.4;" width="3" x="776" y="1919"/>
  <g id="" transform="matrix(1 0 0 1 779 1933)">
   <path d="M 10.5273 0 L 12.373 0 L 7.17773 -14.0918 L 5.43945 -14.0918 L 0.244141 0 L 2.08984 0 L 3.50586 -4.0332 L 9.11133 -4.0332 Z M 6.2793 -11.9531 L 6.33789 -11.9531 L 8.59375 -5.52734 L 4.02344 -5.52734 Z"/>
  </g>
  <rect height="14" id="" style="fill:#00AEEF;stroke:none;opacity:0.4;" width="3" x="791.617" y="1919"/>
  <text style="stroke:none;fill:black;font-family:-apple-system,&quot;SF Pro Display&quot;,&quot;SF Pro Text&quot;,Helvetica,sans-serif;font-weight:bold;" transform="matrix(1 0 0 1 776 1953)">Margins</text>
  <text style="stroke:none;fill:black;font-family:-apple-system,&quot;SF Pro Display&quot;,&quot;SF Pro Text&quot;,Helvetica,sans-serif;" transform="matrix(1 0 0 1 776 1971)">Leading and trailing margins on the left and right side of each symbol</text>
  <text style="stroke:none;fill:black;font-family:-apple-system,&quot;SF Pro Display&quot;,&quot;SF Pro Text&quot;,Helvetica,sans-serif;" transform="matrix(1 0 0 1 776 1989)">can be adjusted by modifying the width of the blue rectangles.</text>
  <text style="stroke:none;fill:black;font-family:-apple-system,&quot;SF Pro Display&quot;,&quot;SF Pro Text&quot;,Helvetica,sans-serif;" transform="matrix(1 0 0 1 776 2007)">Modifications are automatically applied proportionally to all</text>
  <text style="stroke:none;fill:black;font-family:-apple-system,&quot;SF Pro Display&quot;,&quot;SF Pro Text&quot;,Helvetica,sans-serif;" transform="matrix(1 0 0 1 776 2025)">scales and weights.</text>
  <g id="" transform="matrix(1 0 0 1 1289 1933)">
   <path d="M 2.83203 3.11523 L 4.375 4.6582 C 5.22461 5.48828 6.19141 5.41992 7.06055 4.46289 L 17.2754 -6.66016 C 17.7051 -6.36719 18.0957 -6.37695 18.5645 -6.47461 L 19.6094 -6.68945 L 20.3027 -5.99609 L 20.2539 -5.47852 C 20.1855 -4.95117 20.3516 -4.53125 20.8496 -4.0332 L 21.6602 -3.22266 C 22.168 -2.71484 22.8223 -2.68555 23.3008 -3.16406 L 26.5527 -6.41602 C 27.0312 -6.89453 27.0117 -7.54883 26.5039 -8.05664 L 25.6836 -8.87695 C 25.1855 -9.375 24.7754 -9.55078 24.2383 -9.47266 L 23.7109 -9.41406 L 23.0566 -10.0781 L 23.3398 -11.2207 C 23.4863 -11.7871 23.3398 -12.2559 22.7148 -12.8613 L 20.3027 -15.2539 C 16.7578 -18.7793 12.2266 -18.6719 9.11133 -15.5371 C 8.69141 -15.1074 8.64258 -14.5215 8.91602 -14.0918 C 9.15039 -13.7207 9.62891 -13.4961 10.2734 -13.6621 C 11.7871 -14.043 13.3008 -13.9258 14.7852 -12.9199 L 14.1602 -11.3379 C 13.9258 -10.752 13.9453 -10.2734 14.1797 -9.83398 L 3.01758 0.439453 C 2.08008 1.30859 1.97266 2.25586 2.83203 3.11523 Z M 10.6738 -15.1465 C 13.3398 -17.1387 16.6504 -16.8262 19.0527 -14.4141 L 21.6797 -11.8066 C 21.9141 -11.5723 21.9434 -11.3867 21.8848 -11.0938 L 21.5039 -9.53125 L 23.0762 -7.95898 L 24.043 -8.04688 C 24.3262 -8.07617 24.4141 -8.05664 24.6387 -7.83203 L 25.2637 -7.20703 L 22.5098 -4.46289 L 21.8848 -5.07812 C 21.6602 -5.30273 21.6406 -5.40039 21.6699 -5.68359 L 21.7578 -6.64062 L 20.1953 -8.20312 L 18.5742 -7.89062 C 18.291 -7.83203 18.1445 -7.83203 17.9102 -8.07617 L 15.7324 -10.2539 C 15.5078 -10.4883 15.4785 -10.625 15.6055 -10.9473 L 16.5527 -13.2227 C 14.9512 -14.7559 12.8418 -15.6055 10.8008 -14.9512 C 10.7129 -14.9219 10.6445 -14.9414 10.6152 -14.9805 C 10.5859 -15.0293 10.5859 -15.0781 10.6738 -15.1465 Z M 4.10156 2.41211 C 3.61328 1.91406 3.78906 1.61133 4.12109 1.30859 L 15.0781 -8.80859 L 16.3086 -7.57812 L 6.15234 3.34961 C 5.84961 3.68164 5.46875 3.7793 5.06836 3.37891 Z"/>
  </g>
  <text style="stroke:none;fill:black;font-family:-apple-system,&quot;SF Pro Display&quot;,&quot;SF Pro Text&quot;,Helvetica,sans-serif;font-weight:bold;" transform="matrix(1 0 0 1 1289 1953)">Exporting</text>
  <text style="stroke:none;fill:black;font-family:-apple-system,&quot;SF Pro Display&quot;,&quot;SF Pro Text&quot;,Helvetica,sans-serif;" transform="matrix(1 0 0 1 1289 1971)">Symbols should be outlined when exporting to ensure the</text>
  <text style="stroke:none;fill:black;font-family:-apple-system,&quot;SF Pro Display&quot;,&quot;SF Pro Text&quot;,Helvetica,sans-serif;" transform="matrix(1 0 0 1 1289 1989)">design is preserved when submitting to Xcode.</text>
  <text id="template-version" style="stroke:none;fill:black;font-family:-apple-system,&quot;SF Pro Display&quot;,&quot;SF Pro Text&quot;,Helvetica,sans-serif;text-anchor:end;" transform="matrix(1 0 0 1 3036 1933)">Template v.1.0</text>
  <text style="stroke:none;fill:black;font-family:-apple-system,&quot;SF Pro Display&quot;,&quot;SF Pro Text&quot;,Helvetica,sans-serif;text-anchor:end;" transform="matrix(1 0 0 1 3036 1951)">Generated from speaker.slash.fill</text>
  <text style="stroke:none;fill:black;font-family:-apple-system,&quot;SF Pro Display&quot;,&quot;SF Pro Text&quot;,Helvetica,sans-serif;text-anchor:end;" transform="matrix(1 0 0 1 3036 1969)">Typeset at 100 points</text>
  <text style="stroke:none;fill:black;font-family:-apple-system,&quot;SF Pro Display&quot;,&quot;SF Pro Text&quot;,Helvetica,sans-serif;" transform="matrix(1 0 0 1 263 726)">Small</text>
  <text style="stroke:none;fill:black;font-family:-apple-system,&quot;SF Pro Display&quot;,&quot;SF Pro Text&quot;,Helvetica,sans-serif;" transform="matrix(1 0 0 1 263 1156)">Medium</text>
  <text style="stroke:none;fill:black;font-family:-apple-system,&quot;SF Pro Display&quot;,&quot;SF Pro Text&quot;,Helvetica,sans-serif;" transform="matrix(1 0 0 1 263 1586)">Large</text>
 </g>
 <g id="Guides">
  <g id="H-reference" style="fill:#27AAE1;stroke:none;" transform="matrix(1 0 0 1 339 696)">
   <path d="M 54.9316 0 L 57.666 0 L 30.5664 -70.459 L 28.0762 -70.459 L 0.976562 0 L 3.66211 0 L 12.9395 -24.4629 L 45.7031 -24.4629 Z M 29.1992 -67.0898 L 29.4434 -67.0898 L 44.8242 -26.709 L 13.8184 -26.709 Z"/>
  </g>
  <line id="Baseline-S" style="fill:none;stroke:#27AAE1;opacity:1;stroke-width:0.577;" x1="263" x2="3036" y1="696" y2="696"/>
  <line id="Capline-S" style="fill:none;stroke:#27AAE1;opacity:1;stroke-width:0.577;" x1="263" x2="3036" y1="625.541" y2="625.541"/>
  <g id="H-reference" style="fill:#27AAE1;stroke:none;" transform="matrix(1 0 0 1 339 1126)">
   <path d="M 54.9316 0 L 57.666 0 L 30.5664 -70.459 L 28.0762 -70.459 L 0.976562 0 L 3.66211 0 L 12.9395 -24.4629 L 45.7031 -24.4629 Z M 29.1992 -67.0898 L 29.4434 -67.0898 L 44.8242 -26.709 L 13.8184 -26.709 Z"/>
  </g>
  <line id="Baseline-M" style="fill:none;stroke:#27AAE1;opacity:1;stroke-width:0.577;" x1="263" x2="3036" y1="1126" y2="1126"/>
  <line id="Capline-M" style="fill:none;stroke:#27AAE1;opacity:1;stroke-width:0.577;" x1="263" x2="3036" y1="1055.54" y2="1055.54"/>
  <g id="H-reference" style="fill:#27AAE1;stroke:none;" transform="matrix(1 0 0 1 339 1556)">
   <path d="M 54.9316 0 L 57.666 0 L 30.5664 -70.459 L 28.0762 -70.459 L 0.976562 0 L 3.66211 0 L 12.9395 -24.4629 L 45.7031 -24.4629 Z M 29.1992 -67.0898 L 29.4434 -67.0898 L 44.8242 -26.709 L 13.8184 -26.709 Z"/>
  </g>
  <line id="Baseline-L" style="fill:none;stroke:#27AAE1;opacity:1;stroke-width:0.577;" x1="263" x2="3036" y1="1556" y2="1556"/>
  <line id="Capline-L" style="fill:none;stroke:#27AAE1;opacity:1;stroke-width:0.577;" x1="263" x2="3036" y1="1485.54" y2="1485.54"/>
  <rect height="119.336" id="left-margin" style="fill:#00AEEF;stroke:none;opacity:0.4;" width="10.4126" x="1395.45" y="1030.79"/>
  <rect height="119.336" id="right-margin" style="fill:#00AEEF;stroke:none;opacity:0.4;" width="7.23259" x="1497.01" y="1030.79"/>
 </g>
 <g id="Symbols">
  <g id="Black-L" transform="matrix(1 0 0 1 2856.06 1556)">
   <path d="M 135.449 28.418 C 137.695 30.6641 141.406 30.6641 143.604 28.418 C 145.752 26.1719 145.85 22.5586 143.604 20.2637 L 25.0977 -98.0957 C 22.8516 -100.342 19.1406 -100.342 16.8945 -98.0957 C 14.7461 -95.9473 14.7461 -92.1387 16.8945 -89.9902 Z M 114.209 -84.4727 C 114.209 -91.3574 108.887 -96.7773 101.953 -96.7773 C 97.6562 -96.7773 94.3359 -95.1172 89.7461 -90.918 L 67.1387 -70.459 C 66.9922 -70.3125 66.7969 -70.1172 66.6504 -70.0195 L 66.4062 -69.8242 L 114.209 -22.0703 Z M 45.2637 -4.15039 L 61.9141 -4.15039 C 62.3047 -4.15039 62.5977 -4.10156 62.8906 -3.75977 L 89.7461 20.7031 C 94.0918 24.6094 97.5098 26.416 102.002 26.416 C 106.201 26.416 109.863 24.4141 112.109 21.2891 C 112.549 20.6543 112.891 20.0195 113.184 19.2871 L 31.9824 -61.8164 C 28.418 -58.5449 26.5137 -53.418 26.5137 -46.6797 L 26.5137 -23.7305 C 26.5137 -10.9863 33.1055 -4.15039 45.2637 -4.15039 Z"/>
  </g>
  <g id="Heavy-L" transform="matrix(1 0 0 1 2561.47 1556)">
   <path d="M 131.738 27.8809 C 133.887 29.9805 137.305 29.9805 139.355 27.8809 C 141.406 25.7812 141.455 22.4121 139.355 20.3125 L 23.8281 -95.166 C 21.7285 -97.2656 18.2617 -97.2656 16.1621 -95.166 C 14.1113 -93.1152 14.1113 -89.5996 16.1621 -87.5488 Z M 110.889 -84.668 C 110.889 -90.8203 106.201 -95.7031 99.9512 -95.7031 C 95.9961 -95.7031 92.9688 -94.1406 88.8184 -90.2832 L 65.2344 -68.6523 C 64.9902 -68.4082 64.7461 -68.2129 64.502 -68.1152 L 63.2812 -67.9199 L 110.889 -20.3613 Z M 43.1641 -5.37109 L 60.4492 -5.37109 C 60.8887 -5.37109 61.2793 -5.32227 61.6211 -4.93164 L 88.8184 20.0684 C 92.7734 23.6816 95.8984 25.293 100 25.293 C 103.857 25.293 107.178 23.3887 109.082 20.5078 C 109.473 19.873 109.766 19.2383 110.059 18.5547 L 30.7617 -60.6934 C 27.5391 -57.666 25.7812 -52.9785 25.7812 -46.8262 L 25.7812 -23.4863 C 25.7812 -11.7676 31.9336 -5.37109 43.1641 -5.37109 Z"/>
  </g>
  <g id="Bold-L" transform="matrix(1 0 0 1 2267.18 1556)">
   <path d="M 107.178 -84.8633 C 107.178 -90.2344 103.174 -94.5312 97.7051 -94.5312 C 94.1406 -94.5312 91.5039 -93.0176 87.7441 -89.5996 L 63.0859 -66.6016 C 62.7441 -66.3086 62.4512 -66.1133 62.1094 -66.0156 L 59.7656 -65.8203 L 107.178 -18.457 Z M 127.637 27.3438 C 129.541 29.248 132.764 29.248 134.619 27.3438 C 136.523 25.3418 136.572 22.2656 134.619 20.3125 L 22.4121 -91.8457 C 20.5078 -93.75 17.2852 -93.7988 15.332 -91.8457 C 13.4766 -89.9414 13.4766 -86.7188 15.332 -84.8145 Z M 40.8203 -6.78711 L 58.7891 -6.78711 C 59.3262 -6.78711 59.7656 -6.64062 60.2051 -6.29883 L 87.7441 19.3848 C 91.2598 22.6074 94.0918 24.1211 97.7539 24.1211 C 101.27 24.1211 104.15 22.3145 105.713 19.6289 C 106.006 19.043 106.299 18.4082 106.543 17.7246 L 29.3945 -59.375 C 26.5625 -56.6895 25 -52.4414 25 -47.0215 L 25 -23.2422 C 25 -12.5977 30.6641 -6.78711 40.8203 -6.78711 Z"/>
  </g>
  <g id="Semibold-L" transform="matrix(1 0 0 1 1972.1 1556)">
   <path d="M 104.639 -85.0098 C 104.639 -89.7949 101.074 -93.7012 96.1426 -93.7012 C 92.8711 -93.7012 90.4785 -92.2852 87.0605 -89.1113 L 61.6211 -65.2344 C 61.2305 -64.8926 60.8398 -64.6484 60.4004 -64.5508 L 57.3242 -64.4043 L 104.639 -17.1387 Z M 124.756 26.9043 C 126.611 28.7598 129.59 28.7598 131.348 26.9043 C 133.154 25.0977 133.203 22.168 131.348 20.3125 L 21.4355 -89.5508 C 19.6289 -91.3574 16.6504 -91.4062 14.7949 -89.5508 C 12.9883 -87.793 12.9883 -84.7168 14.7949 -82.959 Z M 39.1602 -7.76367 L 57.6172 -7.76367 C 58.252 -7.76367 58.7402 -7.61719 59.1797 -7.17773 L 87.0605 18.9453 C 90.2344 21.875 92.8711 23.2422 96.1914 23.2422 C 99.4629 23.2422 102.051 21.5332 103.369 18.9941 C 103.662 18.4082 103.906 17.8223 104.102 17.1387 L 28.4668 -58.4961 C 25.8789 -56.0059 24.4629 -52.0996 24.4629 -47.168 L 24.4629 -23.0469 C 24.4629 -13.1836 29.7852 -7.76367 39.1602 -7.76367 Z"/>
  </g>
  <g id="Medium-L" transform="matrix(1 0 0 1 1676.63 1556)">
   <path d="M 102.686 -85.1074 C 102.686 -89.502 99.5117 -93.0664 94.9707 -93.0664 C 91.8945 -93.0664 89.6973 -91.6992 86.4746 -88.7695 L 60.498 -64.1602 C 60.0586 -63.7695 59.668 -63.5254 59.1797 -63.4277 L 55.4688 -63.2812 L 102.686 -16.1133 Z M 122.607 26.6113 C 124.365 28.3691 127.197 28.3691 128.906 26.6113 C 130.615 24.8535 130.664 22.0703 128.906 20.3125 L 20.7031 -87.793 C 18.9941 -89.5508 16.1133 -89.5996 14.3555 -87.793 C 12.6465 -86.1328 12.6465 -83.2031 14.3555 -81.543 Z M 37.9395 -8.49609 L 56.7871 -8.49609 C 57.4219 -8.49609 58.0078 -8.30078 58.4473 -7.86133 L 86.4746 18.6035 C 89.4531 21.3379 91.9434 22.6074 95.0684 22.6074 C 98.0957 22.6074 100.488 20.9473 101.611 18.5547 C 101.855 17.9688 102.1 17.3828 102.246 16.6992 L 27.7344 -57.8613 C 25.3906 -55.4688 24.0723 -51.8555 24.0723 -47.2656 L 24.0723 -22.9492 C 24.0723 -13.623 29.1016 -8.49609 37.9395 -8.49609 Z"/>
  </g>
  <g id="Regular-L" transform="matrix(1 0 0 1 1381.56 1556)">
   <path d="M 100.146 -85.2051 C 100.146 -89.0625 97.4121 -92.2363 93.4082 -92.2363 C 90.625 -92.2363 88.6719 -90.9668 85.791 -88.2812 L 59.0332 -62.793 C 58.5449 -62.3535 58.1055 -62.0605 57.5195 -61.9629 L 53.0762 -61.8652 L 100.146 -14.7949 Z M 119.775 26.2207 C 121.436 27.8809 124.072 27.8809 125.684 26.2207 C 127.295 24.5605 127.295 21.9727 125.684 20.3613 L 19.7266 -85.5469 C 18.1152 -87.1582 15.4297 -87.207 13.7695 -85.5469 C 12.207 -83.9844 12.207 -81.25 13.7695 -79.6875 Z M 36.3281 -9.42383 L 55.6152 -9.42383 C 56.3477 -9.42383 56.9824 -9.22852 57.4707 -8.78906 L 85.791 18.1152 C 88.4277 20.6055 90.7227 21.7773 93.5059 21.7773 C 96.3379 21.7773 98.4375 20.2148 99.3164 17.9688 C 99.5117 17.3828 99.707 16.7969 99.8535 16.1133 L 26.8066 -56.9824 C 24.707 -54.834 23.5352 -51.4648 23.5352 -47.3633 L 23.5352 -22.7539 C 23.5352 -14.209 28.2227 -9.42383 36.3281 -9.42383 Z"/>
  </g>
  <g id="Light-L" transform="matrix(1 0 0 1 1087.44 1556)">
   <path d="M 96.9238 -85.2051 C 96.9238 -88.5254 94.7754 -91.2109 91.3086 -91.2109 C 88.8672 -91.2109 87.1094 -90.0391 84.8633 -87.9395 L 56.9336 -61.084 C 56.3477 -60.5469 55.7617 -60.2539 54.9805 -60.2051 L 48.0469 -60.1074 L 96.9238 -11.2305 Z M 115.723 25.1953 C 116.992 26.4648 119.092 26.4648 120.312 25.1953 C 121.582 23.9258 121.582 21.9238 120.312 20.6543 L 16.9922 -82.6172 C 15.8203 -83.7891 13.7207 -83.8867 12.4023 -82.6172 C 11.1816 -81.3477 11.1816 -79.248 12.4023 -78.0273 Z M 33.8379 -10.5957 L 53.8086 -10.5957 C 54.6875 -10.5957 55.3711 -10.3516 55.957 -9.81445 L 84.8633 17.627 C 86.9629 19.6289 88.916 20.7031 91.3574 20.7031 C 94.0918 20.7031 95.8496 18.9941 96.4355 16.6992 C 96.5332 16.1133 96.6797 15.5273 96.7773 14.8926 L 25.6348 -56.25 C 23.4863 -54.248 22.2168 -51.123 22.2168 -47.4609 L 22.2168 -22.5098 C 22.2168 -15.1855 26.7578 -10.5957 33.8379 -10.5957 Z"/>
  </g>
  <g id="Thin-L" transform="matrix(1 0 0 1 794.166 1556)">
   <path d="M 92.7246 -85.1562 C 92.7246 -87.7441 91.2598 -89.8438 88.4766 -89.8438 C 86.5723 -89.8438 85.0586 -88.8184 83.6426 -87.5 L 54.1504 -58.7891 C 53.4668 -58.1543 52.6855 -57.8613 51.6113 -57.8613 L 41.4062 -57.8125 L 92.7246 -6.54297 Z M 110.4 23.877 C 111.182 24.6582 112.402 24.6582 113.184 23.877 C 114.014 23.0469 113.965 21.8262 113.184 21.0938 L 13.4277 -78.7109 C 12.6953 -79.3945 11.4746 -79.541 10.5957 -78.7109 C 9.86328 -77.9297 9.86328 -76.6602 10.5957 -75.8789 Z M 30.5664 -12.1094 L 51.3672 -12.1094 C 52.4414 -12.1094 53.2227 -11.8164 53.9062 -11.1816 L 83.6426 16.9922 C 85.0098 18.3105 86.5723 19.2871 88.4766 19.2871 C 91.1133 19.2871 92.4805 17.4316 92.627 15.0391 C 92.627 14.4531 92.6758 13.916 92.6758 13.3301 L 24.0723 -55.3223 C 21.8262 -53.4668 20.5078 -50.6836 20.5078 -47.5586 L 20.5078 -22.2168 C 20.5078 -16.5039 24.8535 -12.1094 30.5664 -12.1094 Z"/>
  </g>
  <g id="Ultralight-L" transform="matrix(1 0 0 1 499.189 1556)">
   <path d="M 90.5762 -85.1074 C 90.5762 -87.3535 89.4531 -89.1113 87.0605 -89.1113 C 85.4004 -89.1113 84.0332 -88.1836 83.0078 -87.2559 L 52.6855 -57.6172 C 51.9531 -56.9824 51.123 -56.6406 49.9023 -56.6406 L 37.9883 -56.6406 L 90.5762 -4.10156 Z M 107.666 23.1934 C 108.154 23.7305 109.033 23.7305 109.521 23.1934 C 110.156 22.5586 110.059 21.8262 109.521 21.2891 L 11.5723 -76.6602 C 11.1328 -77.0996 10.3027 -77.2949 9.66797 -76.6602 C 9.17969 -76.1719 9.17969 -75.293 9.66797 -74.8047 Z M 28.8574 -12.8906 L 50.1465 -12.8906 C 51.3184 -12.8906 52.1484 -12.5488 52.8809 -11.8652 L 83.0078 16.6992 C 84.0332 17.627 85.4004 18.6035 87.0117 18.6035 C 89.5508 18.6035 90.7715 16.6016 90.6738 14.1602 C 90.625 13.623 90.625 13.0371 90.5762 12.5 L 23.2422 -54.834 C 20.9961 -53.0762 19.5801 -50.4395 19.5801 -47.6074 L 19.5801 -22.0703 C 19.5801 -17.1875 23.877 -12.8906 28.8574 -12.8906 Z"/>
  </g>
  <g id="Black-M" transform="matrix(1 0 0 1 2871.95 1126)">
   <path d="M 107.812 14.2578 C 109.57 15.9668 112.402 15.9668 114.111 14.2578 C 115.771 12.5 115.82 9.66797 114.111 7.95898 L 19.7266 -86.377 C 17.9688 -88.1348 15.0879 -88.1348 13.3789 -86.377 C 11.6699 -84.7168 11.6699 -81.7871 13.3789 -80.0781 Z M 91.2598 -73.1445 C 91.2598 -79.1504 86.6211 -83.8379 80.5664 -83.8379 C 77.002 -83.8379 74.0723 -82.4219 70.3125 -79.0527 L 53.4668 -64.0625 C 53.418 -64.0137 53.2715 -63.8672 53.2227 -63.8184 L 53.0273 -63.623 L 91.2598 -25.4395 Z M 36.5723 -10.0586 L 49.0234 -10.0586 C 49.2676 -10.0586 49.4141 -10.0586 49.707 -9.81445 L 70.3125 8.64258 C 73.9258 11.9141 76.7578 13.4277 80.5664 13.4277 C 84.2285 13.4277 87.4512 11.6699 89.4043 8.93555 C 89.7461 8.44727 90.0879 7.95898 90.332 7.42188 L 25.8301 -56.9824 C 22.5586 -54.1504 20.752 -49.7559 20.752 -43.8965 L 20.752 -26.4648 C 20.752 -15.9668 26.416 -10.0586 36.5723 -10.0586 Z"/>
  </g>
  <g id="Heavy-M" transform="matrix(1 0 0 1 2576.9 1126)">
   <path d="M 104.834 13.9648 C 106.494 15.625 109.277 15.625 110.889 13.9648 C 112.5 12.2559 112.549 9.57031 110.889 7.86133 L 19.043 -83.8867 C 17.334 -85.5957 14.5996 -85.5957 12.8906 -83.8867 C 11.2793 -82.2754 11.2793 -79.4434 12.8906 -77.832 Z M 88.4766 -73.3398 C 88.4766 -78.7109 84.375 -82.9102 78.9551 -82.9102 C 75.6348 -82.9102 72.998 -81.6406 69.5312 -78.4668 L 51.9531 -62.5 C 51.8066 -62.4023 51.6602 -62.2559 51.5137 -62.207 L 50.9277 -62.0117 L 88.4766 -24.5117 Z M 34.9121 -11.1328 L 47.8516 -11.1328 C 48.1445 -11.1328 48.3887 -11.084 48.6816 -10.8398 L 69.5312 8.10547 C 72.8516 11.1328 75.4883 12.5 78.9551 12.5 C 82.2754 12.5 85.1562 10.8887 86.8652 8.44727 C 87.1582 7.95898 87.4512 7.42188 87.6953 6.88477 L 24.8047 -55.9082 C 21.9238 -53.3691 20.3613 -49.3652 20.3613 -44.0918 L 20.3613 -26.3184 C 20.3613 -16.5039 25.5371 -11.1328 34.9121 -11.1328 Z"/>
  </g>
  <g id="Bold-M" transform="matrix(1 0 0 1 2282.07 1126)">
   <path d="M 101.465 13.623 C 103.076 15.2344 105.713 15.2344 107.275 13.623 C 108.838 12.0117 108.887 9.42383 107.275 7.8125 L 18.2617 -81.1523 C 16.6504 -82.7637 14.0137 -82.7637 12.4023 -81.1523 C 10.8398 -79.5898 10.8398 -76.9043 12.4023 -75.3418 Z M 85.3516 -73.584 C 85.3516 -78.2227 81.8359 -81.9336 77.0996 -81.9336 C 74.1211 -81.9336 71.8262 -80.7129 68.6523 -77.7832 L 50.1953 -60.791 C 50 -60.6445 49.8047 -60.4492 49.6094 -60.4004 L 48.5352 -60.2539 L 85.3516 -23.4375 Z M 33.1055 -12.3047 L 46.582 -12.3047 C 46.9238 -12.3047 47.2656 -12.2559 47.5586 -11.9629 L 68.6523 7.51953 C 71.6309 10.2539 74.0234 11.5234 77.1484 11.5234 C 80.0781 11.5234 82.5684 10.0586 83.9844 7.8125 C 84.2773 7.37305 84.5215 6.88477 84.7168 6.29883 L 23.6328 -54.7363 C 21.1914 -52.4414 19.873 -48.877 19.873 -44.2383 L 19.873 -26.0742 C 19.873 -17.1387 24.5605 -12.3047 33.1055 -12.3047 Z"/>
  </g>
  <g id="Semibold-M" transform="matrix(1 0 0 1 1986.63 1126)">
   <path d="M 83.2031 -73.7305 C 83.2031 -77.8809 80.0781 -81.2012 75.8301 -81.2012 C 73.0469 -81.2012 70.9961 -80.0781 68.0664 -77.3438 L 49.0234 -59.6191 C 48.7793 -59.4238 48.5352 -59.2285 48.291 -59.1309 L 46.875 -59.0332 L 83.2031 -22.7051 Z M 99.1699 13.3789 C 100.732 14.9414 103.271 14.9414 104.785 13.3789 C 106.299 11.8164 106.348 9.32617 104.785 7.76367 L 17.7734 -79.248 C 16.2109 -80.8105 13.623 -80.8105 12.0605 -79.248 C 10.5469 -77.7344 10.5469 -75.0977 12.0605 -73.6328 Z M 31.7871 -13.1348 L 45.7031 -13.1348 C 46.0938 -13.1348 46.4355 -13.0371 46.7285 -12.7441 L 68.0664 7.12891 C 70.8008 9.66797 73.0469 10.791 75.8789 10.791 C 78.5645 10.791 80.8105 9.47266 82.0312 7.42188 C 82.2754 6.98242 82.5195 6.49414 82.7148 5.9082 L 22.8516 -53.9062 C 20.7031 -51.8066 19.5312 -48.584 19.5312 -44.3848 L 19.5312 -25.9277 C 19.5312 -17.5781 23.877 -13.1348 31.7871 -13.1348 Z"/>
  </g>
  <g id="Medium-M" transform="matrix(1 0 0 1 1690.89 1126)">
   <path d="M 81.543 -73.8281 C 81.543 -77.6367 78.7598 -80.6641 74.8535 -80.6641 C 72.2656 -80.6641 70.4102 -79.5898 67.5781 -77.002 L 48.1445 -58.7402 C 47.8516 -58.4473 47.6074 -58.3008 47.3145 -58.2031 L 45.6055 -58.0566 L 81.543 -22.168 Z M 97.4121 13.2324 C 98.9258 14.7461 101.465 14.7461 102.93 13.2324 C 104.395 11.6699 104.443 9.22852 102.93 7.71484 L 17.334 -77.7832 C 15.8203 -79.2969 13.3301 -79.3457 11.8164 -77.7832 C 10.3516 -76.3184 10.3516 -73.7793 11.8164 -72.3145 Z M 30.8594 -13.7695 L 45.0195 -13.7695 C 45.459 -13.7695 45.8496 -13.6719 46.1426 -13.3789 L 67.5781 6.78711 C 70.166 9.17969 72.3145 10.2539 74.9512 10.2539 C 77.4414 10.2539 79.4922 8.98438 80.5664 7.12891 C 80.7617 6.64062 81.0059 6.15234 81.1523 5.61523 L 22.2168 -53.3203 C 20.3125 -51.3672 19.2871 -48.3398 19.2871 -44.4824 L 19.2871 -25.8301 C 19.2871 -17.9199 23.3398 -13.7695 30.8594 -13.7695 Z"/>
  </g>
  <g id="Regular-M" transform="matrix(1 0 0 1 1395.45 1126)">
   <path d="M 79.4434 -74.0234 C 79.4434 -77.2949 77.002 -79.9805 73.584 -79.9805 C 71.1914 -79.9805 69.5801 -78.9551 66.9922 -76.5137 L 46.9238 -57.5684 C 46.6309 -57.2754 46.3379 -57.0801 45.9961 -56.9824 L 43.9941 -56.8848 L 79.4434 -21.4355 Z M 95.1172 12.9883 C 96.6309 14.4531 99.0234 14.4531 100.439 12.9883 C 101.904 11.4746 101.953 9.13086 100.439 7.66602 L 16.8457 -75.9277 C 15.3809 -77.3926 12.9395 -77.3926 11.4746 -75.9277 C 10.0586 -74.5117 10.0586 -72.0215 11.4746 -70.6055 Z M 29.5898 -14.5996 L 44.1406 -14.5996 C 44.6289 -14.5996 45.0684 -14.4531 45.3613 -14.1602 L 66.9922 6.39648 C 69.3359 8.59375 71.2891 9.57031 73.6816 9.57031 C 75.9277 9.57031 77.7344 8.39844 78.6133 6.68945 C 78.8086 6.25 79.0039 5.76172 79.1504 5.22461 L 21.4355 -52.4902 C 19.8242 -50.7324 18.9941 -48.0469 18.9941 -44.5801 L 18.9941 -25.6836 C 18.9941 -18.3594 22.7051 -14.5996 29.5898 -14.5996 Z"/>
  </g>
  <g id="Light-M" transform="matrix(1 0 0 1 1101.06 1126)">
   <path d="M 76.5625 -73.9746 C 76.5625 -76.7578 74.6094 -79.0527 71.6797 -79.0527 C 69.6777 -79.0527 68.2129 -78.125 66.1621 -76.2207 L 45.0684 -56.0059 C 44.6777 -55.6641 44.2383 -55.4199 43.75 -55.3711 L 39.502 -55.3223 L 76.5625 -18.2129 Z M 91.5039 12.0605 C 92.627 13.2324 94.5312 13.2324 95.6543 12.0605 C 96.7773 10.8887 96.7773 9.08203 95.6543 7.95898 L 14.4043 -73.2422 C 13.2812 -74.3652 11.4258 -74.4141 10.2539 -73.2422 C 9.13086 -72.168 9.13086 -70.2637 10.2539 -69.1406 Z M 27.3438 -15.625 L 42.5293 -15.625 C 43.1152 -15.625 43.6035 -15.4297 44.043 -15.0879 L 66.1621 5.95703 C 68.0664 7.71484 69.7266 8.59375 71.7773 8.59375 C 73.9258 8.59375 75.4395 7.32422 76.0254 5.56641 C 76.123 5.12695 76.2695 4.6875 76.3672 4.15039 L 20.4102 -51.8555 C 18.75 -50.2441 17.8223 -47.7051 17.8223 -44.6777 L 17.8223 -25.4883 C 17.8223 -19.2383 21.3867 -15.625 27.3438 -15.625 Z"/>
  </g>
  <g id="Thin-M" transform="matrix(1 0 0 1 807.423 1126)">
   <path d="M 72.7539 -73.9258 C 72.7539 -76.0742 71.4844 -77.832 69.1895 -77.832 C 67.5781 -77.832 66.3574 -77.0508 65.0879 -75.8301 L 42.5781 -54.0039 C 42.041 -53.5156 41.5039 -53.2715 40.7227 -53.2715 L 33.5449 -53.2227 L 72.7539 -14.0137 Z M 86.7188 10.8887 C 87.4023 11.5723 88.5742 11.5723 89.2578 10.8887 C 89.9902 10.1074 89.9414 9.0332 89.2578 8.30078 L 11.1816 -69.7754 C 10.5469 -70.4102 9.375 -70.5078 8.59375 -69.7754 C 7.91016 -69.043 7.91016 -67.9199 8.59375 -67.1875 Z M 24.4141 -16.9922 L 40.332 -16.9922 C 41.1133 -16.9922 41.6992 -16.748 42.2363 -16.3086 L 65.0879 5.37109 C 66.3086 6.54297 67.627 7.32422 69.1895 7.32422 C 71.2402 7.32422 72.4121 5.9082 72.6074 4.10156 C 72.6562 3.66211 72.6562 3.22266 72.7051 2.73438 L 18.9941 -50.9766 C 17.2852 -49.5605 16.2598 -47.3145 16.2598 -44.7754 L 16.2598 -25.2441 C 16.2598 -20.4102 19.6777 -16.9922 24.4141 -16.9922 Z"/>
  </g>
  <g id="Ultralight-M" transform="matrix(1 0 0 1 512.275 1126)">
   <path d="M 70.8496 -73.877 C 70.8496 -75.7324 69.873 -77.1973 67.8711 -77.1973 C 66.5527 -77.1973 65.4297 -76.4648 64.502 -75.6348 L 41.2598 -52.9297 C 40.7227 -52.4414 40.0879 -52.1973 39.209 -52.1973 L 30.4688 -52.1973 L 70.8496 -11.8164 Z M 84.2285 10.2539 C 84.7168 10.7422 85.498 10.7422 85.9863 10.2539 C 86.5234 9.7168 86.4746 8.98438 85.9863 8.49609 L 9.52148 -67.9688 C 9.13086 -68.3594 8.34961 -68.5059 7.76367 -67.9688 C 7.32422 -67.4805 7.32422 -66.6992 7.76367 -66.2109 Z M 22.8516 -17.6758 L 39.2578 -17.6758 C 40.1367 -17.6758 40.7227 -17.4316 41.3086 -16.9434 L 64.502 5.07812 C 65.4297 5.95703 66.5527 6.68945 67.8711 6.68945 C 69.873 6.68945 70.8496 5.17578 70.8496 3.32031 C 70.8496 2.88086 70.8496 2.44141 70.8496 2.00195 L 18.2617 -50.5371 C 16.5039 -49.1699 15.4297 -47.0703 15.4297 -44.8242 L 15.4297 -25.0977 C 15.4297 -21.0449 18.7988 -17.6758 22.8516 -17.6758 Z"/>
  </g>
  <g id="Black-S" transform="matrix(1 0 0 1 2885.35 696)">
   <path d="M 84.2773 3.51562 C 85.6445 4.88281 87.8906 4.88281 89.209 3.51562 C 90.5273 2.14844 90.5762 -0.0488281 89.209 -1.41602 L 15.4297 -75.1465 C 14.0625 -76.5137 11.8164 -76.5137 10.4492 -75.1465 C 9.13086 -73.8281 9.13086 -71.5332 10.4492 -70.2148 Z M 71.3379 -64.9414 C 71.3379 -69.6289 67.7246 -73.2422 63.0371 -73.2422 C 60.2539 -73.2422 57.959 -72.168 55.0293 -69.5312 L 41.7969 -57.7148 L 41.4551 -57.373 L 71.3379 -27.5391 Z M 28.5645 -15.5762 L 38.3301 -15.5762 C 38.5254 -15.5762 38.6719 -15.5762 38.8672 -15.3809 L 55.0293 -0.878906 C 57.8613 1.66016 60.0586 2.83203 63.0371 2.83203 C 65.8691 2.83203 68.3594 1.46484 69.873 -0.634766 C 70.166 -1.02539 70.4102 -1.41602 70.6055 -1.85547 L 20.166 -52.1973 C 17.627 -50 16.2598 -46.582 16.2598 -42.041 L 16.2598 -28.3691 C 16.2598 -20.166 20.6543 -15.5762 28.5645 -15.5762 Z"/>
  </g>
  <g id="Heavy-S" transform="matrix(1 0 0 1 2589.67 696)">
   <path d="M 82.373 3.36914 C 83.7402 4.73633 85.9863 4.73633 87.3047 3.36914 C 88.5742 2.05078 88.623 -0.146484 87.3047 -1.51367 L 15.1855 -73.5352 C 13.8184 -74.9023 11.6211 -74.9023 10.2539 -73.5352 C 8.93555 -72.2656 8.93555 -69.9707 10.2539 -68.6523 Z M 69.5312 -65.0879 C 69.5312 -69.3359 66.2598 -72.6562 62.0117 -72.6562 C 59.375 -72.6562 57.3242 -71.6309 54.541 -69.0918 L 40.8203 -56.6895 C 40.7227 -56.6406 40.625 -56.4941 40.5273 -56.4453 L 40.332 -56.3477 L 69.5312 -27.1484 Z M 27.5391 -16.2598 L 37.6465 -16.2598 C 37.8418 -16.2598 38.0371 -16.2598 38.2324 -16.0645 L 54.541 -1.2207 C 57.1777 1.17188 59.2285 2.24609 62.0117 2.24609 C 64.5996 2.24609 66.8457 0.976562 68.2129 -0.927734 C 68.457 -1.31836 68.7012 -1.70898 68.8965 -2.14844 L 19.4824 -51.4648 C 17.2852 -49.4629 16.0645 -46.2891 16.0645 -42.1387 L 16.0645 -28.2227 C 16.0645 -20.5078 20.1172 -16.2598 27.5391 -16.2598 Z"/>
  </g>
  <g id="Bold-S" transform="matrix(1 0 0 1 2294.08 696)">
   <path d="M 80.2734 3.27148 C 81.6406 4.58984 83.8379 4.58984 85.1074 3.27148 C 86.4258 1.9043 86.4746 -0.244141 85.1074 -1.61133 L 14.8926 -71.7773 C 13.5742 -73.0957 11.377 -73.0957 10.0098 -71.7773 C 8.74023 -70.459 8.74023 -68.2129 10.0098 -66.9434 Z M 67.4805 -65.2832 C 67.4805 -69.043 64.5996 -72.0215 60.791 -72.0215 C 58.3984 -72.0215 56.5918 -71.0449 53.9551 -68.6523 L 39.7461 -55.6152 C 39.5996 -55.4688 39.502 -55.3223 39.3555 -55.2734 L 39.0625 -55.1758 L 67.4805 -26.7578 Z M 26.416 -17.0898 L 36.8652 -17.0898 C 37.1094 -17.0898 37.3535 -17.041 37.5488 -16.7969 L 53.9551 -1.66016 C 56.3965 0.585938 58.3496 1.5625 60.8398 1.5625 C 63.1836 1.5625 65.1855 0.488281 66.3574 -1.2207 C 66.6016 -1.61133 66.7969 -2.00195 66.9922 -2.44141 L 18.75 -50.6348 C 16.8457 -48.8281 15.8691 -45.9961 15.8691 -42.2852 L 15.8691 -28.125 C 15.8691 -20.8496 19.5312 -17.0898 26.416 -17.0898 Z"/>
  </g>
  <g id="Semibold-S" transform="matrix(1 0 0 1 1998.17 696)">
   <path d="M 66.0645 -65.3809 C 66.0645 -68.7988 63.4766 -71.5332 60.0098 -71.5332 C 57.7148 -71.5332 56.1035 -70.6055 53.5645 -68.3105 L 39.0137 -54.834 C 38.8184 -54.6875 38.7207 -54.541 38.5742 -54.4434 L 38.1836 -54.3457 L 66.0645 -26.4648 Z M 78.8086 3.17383 C 80.1758 4.49219 82.373 4.49219 83.6426 3.17383 C 84.9121 1.80664 84.9609 -0.341797 83.6426 -1.66016 L 14.6973 -70.5566 C 13.3789 -71.875 11.1816 -71.875 9.86328 -70.5566 C 8.54492 -69.2383 8.54492 -66.9922 9.86328 -65.7227 Z M 25.6348 -17.627 L 36.3281 -17.627 C 36.6211 -17.627 36.8652 -17.5293 37.0605 -17.334 L 53.5645 -1.9043 C 55.9082 0.195312 57.7148 1.12305 60.0586 1.12305 C 62.207 1.12305 64.0137 0.0976562 65.0879 -1.46484 C 65.2832 -1.80664 65.4785 -2.19727 65.6738 -2.63672 L 18.2129 -50.0488 C 16.5527 -48.3887 15.7227 -45.8008 15.7227 -42.3828 L 15.7227 -28.0273 C 15.7227 -21.1426 19.1406 -17.627 25.6348 -17.627 Z"/>
  </g>
  <g id="Medium-S" transform="matrix(1 0 0 1 1702.05 696)">
   <path d="M 64.9902 -65.4785 C 64.9902 -68.6523 62.5977 -71.1914 59.375 -71.1914 C 57.2266 -71.1914 55.7129 -70.3125 53.2715 -68.0664 L 38.4277 -54.248 C 38.2324 -54.0527 38.0859 -53.9062 37.9395 -53.8574 L 37.5 -53.7109 L 64.9902 -26.2695 Z M 77.7344 3.07617 C 79.0527 4.39453 81.25 4.39453 82.5195 3.07617 C 83.7891 1.75781 83.8379 -0.390625 82.5195 -1.70898 L 14.5508 -69.5801 C 13.2324 -70.9473 11.084 -70.9473 9.7168 -69.5801 C 8.44727 -68.3105 8.44727 -66.1133 9.7168 -64.8438 Z M 25.0488 -18.0176 L 35.9375 -18.0176 C 36.2305 -18.0176 36.4746 -17.9688 36.6699 -17.7246 L 53.2715 -2.14844 C 55.4688 -0.0976562 57.2754 0.78125 59.4727 0.78125 C 61.4258 0.78125 63.1348 -0.146484 64.1113 -1.61133 C 64.3066 -1.95312 64.502 -2.34375 64.6484 -2.7832 L 17.8223 -49.6094 C 16.3574 -48.0469 15.5762 -45.6055 15.5762 -42.4316 L 15.5762 -27.9297 C 15.5762 -21.3379 18.7988 -18.0176 25.0488 -18.0176 Z"/>
  </g>
  <g id="Regular-S" transform="matrix(1 0 0 1 1406.12 696)">
   <path d="M 63.623 -65.625 C 63.623 -68.4082 61.4746 -70.752 58.5938 -70.752 C 56.543 -70.752 55.2246 -69.873 52.8809 -67.7246 L 37.6953 -53.4668 C 37.5 -53.2715 37.3047 -53.125 37.1582 -53.0273 L 36.6699 -52.9297 L 63.623 -25.9766 Z M 76.2695 2.97852 C 77.5879 4.29688 79.7852 4.29688 81.0547 2.97852 C 82.3242 1.66016 82.373 -0.439453 81.0547 -1.75781 L 14.3555 -68.4082 C 13.0371 -69.6777 10.8887 -69.7266 9.57031 -68.4082 C 8.30078 -67.1387 8.30078 -64.8926 9.57031 -63.623 Z M 24.2676 -18.5547 L 35.4004 -18.5547 C 35.6934 -18.5547 35.9863 -18.457 36.2305 -18.2617 L 52.8809 -2.39258 C 54.9805 -0.488281 56.6406 0.341797 58.6914 0.341797 C 60.498 0.341797 62.0117 -0.488281 62.8418 -1.85547 C 63.0371 -2.19727 63.1836 -2.58789 63.3301 -2.97852 L 17.334 -49.0723 C 16.0645 -47.6074 15.4297 -45.4102 15.4297 -42.5293 L 15.4297 -27.832 C 15.4297 -21.582 18.4082 -18.5547 24.2676 -18.5547 Z"/>
  </g>
  <g id="Light-S" transform="matrix(1 0 0 1 1111.46 696)">
   <path d="M 61.084 -65.5762 C 61.084 -67.9688 59.375 -69.9219 56.8848 -69.9219 C 55.1758 -69.9219 53.9551 -69.1406 52.1484 -67.4805 L 36.0352 -52.0996 C 35.7422 -51.8555 35.498 -51.6602 35.1562 -51.6113 L 32.666 -51.5625 L 61.084 -23.1445 Z M 73.0957 2.19727 C 74.1211 3.22266 75.7812 3.22266 76.7578 2.19727 C 77.7832 1.12305 77.7832 -0.488281 76.7578 -1.51367 L 12.207 -66.0645 C 11.2305 -67.041 9.52148 -67.0898 8.49609 -66.0645 C 7.51953 -65.0391 7.51953 -63.3301 8.49609 -62.3535 Z M 22.2656 -19.4824 L 33.9355 -19.4824 C 34.375 -19.4824 34.7168 -19.3359 35.0098 -19.0918 L 52.1484 -2.7832 C 53.8086 -1.26953 55.2246 -0.488281 56.9824 -0.488281 C 58.6914 -0.488281 59.9609 -1.46484 60.5469 -2.83203 C 60.6934 -3.17383 60.791 -3.56445 60.8887 -3.95508 L 16.3574 -48.4863 C 15.0879 -47.168 14.4043 -45.1172 14.4043 -42.5781 L 14.4043 -27.6855 C 14.4043 -22.3633 17.2363 -19.4824 22.2656 -19.4824 Z"/>
  </g>
  <g id="Thin-S" transform="matrix(1 0 0 1 817.457 696)">
   <path d="M 57.7148 -65.5762 C 57.7148 -67.3828 56.5918 -68.8477 54.6875 -68.8477 C 53.3691 -68.8477 52.3438 -68.2129 51.2207 -67.1387 L 33.8379 -50.293 C 33.4473 -49.9512 33.0566 -49.8047 32.4707 -49.7559 L 27.3926 -49.7559 L 57.7148 -19.3848 Z M 68.8477 1.12305 C 69.4824 1.75781 70.5078 1.75781 71.1426 1.12305 C 71.7773 0.439453 71.7773 -0.537109 71.1426 -1.17188 L 9.375 -62.9395 C 8.78906 -63.5254 7.71484 -63.623 7.08008 -62.9395 C 6.44531 -62.3047 6.44531 -61.2793 7.08008 -60.6445 Z M 19.6777 -20.6543 L 32.0312 -20.6543 C 32.6172 -20.6543 33.0566 -20.5078 33.4473 -20.166 L 51.2207 -3.27148 C 52.2949 -2.29492 53.3691 -1.61133 54.6875 -1.61133 C 56.3477 -1.61133 57.3242 -2.73438 57.5195 -4.15039 C 57.5684 -4.49219 57.6172 -4.83398 57.666 -5.22461 L 15.1367 -47.7539 C 13.8184 -46.582 13.0371 -44.7754 13.0371 -42.6758 L 13.0371 -27.4414 C 13.0371 -23.3887 15.7715 -20.6543 19.6777 -20.6543 Z"/>
  </g>
  <g id="Ultralight-S" transform="matrix(1 0 0 1 522.138 696)">
   <path d="M 56.0059 -65.5273 C 56.0059 -67.041 55.1758 -68.3105 53.5156 -68.3105 C 52.3926 -68.3105 51.5137 -67.6758 50.6836 -66.9434 L 32.666 -49.3652 C 32.2754 -49.0234 31.7871 -48.8281 31.1035 -48.7793 L 24.707 -48.7793 L 56.0059 -17.4805 Z M 66.6504 0.585938 C 67.0898 1.02539 67.8223 1.02539 68.2617 0.585938 C 68.7012 0.0976562 68.7012 -0.585938 68.2617 -1.02539 L 7.91016 -61.3281 C 7.51953 -61.7188 6.78711 -61.8164 6.29883 -61.3281 C 5.9082 -60.9375 5.9082 -60.2051 6.29883 -59.7656 Z M 18.3105 -21.2891 L 31.0547 -21.2891 C 31.6895 -21.2891 32.1777 -21.0938 32.6172 -20.7031 L 50.6836 -3.56445 C 51.5137 -2.83203 52.3926 -2.19727 53.5156 -2.19727 C 55.127 -2.19727 55.9082 -3.36914 55.957 -4.83398 C 55.957 -5.17578 56.0059 -5.51758 56.0059 -5.85938 L 14.502 -47.3633 C 13.1348 -46.2402 12.3047 -44.5801 12.3047 -42.7246 L 12.3047 -27.3438 C 12.3047 -23.9258 14.9902 -21.2891 18.3105 -21.2891 Z"/>
  </g>
 </g>
</svg>
