<?xml version="1.0" encoding="UTF-8"?>
<!--Generator: Apple Native CoreSVG 123-->
<!DOCTYPE svg
PUBLIC "-//W3C//DTD SVG 1.1//EN"
       "http://www.w3.org/Graphics/SVG/1.1/DTD/svg11.dtd">
<svg version="1.1" xmlns="http://www.w3.org/2000/svg" xmlns:xlink="http://www.w3.org/1999/xlink" width="3300" height="2200">
 <!--glyph: "uni10028A.medium", point size: 100.000000, font version: "Version 15.0d7e11", template writer version: "5"-->
 <g id="Notes">
  <rect height="2200" id="artboard" style="fill:white;opacity:1" width="3300" x="0" y="0"/>
  <line id="" style="fill:none;stroke:black;opacity:1;stroke-width:0.5;" x1="263" x2="3036" y1="292" y2="292"/>
  <text style="stroke:none;fill:black;font-family:-apple-system,&quot;SF Pro Display&quot;,&quot;SF Pro Text&quot;,Helvetica,sans-serif;font-weight:bold;" transform="matrix(1 0 0 1 263 322)">Weight/Scale Variations</text>
  <text style="stroke:none;fill:black;font-family:-apple-system,&quot;SF Pro Display&quot;,&quot;SF Pro Text&quot;,Helvetica,sans-serif;text-anchor:middle;" transform="matrix(1 0 0 1 559.711 322)">Ultralight</text>
  <text style="stroke:none;fill:black;font-family:-apple-system,&quot;SF Pro Display&quot;,&quot;SF Pro Text&quot;,Helvetica,sans-serif;text-anchor:middle;" transform="matrix(1 0 0 1 856.422 322)">Thin</text>
  <text style="stroke:none;fill:black;font-family:-apple-system,&quot;SF Pro Display&quot;,&quot;SF Pro Text&quot;,Helvetica,sans-serif;text-anchor:middle;" transform="matrix(1 0 0 1 1153.13 322)">Light</text>
  <text style="stroke:none;fill:black;font-family:-apple-system,&quot;SF Pro Display&quot;,&quot;SF Pro Text&quot;,Helvetica,sans-serif;text-anchor:middle;" transform="matrix(1 0 0 1 1449.84 322)">Regular</text>
  <text style="stroke:none;fill:black;font-family:-apple-system,&quot;SF Pro Display&quot;,&quot;SF Pro Text&quot;,Helvetica,sans-serif;text-anchor:middle;" transform="matrix(1 0 0 1 1746.56 322)">Medium</text>
  <text style="stroke:none;fill:black;font-family:-apple-system,&quot;SF Pro Display&quot;,&quot;SF Pro Text&quot;,Helvetica,sans-serif;text-anchor:middle;" transform="matrix(1 0 0 1 2043.27 322)">Semibold</text>
  <text style="stroke:none;fill:black;font-family:-apple-system,&quot;SF Pro Display&quot;,&quot;SF Pro Text&quot;,Helvetica,sans-serif;text-anchor:middle;" transform="matrix(1 0 0 1 2339.98 322)">Bold</text>
  <text style="stroke:none;fill:black;font-family:-apple-system,&quot;SF Pro Display&quot;,&quot;SF Pro Text&quot;,Helvetica,sans-serif;text-anchor:middle;" transform="matrix(1 0 0 1 2636.69 322)">Heavy</text>
  <text style="stroke:none;fill:black;font-family:-apple-system,&quot;SF Pro Display&quot;,&quot;SF Pro Text&quot;,Helvetica,sans-serif;text-anchor:middle;" transform="matrix(1 0 0 1 2933.4 322)">Black</text>
  <line id="" style="fill:none;stroke:black;opacity:1;stroke-width:0.5;" x1="263" x2="3036" y1="1903" y2="1903"/>
  <g id="" transform="matrix(1 0 0 1 263 1933)">
   <path d="M 9.24805 0.830078 C 13.5547 0.830078 17.1387 -2.74414 17.1387 -7.05078 C 17.1387 -11.3574 13.5449 -14.9316 9.23828 -14.9316 C 4.94141 -14.9316 1.36719 -11.3574 1.36719 -7.05078 C 1.36719 -2.74414 4.95117 0.830078 9.24805 0.830078 Z M 9.24805 -0.654297 C 5.70312 -0.654297 2.87109 -3.49609 2.87109 -7.05078 C 2.87109 -10.6055 5.69336 -13.4473 9.23828 -13.4473 C 12.793 -13.4473 15.6348 -10.6055 15.6445 -7.05078 C 15.6543 -3.49609 12.8027 -0.654297 9.24805 -0.654297 Z M 9.22852 -3.42773 C 9.69727 -3.42773 9.9707 -3.74023 9.9707 -4.25781 L 9.9707 -6.31836 L 12.1973 -6.31836 C 12.6953 -6.31836 13.0371 -6.57227 13.0371 -7.04102 C 13.0371 -7.51953 12.7148 -7.7832 12.1973 -7.7832 L 9.9707 -7.7832 L 9.9707 -10.0098 C 9.9707 -10.5273 9.69727 -10.8496 9.22852 -10.8496 C 8.75977 -10.8496 8.50586 -10.5078 8.50586 -10.0098 L 8.50586 -7.7832 L 6.29883 -7.7832 C 5.78125 -7.7832 5.44922 -7.51953 5.44922 -7.04102 C 5.44922 -6.57227 5.80078 -6.31836 6.29883 -6.31836 L 8.50586 -6.31836 L 8.50586 -4.25781 C 8.50586 -3.75977 8.75977 -3.42773 9.22852 -3.42773 Z"/>
  </g>
  <g id="" transform="matrix(1 0 0 1 281.506 1933)">
   <path d="M 11.709 2.91016 C 17.1582 2.91016 21.6699 -1.60156 21.6699 -7.05078 C 21.6699 -12.4902 17.1484 -17.0117 11.6992 -17.0117 C 6.25977 -17.0117 1.74805 -12.4902 1.74805 -7.05078 C 1.74805 -1.60156 6.26953 2.91016 11.709 2.91016 Z M 11.709 1.25 C 7.09961 1.25 3.41797 -2.44141 3.41797 -7.05078 C 3.41797 -11.6504 7.08984 -15.3516 11.6992 -15.3516 C 16.3086 -15.3516 20 -11.6504 20.0098 -7.05078 C 20.0195 -2.44141 16.3184 1.25 11.709 1.25 Z M 11.6895 -2.41211 C 12.207 -2.41211 12.5195 -2.77344 12.5195 -3.33984 L 12.5195 -6.23047 L 15.5762 -6.23047 C 16.123 -6.23047 16.5039 -6.51367 16.5039 -7.03125 C 16.5039 -7.55859 16.1426 -7.86133 15.5762 -7.86133 L 12.5195 -7.86133 L 12.5195 -10.9277 C 12.5195 -11.5039 12.207 -11.8555 11.6895 -11.8555 C 11.1719 -11.8555 10.8789 -11.4844 10.8789 -10.9277 L 10.8789 -7.86133 L 7.83203 -7.86133 C 7.26562 -7.86133 6.89453 -7.55859 6.89453 -7.03125 C 6.89453 -6.51367 7.28516 -6.23047 7.83203 -6.23047 L 10.8789 -6.23047 L 10.8789 -3.33984 C 10.8789 -2.79297 11.1719 -2.41211 11.6895 -2.41211 Z"/>
  </g>
  <g id="" transform="matrix(1 0 0 1 304.924 1933)">
   <path d="M 14.9707 5.67383 C 21.9336 5.67383 27.6953 -0.078125 27.6953 -7.04102 C 27.6953 -14.0039 21.9238 -19.7559 14.9609 -19.7559 C 8.00781 -19.7559 2.25586 -14.0039 2.25586 -7.04102 C 2.25586 -0.078125 8.01758 5.67383 14.9707 5.67383 Z M 14.9707 3.85742 C 8.93555 3.85742 4.08203 -1.00586 4.08203 -7.04102 C 4.08203 -13.0762 8.92578 -17.9395 14.9609 -17.9395 C 21.0059 -17.9395 25.8594 -13.0762 25.8691 -7.04102 C 25.8789 -1.00586 21.0156 3.85742 14.9707 3.85742 Z M 14.9512 -1.06445 C 15.5176 -1.06445 15.8691 -1.45508 15.8691 -2.06055 L 15.8691 -6.13281 L 20.1074 -6.13281 C 20.6934 -6.13281 21.1133 -6.46484 21.1133 -7.02148 C 21.1133 -7.59766 20.7227 -7.93945 20.1074 -7.93945 L 15.8691 -7.93945 L 15.8691 -12.1875 C 15.8691 -12.8027 15.5176 -13.1934 14.9512 -13.1934 C 14.3848 -13.1934 14.0625 -12.7832 14.0625 -12.1875 L 14.0625 -7.93945 L 9.83398 -7.93945 C 9.21875 -7.93945 8.80859 -7.59766 8.80859 -7.02148 C 8.80859 -6.46484 9.23828 -6.13281 9.83398 -6.13281 L 14.0625 -6.13281 L 14.0625 -2.06055 C 14.0625 -1.47461 14.3848 -1.06445 14.9512 -1.06445 Z"/>
  </g>
  <text style="stroke:none;fill:black;font-family:-apple-system,&quot;SF Pro Display&quot;,&quot;SF Pro Text&quot;,Helvetica,sans-serif;font-weight:bold;" transform="matrix(1 0 0 1 263 1953)">Design Variations</text>
  <text style="stroke:none;fill:black;font-family:-apple-system,&quot;SF Pro Display&quot;,&quot;SF Pro Text&quot;,Helvetica,sans-serif;" transform="matrix(1 0 0 1 263 1971)">Symbols are supported in up to nine weights and three scales.</text>
  <text style="stroke:none;fill:black;font-family:-apple-system,&quot;SF Pro Display&quot;,&quot;SF Pro Text&quot;,Helvetica,sans-serif;" transform="matrix(1 0 0 1 263 1989)">For optimal layout with text and other symbols, vertically align</text>
  <text style="stroke:none;fill:black;font-family:-apple-system,&quot;SF Pro Display&quot;,&quot;SF Pro Text&quot;,Helvetica,sans-serif;" transform="matrix(1 0 0 1 263 2007)">symbols with the adjacent text.</text>
  <rect height="14" id="" style="fill:#00AEEF;stroke:none;opacity:0.4;" width="3" x="776" y="1919"/>
  <g id="" transform="matrix(1 0 0 1 779 1933)">
   <path d="M 10.5273 0 L 12.373 0 L 7.17773 -14.0918 L 5.43945 -14.0918 L 0.244141 0 L 2.08984 0 L 3.50586 -4.0332 L 9.11133 -4.0332 Z M 6.2793 -11.9531 L 6.33789 -11.9531 L 8.59375 -5.52734 L 4.02344 -5.52734 Z"/>
  </g>
  <rect height="14" id="" style="fill:#00AEEF;stroke:none;opacity:0.4;" width="3" x="791.617" y="1919"/>
  <text style="stroke:none;fill:black;font-family:-apple-system,&quot;SF Pro Display&quot;,&quot;SF Pro Text&quot;,Helvetica,sans-serif;font-weight:bold;" transform="matrix(1 0 0 1 776 1953)">Margins</text>
  <text style="stroke:none;fill:black;font-family:-apple-system,&quot;SF Pro Display&quot;,&quot;SF Pro Text&quot;,Helvetica,sans-serif;" transform="matrix(1 0 0 1 776 1971)">Leading and trailing margins on the left and right side of each symbol</text>
  <text style="stroke:none;fill:black;font-family:-apple-system,&quot;SF Pro Display&quot;,&quot;SF Pro Text&quot;,Helvetica,sans-serif;" transform="matrix(1 0 0 1 776 1989)">can be adjusted by modifying the width of the blue rectangles.</text>
  <text style="stroke:none;fill:black;font-family:-apple-system,&quot;SF Pro Display&quot;,&quot;SF Pro Text&quot;,Helvetica,sans-serif;" transform="matrix(1 0 0 1 776 2007)">Modifications are automatically applied proportionally to all</text>
  <text style="stroke:none;fill:black;font-family:-apple-system,&quot;SF Pro Display&quot;,&quot;SF Pro Text&quot;,Helvetica,sans-serif;" transform="matrix(1 0 0 1 776 2025)">scales and weights.</text>
  <g id="" transform="matrix(1 0 0 1 1289 1933)">
   <path d="M 2.83203 3.11523 L 4.375 4.6582 C 5.22461 5.48828 6.19141 5.41992 7.06055 4.46289 L 17.2754 -6.66016 C 17.7051 -6.36719 18.0957 -6.37695 18.5645 -6.47461 L 19.6094 -6.68945 L 20.3027 -5.99609 L 20.2539 -5.47852 C 20.1855 -4.95117 20.3516 -4.53125 20.8496 -4.0332 L 21.6602 -3.22266 C 22.168 -2.71484 22.8223 -2.68555 23.3008 -3.16406 L 26.5527 -6.41602 C 27.0312 -6.89453 27.0117 -7.54883 26.5039 -8.05664 L 25.6836 -8.87695 C 25.1855 -9.375 24.7754 -9.55078 24.2383 -9.47266 L 23.7109 -9.41406 L 23.0566 -10.0781 L 23.3398 -11.2207 C 23.4863 -11.7871 23.3398 -12.2559 22.7148 -12.8613 L 20.3027 -15.2539 C 16.7578 -18.7793 12.2266 -18.6719 9.11133 -15.5371 C 8.69141 -15.1074 8.64258 -14.5215 8.91602 -14.0918 C 9.15039 -13.7207 9.62891 -13.4961 10.2734 -13.6621 C 11.7871 -14.043 13.3008 -13.9258 14.7852 -12.9199 L 14.1602 -11.3379 C 13.9258 -10.752 13.9453 -10.2734 14.1797 -9.83398 L 3.01758 0.439453 C 2.08008 1.30859 1.97266 2.25586 2.83203 3.11523 Z M 10.6738 -15.1465 C 13.3398 -17.1387 16.6504 -16.8262 19.0527 -14.4141 L 21.6797 -11.8066 C 21.9141 -11.5723 21.9434 -11.3867 21.8848 -11.0938 L 21.5039 -9.53125 L 23.0762 -7.95898 L 24.043 -8.04688 C 24.3262 -8.07617 24.4141 -8.05664 24.6387 -7.83203 L 25.2637 -7.20703 L 22.5098 -4.46289 L 21.8848 -5.07812 C 21.6602 -5.30273 21.6406 -5.40039 21.6699 -5.68359 L 21.7578 -6.64062 L 20.1953 -8.20312 L 18.5742 -7.89062 C 18.291 -7.83203 18.1445 -7.83203 17.9102 -8.07617 L 15.7324 -10.2539 C 15.5078 -10.4883 15.4785 -10.625 15.6055 -10.9473 L 16.5527 -13.2227 C 14.9512 -14.7559 12.8418 -15.6055 10.8008 -14.9512 C 10.7129 -14.9219 10.6445 -14.9414 10.6152 -14.9805 C 10.5859 -15.0293 10.5859 -15.0781 10.6738 -15.1465 Z M 4.10156 2.41211 C 3.61328 1.91406 3.78906 1.61133 4.12109 1.30859 L 15.0781 -8.80859 L 16.3086 -7.57812 L 6.15234 3.34961 C 5.84961 3.68164 5.46875 3.7793 5.06836 3.37891 Z"/>
  </g>
  <text style="stroke:none;fill:black;font-family:-apple-system,&quot;SF Pro Display&quot;,&quot;SF Pro Text&quot;,Helvetica,sans-serif;font-weight:bold;" transform="matrix(1 0 0 1 1289 1953)">Exporting</text>
  <text style="stroke:none;fill:black;font-family:-apple-system,&quot;SF Pro Display&quot;,&quot;SF Pro Text&quot;,Helvetica,sans-serif;" transform="matrix(1 0 0 1 1289 1971)">Symbols should be outlined when exporting to ensure the</text>
  <text style="stroke:none;fill:black;font-family:-apple-system,&quot;SF Pro Display&quot;,&quot;SF Pro Text&quot;,Helvetica,sans-serif;" transform="matrix(1 0 0 1 1289 1989)">design is preserved when submitting to Xcode.</text>
  <text id="template-version" style="stroke:none;fill:black;font-family:-apple-system,&quot;SF Pro Display&quot;,&quot;SF Pro Text&quot;,Helvetica,sans-serif;text-anchor:end;" transform="matrix(1 0 0 1 3036 1933)">Template v.1.0</text>
  <text style="stroke:none;fill:black;font-family:-apple-system,&quot;SF Pro Display&quot;,&quot;SF Pro Text&quot;,Helvetica,sans-serif;text-anchor:end;" transform="matrix(1 0 0 1 3036 1951)">Generated from backward.fill</text>
  <text style="stroke:none;fill:black;font-family:-apple-system,&quot;SF Pro Display&quot;,&quot;SF Pro Text&quot;,Helvetica,sans-serif;text-anchor:end;" transform="matrix(1 0 0 1 3036 1969)">Typeset at 100 points</text>
  <text style="stroke:none;fill:black;font-family:-apple-system,&quot;SF Pro Display&quot;,&quot;SF Pro Text&quot;,Helvetica,sans-serif;" transform="matrix(1 0 0 1 263 726)">Small</text>
  <text style="stroke:none;fill:black;font-family:-apple-system,&quot;SF Pro Display&quot;,&quot;SF Pro Text&quot;,Helvetica,sans-serif;" transform="matrix(1 0 0 1 263 1156)">Medium</text>
  <text style="stroke:none;fill:black;font-family:-apple-system,&quot;SF Pro Display&quot;,&quot;SF Pro Text&quot;,Helvetica,sans-serif;" transform="matrix(1 0 0 1 263 1586)">Large</text>
 </g>
 <g id="Guides">
  <g id="H-reference" style="fill:#27AAE1;stroke:none;" transform="matrix(1 0 0 1 339 696)">
   <path d="M 54.9316 0 L 57.666 0 L 30.5664 -70.459 L 28.0762 -70.459 L 0.976562 0 L 3.66211 0 L 12.9395 -24.4629 L 45.7031 -24.4629 Z M 29.1992 -67.0898 L 29.4434 -67.0898 L 44.8242 -26.709 L 13.8184 -26.709 Z"/>
  </g>
  <line id="Baseline-S" style="fill:none;stroke:#27AAE1;opacity:1;stroke-width:0.577;" x1="263" x2="3036" y1="696" y2="696"/>
  <line id="Capline-S" style="fill:none;stroke:#27AAE1;opacity:1;stroke-width:0.577;" x1="263" x2="3036" y1="625.541" y2="625.541"/>
  <g id="H-reference" style="fill:#27AAE1;stroke:none;" transform="matrix(1 0 0 1 339 1126)">
   <path d="M 54.9316 0 L 57.666 0 L 30.5664 -70.459 L 28.0762 -70.459 L 0.976562 0 L 3.66211 0 L 12.9395 -24.4629 L 45.7031 -24.4629 Z M 29.1992 -67.0898 L 29.4434 -67.0898 L 44.8242 -26.709 L 13.8184 -26.709 Z"/>
  </g>
  <line id="Baseline-M" style="fill:none;stroke:#27AAE1;opacity:1;stroke-width:0.577;" x1="263" x2="3036" y1="1126" y2="1126"/>
  <line id="Capline-M" style="fill:none;stroke:#27AAE1;opacity:1;stroke-width:0.577;" x1="263" x2="3036" y1="1055.54" y2="1055.54"/>
  <g id="H-reference" style="fill:#27AAE1;stroke:none;" transform="matrix(1 0 0 1 339 1556)">
   <path d="M 54.9316 0 L 57.666 0 L 30.5664 -70.459 L 28.0762 -70.459 L 0.976562 0 L 3.66211 0 L 12.9395 -24.4629 L 45.7031 -24.4629 Z M 29.1992 -67.0898 L 29.4434 -67.0898 L 44.8242 -26.709 L 13.8184 -26.709 Z"/>
  </g>
  <line id="Baseline-L" style="fill:none;stroke:#27AAE1;opacity:1;stroke-width:0.577;" x1="263" x2="3036" y1="1556" y2="1556"/>
  <line id="Capline-L" style="fill:none;stroke:#27AAE1;opacity:1;stroke-width:0.577;" x1="263" x2="3036" y1="1485.54" y2="1485.54"/>
  <rect height="119.336" id="left-margin" style="fill:#00AEEF;stroke:none;opacity:0.4;" width="1.26953" x="1375.77" y="1030.79"/>
  <rect height="119.336" id="right-margin" style="fill:#00AEEF;stroke:none;opacity:0.4;" width="12.4512" x="1511.47" y="1030.79"/>
 </g>
 <g id="Symbols">
  <g id="Black-L" transform="matrix(1 0 0 1 2825.76 1556)">
   <path d="M 86.8164 18.7012 C 94.2383 18.7012 100.537 13.1348 100.537 3.41797 L 100.537 -33.1055 C 101.611 -28.4668 105.225 -25.0488 109.961 -22.2656 L 175.488 16.0156 C 178.809 17.9199 181.982 18.7012 185.449 18.7012 C 192.871 18.7012 199.17 13.1348 199.17 3.41797 L 199.17 -75.293 C 199.17 -85.1074 193.018 -90.625 185.547 -90.625 C 182.031 -90.625 178.857 -89.7949 175.488 -87.8906 L 109.961 -49.6582 C 105.078 -46.7773 101.611 -43.6035 100.537 -39.0137 L 100.537 -75.293 C 100.537 -85.1074 94.3848 -90.625 86.9141 -90.625 C 83.3984 -90.625 80.2246 -89.7949 76.9043 -87.8906 L 11.377 -49.6582 C 5.46875 -46.1914 1.61133 -42.2852 1.61133 -36.084 C 1.61133 -29.834 5.61523 -25.5859 11.377 -22.2656 L 76.9043 16.0156 C 80.1758 17.9199 83.3496 18.7012 86.8164 18.7012 Z"/>
  </g>
  <g id="Heavy-L" transform="matrix(1 0 0 1 2532.25 1556)">
   <path d="M 84.8633 17.4805 C 91.6504 17.4805 97.3633 12.4023 97.3633 3.41797 L 97.3633 -33.0566 C 98.3398 -28.9551 101.465 -25.8301 105.811 -23.291 L 171.143 14.8926 C 174.219 16.6992 177.1 17.4805 180.322 17.4805 C 187.061 17.4805 192.822 12.4023 192.822 3.41797 L 192.822 -74.9512 C 192.822 -83.9844 187.158 -89.0137 180.42 -89.0137 C 177.148 -89.0137 174.268 -88.1836 171.143 -86.4258 L 105.811 -48.1934 C 101.367 -45.6055 98.3398 -42.6758 97.3633 -38.6719 L 97.3633 -74.9512 C 97.3633 -83.9844 91.748 -89.0137 84.9609 -89.0137 C 81.7383 -89.0137 78.8086 -88.1836 75.6836 -86.4258 L 10.4004 -48.1934 C 4.98047 -45.0195 1.61133 -41.4062 1.61133 -35.8398 C 1.61133 -30.3223 5.07812 -26.416 10.4004 -23.291 L 75.6836 14.8926 C 78.7598 16.6992 81.6895 17.4805 84.8633 17.4805 Z"/>
  </g>
  <g id="Bold-L" transform="matrix(1 0 0 1 2239.1 1556)">
   <path d="M 82.7148 16.1133 C 88.7207 16.1133 93.7988 11.6211 93.7988 3.41797 L 93.7988 -32.959 C 94.6777 -29.4922 97.3145 -26.7578 101.172 -24.4629 L 166.211 13.6719 C 169.043 15.2832 171.68 16.1133 174.561 16.1133 C 180.566 16.1133 185.645 11.6211 185.645 3.41797 L 185.645 -74.5117 C 185.645 -82.7148 180.615 -87.207 174.658 -87.207 C 171.68 -87.207 169.092 -86.377 166.211 -84.7656 L 101.172 -46.6309 C 97.2656 -44.2871 94.6777 -41.6992 93.7988 -38.2812 L 93.7988 -74.5117 C 93.7988 -82.7148 88.7695 -87.207 82.7637 -87.207 C 79.834 -87.207 77.1973 -86.377 74.3652 -84.7656 L 9.32617 -46.6309 C 4.39453 -43.7012 1.61133 -40.3809 1.61133 -35.5957 C 1.61133 -30.8105 4.49219 -27.2949 9.32617 -24.4629 L 74.3652 13.6719 C 77.1484 15.2832 79.7852 16.1133 82.7148 16.1133 Z"/>
  </g>
  <g id="Semibold-L" transform="matrix(1 0 0 1 1944.85 1556)">
   <path d="M 81.2012 15.1855 C 86.6699 15.1855 91.3574 11.0352 91.3574 3.41797 L 91.3574 -32.9102 C 92.1387 -29.834 94.4336 -27.3438 97.998 -25.2441 L 162.842 12.793 C 165.479 14.3555 167.92 15.1855 170.605 15.1855 C 176.074 15.1855 180.762 11.0352 180.762 3.41797 L 180.762 -74.2188 C 180.762 -81.8359 176.123 -85.9375 170.654 -85.9375 C 167.92 -85.9375 165.527 -85.1562 162.842 -83.5938 L 97.998 -45.5078 C 94.3848 -43.4082 92.1387 -41.0156 91.3574 -37.9883 L 91.3574 -74.2188 C 91.3574 -81.8359 86.7188 -85.9375 81.25 -85.9375 C 78.5156 -85.9375 76.123 -85.1562 73.4375 -83.5938 L 8.59375 -45.5078 C 4.00391 -42.8223 1.61133 -39.6973 1.61133 -35.4492 C 1.61133 -31.2012 4.10156 -27.9297 8.59375 -25.2441 L 73.4375 12.793 C 76.0742 14.3555 78.5156 15.1855 81.2012 15.1855 Z"/>
  </g>
  <g id="Medium-L" transform="matrix(1 0 0 1 1650 1556)">
   <path d="M 80.0781 14.4531 C 85.1562 14.4531 89.4531 10.5957 89.4531 3.41797 L 89.4531 -32.8613 C 90.2344 -30.127 92.2852 -27.832 95.5566 -25.8789 L 160.303 12.1582 C 162.793 13.623 165.039 14.4531 167.627 14.4531 C 172.705 14.4531 177.002 10.5957 177.002 3.41797 L 177.002 -74.0234 C 177.002 -81.2012 172.705 -85.0098 167.627 -85.0098 C 165.088 -85.0098 162.793 -84.1797 160.303 -82.7148 L 95.5566 -44.6777 C 92.2363 -42.7246 90.2344 -40.4785 89.4531 -37.793 L 89.4531 -74.0234 C 89.4531 -81.2012 85.1562 -85.0098 80.127 -85.0098 C 77.5391 -85.0098 75.293 -84.1797 72.7539 -82.7148 L 8.00781 -44.6777 C 3.71094 -42.1387 1.61133 -39.209 1.61133 -35.3027 C 1.61133 -31.4453 3.80859 -28.3691 8.00781 -25.8789 L 72.7539 12.1582 C 75.2441 13.623 77.4902 14.4531 80.0781 14.4531 Z"/>
  </g>
  <g id="Regular-L" transform="matrix(1 0 0 1 1355.73 1556)">
   <path d="M 78.6133 13.5254 C 83.1543 13.5254 87.0605 10.0586 87.0605 3.41797 L 87.0605 -32.8125 C 87.6953 -30.4688 89.4531 -28.418 92.4316 -26.6602 L 156.934 11.3281 C 159.277 12.6465 161.328 13.5254 163.721 13.5254 C 168.262 13.5254 172.168 10.0586 172.168 3.41797 L 172.168 -73.7305 C 172.168 -80.3711 168.262 -83.7891 163.721 -83.7891 C 161.328 -83.7891 159.277 -82.959 156.934 -81.5918 L 92.4316 -43.6035 C 89.4531 -41.8457 87.6953 -39.8438 87.0605 -37.5 L 87.0605 -73.7305 C 87.0605 -80.3711 83.1543 -83.7891 78.6133 -83.7891 C 76.2207 -83.7891 74.1699 -82.959 71.8262 -81.5918 L 7.27539 -43.6035 C 3.36914 -41.2598 1.61133 -38.5254 1.61133 -35.1562 C 1.61133 -31.7871 3.36914 -29.0039 7.27539 -26.6602 L 71.8262 11.3281 C 74.1699 12.6465 76.2207 13.5254 78.6133 13.5254 Z"/>
  </g>
  <g id="Light-L" transform="matrix(1 0 0 1 1061.02 1556)">
   <path d="M 77.4902 12.3535 C 81.4453 12.3535 85.0586 9.375 85.0586 3.32031 L 85.0586 -32.9102 C 85.6445 -30.9082 87.1582 -29.248 89.502 -27.8809 L 154.492 10.4004 C 156.445 11.5234 158.496 12.3535 160.596 12.3535 C 164.6 12.3535 168.164 9.375 168.164 3.32031 L 168.164 -73.5352 C 168.164 -79.5898 164.6 -82.6172 160.596 -82.6172 C 158.496 -82.6172 156.494 -81.7383 154.492 -80.6152 L 89.502 -42.334 C 87.1094 -40.9668 85.6445 -39.3066 85.0586 -37.3535 L 85.0586 -73.5352 C 85.0586 -79.5898 81.4453 -82.6172 77.4902 -82.6172 C 75.3418 -82.6172 73.3887 -81.7383 71.3867 -80.6152 L 6.34766 -42.334 C 3.17383 -40.4297 1.61133 -38.1348 1.61133 -35.1562 C 1.61133 -32.1289 3.22266 -29.7363 6.34766 -27.8809 L 71.3867 10.4004 C 73.3398 11.5234 75.3418 12.3535 77.4902 12.3535 Z"/>
  </g>
  <g id="Thin-L" transform="matrix(1 0 0 1 766.945 1556)">
   <path d="M 75.9766 10.8887 C 79.248 10.8887 82.4219 8.49609 82.4219 3.125 L 82.4219 -33.1055 C 82.9102 -31.5918 84.082 -30.3711 85.6445 -29.4434 L 151.27 9.13086 C 152.734 10.0098 154.688 10.8887 156.445 10.8887 C 159.717 10.8887 162.891 8.49609 162.891 3.125 L 162.891 -73.291 C 162.891 -78.6133 159.717 -81.0547 156.445 -81.0547 C 154.688 -81.0547 152.832 -80.1758 151.27 -79.2969 L 85.6445 -40.6738 C 84.0332 -39.7461 82.9102 -38.623 82.4219 -37.1582 L 82.4219 -73.291 C 82.4219 -78.6133 79.248 -81.0547 75.9766 -81.0547 C 74.2188 -81.0547 72.3145 -80.1758 70.752 -79.2969 L 5.12695 -40.6738 C 2.88086 -39.3555 1.61133 -37.6465 1.61133 -35.1074 C 1.61133 -32.5684 2.97852 -30.7617 5.12695 -29.4434 L 70.752 9.13086 C 72.2656 10.0098 74.2188 10.8887 75.9766 10.8887 Z"/>
  </g>
  <g id="Ultralight-L" transform="matrix(1 0 0 1 471.576 1556)">
   <path d="M 75.2441 10.1074 C 78.125 10.1074 81.0547 8.00781 81.0547 3.02734 L 81.0547 -33.2031 C 81.543 -31.9336 82.4707 -30.957 83.6426 -30.2734 L 149.561 8.49609 C 150.83 9.22852 152.734 10.1074 154.346 10.1074 C 157.227 10.1074 160.156 8.00781 160.156 3.02734 L 160.156 -73.1445 C 160.156 -78.125 157.227 -80.2246 154.346 -80.2246 C 152.734 -80.2246 150.928 -79.3457 149.561 -78.6133 L 83.6426 -39.8438 C 82.4219 -39.1113 81.4941 -38.2324 81.0547 -37.0117 L 81.0547 -73.1445 C 81.0547 -78.125 78.125 -80.2246 75.2441 -80.2246 C 73.6328 -80.2246 71.7773 -79.3457 70.459 -78.6133 L 4.54102 -39.8438 C 2.73438 -38.7695 1.61133 -37.4023 1.61133 -35.1074 C 1.61133 -32.8125 2.83203 -31.25 4.54102 -30.2734 L 70.459 8.49609 C 71.7285 9.22852 73.6328 10.1074 75.2441 10.1074 Z"/>
  </g>
  <g id="Black-M" transform="matrix(1 0 0 1 2846.75 1126)">
   <path d="M 69.2871 7.66602 C 75.6836 7.66602 81.1523 2.88086 81.1523 -5.37109 L 81.1523 -33.7402 C 82.0801 -29.541 85.3516 -26.709 89.2578 -24.4141 L 140.625 5.46875 C 143.311 7.03125 146.045 7.66602 148.926 7.66602 C 155.371 7.66602 160.84 2.88086 160.84 -5.37109 L 160.84 -66.6992 C 160.84 -75 155.469 -79.6875 149.072 -79.6875 C 146.143 -79.6875 143.359 -79.0527 140.625 -77.4902 L 89.2578 -47.6562 C 85.2051 -45.2637 82.0312 -42.6758 81.1523 -38.5742 L 81.1523 -66.6992 C 81.1523 -75 75.8301 -79.6875 69.4336 -79.6875 C 66.4551 -79.6875 63.6719 -79.0527 60.9375 -77.4902 L 9.61914 -47.6562 C 4.78516 -44.8242 1.26953 -41.6992 1.26953 -36.1328 C 1.26953 -30.6152 4.98047 -27.0996 9.61914 -24.4141 L 60.9375 5.46875 C 63.623 7.03125 66.4062 7.66602 69.2871 7.66602 Z"/>
  </g>
  <g id="Heavy-M" transform="matrix(1 0 0 1 2553 1126)">
   <path d="M 67.4805 6.5918 C 73.2422 6.5918 78.1738 2.24609 78.1738 -5.32227 L 78.1738 -33.6426 C 79.0039 -29.9805 81.8359 -27.3438 85.498 -25.2441 L 136.475 4.49219 C 138.965 5.95703 141.504 6.5918 144.141 6.5918 C 149.951 6.5918 154.883 2.24609 154.883 -5.32227 L 154.883 -66.3574 C 154.883 -73.9746 150.049 -78.2227 144.238 -78.2227 C 141.553 -78.2227 139.014 -77.6367 136.475 -76.1719 L 85.498 -46.4355 C 81.7383 -44.2383 79.0039 -41.7969 78.1738 -38.2324 L 78.1738 -66.3574 C 78.1738 -73.9746 73.3398 -78.2227 67.5781 -78.2227 C 64.8438 -78.2227 62.3535 -77.6367 59.7656 -76.1719 L 8.78906 -46.4355 C 4.29688 -43.7988 1.26953 -40.8203 1.26953 -35.9375 C 1.26953 -31.0547 4.44336 -27.7832 8.78906 -25.2441 L 59.7656 4.49219 C 62.3047 5.95703 64.7949 6.5918 67.4805 6.5918 Z"/>
  </g>
  <g id="Bold-M" transform="matrix(1 0 0 1 2259.61 1126)">
   <path d="M 65.4297 5.41992 C 70.5566 5.41992 74.8535 1.5625 74.8535 -5.27344 L 74.8535 -33.5449 C 75.6348 -30.4688 77.9785 -28.125 81.25 -26.1719 L 131.836 3.41797 C 134.18 4.78516 136.377 5.41992 138.818 5.41992 C 143.945 5.41992 148.242 1.5625 148.242 -5.27344 L 148.242 -65.918 C 148.242 -72.8027 143.994 -76.6113 138.867 -76.6113 C 136.377 -76.6113 134.18 -75.9766 131.836 -74.6094 L 81.25 -45.0195 C 77.8809 -43.0664 75.5859 -40.8691 74.8535 -37.8418 L 74.8535 -65.918 C 74.8535 -72.8027 70.6055 -76.6113 65.4785 -76.6113 C 63.0371 -76.6113 60.8398 -75.9766 58.4473 -74.6094 L 7.91016 -45.0195 C 3.75977 -42.627 1.26953 -39.8438 1.26953 -35.6934 C 1.26953 -31.4941 3.85742 -28.5156 7.91016 -26.1719 L 58.4473 3.41797 C 60.791 4.78516 62.9883 5.41992 65.4297 5.41992 Z"/>
  </g>
  <g id="Semibold-M" transform="matrix(1 0 0 1 1965.19 1126)">
   <path d="M 64.0137 4.58984 C 68.6523 4.58984 72.6074 1.07422 72.6074 -5.22461 L 72.6074 -33.4473 C 73.2422 -30.7617 75.293 -28.6133 78.3691 -26.8066 L 128.613 2.68555 C 130.811 3.95508 132.812 4.58984 135.107 4.58984 C 139.746 4.58984 143.701 1.07422 143.701 -5.22461 L 143.701 -65.6738 C 143.701 -72.0215 139.795 -75.4883 135.156 -75.4883 C 132.861 -75.4883 130.859 -74.8535 128.613 -73.584 L 78.3691 -44.0918 C 75.2441 -42.2363 73.2422 -40.1855 72.6074 -37.5488 L 72.6074 -65.6738 C 72.6074 -72.0215 68.7012 -75.4883 64.0625 -75.4883 C 61.7676 -75.4883 59.7656 -74.8535 57.5195 -73.584 L 7.27539 -44.0918 C 3.36914 -41.7969 1.26953 -39.1602 1.26953 -35.498 C 1.26953 -31.8359 3.4668 -29.0527 7.27539 -26.8066 L 57.5195 2.68555 C 59.7168 3.95508 61.7188 4.58984 64.0137 4.58984 Z"/>
  </g>
  <g id="Medium-M" transform="matrix(1 0 0 1 1670.21 1126)">
   <path d="M 62.9395 4.00391 C 67.2363 4.00391 70.8496 0.732422 70.8496 -5.22461 L 70.8496 -33.3984 C 71.4844 -31.0059 73.2422 -29.0039 76.1719 -27.2949 L 126.221 2.09961 C 128.32 3.36914 130.176 4.00391 132.324 4.00391 C 136.621 4.00391 140.234 0.732422 140.234 -5.22461 L 140.234 -65.4297 C 140.234 -71.3867 136.621 -74.6582 132.324 -74.6582 C 130.176 -74.6582 128.32 -74.0234 126.221 -72.7539 L 76.1719 -43.3594 C 73.2422 -41.6504 71.4844 -39.6973 70.8496 -37.3535 L 70.8496 -65.4297 C 70.8496 -71.3867 67.2852 -74.6582 62.9883 -74.6582 C 60.791 -74.6582 58.9844 -74.0234 56.8359 -72.7539 L 6.78711 -43.3594 C 3.07617 -41.1621 1.26953 -38.6719 1.26953 -35.3516 C 1.26953 -32.0801 3.125 -29.4434 6.78711 -27.2949 L 56.8359 2.09961 C 58.9355 3.36914 60.791 4.00391 62.9395 4.00391 Z"/>
  </g>
  <g id="Regular-M" transform="matrix(1 0 0 1 1375.77 1126)">
   <path d="M 61.5723 3.17383 C 65.3809 3.17383 68.6035 0.244141 68.6035 -5.17578 L 68.6035 -33.3008 C 69.1406 -31.25 70.6543 -29.4922 73.291 -27.9297 L 123.047 1.36719 C 125 2.53906 126.66 3.17383 128.662 3.17383 C 132.471 3.17383 135.693 0.244141 135.693 -5.17578 L 135.693 -65.1855 C 135.693 -70.6055 132.471 -73.5352 128.662 -73.5352 C 126.66 -73.5352 125.049 -72.9004 123.047 -71.7285 L 73.291 -42.4316 C 70.6055 -40.8691 69.1406 -39.1113 68.6035 -37.0605 L 68.6035 -65.1855 C 68.6035 -70.6055 65.3809 -73.5352 61.5723 -73.5352 C 59.5703 -73.5352 57.959 -72.9004 55.957 -71.7285 L 6.20117 -42.4316 C 2.73438 -40.3809 1.26953 -37.9883 1.26953 -35.2051 C 1.26953 -32.373 2.73438 -29.9805 6.20117 -27.9297 L 55.957 1.36719 C 57.9102 2.53906 59.5703 3.17383 61.5723 3.17383 Z"/>
  </g>
  <g id="Light-M" transform="matrix(1 0 0 1 1080.84 1126)">
   <path d="M 60.5469 2.14844 C 63.8672 2.14844 66.7969 -0.341797 66.7969 -5.32227 L 66.7969 -33.3984 C 67.2852 -31.6895 68.5547 -30.2246 70.6543 -29.0039 L 120.85 0.537109 C 122.51 1.51367 124.121 2.14844 125.879 2.14844 C 129.199 2.14844 132.129 -0.341797 132.129 -5.32227 L 132.129 -64.9902 C 132.129 -69.9707 129.199 -72.4609 125.879 -72.4609 C 124.121 -72.4609 122.559 -71.8262 120.85 -70.8496 L 70.6543 -41.3086 C 68.5547 -40.0391 67.2852 -38.623 66.7969 -36.9629 L 66.7969 -64.9902 C 66.7969 -69.9707 63.8672 -72.4609 60.5469 -72.4609 C 58.7891 -72.4609 57.2266 -71.8262 55.5176 -70.8496 L 5.37109 -41.3086 C 2.53906 -39.6484 1.26953 -37.6465 1.26953 -35.1562 C 1.26953 -32.666 2.58789 -30.6152 5.37109 -29.0039 L 55.5176 0.537109 C 57.1777 1.51367 58.7891 2.14844 60.5469 2.14844 Z"/>
  </g>
  <g id="Thin-M" transform="matrix(1 0 0 1 786.5 1126)">
   <path d="M 59.2285 0.830078 C 61.9141 0.830078 64.4531 -1.17188 64.4531 -5.46875 L 64.4531 -33.5449 C 64.8438 -32.2754 65.8203 -31.2012 67.1875 -30.4199 L 117.92 -0.585938 C 119.189 0.146484 120.703 0.830078 122.168 0.830078 C 124.854 0.830078 127.393 -1.17188 127.393 -5.46875 L 127.393 -64.7949 C 127.393 -69.0918 124.854 -71.0938 122.168 -71.0938 C 120.703 -71.0938 119.238 -70.4102 117.92 -69.6777 L 67.1875 -39.8438 C 65.7715 -38.9648 64.8438 -37.9883 64.4531 -36.7676 L 64.4531 -64.7949 C 64.4531 -69.0918 61.9141 -71.0938 59.2285 -71.0938 C 57.7637 -71.0938 56.2988 -70.4102 54.9805 -69.6777 L 4.24805 -39.8438 C 2.29492 -38.6719 1.26953 -37.207 1.26953 -35.1562 C 1.26953 -33.0566 2.34375 -31.543 4.24805 -30.4199 L 54.9805 -0.585938 C 56.25 0.146484 57.7637 0.830078 59.2285 0.830078 Z"/>
  </g>
  <g id="Ultralight-M" transform="matrix(1 0 0 1 491.01 1126)">
   <path d="M 58.5449 0.146484 C 60.8887 0.146484 63.2324 -1.5625 63.2324 -5.51758 L 63.2324 -33.6426 C 63.623 -32.5684 64.4043 -31.7383 65.4297 -31.1523 L 116.406 -1.17188 C 117.48 -0.537109 118.945 0.146484 120.264 0.146484 C 122.607 0.146484 124.951 -1.5625 124.951 -5.51758 L 124.951 -64.6484 C 124.951 -68.6523 122.607 -70.3613 120.264 -70.3613 C 118.945 -70.3613 117.529 -69.6777 116.406 -69.043 L 65.4297 -39.0625 C 64.3555 -38.4277 63.5742 -37.6953 63.2324 -36.6699 L 63.2324 -64.6484 C 63.2324 -68.6523 60.8887 -70.3613 58.5449 -70.3613 C 57.2266 -70.3613 55.8105 -69.6777 54.6875 -69.043 L 3.71094 -39.0625 C 2.14844 -38.1348 1.26953 -37.0117 1.26953 -35.1562 C 1.26953 -33.3008 2.24609 -31.9824 3.71094 -31.1523 L 54.6875 -1.17188 C 55.7617 -0.537109 57.2266 0.146484 58.5449 0.146484 Z"/>
  </g>
  <g id="Black-S" transform="matrix(1 0 0 1 2865.72 696)">
   <path d="M 54.1504 -1.70898 C 59.1309 -1.70898 63.3789 -5.41992 63.3789 -11.8164 L 63.3789 -34.082 C 64.0625 -30.8105 66.6016 -28.5645 69.6777 -26.8066 L 109.863 -3.41797 C 111.963 -2.19727 114.111 -1.70898 116.357 -1.70898 C 121.338 -1.70898 125.586 -5.41992 125.586 -11.8164 L 125.586 -59.8633 C 125.586 -66.3086 121.436 -69.9707 116.455 -69.9707 C 114.16 -69.9707 112.012 -69.4824 109.863 -68.2617 L 69.6777 -44.873 C 66.5039 -43.0176 64.0625 -41.0156 63.3789 -37.8418 L 63.3789 -59.8633 C 63.3789 -66.3086 59.2285 -69.9707 54.248 -69.9707 C 51.9531 -69.9707 49.8047 -69.4824 47.6562 -68.2617 L 7.4707 -44.873 C 3.71094 -42.6758 0.976562 -40.2344 0.976562 -35.9375 C 0.976562 -31.6406 3.85742 -28.9062 7.4707 -26.8066 L 47.6562 -3.41797 C 49.7559 -2.19727 51.9043 -1.70898 54.1504 -1.70898 Z"/>
  </g>
  <g id="Heavy-S" transform="matrix(1 0 0 1 2571.09 696)">
   <path d="M 52.8809 -2.39258 C 57.4219 -2.39258 61.3281 -5.81055 61.3281 -11.7676 L 61.3281 -33.9844 C 61.9629 -31.1035 64.1602 -29.0039 67.0898 -27.2949 L 106.934 -4.05273 C 108.936 -2.88086 110.889 -2.39258 112.988 -2.39258 C 117.578 -2.39258 121.436 -5.81055 121.436 -11.7676 L 121.436 -59.6191 C 121.436 -65.5762 117.627 -68.9941 113.086 -68.9941 C 110.938 -68.9941 108.984 -68.5059 106.934 -67.334 L 67.0898 -44.043 C 64.1113 -42.334 61.9629 -40.3809 61.3281 -37.5977 L 61.3281 -59.6191 C 61.3281 -65.5762 57.5195 -68.9941 52.9297 -68.9941 C 50.7812 -68.9941 48.8281 -68.5059 46.7773 -67.334 L 6.93359 -44.043 C 3.36914 -41.9434 0.976562 -39.5996 0.976562 -35.7422 C 0.976562 -31.9336 3.4668 -29.3457 6.93359 -27.2949 L 46.7773 -4.05273 C 48.8281 -2.88086 50.7812 -2.39258 52.8809 -2.39258 Z"/>
  </g>
  <g id="Bold-S" transform="matrix(1 0 0 1 2276.7 696)">
   <path d="M 51.416 -3.17383 C 55.5664 -3.17383 58.9844 -6.25 58.9844 -11.7188 L 58.9844 -33.8867 C 59.5703 -31.3965 61.4746 -29.4922 64.1602 -27.8809 L 103.662 -4.78516 C 105.566 -3.66211 107.275 -3.17383 109.277 -3.17383 C 113.379 -3.17383 116.797 -6.25 116.797 -11.7188 L 116.797 -59.3262 C 116.797 -64.7949 113.428 -67.8711 109.326 -67.8711 C 107.324 -67.8711 105.615 -67.3828 103.662 -66.2598 L 64.1602 -43.1641 C 61.4258 -41.5039 59.5703 -39.6973 58.9844 -37.3047 L 58.9844 -59.3262 C 58.9844 -64.7949 55.6152 -67.8711 51.4648 -67.8711 C 49.5117 -67.8711 47.7539 -67.3828 45.8496 -66.2598 L 6.34766 -43.1641 C 2.97852 -41.1621 0.976562 -38.8672 0.976562 -35.5469 C 0.976562 -32.2266 3.02734 -29.834 6.34766 -27.8809 L 45.8496 -4.78516 C 47.7539 -3.66211 49.4629 -3.17383 51.416 -3.17383 Z"/>
  </g>
  <g id="Semibold-S" transform="matrix(1 0 0 1 1981.57 696)">
   <path d="M 50.4395 -3.71094 C 54.248 -3.71094 57.373 -6.5918 57.373 -11.7188 L 57.373 -33.7891 C 57.959 -31.5918 59.5703 -29.834 62.1582 -28.2715 L 101.416 -5.27344 C 103.223 -4.19922 104.834 -3.71094 106.689 -3.71094 C 110.449 -3.71094 113.623 -6.5918 113.623 -11.7188 L 113.623 -59.1309 C 113.623 -64.2578 110.498 -67.0898 106.689 -67.0898 C 104.834 -67.0898 103.271 -66.6016 101.416 -65.5273 L 62.1582 -42.5293 C 59.5703 -40.9668 57.9102 -39.2578 57.373 -37.1094 L 57.373 -59.1309 C 57.373 -64.2578 54.2969 -67.0898 50.4883 -67.0898 C 48.584 -67.0898 47.0215 -66.6016 45.166 -65.5273 L 5.95703 -42.5293 C 2.68555 -40.5762 0.976562 -38.3789 0.976562 -35.4492 C 0.976562 -32.4707 2.73438 -30.1758 5.95703 -28.2715 L 45.166 -5.27344 C 47.0215 -4.19922 48.584 -3.71094 50.4395 -3.71094 Z"/>
  </g>
  <g id="Medium-S" transform="matrix(1 0 0 1 1686.08 696)">
   <path d="M 49.707 -4.10156 C 53.2715 -4.10156 56.2012 -6.83594 56.2012 -11.6699 L 56.2012 -33.7402 C 56.6895 -31.7383 58.1543 -30.0781 60.6445 -28.5645 L 99.707 -5.66406 C 101.465 -4.58984 102.93 -4.10156 104.688 -4.10156 C 108.252 -4.10156 111.182 -6.83594 111.182 -11.6699 L 111.182 -58.9844 C 111.182 -63.8184 108.301 -66.5039 104.736 -66.5039 C 102.93 -66.5039 101.465 -66.0156 99.707 -64.9902 L 60.6445 -42.041 C 58.1543 -40.5762 56.6895 -38.916 56.2012 -36.9629 L 56.2012 -58.9844 C 56.2012 -63.8184 53.2715 -66.5039 49.707 -66.5039 C 47.9492 -66.5039 46.4844 -66.0156 44.6777 -64.9902 L 5.66406 -42.041 C 2.49023 -40.1855 0.976562 -38.0371 0.976562 -35.3516 C 0.976562 -32.6172 2.53906 -30.4199 5.66406 -28.5645 L 44.6777 -5.66406 C 46.4844 -4.58984 47.9004 -4.10156 49.707 -4.10156 Z"/>
  </g>
  <g id="Regular-S" transform="matrix(1 0 0 1 1390.93 696)">
   <path d="M 48.7305 -4.63867 C 51.9531 -4.63867 54.5898 -7.12891 54.5898 -11.6211 L 54.5898 -33.6426 C 55.0781 -31.9336 56.3477 -30.3711 58.6914 -28.9551 L 97.4609 -6.15234 C 99.1699 -5.12695 100.488 -4.63867 102.148 -4.63867 C 105.42 -4.63867 108.057 -7.12891 108.057 -11.6211 L 108.057 -58.7402 C 108.057 -63.2812 105.42 -65.7715 102.148 -65.7715 C 100.488 -65.7715 99.1699 -65.2832 97.4609 -64.2578 L 58.6914 -41.4062 C 56.3477 -40.0391 55.0781 -38.4766 54.5898 -36.7676 L 54.5898 -58.7402 C 54.5898 -63.2812 51.9531 -65.7715 48.7305 -65.7715 C 47.0703 -65.7715 45.752 -65.2832 44.043 -64.2578 L 5.22461 -41.4062 C 2.19727 -39.6484 0.976562 -37.5488 0.976562 -35.2051 C 0.976562 -32.8613 2.19727 -30.7617 5.22461 -28.9551 L 44.043 -6.15234 C 45.752 -5.12695 47.0703 -4.63867 48.7305 -4.63867 Z"/>
  </g>
  <g id="Light-S" transform="matrix(1 0 0 1 1095.81 696)">
   <path d="M 47.8027 -5.56641 C 50.6348 -5.56641 53.0273 -7.66602 53.0273 -11.7188 L 53.0273 -33.7402 C 53.418 -32.2754 54.4922 -31.0059 56.3477 -29.9316 L 95.5078 -6.88477 C 96.9238 -6.05469 98.1934 -5.56641 99.6582 -5.56641 C 102.49 -5.56641 104.883 -7.66602 104.883 -11.7188 L 104.883 -58.5938 C 104.883 -62.6953 102.49 -64.7949 99.6582 -64.7949 C 98.1934 -64.7949 96.9727 -64.3066 95.5078 -63.4766 L 56.3477 -40.4297 C 54.4922 -39.3066 53.418 -38.0859 53.0273 -36.6211 L 53.0273 -58.5938 C 53.0273 -62.6953 50.6348 -64.7949 47.8027 -64.7949 C 46.3379 -64.7949 45.1172 -64.3066 43.6523 -63.4766 L 4.49219 -40.4297 C 2.05078 -38.9648 0.976562 -37.2559 0.976562 -35.2051 C 0.976562 -33.1055 2.05078 -31.3477 4.49219 -29.9316 L 43.6523 -6.88477 C 45.0684 -6.05469 46.3379 -5.56641 47.8027 -5.56641 Z"/>
  </g>
  <g id="Thin-S" transform="matrix(1 0 0 1 801.198 696)">
   <path d="M 46.6309 -6.73828 C 48.877 -6.73828 50.9277 -8.39844 50.9277 -11.8652 L 50.9277 -33.8867 C 51.2695 -32.8125 52.0996 -31.8848 53.3203 -31.2012 L 92.9199 -7.86133 C 93.9941 -7.22656 95.2148 -6.73828 96.3867 -6.73828 C 98.6328 -6.73828 100.684 -8.39844 100.684 -11.8652 L 100.684 -58.4473 C 100.684 -61.9141 98.6328 -63.5742 96.3867 -63.5742 C 95.2148 -63.5742 94.043 -63.0371 92.9199 -62.4512 L 53.3203 -39.1113 C 52.0508 -38.3789 51.2695 -37.5488 50.9277 -36.4746 L 50.9277 -58.4473 C 50.9277 -61.9141 48.877 -63.5742 46.6309 -63.5742 C 45.459 -63.5742 44.2871 -63.0371 43.1641 -62.4512 L 3.56445 -39.1113 C 1.85547 -38.0859 0.976562 -36.8652 0.976562 -35.1562 C 0.976562 -33.4473 1.9043 -32.1777 3.56445 -31.2012 L 43.1641 -7.86133 C 44.2383 -7.22656 45.459 -6.73828 46.6309 -6.73828 Z"/>
  </g>
  <g id="Ultralight-S" transform="matrix(1 0 0 1 505.561 696)">
   <path d="M 46.0449 -7.32422 C 47.9492 -7.32422 49.8535 -8.74023 49.8535 -11.9629 L 49.8535 -33.9355 C 50.1465 -33.0566 50.8301 -32.373 51.709 -31.8359 L 91.6016 -8.39844 C 92.4805 -7.86133 93.6523 -7.32422 94.7266 -7.32422 C 96.6309 -7.32422 98.5352 -8.74023 98.5352 -11.9629 L 98.5352 -58.3008 C 98.5352 -61.5234 96.6309 -62.9395 94.7266 -62.9395 C 93.6523 -62.9395 92.5293 -62.4023 91.6016 -61.9141 L 51.709 -38.4277 C 50.8301 -37.8906 50.1465 -37.2559 49.8535 -36.377 L 49.8535 -58.3008 C 49.8535 -61.5234 47.9492 -62.9395 46.0449 -62.9395 C 44.9707 -62.9395 43.8477 -62.4023 42.9199 -61.9141 L 3.02734 -38.4277 C 1.75781 -37.6465 0.976562 -36.6699 0.976562 -35.1562 C 0.976562 -33.6426 1.75781 -32.5684 3.02734 -31.8359 L 42.9199 -8.39844 C 43.7988 -7.86133 44.9707 -7.32422 46.0449 -7.32422 Z"/>
  </g>
 </g>
</svg>
