<?xml version="1.0" encoding="UTF-8"?>
<!--Generator: Apple Native CoreSVG 123-->
<!DOCTYPE svg
PUBLIC "-//W3C//DTD SVG 1.1//EN"
       "http://www.w3.org/Graphics/SVG/1.1/DTD/svg11.dtd">
<svg version="1.1" xmlns="http://www.w3.org/2000/svg" xmlns:xlink="http://www.w3.org/1999/xlink" width="3300" height="2200">
 <!--glyph: "uni100070.medium", point size: 100.000000, font version: "Version 15.0d7e11", template writer version: "5"-->
 <g id="Notes">
  <rect height="2200" id="artboard" style="fill:white;opacity:1" width="3300" x="0" y="0"/>
  <line id="" style="fill:none;stroke:black;opacity:1;stroke-width:0.5;" x1="263" x2="3036" y1="292" y2="292"/>
  <text style="stroke:none;fill:black;font-family:-apple-system,&quot;SF Pro Display&quot;,&quot;SF Pro Text&quot;,Helvetica,sans-serif;font-weight:bold;" transform="matrix(1 0 0 1 263 322)">Weight/Scale Variations</text>
  <text style="stroke:none;fill:black;font-family:-apple-system,&quot;SF Pro Display&quot;,&quot;SF Pro Text&quot;,Helvetica,sans-serif;text-anchor:middle;" transform="matrix(1 0 0 1 559.711 322)">Ultralight</text>
  <text style="stroke:none;fill:black;font-family:-apple-system,&quot;SF Pro Display&quot;,&quot;SF Pro Text&quot;,Helvetica,sans-serif;text-anchor:middle;" transform="matrix(1 0 0 1 856.422 322)">Thin</text>
  <text style="stroke:none;fill:black;font-family:-apple-system,&quot;SF Pro Display&quot;,&quot;SF Pro Text&quot;,Helvetica,sans-serif;text-anchor:middle;" transform="matrix(1 0 0 1 1153.13 322)">Light</text>
  <text style="stroke:none;fill:black;font-family:-apple-system,&quot;SF Pro Display&quot;,&quot;SF Pro Text&quot;,Helvetica,sans-serif;text-anchor:middle;" transform="matrix(1 0 0 1 1449.84 322)">Regular</text>
  <text style="stroke:none;fill:black;font-family:-apple-system,&quot;SF Pro Display&quot;,&quot;SF Pro Text&quot;,Helvetica,sans-serif;text-anchor:middle;" transform="matrix(1 0 0 1 1746.56 322)">Medium</text>
  <text style="stroke:none;fill:black;font-family:-apple-system,&quot;SF Pro Display&quot;,&quot;SF Pro Text&quot;,Helvetica,sans-serif;text-anchor:middle;" transform="matrix(1 0 0 1 2043.27 322)">Semibold</text>
  <text style="stroke:none;fill:black;font-family:-apple-system,&quot;SF Pro Display&quot;,&quot;SF Pro Text&quot;,Helvetica,sans-serif;text-anchor:middle;" transform="matrix(1 0 0 1 2339.98 322)">Bold</text>
  <text style="stroke:none;fill:black;font-family:-apple-system,&quot;SF Pro Display&quot;,&quot;SF Pro Text&quot;,Helvetica,sans-serif;text-anchor:middle;" transform="matrix(1 0 0 1 2636.69 322)">Heavy</text>
  <text style="stroke:none;fill:black;font-family:-apple-system,&quot;SF Pro Display&quot;,&quot;SF Pro Text&quot;,Helvetica,sans-serif;text-anchor:middle;" transform="matrix(1 0 0 1 2933.4 322)">Black</text>
  <line id="" style="fill:none;stroke:black;opacity:1;stroke-width:0.5;" x1="263" x2="3036" y1="1903" y2="1903"/>
  <g id="" transform="matrix(1 0 0 1 263 1933)">
   <path d="M 9.24805 0.830078 C 13.5547 0.830078 17.1387 -2.74414 17.1387 -7.05078 C 17.1387 -11.3574 13.5449 -14.9316 9.23828 -14.9316 C 4.94141 -14.9316 1.36719 -11.3574 1.36719 -7.05078 C 1.36719 -2.74414 4.95117 0.830078 9.24805 0.830078 Z M 9.24805 -0.654297 C 5.70312 -0.654297 2.87109 -3.49609 2.87109 -7.05078 C 2.87109 -10.6055 5.69336 -13.4473 9.23828 -13.4473 C 12.793 -13.4473 15.6348 -10.6055 15.6445 -7.05078 C 15.6543 -3.49609 12.8027 -0.654297 9.24805 -0.654297 Z M 9.22852 -3.42773 C 9.69727 -3.42773 9.9707 -3.74023 9.9707 -4.25781 L 9.9707 -6.31836 L 12.1973 -6.31836 C 12.6953 -6.31836 13.0371 -6.57227 13.0371 -7.04102 C 13.0371 -7.51953 12.7148 -7.7832 12.1973 -7.7832 L 9.9707 -7.7832 L 9.9707 -10.0098 C 9.9707 -10.5273 9.69727 -10.8496 9.22852 -10.8496 C 8.75977 -10.8496 8.50586 -10.5078 8.50586 -10.0098 L 8.50586 -7.7832 L 6.29883 -7.7832 C 5.78125 -7.7832 5.44922 -7.51953 5.44922 -7.04102 C 5.44922 -6.57227 5.80078 -6.31836 6.29883 -6.31836 L 8.50586 -6.31836 L 8.50586 -4.25781 C 8.50586 -3.75977 8.75977 -3.42773 9.22852 -3.42773 Z"/>
  </g>
  <g id="" transform="matrix(1 0 0 1 281.506 1933)">
   <path d="M 11.709 2.91016 C 17.1582 2.91016 21.6699 -1.60156 21.6699 -7.05078 C 21.6699 -12.4902 17.1484 -17.0117 11.6992 -17.0117 C 6.25977 -17.0117 1.74805 -12.4902 1.74805 -7.05078 C 1.74805 -1.60156 6.26953 2.91016 11.709 2.91016 Z M 11.709 1.25 C 7.09961 1.25 3.41797 -2.44141 3.41797 -7.05078 C 3.41797 -11.6504 7.08984 -15.3516 11.6992 -15.3516 C 16.3086 -15.3516 20 -11.6504 20.0098 -7.05078 C 20.0195 -2.44141 16.3184 1.25 11.709 1.25 Z M 11.6895 -2.41211 C 12.207 -2.41211 12.5195 -2.77344 12.5195 -3.33984 L 12.5195 -6.23047 L 15.5762 -6.23047 C 16.123 -6.23047 16.5039 -6.51367 16.5039 -7.03125 C 16.5039 -7.55859 16.1426 -7.86133 15.5762 -7.86133 L 12.5195 -7.86133 L 12.5195 -10.9277 C 12.5195 -11.5039 12.207 -11.8555 11.6895 -11.8555 C 11.1719 -11.8555 10.8789 -11.4844 10.8789 -10.9277 L 10.8789 -7.86133 L 7.83203 -7.86133 C 7.26562 -7.86133 6.89453 -7.55859 6.89453 -7.03125 C 6.89453 -6.51367 7.28516 -6.23047 7.83203 -6.23047 L 10.8789 -6.23047 L 10.8789 -3.33984 C 10.8789 -2.79297 11.1719 -2.41211 11.6895 -2.41211 Z"/>
  </g>
  <g id="" transform="matrix(1 0 0 1 304.924 1933)">
   <path d="M 14.9707 5.67383 C 21.9336 5.67383 27.6953 -0.078125 27.6953 -7.04102 C 27.6953 -14.0039 21.9238 -19.7559 14.9609 -19.7559 C 8.00781 -19.7559 2.25586 -14.0039 2.25586 -7.04102 C 2.25586 -0.078125 8.01758 5.67383 14.9707 5.67383 Z M 14.9707 3.85742 C 8.93555 3.85742 4.08203 -1.00586 4.08203 -7.04102 C 4.08203 -13.0762 8.92578 -17.9395 14.9609 -17.9395 C 21.0059 -17.9395 25.8594 -13.0762 25.8691 -7.04102 C 25.8789 -1.00586 21.0156 3.85742 14.9707 3.85742 Z M 14.9512 -1.06445 C 15.5176 -1.06445 15.8691 -1.45508 15.8691 -2.06055 L 15.8691 -6.13281 L 20.1074 -6.13281 C 20.6934 -6.13281 21.1133 -6.46484 21.1133 -7.02148 C 21.1133 -7.59766 20.7227 -7.93945 20.1074 -7.93945 L 15.8691 -7.93945 L 15.8691 -12.1875 C 15.8691 -12.8027 15.5176 -13.1934 14.9512 -13.1934 C 14.3848 -13.1934 14.0625 -12.7832 14.0625 -12.1875 L 14.0625 -7.93945 L 9.83398 -7.93945 C 9.21875 -7.93945 8.80859 -7.59766 8.80859 -7.02148 C 8.80859 -6.46484 9.23828 -6.13281 9.83398 -6.13281 L 14.0625 -6.13281 L 14.0625 -2.06055 C 14.0625 -1.47461 14.3848 -1.06445 14.9512 -1.06445 Z"/>
  </g>
  <text style="stroke:none;fill:black;font-family:-apple-system,&quot;SF Pro Display&quot;,&quot;SF Pro Text&quot;,Helvetica,sans-serif;font-weight:bold;" transform="matrix(1 0 0 1 263 1953)">Design Variations</text>
  <text style="stroke:none;fill:black;font-family:-apple-system,&quot;SF Pro Display&quot;,&quot;SF Pro Text&quot;,Helvetica,sans-serif;" transform="matrix(1 0 0 1 263 1971)">Symbols are supported in up to nine weights and three scales.</text>
  <text style="stroke:none;fill:black;font-family:-apple-system,&quot;SF Pro Display&quot;,&quot;SF Pro Text&quot;,Helvetica,sans-serif;" transform="matrix(1 0 0 1 263 1989)">For optimal layout with text and other symbols, vertically align</text>
  <text style="stroke:none;fill:black;font-family:-apple-system,&quot;SF Pro Display&quot;,&quot;SF Pro Text&quot;,Helvetica,sans-serif;" transform="matrix(1 0 0 1 263 2007)">symbols with the adjacent text.</text>
  <rect height="14" id="" style="fill:#00AEEF;stroke:none;opacity:0.4;" width="3" x="776" y="1919"/>
  <g id="" transform="matrix(1 0 0 1 779 1933)">
   <path d="M 10.5273 0 L 12.373 0 L 7.17773 -14.0918 L 5.43945 -14.0918 L 0.244141 0 L 2.08984 0 L 3.50586 -4.0332 L 9.11133 -4.0332 Z M 6.2793 -11.9531 L 6.33789 -11.9531 L 8.59375 -5.52734 L 4.02344 -5.52734 Z"/>
  </g>
  <rect height="14" id="" style="fill:#00AEEF;stroke:none;opacity:0.4;" width="3" x="791.617" y="1919"/>
  <text style="stroke:none;fill:black;font-family:-apple-system,&quot;SF Pro Display&quot;,&quot;SF Pro Text&quot;,Helvetica,sans-serif;font-weight:bold;" transform="matrix(1 0 0 1 776 1953)">Margins</text>
  <text style="stroke:none;fill:black;font-family:-apple-system,&quot;SF Pro Display&quot;,&quot;SF Pro Text&quot;,Helvetica,sans-serif;" transform="matrix(1 0 0 1 776 1971)">Leading and trailing margins on the left and right side of each symbol</text>
  <text style="stroke:none;fill:black;font-family:-apple-system,&quot;SF Pro Display&quot;,&quot;SF Pro Text&quot;,Helvetica,sans-serif;" transform="matrix(1 0 0 1 776 1989)">can be adjusted by modifying the width of the blue rectangles.</text>
  <text style="stroke:none;fill:black;font-family:-apple-system,&quot;SF Pro Display&quot;,&quot;SF Pro Text&quot;,Helvetica,sans-serif;" transform="matrix(1 0 0 1 776 2007)">Modifications are automatically applied proportionally to all</text>
  <text style="stroke:none;fill:black;font-family:-apple-system,&quot;SF Pro Display&quot;,&quot;SF Pro Text&quot;,Helvetica,sans-serif;" transform="matrix(1 0 0 1 776 2025)">scales and weights.</text>
  <g id="" transform="matrix(1 0 0 1 1289 1933)">
   <path d="M 2.83203 3.11523 L 4.375 4.6582 C 5.22461 5.48828 6.19141 5.41992 7.06055 4.46289 L 17.2754 -6.66016 C 17.7051 -6.36719 18.0957 -6.37695 18.5645 -6.47461 L 19.6094 -6.68945 L 20.3027 -5.99609 L 20.2539 -5.47852 C 20.1855 -4.95117 20.3516 -4.53125 20.8496 -4.0332 L 21.6602 -3.22266 C 22.168 -2.71484 22.8223 -2.68555 23.3008 -3.16406 L 26.5527 -6.41602 C 27.0312 -6.89453 27.0117 -7.54883 26.5039 -8.05664 L 25.6836 -8.87695 C 25.1855 -9.375 24.7754 -9.55078 24.2383 -9.47266 L 23.7109 -9.41406 L 23.0566 -10.0781 L 23.3398 -11.2207 C 23.4863 -11.7871 23.3398 -12.2559 22.7148 -12.8613 L 20.3027 -15.2539 C 16.7578 -18.7793 12.2266 -18.6719 9.11133 -15.5371 C 8.69141 -15.1074 8.64258 -14.5215 8.91602 -14.0918 C 9.15039 -13.7207 9.62891 -13.4961 10.2734 -13.6621 C 11.7871 -14.043 13.3008 -13.9258 14.7852 -12.9199 L 14.1602 -11.3379 C 13.9258 -10.752 13.9453 -10.2734 14.1797 -9.83398 L 3.01758 0.439453 C 2.08008 1.30859 1.97266 2.25586 2.83203 3.11523 Z M 10.6738 -15.1465 C 13.3398 -17.1387 16.6504 -16.8262 19.0527 -14.4141 L 21.6797 -11.8066 C 21.9141 -11.5723 21.9434 -11.3867 21.8848 -11.0938 L 21.5039 -9.53125 L 23.0762 -7.95898 L 24.043 -8.04688 C 24.3262 -8.07617 24.4141 -8.05664 24.6387 -7.83203 L 25.2637 -7.20703 L 22.5098 -4.46289 L 21.8848 -5.07812 C 21.6602 -5.30273 21.6406 -5.40039 21.6699 -5.68359 L 21.7578 -6.64062 L 20.1953 -8.20312 L 18.5742 -7.89062 C 18.291 -7.83203 18.1445 -7.83203 17.9102 -8.07617 L 15.7324 -10.2539 C 15.5078 -10.4883 15.4785 -10.625 15.6055 -10.9473 L 16.5527 -13.2227 C 14.9512 -14.7559 12.8418 -15.6055 10.8008 -14.9512 C 10.7129 -14.9219 10.6445 -14.9414 10.6152 -14.9805 C 10.5859 -15.0293 10.5859 -15.0781 10.6738 -15.1465 Z M 4.10156 2.41211 C 3.61328 1.91406 3.78906 1.61133 4.12109 1.30859 L 15.0781 -8.80859 L 16.3086 -7.57812 L 6.15234 3.34961 C 5.84961 3.68164 5.46875 3.7793 5.06836 3.37891 Z"/>
  </g>
  <text style="stroke:none;fill:black;font-family:-apple-system,&quot;SF Pro Display&quot;,&quot;SF Pro Text&quot;,Helvetica,sans-serif;font-weight:bold;" transform="matrix(1 0 0 1 1289 1953)">Exporting</text>
  <text style="stroke:none;fill:black;font-family:-apple-system,&quot;SF Pro Display&quot;,&quot;SF Pro Text&quot;,Helvetica,sans-serif;" transform="matrix(1 0 0 1 1289 1971)">Symbols should be outlined when exporting to ensure the</text>
  <text style="stroke:none;fill:black;font-family:-apple-system,&quot;SF Pro Display&quot;,&quot;SF Pro Text&quot;,Helvetica,sans-serif;" transform="matrix(1 0 0 1 1289 1989)">design is preserved when submitting to Xcode.</text>
  <text id="template-version" style="stroke:none;fill:black;font-family:-apple-system,&quot;SF Pro Display&quot;,&quot;SF Pro Text&quot;,Helvetica,sans-serif;text-anchor:end;" transform="matrix(1 0 0 1 3036 1933)">Template v.1.0</text>
  <text style="stroke:none;fill:black;font-family:-apple-system,&quot;SF Pro Display&quot;,&quot;SF Pro Text&quot;,Helvetica,sans-serif;text-anchor:end;" transform="matrix(1 0 0 1 3036 1951)">Generated from chevron.down.circle</text>
  <text style="stroke:none;fill:black;font-family:-apple-system,&quot;SF Pro Display&quot;,&quot;SF Pro Text&quot;,Helvetica,sans-serif;text-anchor:end;" transform="matrix(1 0 0 1 3036 1969)">Typeset at 100 points</text>
  <text style="stroke:none;fill:black;font-family:-apple-system,&quot;SF Pro Display&quot;,&quot;SF Pro Text&quot;,Helvetica,sans-serif;" transform="matrix(1 0 0 1 263 726)">Small</text>
  <text style="stroke:none;fill:black;font-family:-apple-system,&quot;SF Pro Display&quot;,&quot;SF Pro Text&quot;,Helvetica,sans-serif;" transform="matrix(1 0 0 1 263 1156)">Medium</text>
  <text style="stroke:none;fill:black;font-family:-apple-system,&quot;SF Pro Display&quot;,&quot;SF Pro Text&quot;,Helvetica,sans-serif;" transform="matrix(1 0 0 1 263 1586)">Large</text>
 </g>
 <g id="Guides">
  <g id="H-reference" style="fill:#27AAE1;stroke:none;" transform="matrix(1 0 0 1 339 696)">
   <path d="M 54.9316 0 L 57.666 0 L 30.5664 -70.459 L 28.0762 -70.459 L 0.976562 0 L 3.66211 0 L 12.9395 -24.4629 L 45.7031 -24.4629 Z M 29.1992 -67.0898 L 29.4434 -67.0898 L 44.8242 -26.709 L 13.8184 -26.709 Z"/>
  </g>
  <line id="Baseline-S" style="fill:none;stroke:#27AAE1;opacity:1;stroke-width:0.577;" x1="263" x2="3036" y1="696" y2="696"/>
  <line id="Capline-S" style="fill:none;stroke:#27AAE1;opacity:1;stroke-width:0.577;" x1="263" x2="3036" y1="625.541" y2="625.541"/>
  <g id="H-reference" style="fill:#27AAE1;stroke:none;" transform="matrix(1 0 0 1 339 1126)">
   <path d="M 54.9316 0 L 57.666 0 L 30.5664 -70.459 L 28.0762 -70.459 L 0.976562 0 L 3.66211 0 L 12.9395 -24.4629 L 45.7031 -24.4629 Z M 29.1992 -67.0898 L 29.4434 -67.0898 L 44.8242 -26.709 L 13.8184 -26.709 Z"/>
  </g>
  <line id="Baseline-M" style="fill:none;stroke:#27AAE1;opacity:1;stroke-width:0.577;" x1="263" x2="3036" y1="1126" y2="1126"/>
  <line id="Capline-M" style="fill:none;stroke:#27AAE1;opacity:1;stroke-width:0.577;" x1="263" x2="3036" y1="1055.54" y2="1055.54"/>
  <g id="H-reference" style="fill:#27AAE1;stroke:none;" transform="matrix(1 0 0 1 339 1556)">
   <path d="M 54.9316 0 L 57.666 0 L 30.5664 -70.459 L 28.0762 -70.459 L 0.976562 0 L 3.66211 0 L 12.9395 -24.4629 L 45.7031 -24.4629 Z M 29.1992 -67.0898 L 29.4434 -67.0898 L 44.8242 -26.709 L 13.8184 -26.709 Z"/>
  </g>
  <line id="Baseline-L" style="fill:none;stroke:#27AAE1;opacity:1;stroke-width:0.577;" x1="263" x2="3036" y1="1556" y2="1556"/>
  <line id="Capline-L" style="fill:none;stroke:#27AAE1;opacity:1;stroke-width:0.577;" x1="263" x2="3036" y1="1485.54" y2="1485.54"/>
  <rect height="119.336" id="left-margin" style="fill:#00AEEF;stroke:none;opacity:0.4;" width="8.74023" x="1391.3" y="1030.79"/>
  <rect height="119.336" id="right-margin" style="fill:#00AEEF;stroke:none;opacity:0.4;" width="8.74023" x="1499.65" y="1030.79"/>
 </g>
 <g id="Symbols">
  <g id="Black-L" transform="matrix(1 0 0 1 2854.05 1556)">
   <path d="M 79.3457 32.8613 C 116.748 32.8613 147.412 2.19727 147.412 -35.2051 C 147.412 -72.6074 116.748 -103.271 79.2969 -103.271 C 41.8945 -103.271 11.2793 -72.6074 11.2793 -35.2051 C 11.2793 2.19727 41.9434 32.8613 79.3457 32.8613 Z M 79.3457 12.4023 C 52.9785 12.4023 31.7383 -8.83789 31.7383 -35.2051 C 31.7383 -61.5723 52.9297 -82.8125 79.2969 -82.8125 C 105.664 -82.8125 126.953 -61.5723 126.953 -35.2051 C 127.002 -8.83789 105.713 12.4023 79.3457 12.4023 Z M 87.7441 -16.3086 L 109.717 -39.9902 C 112.549 -43.0176 112.598 -47.7539 109.912 -50.293 C 106.836 -53.2715 102.197 -53.2715 99.4141 -50.2441 L 79.3457 -28.7109 L 59.2773 -50.2441 C 56.4941 -53.2715 51.8066 -53.2715 48.7793 -50.293 C 46.0938 -47.7539 46.1426 -43.0664 48.9258 -40.0391 L 70.9473 -16.3574 C 75.5371 -11.377 83.1055 -11.3281 87.7441 -16.3086 Z"/>
  </g>
  <g id="Heavy-L" transform="matrix(1 0 0 1 2558.39 1556)">
   <path d="M 78.2715 31.7871 C 115.088 31.7871 145.312 1.61133 145.312 -35.2051 C 145.312 -72.0215 115.039 -102.197 78.2715 -102.197 C 41.4551 -102.197 11.2793 -72.0215 11.2793 -35.2051 C 11.2793 1.61133 41.5039 31.7871 78.2715 31.7871 Z M 78.2715 14.0137 C 51.0254 14.0137 29.0527 -7.95898 29.0527 -35.2051 C 29.0527 -62.5 50.9766 -84.4727 78.2715 -84.4727 C 105.518 -84.4727 127.49 -62.5 127.539 -35.2051 C 127.539 -7.95898 105.566 14.0137 78.2715 14.0137 Z M 85.9375 -16.4551 L 108.789 -40.8691 C 111.328 -43.6035 111.377 -47.8027 108.984 -50.0977 C 106.25 -52.832 102.051 -52.832 99.5605 -50.1465 L 78.2715 -27.3926 L 57.0312 -50.1465 C 54.4922 -52.832 50.293 -52.832 47.6074 -50.0977 C 45.2148 -47.8027 45.2148 -43.6523 47.7539 -40.918 L 70.6055 -16.5039 C 74.9512 -11.8652 81.6406 -11.8164 85.9375 -16.4551 Z"/>
  </g>
  <g id="Bold-L" transform="matrix(1 0 0 1 2262.88 1556)">
   <path d="M 77.0996 30.6152 C 113.232 30.6152 142.92 0.878906 142.92 -35.2051 C 142.92 -71.3379 113.184 -101.025 77.0508 -101.025 C 40.9668 -101.025 11.2793 -71.3379 11.2793 -35.2051 C 11.2793 0.878906 41.0156 30.6152 77.0996 30.6152 Z M 77.0996 15.8691 C 48.8281 15.8691 26.0742 -6.93359 26.0742 -35.2051 C 26.0742 -63.4766 48.7793 -86.2793 77.0508 -86.2793 C 105.371 -86.2793 128.125 -63.4766 128.174 -35.2051 C 128.174 -6.93359 105.371 15.8691 77.0996 15.8691 Z M 83.9844 -16.6504 L 107.764 -41.8945 C 109.961 -44.2871 110.01 -47.9004 107.91 -49.9512 C 105.615 -52.2949 101.904 -52.3438 99.7559 -49.9512 L 77.0996 -25.9766 L 54.4922 -49.9512 C 52.2949 -52.3438 48.6328 -52.2949 46.2891 -49.9512 C 44.1895 -47.9004 44.2383 -44.3359 46.4355 -41.9434 L 70.2637 -16.6504 C 74.2188 -12.3535 79.9805 -12.3535 83.9844 -16.6504 Z"/>
  </g>
  <g id="Semibold-L" transform="matrix(1 0 0 1 1966.97 1556)">
   <path d="M 76.2695 29.7852 C 111.914 29.7852 141.309 0.439453 141.309 -35.2051 C 141.309 -70.8496 111.865 -100.244 76.2695 -100.244 C 40.625 -100.244 11.2793 -70.8496 11.2793 -35.2051 C 11.2793 0.439453 40.6738 29.7852 76.2695 29.7852 Z M 76.2695 17.0898 C 47.3145 17.0898 24.0234 -6.25 24.0234 -35.2051 C 24.0234 -64.209 47.2656 -87.5 76.2695 -87.5 C 105.225 -87.5 128.564 -64.209 128.613 -35.2051 C 128.662 -6.25 105.273 17.0898 76.2695 17.0898 Z M 82.5684 -16.748 L 107.031 -42.5781 C 109.033 -44.7754 109.082 -47.9492 107.227 -49.8047 C 105.127 -51.9531 101.807 -52.002 99.8535 -49.8535 L 76.2695 -24.9512 L 52.7344 -49.8535 C 50.7812 -52.002 47.4609 -51.9531 45.3613 -49.8047 C 43.457 -47.9492 43.5547 -44.7754 45.5566 -42.627 L 69.9707 -16.748 C 73.7305 -12.7441 78.8086 -12.7441 82.5684 -16.748 Z"/>
  </g>
  <g id="Medium-L" transform="matrix(1 0 0 1 1670.87 1556)">
   <path d="M 75.6836 29.1992 C 110.938 29.1992 140.088 0.0488281 140.088 -35.2051 C 140.088 -70.459 110.889 -99.6094 75.6348 -99.6094 C 40.3809 -99.6094 11.2793 -70.459 11.2793 -35.2051 C 11.2793 0.0488281 40.3809 29.1992 75.6836 29.1992 Z M 75.6836 18.0664 C 46.1426 18.0664 22.4609 -5.71289 22.4609 -35.2051 C 22.4609 -64.6973 46.1426 -88.4766 75.6348 -88.4766 C 105.127 -88.4766 128.906 -64.6973 128.906 -35.2051 C 128.955 -5.71289 105.176 18.0664 75.6836 18.0664 Z M 81.543 -16.8457 L 106.494 -43.1152 C 108.35 -45.1172 108.398 -47.998 106.641 -49.7559 C 104.785 -51.6602 101.758 -51.709 99.9512 -49.8047 L 75.6836 -24.2188 L 51.3672 -49.8047 C 49.6094 -51.709 46.582 -51.6602 44.6777 -49.7559 C 42.9688 -47.998 43.0176 -45.1172 44.873 -43.1641 L 69.8242 -16.8457 C 73.3887 -12.9883 77.9785 -13.0371 81.543 -16.8457 Z"/>
  </g>
  <g id="Regular-L" transform="matrix(1 0 0 1 1374.97 1556)">
   <path d="M 74.8535 28.3691 C 109.668 28.3691 138.477 -0.390625 138.477 -35.2051 C 138.477 -70.0195 109.619 -98.7793 74.8047 -98.7793 C 40.0391 -98.7793 11.2793 -70.0195 11.2793 -35.2051 C 11.2793 -0.390625 40.0879 28.3691 74.8535 28.3691 Z M 74.8535 19.2871 C 44.6777 19.2871 20.4102 -5.0293 20.4102 -35.2051 C 20.4102 -65.3809 44.6289 -89.6973 74.8047 -89.6973 C 105.029 -89.6973 129.297 -65.3809 129.346 -35.2051 C 129.395 -5.0293 105.078 19.2871 74.8535 19.2871 Z M 80.1758 -16.9434 L 105.811 -43.8477 C 107.422 -45.5566 107.471 -48.0469 105.957 -49.6094 C 104.346 -51.3184 101.66 -51.3672 100.098 -49.6582 L 74.8535 -23.1934 L 49.6582 -49.6582 C 48.0957 -51.3672 45.4102 -51.3184 43.7988 -49.6094 C 42.2363 -48.0469 42.334 -45.5566 43.9453 -43.8477 L 69.5312 -16.9434 C 72.9004 -13.3789 76.8066 -13.3789 80.1758 -16.9434 Z"/>
  </g>
  <g id="Light-L" transform="matrix(1 0 0 1 1079.18 1556)">
   <path d="M 73.9258 27.4902 C 108.301 27.4902 136.621 -0.830078 136.621 -35.1562 C 136.621 -69.5312 108.252 -97.8516 73.9258 -97.8516 C 39.5508 -97.8516 11.2793 -69.5312 11.2793 -35.1562 C 11.2793 -0.830078 39.5996 27.4902 73.9258 27.4902 Z M 73.9258 20.6055 C 43.1152 20.6055 18.2129 -4.3457 18.2129 -35.1562 C 18.2129 -66.0156 43.0664 -90.918 73.9258 -90.918 C 104.736 -90.918 129.688 -66.0156 129.736 -35.1562 C 129.736 -4.3457 104.785 20.6055 73.9258 20.6055 Z M 78.0273 -17.0898 L 104.785 -44.8242 C 106.055 -46.1914 106.152 -48.1445 104.883 -49.4141 C 103.662 -50.6836 101.514 -50.7812 100.293 -49.4141 L 73.9258 -22.0703 L 47.6074 -49.4141 C 46.3379 -50.7812 44.2383 -50.6836 43.0176 -49.4141 C 41.748 -48.1445 41.7969 -46.1914 43.1152 -44.8242 L 69.873 -17.0898 C 72.4609 -14.3066 75.4395 -14.3555 78.0273 -17.0898 Z"/>
  </g>
  <g id="Thin-L" transform="matrix(1 0 0 1 783.693 1556)">
   <path d="M 72.7051 26.3184 C 106.494 26.3184 134.18 -1.36719 134.18 -35.1074 C 134.18 -68.8965 106.494 -96.582 72.7051 -96.582 C 38.9648 -96.582 11.2793 -68.8965 11.2793 -35.1074 C 11.2793 -1.36719 38.9648 26.3184 72.7051 26.3184 Z M 72.7051 22.3145 C 41.0156 22.3145 15.2832 -3.41797 15.2832 -35.1074 C 15.2832 -66.8457 41.0156 -92.5781 72.7051 -92.5781 C 104.395 -92.5781 130.176 -66.8457 130.176 -35.1074 C 130.176 -3.41797 104.443 22.3145 72.7051 22.3145 Z M 75.1465 -17.2363 L 103.467 -46.0938 C 104.297 -47.0215 104.395 -48.1934 103.467 -49.1211 C 102.783 -49.8047 101.367 -49.9512 100.537 -49.0234 L 72.7051 -20.5566 L 44.873 -49.0234 C 44.043 -49.9512 42.6758 -49.8047 41.9434 -49.1211 C 41.0645 -48.1934 41.1133 -47.0215 41.9922 -46.0938 L 70.2637 -17.2363 C 71.8262 -15.5762 73.584 -15.625 75.1465 -17.2363 Z"/>
  </g>
  <g id="Ultralight-L" transform="matrix(1 0 0 1 487.616 1556)">
   <path d="M 72.1191 25.7324 C 105.566 25.7324 132.91 -1.61133 132.91 -35.1074 C 132.91 -68.5547 105.566 -95.8984 72.1191 -95.8984 C 38.623 -95.8984 11.2793 -68.5547 11.2793 -35.1074 C 11.2793 -1.61133 38.623 25.7324 72.1191 25.7324 Z M 72.1191 23.2422 C 39.9414 23.2422 13.7695 -2.97852 13.7695 -35.1074 C 13.7695 -67.2363 39.9414 -93.4082 72.1191 -93.4082 C 104.248 -93.4082 130.42 -67.2363 130.42 -35.1074 C 130.42 -2.97852 104.248 23.2422 72.1191 23.2422 Z M 73.6816 -17.2852 L 102.783 -46.7773 C 103.418 -47.4609 103.467 -48.2422 102.783 -48.9258 C 102.344 -49.3652 101.318 -49.5605 100.684 -48.8281 L 72.1191 -19.7754 L 43.5059 -48.8281 C 42.8711 -49.5605 41.8457 -49.3652 41.4062 -48.9258 C 40.7227 -48.2422 40.7715 -47.4609 41.4062 -46.7773 L 70.5078 -17.2852 C 71.5332 -16.2109 72.6562 -16.2598 73.6816 -17.2852 Z"/>
  </g>
  <g id="Black-M" transform="matrix(1 0 0 1 2870.97 1126)">
   <path d="M 62.4023 18.457 C 91.9922 18.457 116.113 -5.61523 116.113 -35.2051 C 116.113 -64.7949 91.9922 -88.8672 62.4023 -88.8672 C 32.8125 -88.8672 8.74023 -64.7949 8.74023 -35.2051 C 8.74023 -5.61523 32.8125 18.457 62.4023 18.457 Z M 62.4023 0.195312 C 42.8711 0.195312 27.002 -15.625 27.002 -35.2051 C 27.002 -54.7363 42.8711 -70.6055 62.4023 -70.6055 C 81.9824 -70.6055 97.8027 -54.7363 97.8027 -35.2051 C 97.8027 -15.625 81.9824 0.195312 62.4023 0.195312 Z M 69.2383 -20.4102 L 85.791 -38.1836 C 88.1348 -40.7715 88.1348 -44.873 85.8887 -46.9727 C 83.252 -49.5117 79.2969 -49.5117 76.9043 -46.9238 L 62.4023 -31.2988 L 47.9004 -46.9238 C 45.5078 -49.5117 41.5527 -49.5117 38.916 -46.9727 C 36.6699 -44.873 36.6699 -40.8203 39.0625 -38.2812 L 55.6152 -20.459 C 59.1309 -16.6016 65.6738 -16.5527 69.2383 -20.4102 Z"/>
  </g>
  <g id="Heavy-M" transform="matrix(1 0 0 1 2575.19 1126)">
   <path d="M 61.5234 17.5781 C 90.5273 17.5781 114.258 -6.15234 114.258 -35.2051 C 114.258 -64.2578 90.5273 -87.9883 61.4746 -87.9883 C 32.4707 -87.9883 8.74023 -64.2578 8.74023 -35.2051 C 8.74023 -6.15234 32.4707 17.5781 61.5234 17.5781 Z M 61.5234 1.66016 C 41.1133 1.66016 24.6582 -14.8438 24.6582 -35.2051 C 24.6582 -55.5664 41.1133 -72.0703 61.4746 -72.0703 C 81.8848 -72.0703 98.3398 -55.5664 98.3398 -35.2051 C 98.3398 -14.8438 81.8848 1.66016 61.5234 1.66016 Z M 67.8711 -20.5566 L 85.0098 -38.916 C 87.1582 -41.2598 87.207 -44.9219 85.1562 -46.875 C 82.7637 -49.1699 79.1992 -49.1699 77.0508 -46.8262 L 61.5234 -30.1758 L 45.9473 -46.8262 C 43.7988 -49.1699 40.2344 -49.1699 37.8418 -46.875 C 35.8398 -44.9219 35.8398 -41.3086 37.9883 -38.9648 L 55.1758 -20.6055 C 58.5938 -16.8945 64.4043 -16.8457 67.8711 -20.5566 Z"/>
  </g>
  <g id="Bold-M" transform="matrix(1 0 0 1 2279.5 1126)">
   <path d="M 60.498 16.5039 C 88.8672 16.5039 112.207 -6.78711 112.207 -35.2051 C 112.207 -63.623 88.8672 -86.9629 60.4492 -86.9629 C 32.0312 -86.9629 8.74023 -63.623 8.74023 -35.2051 C 8.74023 -6.78711 32.0801 16.5039 60.498 16.5039 Z M 60.498 3.22266 C 39.1602 3.22266 22.0703 -13.916 22.0703 -35.2051 C 22.0703 -56.4941 39.1602 -73.6816 60.4492 -73.6816 C 81.7383 -73.6816 98.9258 -56.4941 98.9258 -35.2051 C 98.9746 -13.916 81.7871 3.22266 60.498 3.22266 Z M 66.3086 -20.7031 L 84.1797 -39.7461 C 86.084 -41.8457 86.084 -45.0195 84.2773 -46.7285 C 82.2266 -48.7793 79.0527 -48.7793 77.1973 -46.7773 L 60.498 -28.9551 L 43.7988 -46.7773 C 41.8945 -48.7793 38.7207 -48.7793 36.6699 -46.7285 C 34.8633 -45.0195 34.9121 -41.8457 36.8164 -39.7949 L 54.6387 -20.752 C 57.959 -17.1875 62.9883 -17.1387 66.3086 -20.7031 Z"/>
  </g>
  <g id="Semibold-M" transform="matrix(1 0 0 1 1983.5 1126)">
   <path d="M 59.7656 15.8203 C 87.7441 15.8203 110.791 -7.22656 110.791 -35.2051 C 110.791 -63.1836 87.6953 -86.2793 59.7656 -86.2793 C 31.7871 -86.2793 8.74023 -63.1836 8.74023 -35.2051 C 8.74023 -7.22656 31.7871 15.8203 59.7656 15.8203 Z M 59.7656 4.3457 C 37.8418 4.3457 20.2637 -13.2812 20.2637 -35.2051 C 20.2637 -57.1289 37.793 -74.8047 59.7656 -74.8047 C 81.6895 -74.8047 99.3164 -57.1289 99.3652 -35.2051 C 99.3652 -13.2812 81.6895 4.3457 59.7656 4.3457 Z M 65.2344 -20.8008 L 83.5938 -40.332 C 85.3027 -42.2363 85.3516 -45.0684 83.6914 -46.6797 C 81.8848 -48.5352 79.0039 -48.5352 77.2949 -46.6797 L 59.7656 -28.0762 L 42.2852 -46.6797 C 40.5762 -48.5352 37.6953 -48.5352 35.8398 -46.6797 C 34.1797 -45.0684 34.2285 -42.2363 35.9863 -40.3809 L 54.2969 -20.8496 C 57.5195 -17.3828 62.0117 -17.3828 65.2344 -20.8008 Z"/>
  </g>
  <g id="Medium-M" transform="matrix(1 0 0 1 1687.3 1126)">
   <path d="M 59.2285 15.2832 C 86.9141 15.2832 109.766 -7.56836 109.766 -35.2051 C 109.766 -62.8906 86.8652 -85.7422 59.1797 -85.7422 C 31.543 -85.7422 8.74023 -62.8906 8.74023 -35.2051 C 8.74023 -7.56836 31.5918 15.2832 59.2285 15.2832 Z M 59.2285 5.17578 C 36.8164 5.17578 18.8965 -12.8418 18.8965 -35.2051 C 18.8965 -57.6172 36.8164 -75.6348 59.1797 -75.6348 C 81.5918 -75.6348 99.6094 -57.6172 99.6582 -35.2051 C 99.707 -12.8418 81.6406 5.17578 59.2285 5.17578 Z M 64.4531 -20.8984 L 83.1055 -40.7715 C 84.7168 -42.5293 84.7656 -45.1172 83.252 -46.582 C 81.5918 -48.3398 78.9062 -48.3398 77.3438 -46.6309 L 59.2285 -27.4414 L 41.1133 -46.6309 C 39.5508 -48.3398 36.8652 -48.3398 35.2051 -46.582 C 33.6914 -45.1172 33.7402 -42.5293 35.3516 -40.7715 L 54.0527 -20.8984 C 57.1777 -17.5293 61.2793 -17.5293 64.4531 -20.8984 Z"/>
  </g>
  <g id="Regular-M" transform="matrix(1 0 0 1 1391.3 1126)">
   <path d="M 58.5449 14.5508 C 85.791 14.5508 108.35 -8.00781 108.35 -35.2539 C 108.35 -62.4512 85.7422 -85.0586 58.4961 -85.0586 C 31.2988 -85.0586 8.74023 -62.4512 8.74023 -35.2539 C 8.74023 -8.00781 31.3477 14.5508 58.5449 14.5508 Z M 58.5449 6.25 C 35.498 6.25 17.0898 -12.207 17.0898 -35.2539 C 17.0898 -58.252 35.4492 -76.7578 58.4961 -76.7578 C 81.543 -76.7578 100 -58.252 100.049 -35.2539 C 100.098 -12.207 81.5918 6.25 58.5449 6.25 Z M 63.3789 -20.9961 L 82.5684 -41.3574 C 83.9844 -42.8711 84.0332 -45.166 82.7148 -46.4844 C 81.25 -48.0469 78.8574 -48.0957 77.4414 -46.582 L 58.5449 -26.5625 L 39.6484 -46.582 C 38.2812 -48.0957 35.8398 -48.0469 34.375 -46.4844 C 33.0566 -45.166 33.1055 -42.8711 34.5215 -41.3574 L 53.7109 -20.9961 C 56.7871 -17.7734 60.3516 -17.7734 63.3789 -20.9961 Z"/>
  </g>
  <g id="Light-M" transform="matrix(1 0 0 1 1095.42 1126)">
   <path d="M 57.7148 13.7695 C 84.5215 13.7695 106.689 -8.39844 106.689 -35.2051 C 106.689 -62.0117 84.5215 -84.1797 57.666 -84.1797 C 30.8594 -84.1797 8.74023 -62.0117 8.74023 -35.2051 C 8.74023 -8.39844 30.9082 13.7695 57.7148 13.7695 Z M 57.7148 7.4707 C 34.082 7.4707 15.0879 -11.5723 15.0879 -35.2051 C 15.0879 -58.8379 34.082 -77.832 57.666 -77.832 C 81.2988 -77.832 100.342 -58.8379 100.391 -35.2051 C 100.391 -11.5723 81.3477 7.4707 57.7148 7.4707 Z M 61.4258 -21.0938 L 81.6406 -42.2363 C 82.8125 -43.457 82.8613 -45.2148 81.7383 -46.2891 C 80.6152 -47.4609 78.7598 -47.5586 77.6367 -46.3379 L 57.7148 -25.5371 L 37.793 -46.3379 C 36.7188 -47.5586 34.8145 -47.4609 33.6914 -46.2891 C 32.5684 -45.2148 32.6172 -43.457 33.7891 -42.2363 L 54.0039 -21.0938 C 56.3477 -18.6035 59.082 -18.6035 61.4258 -21.0938 Z"/>
  </g>
  <g id="Thin-M" transform="matrix(1 0 0 1 799.806 1126)">
   <path d="M 56.6406 12.7441 C 82.9102 12.7441 104.492 -8.83789 104.492 -35.1562 C 104.492 -61.4746 82.9102 -83.0566 56.5918 -83.0566 C 30.3223 -83.0566 8.74023 -61.4746 8.74023 -35.1562 C 8.74023 -8.83789 30.3223 12.7441 56.6406 12.7441 Z M 56.6406 8.98438 C 32.2266 8.98438 12.4512 -10.791 12.4512 -35.1562 C 12.4512 -59.5215 32.2266 -79.2969 56.5918 -79.2969 C 81.0059 -79.2969 100.781 -59.5215 100.781 -35.1562 C 100.781 -10.791 81.0059 8.98438 56.6406 8.98438 Z M 58.8867 -21.2402 L 80.4688 -43.3594 C 81.2012 -44.1895 81.2988 -45.2637 80.5176 -46.0449 C 79.834 -46.7285 78.6133 -46.8262 77.8809 -45.9961 L 56.6406 -24.1699 L 35.3516 -45.9961 C 34.6191 -46.8262 33.3984 -46.7285 32.7637 -46.0449 C 31.9824 -45.2637 32.0312 -44.1895 32.7637 -43.3594 L 54.3945 -21.2402 C 55.8105 -19.7266 57.4219 -19.7754 58.8867 -21.2402 Z"/>
  </g>
  <g id="Ultralight-M" transform="matrix(1 0 0 1 503.656 1126)">
   <path d="M 56.0547 12.207 C 82.0801 12.207 103.369 -9.08203 103.369 -35.1562 C 103.369 -61.1816 82.0801 -82.4707 56.0547 -82.4707 C 30.0293 -82.4707 8.74023 -61.1816 8.74023 -35.1562 C 8.74023 -9.08203 30.0293 12.207 56.0547 12.207 Z M 56.0547 9.81445 C 31.2988 9.81445 11.1328 -10.3516 11.1328 -35.1562 C 11.1328 -59.9121 31.2988 -80.0781 56.0547 -80.0781 C 80.8594 -80.0781 100.977 -59.9121 100.977 -35.1562 C 100.977 -10.3516 80.8594 9.81445 56.0547 9.81445 Z M 57.5684 -21.2891 L 79.8828 -43.9941 C 80.4199 -44.5801 80.4688 -45.3125 79.8828 -45.8984 C 79.4434 -46.3379 78.5156 -46.4355 77.9785 -45.8496 L 56.0547 -23.4863 L 34.1309 -45.8496 C 33.5938 -46.4355 32.666 -46.3379 32.2754 -45.8984 C 31.6406 -45.3125 31.6895 -44.5801 32.2754 -43.9941 L 54.541 -21.2891 C 55.5176 -20.2637 56.5918 -20.3613 57.5684 -21.2891 Z"/>
  </g>
  <g id="Black-S" transform="matrix(1 0 0 1 2884.57 696)">
   <path d="M 48.8281 6.78711 C 71.9727 6.78711 90.8203 -12.0605 90.8203 -35.2051 C 90.8203 -58.3496 71.9727 -77.1973 48.8281 -77.1973 C 25.6836 -77.1973 6.83594 -58.3496 6.83594 -35.2051 C 6.83594 -12.0605 25.6836 6.78711 48.8281 6.78711 Z M 48.8281 -7.37305 C 33.4473 -7.37305 20.9961 -19.8242 20.9961 -35.2051 C 20.9961 -50.5859 33.4473 -63.0371 48.8281 -63.0371 C 64.209 -63.0371 76.6602 -50.5859 76.6602 -35.2051 C 76.6602 -19.8242 64.209 -7.37305 48.8281 -7.37305 Z M 54.1504 -23.6328 L 67.1387 -37.5977 C 68.9941 -39.5996 68.9941 -42.7734 67.2363 -44.4336 C 65.1855 -46.3867 62.1094 -46.3867 60.2539 -44.3848 L 48.8281 -32.0801 L 37.4023 -44.3848 C 35.5469 -46.3867 32.4707 -46.3867 30.4199 -44.4336 C 28.6621 -42.7734 28.6621 -39.6484 30.5176 -37.6465 L 43.5059 -23.6816 C 46.2891 -20.6543 51.3672 -20.6055 54.1504 -23.6328 Z"/>
  </g>
  <g id="Heavy-S" transform="matrix(1 0 0 1 2588.47 696)">
   <path d="M 48.2422 6.15234 C 70.9961 6.15234 89.5996 -12.4512 89.5996 -35.2051 C 89.5996 -57.959 70.9961 -76.6113 48.1934 -76.6113 C 25.4395 -76.6113 6.83594 -57.959 6.83594 -35.2051 C 6.83594 -12.4512 25.4395 6.15234 48.2422 6.15234 Z M 48.2422 -6.39648 C 32.2754 -6.39648 19.4336 -19.2871 19.4336 -35.2051 C 19.4336 -51.1719 32.2754 -64.0137 48.1934 -64.0137 C 64.1602 -64.0137 77.002 -51.1719 77.0508 -35.2051 C 77.0508 -19.2871 64.1602 -6.39648 48.2422 -6.39648 Z M 53.3203 -23.7305 L 66.6504 -38.0859 C 68.3594 -39.9414 68.4082 -42.8223 66.748 -44.3848 C 64.8926 -46.1914 62.0605 -46.1914 60.3516 -44.3359 L 48.2422 -31.3477 L 36.1328 -44.3359 C 34.4238 -46.1914 31.543 -46.1914 29.6875 -44.3848 C 28.0762 -42.8223 28.0762 -39.9414 29.7852 -38.0859 L 43.1152 -23.7793 C 45.8984 -20.752 50.5371 -20.752 53.3203 -23.7305 Z"/>
  </g>
  <g id="Bold-S" transform="matrix(1 0 0 1 2292.44 696)">
   <path d="M 47.5586 5.46875 C 69.873 5.46875 88.2324 -12.8906 88.2324 -35.2051 C 88.2324 -57.5684 69.873 -75.9277 47.5098 -75.9277 C 25.1953 -75.9277 6.83594 -57.5684 6.83594 -35.2051 C 6.83594 -12.8906 25.1953 5.46875 47.5586 5.46875 Z M 47.5586 -5.32227 C 30.957 -5.32227 17.6758 -18.6523 17.6758 -35.2051 C 17.6758 -51.8066 30.957 -65.1367 47.5098 -65.1367 C 64.1113 -65.1367 77.4414 -51.8066 77.4414 -35.2051 C 77.4414 -18.6523 64.1113 -5.32227 47.5586 -5.32227 Z M 52.3438 -23.8281 L 66.1133 -38.5742 C 67.6758 -40.2832 67.7246 -42.8711 66.2598 -44.2871 C 64.5508 -45.9961 61.9629 -45.9961 60.4004 -44.3359 L 47.5586 -30.5176 L 34.668 -44.3359 C 33.1543 -45.9961 30.5176 -45.9961 28.8574 -44.2871 C 27.3926 -42.8711 27.3926 -40.2832 28.9551 -38.623 L 42.7246 -23.877 C 45.459 -20.8984 49.6094 -20.8496 52.3438 -23.8281 Z"/>
  </g>
  <g id="Semibold-S" transform="matrix(1 0 0 1 1996.2 696)">
   <path d="M 47.0703 4.98047 C 69.0918 4.98047 87.3047 -13.1836 87.3047 -35.2539 C 87.3047 -57.2754 69.0918 -75.4883 47.0215 -75.4883 C 25 -75.4883 6.83594 -57.2754 6.83594 -35.2539 C 6.83594 -13.1836 25.0488 4.98047 47.0703 4.98047 Z M 47.0703 -4.58984 C 30.0781 -4.58984 16.4551 -18.2129 16.4551 -35.2539 C 16.4551 -52.2461 30.0293 -65.8691 47.0215 -65.8691 C 64.0625 -65.8691 77.6855 -52.2461 77.7344 -35.2539 C 77.7344 -18.2129 64.0625 -4.58984 47.0703 -4.58984 Z M 51.709 -23.9258 L 65.7227 -38.9648 C 67.1875 -40.5273 67.2363 -42.9199 65.8691 -44.2383 C 64.3066 -45.8496 61.9141 -45.8496 60.4492 -44.2871 L 47.0703 -29.9316 L 33.6914 -44.2871 C 32.2754 -45.8496 29.834 -45.8496 28.2715 -44.2383 C 26.9043 -42.9199 26.9531 -40.5273 28.418 -38.9648 L 42.4316 -23.9258 C 45.166 -20.9961 48.9746 -20.9473 51.709 -23.9258 Z"/>
  </g>
  <g id="Medium-S" transform="matrix(1 0 0 1 1699.83 696)">
   <path d="M 46.7285 4.63867 C 68.5547 4.63867 86.6211 -13.4277 86.6211 -35.2539 C 86.6211 -57.0312 68.5059 -75.1465 46.6797 -75.1465 C 24.8535 -75.1465 6.83594 -57.0312 6.83594 -35.2539 C 6.83594 -13.4277 24.9023 4.63867 46.7285 4.63867 Z M 46.7285 -4.00391 C 29.3945 -4.00391 15.5273 -17.9199 15.5273 -35.2539 C 15.5273 -52.5879 29.3457 -66.4551 46.6797 -66.4551 C 64.0137 -66.4551 77.8809 -52.5879 77.9297 -35.2539 C 77.9785 -17.9199 64.0625 -4.00391 46.7285 -4.00391 Z M 51.2207 -23.9746 L 65.4785 -39.209 C 66.8457 -40.7227 66.8945 -42.9199 65.5762 -44.1895 C 64.1602 -45.7031 61.8652 -45.7031 60.498 -44.2871 L 46.7285 -29.4922 L 32.9102 -44.2871 C 31.5918 -45.7031 29.2969 -45.7031 27.832 -44.1895 C 26.5625 -42.9199 26.6113 -40.7227 27.9785 -39.2578 L 42.2363 -23.9746 C 44.9707 -21.0449 48.4863 -21.0449 51.2207 -23.9746 Z"/>
  </g>
  <g id="Regular-S" transform="matrix(1 0 0 1 1403.58 696)">
   <path d="M 46.2402 4.15039 C 67.7734 4.15039 85.6934 -13.7207 85.6934 -35.2539 C 85.6934 -56.7871 67.7246 -74.6582 46.1914 -74.6582 C 24.707 -74.6582 6.83594 -56.7871 6.83594 -35.2539 C 6.83594 -13.7207 24.7559 4.15039 46.2402 4.15039 Z M 46.2402 -3.27148 C 28.5156 -3.27148 14.3555 -17.4805 14.3555 -35.2539 C 14.3555 -53.0273 28.4668 -67.2363 46.1914 -67.2363 C 63.9648 -67.2363 78.1738 -53.0273 78.2227 -35.2539 C 78.2715 -17.4805 64.0137 -3.27148 46.2402 -3.27148 Z M 50.5859 -24.0234 L 65.0879 -39.5996 C 66.3574 -40.9668 66.4062 -42.9688 65.2344 -44.1406 C 63.916 -45.5566 61.8164 -45.5566 60.5957 -44.2383 L 46.2402 -28.9551 L 31.9336 -44.2383 C 30.7129 -45.5566 28.6133 -45.5566 27.2949 -44.1406 C 26.123 -42.9688 26.1719 -40.9668 27.4414 -39.5996 L 41.9434 -24.0234 C 44.6777 -21.1426 47.8516 -21.1426 50.5859 -24.0234 Z"/>
  </g>
  <g id="Light-S" transform="matrix(1 0 0 1 1107.6 696)">
   <path d="M 45.5078 3.4668 C 66.6992 3.4668 84.2285 -14.0625 84.2285 -35.2051 C 84.2285 -56.3965 66.6504 -73.9258 45.5078 -73.9258 C 24.3164 -73.9258 6.83594 -56.3965 6.83594 -35.2051 C 6.83594 -14.0625 24.3652 3.4668 45.5078 3.4668 Z M 45.5078 -2.24609 C 27.2461 -2.24609 12.5977 -16.9434 12.5977 -35.2051 C 12.5977 -53.5156 27.1973 -68.2129 45.5078 -68.2129 C 63.7695 -68.2129 78.4668 -53.5156 78.5156 -35.2051 C 78.5156 -16.9434 63.8184 -2.24609 45.5078 -2.24609 Z M 48.877 -24.1211 L 64.3066 -40.3809 C 65.332 -41.4551 65.3809 -43.0176 64.4043 -43.9941 C 63.3789 -45.0684 61.7188 -45.0684 60.7422 -44.043 L 45.5078 -28.0273 L 30.3223 -44.043 C 29.3457 -45.0684 27.6367 -45.0684 26.6602 -43.9941 C 25.6836 -43.0176 25.7324 -41.4551 26.7578 -40.3809 L 42.1875 -24.1211 C 44.2871 -21.875 46.7773 -21.875 48.877 -24.1211 Z"/>
  </g>
  <g id="Thin-S" transform="matrix(1 0 0 1 811.867 696)">
   <path d="M 44.5801 2.53906 C 65.2832 2.53906 82.2754 -14.4531 82.2754 -35.2051 C 82.2754 -55.9082 65.2344 -72.9004 44.5312 -72.9004 C 23.8281 -72.9004 6.83594 -55.9082 6.83594 -35.2051 C 6.83594 -14.4531 23.877 2.53906 44.5801 2.53906 Z M 44.5801 -0.878906 C 25.5859 -0.878906 10.2539 -16.2109 10.2539 -35.2051 C 10.2539 -54.1504 25.5859 -69.4824 44.5312 -69.4824 C 63.5254 -69.4824 78.8574 -54.1504 78.8574 -35.2051 C 78.8574 -16.2109 63.5254 -0.878906 44.5801 -0.878906 Z M 46.582 -24.2188 L 63.2812 -41.4062 C 63.916 -42.0898 63.9648 -43.0664 63.2812 -43.75 C 62.6953 -44.3848 61.6211 -44.4336 60.9375 -43.75 L 44.5801 -26.8555 L 28.1738 -43.75 C 27.5391 -44.4336 26.416 -44.3848 25.8301 -43.75 C 25.1465 -43.0664 25.1953 -42.0898 25.8789 -41.4062 L 42.5293 -24.2188 C 43.7988 -22.8516 45.3125 -22.9004 46.582 -24.2188 Z"/>
  </g>
  <g id="Ultralight-S" transform="matrix(1 0 0 1 515.644 696)">
   <path d="M 44.043 2.05078 C 64.502 2.05078 81.2988 -14.6973 81.2988 -35.1562 C 81.2988 -55.6152 64.502 -72.3633 44.043 -72.3633 C 23.584 -72.3633 6.83594 -55.6152 6.83594 -35.1562 C 6.83594 -14.6973 23.584 2.05078 44.043 2.05078 Z M 44.043 -0.146484 C 24.7559 -0.146484 9.08203 -15.8691 9.08203 -35.1562 C 9.08203 -54.4434 24.7559 -70.166 44.043 -70.166 C 63.3789 -70.166 79.0527 -54.4434 79.0527 -35.1562 C 79.0527 -15.8691 63.3789 -0.146484 44.043 -0.146484 Z M 45.4102 -24.3164 L 62.7441 -41.9434 C 63.1836 -42.4316 63.2324 -43.1152 62.7441 -43.6523 C 62.3535 -44.043 61.5234 -44.1406 61.0352 -43.6035 L 44.043 -26.2207 L 27.0508 -43.6035 C 26.5625 -44.1406 25.7812 -44.043 25.3906 -43.6523 C 24.8535 -43.1152 24.9023 -42.4316 25.3906 -41.9434 L 42.6758 -24.3164 C 43.5547 -23.3887 44.5801 -23.4375 45.4102 -24.3164 Z"/>
  </g>
 </g>
</svg>
